<?xml version="1.0"?>
<svg xmlns="http://www.w3.org/2000/svg" height="512px" viewBox="0 0 512.00042 512" width="512px"><g><path d="m3.183594 386.238281c2.84375 3.636719 7.199218 5.761719 11.816406 5.761719h482c4.617188 0 8.972656-2.125 11.816406-5.761719s3.855469-8.378906 2.742188-12.855469l-90-362c-1.664063-6.6875-7.667969-11.382812-14.558594-11.382812h-302c-6.890625 0-12.894531 4.695312-14.558594 11.382812l-90 362c-1.113281 4.476563-.101562 9.21875 2.742188 12.855469zm113.542968-356.238281h278.546876l82.542968 332h-443.628906zm0 0" data-original="#000000" className="active-path" data-old_color="#000000" fill="#FFFFFF"/><path d="m437 512c24.8125 0 45-20.1875 45-45s-20.1875-45-45-45c-7.007812 0-285.050781 0-302 0-1.597656 0-3.386719.3125-4.742188.769531l-90 30c-6.125 2.042969-10.257812 7.773438-10.257812 14.230469s4.132812 12.1875 10.257812 14.230469l90 30c1.433594.472656 3.214844.769531 4.742188.769531zm-287-30v-30h242v30c-4.011719 0-231.882812 0-242 0zm302-15c0 8.269531-6.730469 15-15 15h-15v-30h15c8.269531 0 15 6.730469 15 15zm-332-9.1875v18.375l-27.566406-9.1875zm0 0" data-original="#000000" className="active-path" data-old_color="#000000" fill="#FFFFFF"/><path d="m434.714844 313.390625-60-242c-1.660156-6.691406-7.667969-11.390625-14.5625-11.390625h-208.304688c-6.894531 0-12.902344 4.699219-14.5625 11.390625l-60 242c-1.109375 4.480469-.097656 9.21875 2.746094 12.851563 2.84375 3.636718 7.199219 5.757812 11.816406 5.757812h134.152344c8.285156 0 15-6.714844 15-15v-42.429688c17.460938 6.191407 30 22.875 30 42.429688 0 8.285156 6.714844 15 15 15h134.152344c4.617187 0 8.972656-2.125 11.816406-5.757812 2.84375-3.632813 3.855469-8.371094 2.746094-12.851563zm-135.222656-11.390625c-6.96875-34.191406-37.273438-60-73.492188-60-8.285156 0-15 6.714844-15 15v45h-99.980469l30-121h84.980469c8.285156 0 15-6.714844 15-15v-30c0-8.285156-6.714844-15-15-15s-15 6.714844-15 15v15h-62.542969l15.125-61h184.835938l15.125 61h-62.542969v-15c0-8.285156-6.714844-15-15-15s-15 6.714844-15 15v30c0 8.285156 6.714844 15 15 15h84.980469l7.6875 31h-62.667969c-8.285156 0-15 6.714844-15 15s6.714844 15 15 15h70.105469l14.875 60zm0 0" data-original="#000000" className="active-path" data-old_color="#000000" fill="#FFFFFF"/></g> </svg>
