<?xml version="1.0"?>
<svg xmlns="http://www.w3.org/2000/svg" id="_x33_0" enable-background="new 0 0 64 64" height="512px" viewBox="0 0 64 64" width="512px"><g><g><path d="m19.707 37.293-1.414 1.414 4.774 4.774 10.701-12.841-1.536-1.28-9.299 11.159z" data-original="#000000" className="active-path" data-old_color="#000000" fill="#FFFFFF"/><path d="m8 11c1.654 0 3-1.346 3-3s-1.346-3-3-3-3 1.346-3 3 1.346 3 3 3zm0-4c.551 0 1 .449 1 1s-.449 1-1 1-1-.449-1-1 .449-1 1-1z" data-original="#000000" className="active-path" data-old_color="#000000" fill="#FFFFFF"/><path d="m16 11c1.654 0 3-1.346 3-3s-1.346-3-3-3-3 1.346-3 3 1.346 3 3 3zm0-4c.551 0 1 .449 1 1s-.449 1-1 1-1-.449-1-1 .449-1 1-1z" data-original="#000000" className="active-path" data-old_color="#000000" fill="#FFFFFF"/><path d="m24 11c1.654 0 3-1.346 3-3s-1.346-3-3-3-3 1.346-3 3 1.346 3 3 3zm0-4c.551 0 1 .449 1 1s-.449 1-1 1-1-.449-1-1 .449-1 1-1z" data-original="#000000" className="active-path" data-old_color="#000000" fill="#FFFFFF"/><path d="m63 26c0-6.831-5.299-12.436-12-12.949v-9.051c0-1.654-1.346-3-3-3h-44c-1.654 0-3 1.346-3 3v56c0 1.654 1.346 3 3 3h46c2.757 0 5-2.243 5-5v-15c0-1.103-.897-2-2-2v-2.363c5.724-1.36 10-6.503 10-12.637zm-2 0c0 6.065-4.935 11-11 11s-11-4.935-11-11 4.935-11 11-11 11 4.935 11 11zm-23.885 1.642c.243 1.912.902 3.693 1.885 5.254v2.664c0 8.084-5.332 15.201-13 17.401-7.668-2.2-13-9.316-13-17.401v-7.659c4.825-.545 9.192-1.813 13-3.773 3.308 1.704 7.044 2.879 11.115 3.514zm-.095-2.04c-3.885-.646-7.431-1.812-10.547-3.484l-.473-.253-.473.253c-3.916 2.101-8.499 3.408-13.62 3.886l-.907.084v9.472c0 9.077 6.061 17.057 14.739 19.404l.261.071.261-.071c8.678-2.348 14.739-10.327 14.739-19.404v-.202c.596.574 1.246 1.091 1.943 1.543-.588 9.685-7.463 17.866-16.943 20.072-10.021-2.33-17-11.103-17-21.414v-11.564c6.001-.076 11.856-1.739 17-4.824 3.485 2.092 7.267 3.514 11.258 4.251-.142.708-.215 1.438-.238 2.18zm-33.02-22.602h44c.551 0 1 .449 1 1v9h-46v-9c0-.551.449-1 1-1zm-1 57v-45h40.103c-2.406 1.514-4.277 3.79-5.281 6.492-4.021-.717-7.818-2.169-11.293-4.34l-.53-.331-.53.331c-5.075 3.172-10.92 4.848-16.904 4.848h-1.565v13.561c0 11.329 7.724 20.958 18.783 23.415l.217.048.217-.048c10.163-2.258 17.635-10.795 18.65-21.037.682.294 1.397.523 2.133.697v2.364c-1.103 0-2 .897-2 2v15c0 1.13.391 2.162 1.026 3h-42.026c-.551 0-1-.449-1-1zm50-17v2h-6v-2zm-3 18c-1.654 0-3-1.346-3-3v-11h6v11c0 1.654-1.346 3-3 3zm1-20h-2v-2.051c.331.025.662.051 1 .051s.669-.025 1-.051z" data-original="#000000" className="active-path" data-old_color="#000000" fill="#FFFFFF"/><path d="m49 25h2v2h-2z" data-original="#000000" className="active-path" data-old_color="#000000" fill="#FFFFFF"/><path d="m53 25h2v2h-2z" data-original="#000000" className="active-path" data-old_color="#000000" fill="#FFFFFF"/><path d="m45 25h2v2h-2z" data-original="#000000" className="active-path" data-old_color="#000000" fill="#FFFFFF"/></g></g> </svg>
