<?xml version="1.0"?>
<svg xmlns="http://www.w3.org/2000/svg" xmlns:xlink="http://www.w3.org/1999/xlink" xmlns:svgjs="http://svgjs.com/svgjs" version="1.1" width="512" height="512" x="0" y="0" viewBox="0 0 64 64" style="enable-background:new 0 0 512 512" xml:space="preserve" className=""><g><path xmlns="http://www.w3.org/2000/svg" d="m61 52h-1v-37a5.006 5.006 0 0 0 -5-5h-46a5.006 5.006 0 0 0 -5 5v37h-1a1 1 0 0 0 -1 1v4a5.006 5.006 0 0 0 5 5h50a5.006 5.006 0 0 0 5-5v-4a1 1 0 0 0 -1-1zm-55-37a3 3 0 0 1 3-3h46a3 3 0 0 1 3 3v37h-52zm21 39h10v1a1 1 0 0 1 -1 1h-8a1 1 0 0 1 -1-1zm33 3a3 3 0 0 1 -3 3h-50a3 3 0 0 1 -3-3v-3h21v1a3 3 0 0 0 3 3h8a3 3 0 0 0 3-3v-1h21z" fill="#2453b6" data-original="#000000" style="" className=""/><path xmlns="http://www.w3.org/2000/svg" d="m55 50h-46a1 1 0 0 1 -1-1v-34a1 1 0 0 1 1-1h46a1 1 0 0 1 1 1v34a1 1 0 0 1 -1 1zm-45-2h44v-32h-44z" fill="#2453b6" data-original="#000000" style="" className=""/><path xmlns="http://www.w3.org/2000/svg" d="m46 46h-28a1 1 0 0 1 -1-1v-6a1 1 0 0 1 1-1h28a1 1 0 0 1 1 1v6a1 1 0 0 1 -1 1zm-27-2h26v-4h-26z" fill="#2453b6" data-original="#000000" style="" className=""/><path xmlns="http://www.w3.org/2000/svg" d="m32 28a3 3 0 1 1 3-3 3 3 0 0 1 -3 3zm0-4a1 1 0 1 0 1 1 1 1 0 0 0 -1-1z" fill="#2453b6" data-original="#000000" style="" className=""/><path xmlns="http://www.w3.org/2000/svg" d="m32 18a9 9 0 1 0 9 9 9.011 9.011 0 0 0 -9-9zm-3 15.315v-1.315a1 1 0 0 1 1-1h4a1 1 0 0 1 1 1v1.315a6.912 6.912 0 0 1 -6 0zm7.99-1.415a3 3 0 0 0 -2.99-2.9h-4a3 3 0 0 0 -2.99 2.9 7 7 0 1 1 9.98 0z" fill="#2453b6" data-original="#000000" style="" className=""/><path xmlns="http://www.w3.org/2000/svg" d="m21 41h2v2h-2z" fill="#2453b6" data-original="#000000" style="" className=""/><path xmlns="http://www.w3.org/2000/svg" d="m25 41h2v2h-2z" fill="#2453b6" data-original="#000000" style="" className=""/><path xmlns="http://www.w3.org/2000/svg" d="m29 41h2v2h-2z" fill="#2453b6" data-original="#000000" style="" className=""/><path xmlns="http://www.w3.org/2000/svg" d="m33 41h2v2h-2z" fill="#2453b6" data-original="#000000" style="" className=""/><path xmlns="http://www.w3.org/2000/svg" d="m37 41h2v2h-2z" fill="#2453b6" data-original="#000000" style="" className=""/></g></svg>
