<?xml version="1.0"?>
<svg xmlns="http://www.w3.org/2000/svg" id="Capa_1" enable-background="new 0 0 505.932 505.932" height="512px" viewBox="0 0 505.932 505.932" width="512px"><g><g><g><g><g><g><path d="m308.303 88.011c0-30.513-24.824-55.337-55.337-55.337s-55.337 24.824-55.337 55.337 24.824 55.337 55.337 55.337 55.337-24.824 55.337-55.337zm-55.337 35.571c-19.614 0-35.571-15.957-35.571-35.571s15.957-35.571 35.571-35.571 35.571 15.957 35.571 35.571c0 19.613-15.957 35.571-35.571 35.571z" data-original="#000000" className="active-path" data-old_color="#000000" fill="#2453B6"/><path d="m292.036 182.466c0 30.512 24.824 55.336 55.337 55.336 30.512 0 55.336-24.824 55.336-55.336 0-30.513-24.824-55.337-55.336-55.337-30.514 0-55.337 24.824-55.337 55.337zm55.337-35.571c19.613 0 35.57 15.957 35.57 35.571 0 19.613-15.957 35.57-35.57 35.57-19.614 0-35.571-15.957-35.571-35.57-.001-19.615 15.956-35.571 35.571-35.571z" data-original="#000000" className="active-path" data-old_color="#000000" fill="#2453B6"/><path d="m158.559 237.802c30.513 0 55.337-24.824 55.337-55.336 0-30.513-24.824-55.337-55.337-55.337-30.512 0-55.336 24.824-55.336 55.337 0 30.512 24.824 55.336 55.336 55.336zm0-90.907c19.614 0 35.571 15.957 35.571 35.571 0 19.613-15.957 35.57-35.571 35.57-19.613 0-35.57-15.957-35.57-35.57 0-19.615 15.957-35.571 35.57-35.571z" data-original="#000000" className="active-path" data-old_color="#000000" fill="#2453B6"/><path d="m502.843 244.631c-6.106-25.482-11.578-44.719-18.508-69.073l-1.837-6.461c-2.568-9.034-8.505-16.514-16.719-21.065-8.214-4.552-17.713-5.616-26.744-3.001-17.668 5.118-28.36 23.428-24.334 41.726l10.438 46.498c-6.242-1.291-12.782-.535-18.561 2.246-5.007 2.409-9.257 6.188-12.29 10.929l-27.352 42.781c-17.756 7.785-29.735 19.476-35.605 34.75-7.293 18.973-2.799 38.103.178 47.09l-5.609 8.773-3.383-2.167c-2.34-1.5-5.203-1.945-7.885-1.225-2.683.717-4.941 2.531-6.22 4.998l-40.131 77.397c-1.588 3.065-1.463 6.734.329 9.683 1.793 2.949 4.994 4.75 8.445 4.75h95.294c4.156 0 7.868-2.6 9.288-6.506l12.402-34.113c1.579-4.345-.064-9.205-3.957-11.698l-1.661-1.064c3.546-3.131 5.954-3.922 7.059-3.717 16.942 2.931 34.482-3.914 45.784-17.868 14.09-17.398 29.14-38.467 34.588-46.987l12.257-19.17c16.503-25.817 21.873-57.711 14.734-87.506zm-137.417 208.861h-72.115l27.663-53.35 51.786 33.176zm106.029-132.004-12.256 19.169c-5.067 7.925-19.84 28.578-33.295 45.193-6.798 8.395-17.168 12.549-27.051 10.833-9.038-1.565-18.255 2.56-27.49 12.265l-28.819-18.463 8.281-12.95c1.805-2.822 2.057-6.365.671-9.413-.087-.19-8.461-19.514-1.713-37.07 3.928-10.22 12.441-18.238 25.214-23.794.196-.072.397-.126.597-.186.285-.085.568-.17.851-.261 2.194-.702 4.074-2.149 5.315-4.09l29.182-45.644c1.069-1.671 2.485-2.939 4.208-3.766 2.418-1.164 5.166-1.223 7.73-.168 2.733 1.125 4.867 3.365 5.857 6.148l3.252 9.147-25.928 40.553c-2.941 4.598-1.596 10.71 3.002 13.649 1.649 1.054 3.492 1.558 5.314 1.558 3.259 0 6.45-1.611 8.336-4.56l28.526-44.617c.002-.003.004-.007.006-.01l.387-.605c1.423-2.223 1.899-4.922 1.321-7.497l-18.956-84.442c-1.786-8.118 2.843-16.224 10.539-18.452 3.941-1.142 8.086-.681 11.666 1.305 3.58 1.983 6.167 5.244 7.286 9.179l1.839 6.467c7.134 25.075 12.288 43.191 18.297 68.269 5.893 24.603 1.458 50.937-12.169 72.253z" data-original="#000000" className="active-path" data-old_color="#000000" fill="#2453B6"/><path d="m400.101 347.149c-1.617-3.878-5.633-6.379-9.832-6.076-4.101.296-7.658 3.19-8.792 7.14-1.135 3.954.376 8.362 3.739 10.751 3.332 2.367 7.83 2.433 11.238.183 3.881-2.564 5.435-7.709 3.647-11.998z" data-original="#000000" className="active-path" data-old_color="#000000" fill="#2453B6"/><path d="m197.52 381.427c-1.279-2.466-3.537-4.28-6.22-4.998-2.685-.719-5.546-.274-7.885 1.225l-3.383 2.167-5.609-8.773c2.977-8.987 7.47-28.117.178-47.09-5.869-15.273-17.845-26.961-35.605-34.75l-27.353-42.783c-3.031-4.741-7.282-8.519-12.288-10.928-5.779-2.78-12.314-3.538-18.562-2.246l10.447-46.539c4.015-18.257-6.677-36.566-24.344-41.685-9.03-2.615-18.53-1.55-26.744 3.001s-14.152 12.034-16.72 21.067l-1.837 6.461c-6.93 24.354-12.402 43.59-18.507 69.073-7.139 29.795-1.768 61.689 14.736 87.504l12.256 19.17c5.447 8.52 20.498 29.588 34.589 46.987 11.303 13.956 28.846 20.8 45.782 17.868 1.12-.186 3.521.6 7.058 3.719l-1.659 1.062c-3.892 2.493-5.536 7.353-3.957 11.698l12.402 34.113c1.421 3.906 5.132 6.506 9.288 6.506h95.294c3.451 0 6.652-1.8 8.445-4.75 1.793-2.948 1.917-6.618.329-9.683zm-62.95 27.521c-7.967-8.371-15.918-12.587-23.75-12.587-1.249 0-2.497.107-3.741.322-9.887 1.715-20.253-2.439-27.049-10.833-13.456-16.616-28.229-37.269-33.296-45.193l-12.255-19.169c-13.627-21.315-18.063-47.65-12.169-72.251 6.009-25.079 11.163-43.195 18.297-68.269l1.839-6.467c1.119-3.935 3.706-7.196 7.286-9.179 3.58-1.984 7.722-2.448 11.666-1.305 7.696 2.229 12.325 10.334 10.549 18.411l-18.965 84.483c-.578 2.574-.103 5.274 1.321 7.497l.387.605c.002.004.004.007.006.01l50.935 79.664c1.886 2.95 5.076 4.56 8.336 4.56 1.821 0 3.666-.503 5.314-1.557 4.598-2.94 5.944-9.051 3.002-13.649l-48.337-75.6 3.252-9.148c.989-2.781 3.124-5.022 5.857-6.147 2.566-1.055 5.312-.996 7.731.168 1.723.828 3.138 2.095 4.206 3.765l29.183 45.645c1.241 1.941 3.121 3.388 5.315 4.09.283.091.566.176.851.261.199.06.4.113.507.147 12.807 5.57 21.303 13.543 25.252 23.699 6.869 17.664-1.589 37.043-1.661 37.202-1.386 3.049-1.134 6.592.671 9.413l8.281 12.95zm5.937 44.544-7.335-20.175 51.786-33.176 27.663 53.35h-72.114z" data-original="#000000" className="active-path" data-old_color="#000000" fill="#2453B6"/></g></g></g></g></g></g> </svg>
