<?xml version="1.0" encoding="iso-8859-1"?>
<!-- Generator: Adobe Illustrator 19.0.0, SVG Export Plug-In . SVG Version: 6.00 Build 0)  -->
<svg version="1.1" id="Capa_1" xmlns="http://www.w3.org/2000/svg" xmlns:xlink="http://www.w3.org/1999/xlink" x="0px" y="0px"
	 viewBox="0 0 512.001 512.001" style="enable-background:new 0 0 512.001 512.001;" xml:space="preserve">
<path style="fill:#F9A058;" d="M344.669,273.892l-97.526,25.359c-6.027,1.567-12.351,1.599-18.394,0.092l-102.884-25.655
	c-16.316-4.068-27.766-18.724-27.766-35.539V125.746C98.099,56.299,154.398,0,223.846,0h22.486
	c69.448,0,125.746,56.299,125.746,125.746v112.697C372.079,255.122,360.811,269.694,344.669,273.892z"/>
<path style="fill:#FCE0A2;" d="M131.202,332.264c16.891,39.185,56.018,70.906,101.594,70.906c46.026,0,85.472-32.35,102.084-72.069
	c0.084-0.201,0.183-0.392,0.278-0.585l-39.819-12.598c-9.332-1.876-16.046-10.073-16.046-19.592V253.28h-44.204l0,0h-44.204v45.046
	c0,9.519-6.714,17.717-16.046,19.592l-43.866,13.879C131.05,331.951,131.132,332.103,131.202,332.264z"/>
<path style="fill:#F2CA91;" d="M251.002,328.003l73.127,23.137c4.22-6.367,7.842-13.086,10.75-20.039
	c0.084-0.201,0.183-0.392,0.278-0.585l-39.819-12.598c-9.332-1.876-16.046-10.073-16.046-19.592V253.28h-44.204l0,0h-0.133v55.133
	C234.956,317.93,241.67,326.128,251.002,328.003z"/>
<path style="fill:#EF62C0;" d="M387.375,342.205L331.52,324.79c-4.234-1.32-8.812,0.761-10.523,4.853
	c-14.301,34.192-48.26,62.042-87.882,62.042c-39.235,0-72.918-27.307-87.459-61.041c-1.741-4.04-6.287-6.076-10.486-4.766
	l-52.366,16.328c-39.309,11.574-66.299,47.656-66.299,88.634v59.067c0,4.702,3.812,8.514,8.514,8.514H445.16
	c4.702,0,8.514-3.812,8.514-8.514V430.84C453.674,389.862,426.684,353.779,387.375,342.205z"/>
<path style="fill:#E256BA;" d="M387.375,342.205L331.52,324.79c-4.234-1.32-8.812,0.761-10.523,4.853
	c-2.54,6.074-5.712,11.941-9.414,17.493l31.606,9.855c39.309,11.574,66.299,47.656,66.299,88.634v52.795h35.673
	c4.702,0,8.514-3.812,8.514-8.514V430.84C453.674,389.862,426.684,353.779,387.375,342.205z"/>
<g>
	<path style="fill:#F2CA8F;" d="M354.235,201.78h-19.123v-55.459h19.123c9.854,0,17.843,7.989,17.843,17.843v19.773
		C372.079,193.792,364.09,201.78,354.235,201.78z"/>
	<path style="fill:#F2CA8F;" d="M115.942,201.78h19.123v-55.459h-19.123c-9.854,0-17.843,7.989-17.843,17.843v19.773
		C98.099,193.792,106.088,201.78,115.942,201.78z"/>
</g>
<path style="fill:#FCE0A2;" d="M235.089,290.733L235.089,290.733c-60.854,0-110.185-49.332-110.185-110.185v-30.966
	c0-60.854,49.332-110.185,110.185-110.185l0,0c60.854,0,110.185,49.332,110.185,110.185v30.966
	C345.274,241.402,295.943,290.733,235.089,290.733z"/>
<path style="fill:#F2CA91;" d="M235.089,39.398L235.089,39.398c-7.567,0-14.956,0.764-22.094,2.217
	c50.265,10.231,88.092,54.682,88.092,107.968v30.966c0,53.286-37.826,97.737-88.092,107.968c7.138,1.453,14.526,2.217,22.093,2.217
	l0,0c60.853,0,110.185-49.332,110.185-110.185v-30.966C345.274,88.729,295.943,39.398,235.089,39.398z"/>
<path style="fill:#E256BA;" d="M80.938,498.42v-76.35c0-4.267-3.458-7.726-7.726-7.726c-4.267,0-7.726,3.459-7.726,7.726v76.351
	h15.452V498.42z"/>
<path style="fill:#F9A058;" d="M372.079,148.972c0,0-47.539-3.773-63.806-47.501c0,0-114.918,92.004-210.174,47.501v-23.226
	C98.099,56.299,154.398,0,223.846,0h22.486c69.448,0,125.746,56.299,125.746,125.746v23.226H372.079z"/>
<path style="fill:#EF8D43;" d="M246.332,0h-22.486c-3.562,0-7.087,0.156-10.574,0.447c64.498,5.371,115.172,59.414,115.172,125.3
	v4.606c19.712,16.715,43.635,18.619,43.635,18.619v-23.226C372.079,56.299,315.78,0,246.332,0z"/>
<circle style="fill:#E9F6FF;" cx="403.94" cy="420.45" r="91.55"/>
<path style="fill:#CCDFED;" d="M403.943,328.893c-7.723,0-15.221,0.961-22.386,2.762c39.741,9.988,69.167,45.951,69.167,88.792
	s-29.426,78.803-69.167,88.792c7.165,1.801,14.663,2.762,22.386,2.762c50.564,0,91.553-40.99,91.553-91.553
	S454.506,328.893,403.943,328.893z"/>
<path style="fill:#FC6060;" d="M453.674,414.354H414.33V375.01c0-4.267-3.458-7.726-7.726-7.726c-4.267,0-7.726,3.459-7.726,7.726
	v39.344h-39.344c-4.267,0-7.726,3.459-7.726,7.726s3.458,7.726,7.726,7.726h39.344v39.344c0,4.267,3.458,7.726,7.726,7.726
	c4.267,0,7.726-3.459,7.726-7.726v-39.344h39.344c4.267,0,7.726-3.459,7.726-7.726C461.4,417.813,457.941,414.354,453.674,414.354z"
	/>
<g>
</g>
<g>
</g>
<g>
</g>
<g>
</g>
<g>
</g>
<g>
</g>
<g>
</g>
<g>
</g>
<g>
</g>
<g>
</g>
<g>
</g>
<g>
</g>
<g>
</g>
<g>
</g>
<g>
</g>
</svg>
