<?xml version="1.0"?>
<svg xmlns="http://www.w3.org/2000/svg" height="512px" viewBox="0 0 496 496" width="512px"><g><path d="m488 0h-480c-4.414062 0-8 3.574219-8 8v480c0 4.425781 3.585938 8 8 8h480c4.414062 0 8-3.574219 8-8v-480c0-4.425781-3.585938-8-8-8zm-8 16v80h-464v-80zm-464 464v-368h464v368zm0 0" data-original="#000000" className="active-path" data-old_color="#000000" fill="#2453b6"/><path d="m56 80c13.230469 0 24-10.769531 24-24s-10.769531-24-24-24-24 10.769531-24 24 10.769531 24 24 24zm0-32c4.40625 0 8 3.585938 8 8s-3.59375 8-8 8-8-3.585938-8-8 3.59375-8 8-8zm0 0" data-original="#000000" className="active-path" data-old_color="#000000" fill="#2453b6"/><path d="m120 80c13.230469 0 24-10.769531 24-24s-10.769531-24-24-24-24 10.769531-24 24 10.769531 24 24 24zm0-32c4.40625 0 8 3.585938 8 8s-3.59375 8-8 8-8-3.585938-8-8 3.59375-8 8-8zm0 0" data-original="#000000" className="active-path" data-old_color="#000000" fill="#2453b6"/><path d="m184 80c13.230469 0 24-10.769531 24-24s-10.769531-24-24-24-24 10.769531-24 24 10.769531 24 24 24zm0-32c4.40625 0 8 3.585938 8 8s-3.59375 8-8 8-8-3.585938-8-8 3.59375-8 8-8zm0 0" data-original="#000000" className="active-path" data-old_color="#000000" fill="#2453b6"/><path d="m224 48h16v16h-16zm0 0" data-original="#000000" className="active-path" data-old_color="#000000" fill="#2453b6"/><path d="m256 48h16v16h-16zm0 0" data-original="#000000" className="active-path" data-old_color="#000000" fill="#2453b6"/><path d="m288 48h16v16h-16zm0 0" data-original="#000000" className="active-path" data-old_color="#000000" fill="#2453b6"/><path d="m304 296c0-30.871094-25.121094-56-56-56s-56 25.128906-56 56 25.121094 56 56 56 56-25.128906 56-56zm-96 0c0-22.054688 17.945312-40 40-40s40 17.945312 40 40-17.945312 40-40 40-40-17.945312-40-40zm0 0" data-original="#000000" className="active-path" data-old_color="#000000" fill="#2453b6"/><path d="m440 288h-8v-40c0-3.230469-1.953125-6.160156-4.9375-7.390625-3-1.25-6.429688-.554687-8.71875 1.734375l-45.65625 45.65625h-20.6875v-8c0-4.425781-3.585938-8-8-8h-11.34375c-1.769531-6.105469-4.265625-12.078125-7.464844-17.878906l8.464844-8.464844c3.128906-3.128906 3.128906-8.183594 0-11.3125l-24-24c-3.128906-3.128906-8.183594-3.128906-11.3125 0l-8.464844 8.464844c-5.808594-3.199219-11.78125-5.695313-17.878906-7.464844v-11.34375c0-4.425781-3.585938-8-8-8h-8v-40c0-13.230469-10.769531-24-24-24h-176c-13.230469 0-24 10.769531-24 24v128c0 13.230469 10.769531 24 24 24h8v40c0 3.230469 1.953125 6.160156 4.9375 7.390625.992188.417969 2.03125.609375 3.0625.609375 2.078125 0 4.128906-.816406 5.65625-2.34375l45.65625-45.65625h20.6875v8c0 4.425781 3.585938 8 8 8h11.34375c1.769531 6.105469 4.265625 12.078125 7.464844 17.878906l-8.464844 8.464844c-3.128906 3.128906-3.128906 8.183594 0 11.3125l24 24c3.128906 3.128906 8.183594 3.128906 11.3125 0l8.464844-8.464844c5.808594 3.199219 11.78125 5.695313 17.878906 7.464844v11.34375c0 4.425781 3.585938 8 8 8h8v40c0 13.230469 10.769531 24 24 24h176c13.230469 0 24-10.769531 24-24v-128c0-13.230469-10.769531-24-24-24zm-296-8v8h-24c-2.121094 0-4.160156.839844-5.65625 2.34375l-34.34375 34.34375v-28.6875c0-4.425781-3.585938-8-8-8h-16c-4.40625 0-8-3.585938-8-8v-128c0-4.414062 3.59375-8 8-8h176c4.40625 0 8 3.585938 8 8v40h-8c-4.414062 0-8 3.574219-8 8v11.328125c-6.214844 1.769531-12.230469 4.230469-17.984375 7.375l-8.359375-8.359375c-3.128906-3.128906-8.183594-3.128906-11.3125 0l-24 24c-3.128906 3.128906-3.128906 8.183594 0 11.3125l8.359375 8.359375c-3.144531 5.753906-5.605469 11.769531-7.375 17.984375h-11.328125c-4.414062 0-8 3.574219-8 8zm89.59375 86.542969c-8.355469-1.6875-16.5625-5.101563-24.394531-10.144531-3.167969-2.054688-7.328125-1.589844-9.984375 1.074218l-7.214844 7.214844-12.6875-12.6875 7.207031-7.207031c2.664063-2.664063 3.113281-6.824219 1.074219-9.992188-5.035156-7.808593-8.449219-16.015625-10.152344-24.394531-.753906-3.726562-4.035156-6.40625-7.832031-6.40625h-9.609375v-16h9.609375c3.804687 0 7.078125-2.679688 7.839844-6.40625 1.75-8.648438 5.136719-16.890625 10.03125-24.496094 2.039062-3.167968 1.597656-7.328125-1.066407-9.992187l-7.101562-7.105469 12.6875-12.6875 7.105469 7.101562c2.664062 2.675782 6.824219 3.113282 9.992187 1.074219 7.621094-4.902343 15.863282-8.289062 24.496094-10.03125 3.726562-.761719 6.40625-4.042969 6.40625-7.847656v-9.609375h16v9.609375c0 3.804687 2.679688 7.085937 6.40625 7.839844 8.355469 1.6875 16.5625 5.101562 24.394531 10.144531 3.167969 2.054688 7.335938 1.597656 9.984375-1.074219l7.214844-7.207031 12.6875 12.6875-7.207031 7.207031c-2.664063 2.664063-3.113281 6.824219-1.074219 9.992188 5.035156 7.808593 8.449219 16.015625 10.152344 24.394531.753906 3.726562 4.035156 6.40625 7.832031 6.40625h9.609375v16h-9.609375c-3.804687 0-7.078125 2.679688-7.839844 6.40625-1.75 8.648438-5.136719 16.890625-10.03125 24.496094-2.039062 3.167968-1.597656 7.328125 1.066407 9.992187l7.101562 7.105469-12.6875 12.6875-7.105469-7.101562c-2.65625-2.65625-6.816406-3.097657-9.992187-1.074219-7.621094 4.902343-15.863282 8.289062-24.496094 10.03125-3.726562.761719-6.40625 4.042969-6.40625 7.847656v9.609375h-16v-9.609375c0-3.804687-2.679688-7.085937-6.40625-7.847656zm214.40625 73.457031c0 4.414062-3.59375 8-8 8h-176c-4.40625 0-8-3.585938-8-8v-40h8c4.414062 0 8-3.574219 8-8v-11.328125c6.214844-1.769531 12.230469-4.230469 17.984375-7.375l8.359375 8.359375c3.128906 3.128906 8.183594 3.128906 11.3125 0l24-24c3.128906-3.128906 3.128906-8.183594 0-11.3125l-8.359375-8.359375c3.144531-5.753906 5.605469-11.769531 7.375-17.984375h11.328125c4.414062 0 8-3.574219 8-8v-8h24c2.121094 0 4.160156-.839844 5.65625-2.34375l34.34375-34.34375v28.6875c0 4.425781 3.585938 8 8 8h16c4.40625 0 8 3.585938 8 8zm0 0" data-original="#000000" className="active-path" data-old_color="#000000" fill="#2453b6"/><path d="m88 160c-13.230469 0-24 10.769531-24 24s10.769531 24 24 24 24-10.769531 24-24-10.769531-24-24-24zm0 32c-4.40625 0-8-3.585938-8-8s3.59375-8 8-8 8 3.585938 8 8-3.59375 8-8 8zm0 0" data-original="#000000" className="active-path" data-old_color="#000000" fill="#2453b6"/><path d="m176 184c0-13.230469-10.769531-24-24-24s-24 10.769531-24 24 10.769531 24 24 24 24-10.769531 24-24zm-24 8c-4.40625 0-8-3.585938-8-8s3.59375-8 8-8 8 3.585938 8 8-3.59375 8-8 8zm0 0" data-original="#000000" className="active-path" data-old_color="#000000" fill="#2453b6"/><path d="m408 384c-13.230469 0-24 10.769531-24 24s10.769531 24 24 24 24-10.769531 24-24-10.769531-24-24-24zm0 32c-4.40625 0-8-3.585938-8-8s3.59375-8 8-8 8 3.585938 8 8-3.59375 8-8 8zm0 0" data-original="#000000" className="active-path" data-old_color="#000000" fill="#2453b6"/><path d="m344 384c-13.230469 0-24 10.769531-24 24s10.769531 24 24 24 24-10.769531 24-24-10.769531-24-24-24zm0 32c-4.40625 0-8-3.585938-8-8s3.59375-8 8-8 8 3.585938 8 8-3.59375 8-8 8zm0 0" data-original="#000000" className="active-path" data-old_color="#000000" fill="#2453b6"/></g> </svg>
