<svg id="Capa_1" enable-background="new 0 0 512 512" height="512" viewBox="0 0 512 512" width="512" xmlns="http://www.w3.org/2000/svg"><g><g><path d="m424.727 504.519h-337.454c-3.461 0-6.267-2.806-6.267-6.267v-484.504c0-3.461 2.806-6.267 6.267-6.267h337.454c3.461 0 6.267 2.806 6.267 6.267v484.503c.001 3.462-2.805 6.268-6.267 6.268z" fill="#f9f3f1"/></g><g><path d="m430.995 13.688v484.624c0 3.429-2.785 6.203-6.213 6.203h-19.819c3.429 0 6.213-2.775 6.213-6.203v-484.624c0-3.429-2.784-6.203-6.213-6.203h19.819c3.428 0 6.213 2.774 6.213 6.203z" fill="#f3eae6"/></g><g><path d="m430.995 159.109h-349.99v-145.361c0-3.461 2.806-6.267 6.267-6.267h337.454c3.461 0 6.267 2.806 6.267 6.267v145.361z" fill="#8795de"/></g><g><path d="m430.995 13.688v145.419h-19.819v-145.419c0-3.429-2.784-6.203-6.213-6.203h19.819c3.428 0 6.213 2.774 6.213 6.203z" fill="#6c7fd8"/></g><g><path d="m204.128 76.622c.454-8.822.638-17.658.546-26.491-.055-5.306-6.635-7.744-10.141-3.761-4.108 4.667-8.412 9.525-12.203 13.884-5.424-1.905-11.018-2.834-15.932-2.506-4.592-.182-9.746.749-14.778 2.541-3.799-4.368-8.115-9.24-12.234-13.92-3.506-3.983-10.086-1.544-10.141 3.761-.092 8.832.092 17.668.546 26.489-5.945 9.751-6.706 23.519.068 32.599 5.795 7.768 15.596 10.786 24.605 12.117 8.49 1.254 17.142 1.136 25.595-.348 8.97-1.575 18.685-4.859 24.267-12.782 6.298-8.942 5.456-22.061-.198-31.583z" fill="#fec165"/></g><g><path d="m204.323 108.203c-5.579 7.927-15.3 11.207-24.268 12.783-7.69 1.348-15.538 1.576-23.287.644 1.496-.168 2.983-.386 4.469-.644 8.968-1.576 18.679-4.856 24.268-12.783 6.292-8.938 5.45-22.058-.198-31.581.347-6.788.535-13.596.555-20.403 2.824-3.221 5.797-6.58 8.671-9.85 3.508-3.984 10.088-1.546 10.137 3.766.099 8.829-.089 17.668-.545 26.488 5.658 9.522 6.5 22.642.198 31.58z" fill="#fdb441"/></g><g><path d="m424.743 0h-53.632c-4.132 0-7.481 3.349-7.481 7.481s3.349 7.481 7.481 7.481h52.402v136.665h-335.026v-136.665h247.863c4.132 0 7.481-3.349 7.481-7.481s-3.35-7.481-7.482-7.481h-249.092c-7.572 0-13.733 6.16-13.733 13.733v330.31c0 4.132 3.349 7.481 7.481 7.481s7.481-3.349 7.481-7.481v-177.453h335.027v330.448h-335.026v-118.787c0-4.132-3.349-7.481-7.481-7.481s-7.481 3.349-7.481 7.481v120.016c0 7.572 6.16 13.733 13.733 13.733h337.486c7.572 0 13.733-6.16 13.733-13.733v-484.534c-.001-7.573-6.162-13.733-13.734-13.733z"/><path d="m123.862 113.692c6.028 8.081 15.681 13.002 29.51 15.044 9.329 1.377 18.675 1.254 27.981-.381 13.767-2.418 23.282-7.6 29.088-15.843 7.284-10.341 7.713-25.204 1.263-37.651.385-8.268.536-16.603.451-24.808-.057-5.541-3.452-10.368-8.649-12.298-5.199-1.934-10.925-.491-14.589 3.671l-3.446 3.91c-1.891 2.144-3.781 4.287-5.605 6.367-8.499-2.143-17.301-2.136-25.793.023-1.835-2.091-3.736-4.247-5.637-6.403l-3.435-3.897c-3.663-4.162-9.39-5.603-14.589-3.671-5.196 1.93-8.591 6.757-8.649 12.298-.086 8.198.065 16.519.449 24.767-6.738 12.736-6.157 28.407 1.65 38.872zm12.317-33.177c.783-1.285 1.161-2.776 1.084-4.279-.37-7.174-.557-14.418-.559-21.595l.511.58c3.01 3.413 6.021 6.827 8.761 9.978 2.02 2.322 5.255 3.172 8.156 2.138 8.266-2.944 17.455-2.926 25.721-.024 2.893 1.016 6.111.164 8.123-2.149 2.729-3.137 5.724-6.533 8.719-9.93l.522-.592c-.002 7.171-.189 14.417-.559 21.597-.076 1.473.285 2.935 1.038 4.203 4.515 7.605 4.731 17.469.514 23.455-3.412 4.844-9.773 8.024-19.444 9.723-7.684 1.35-15.493 1.455-23.208.316-9.715-1.435-16.16-4.44-19.701-9.189-4.535-6.077-4.396-16.495.322-24.232z"/><path d="m247.552 57.788h49.494c4.132 0 7.481-3.349 7.481-7.481s-3.349-7.481-7.481-7.481h-49.494c-4.132 0-7.481 3.349-7.481 7.481s3.349 7.481 7.481 7.481z"/><path d="m386.948 75.814h-139.396c-4.132 0-7.481 3.349-7.481 7.481s3.349 7.481 7.481 7.481h139.397c4.132 0 7.481-3.349 7.481-7.481-.001-4.132-3.35-7.481-7.482-7.481z"/><path d="m386.948 108.802h-139.396c-4.132 0-7.481 3.349-7.481 7.481s3.349 7.481 7.481 7.481h139.397c4.132 0 7.481-3.349 7.481-7.481-.001-4.132-3.35-7.481-7.482-7.481z"/><path d="m125.052 226.013h36.12c4.132 0 7.481-3.349 7.481-7.481s-3.349-7.481-7.481-7.481h-36.12c-4.132 0-7.481 3.349-7.481 7.481 0 4.131 3.349 7.481 7.481 7.481z"/><path d="m204.256 226.013h182.692c4.132 0 7.481-3.349 7.481-7.481s-3.349-7.481-7.481-7.481h-182.692c-4.132 0-7.481 3.349-7.481 7.481 0 4.131 3.35 7.481 7.481 7.481z"/><path d="m125.052 258.639h36.12c4.132 0 7.481-3.349 7.481-7.481s-3.349-7.481-7.481-7.481h-36.12c-4.132 0-7.481 3.349-7.481 7.481s3.349 7.481 7.481 7.481z"/><path d="m204.256 258.639h182.692c4.132 0 7.481-3.349 7.481-7.481s-3.349-7.481-7.481-7.481h-182.692c-4.132 0-7.481 3.349-7.481 7.481s3.35 7.481 7.481 7.481z"/><path d="m125.052 291.266h36.12c4.132 0 7.481-3.349 7.481-7.481s-3.349-7.481-7.481-7.481h-36.12c-4.132 0-7.481 3.349-7.481 7.481s3.349 7.481 7.481 7.481z"/><path d="m204.256 291.266h182.692c4.132 0 7.481-3.349 7.481-7.481s-3.349-7.481-7.481-7.481h-182.692c-4.132 0-7.481 3.349-7.481 7.481s3.35 7.481 7.481 7.481z"/><path d="m125.052 323.893h261.896c4.132 0 7.481-3.349 7.481-7.481s-3.349-7.481-7.481-7.481h-261.896c-4.132 0-7.481 3.349-7.481 7.481s3.349 7.481 7.481 7.481z"/><path d="m267.801 421.391c-6.069 13.502-1.999 20.09 2.484 23.238 10.496 7.372 23.461-4.251 29.709-9.851 2.013 4.552 5.382 8.169 9.719 10.367 10.845 5.496 19.922.075 26.505-6.831 1.548 2.822 3.496 5.289 5.808 7.32 5.871 5.157 14.315 6.946 23.211 6.946 7.975 0 16.313-1.439 23.476-3.179 4.015-.975 6.479-5.021 5.504-9.035-.975-4.015-5.019-6.481-9.035-5.504-15.824 3.843-28.576 3.663-33.28-.469-4.072-3.577-4.868-9.803-4.98-13.195-.109-3.289-2.354-6.121-5.531-6.977-3.176-.857-6.541.464-8.287 3.254-7.477 11.945-12.603 16.363-16.626 14.324-1.565-.793-2.647-2.22-3.216-4.239-.866-3.079-.322-6.976 1.365-9.72 2.17-3.515 1.08-8.125-2.435-10.295-3.517-2.17-8.126-1.081-10.299 2.439-3.217 5.206-7.418 9.649-11.903 13.669-5.119 4.588-8.203 6.682-10.024 7.62.772-2.813 3.297-8.211 10.325-18.539 7.453-10.954 14.977-21.815 22.89-32.465 0 0 .142-.191.142-.191 2.346-3.155 1.849-7.588-1.137-10.146-2.987-2.558-7.443-2.367-10.2.437-16.901 17.188-44.295 25.318-69.792 20.705-4.06-.732-7.958 1.964-8.693 6.031-.735 4.066 1.965 7.958 6.031 8.693 17.071 3.086 34.5 1.499 50.152-4.12-.065.1-8.966 13.225-11.883 19.713z"/></g></g></svg>