<?xml version="1.0"?>
<svg xmlns="http://www.w3.org/2000/svg" id="Layer_1" enable-background="new 0 0 512.037 512.037" height="512px" viewBox="0 0 512.037 512.037" width="512px"><g><path d="m86.005 125.81c2.336 0 3.68-.909 5.076-1.663 3.888-2.099 5.338-6.952 3.239-10.84-2.1-3.888-6.951-5.339-10.841-3.239-.451.244-.901.49-1.351.739-7.214 3.986-4.36 15.003 3.877 15.003z" data-original="#000000" className="active-path" data-old_color="#000000" fill="#FFFFFF"/><path d="m159 154.708c36.718 0 70.572 21.467 86.248 54.691 1.885 3.997 6.651 5.708 10.649 3.821 3.995-1.885 5.706-6.653 3.821-10.648-18.305-38.796-57.84-63.864-100.719-63.864-87.032 0-138.53 95.216-96.758 166.359 43.411 76.207 153.864 74.569 195.073-2.809 8.501-15.966 12.995-34.031 12.995-52.24 0-4.418-3.582-8-8-8s-8 3.582-8 8c0 14.947-3.54 29.768-10.237 43h-21.822v-86c0-6.637-7.658-10.4-12.913-6.313l-50.337 39.176-50.337-39.176c-5.246-4.084-12.913-.332-12.913 6.313v86h-21.824c-31.87-62.979 13.964-138.31 85.074-138.31zm-55.25 154.311c4.418 0 8-3.582 8-8v-77.636l42.337 32.95c2.889 2.249 6.938 2.249 9.826 0l42.337-32.95v77.636c0 4.418 3.582 8 8 8h19.615c-38.09 48.363-111.588 48.429-149.731 0z" data-original="#000000" className="active-path" data-old_color="#000000" fill="#FFFFFF"/><path d="m376.318 201.15 14.153-21.48c2.431-3.689 1.41-8.651-2.279-11.082-3.689-2.433-8.651-1.411-11.082 2.279l-17.22 26.137c-5.017-.981-10.104-1.721-15.249-2.221l-15.749-23.914c-2.431-3.69-7.392-4.712-11.082-2.281-3.689 2.43-4.711 7.391-2.281 11.081l9.486 14.405c-5.579.139-11.156.563-16.675 1.278-9.256-25.199-25.057-48.006-45.428-65.655 12.486-38.956 49.381-65.997 90.465-65.997 68.023 0 113.787 69.616 87.595 131.834-1.715 4.072.196 8.763 4.269 10.477 4.089 1.721 8.771-.213 10.478-4.269 30.656-72.816-23.003-154.042-102.342-154.042-47.682 0-87.896 29.894-103.798 71.654-8.946-6.217-18.473-11.469-28.44-15.704 22.156-52.715 74.19-87.631 131.861-87.631 114.733 0 181.419 128.275 119.244 221.961-3.551 5.353.359 12.425 6.658 12.425 2.591 0 5.134-1.257 6.674-3.577 69.178-104.246-5.062-246.809-132.576-246.809-64.365 0-122.431 39.108-146.908 98.095-30.515-9.448-63.458-9.44-93.824-.114-4.224 1.297-6.596 5.772-5.299 9.996s5.774 6.594 9.996 5.299c42.311-12.993 89.695-5.893 126.949 21.667 85.115 62.903 75.88 195.831-22.389 243.695-94.276 45.929-205.525-22.865-205.525-128.638 0-39.802 16.789-78.118 46.062-105.125 3.247-2.996 3.451-8.057.455-11.305s-8.057-3.45-11.305-.455c-32.546 30.027-51.212 72.63-51.212 116.885 0 117.56 123.645 194.119 228.533 143.022 50.98-24.831 86.126-75.658 89.221-134.607 57.729-7.017 107.118 38.248 107.118 94.726 0 52.632-42.819 95.451-95.452 95.451-29.582 0-57.011-13.389-75.253-36.734-2.721-3.48-7.749-4.1-11.229-1.378-3.481 2.72-4.099 7.748-1.378 11.229 21.295 27.252 53.319 42.882 87.86 42.882 61.455 0 111.452-49.997 111.452-111.451 0-65.405-56.625-117.717-123.078-110.824-.504-10.642-2.071-21.168-4.671-31.441 17.919-1.976 37.439-.203 48.303 2.8 63.088 14.54 110.574 71.338 110.574 139.325 0 78.851-64.149 143-143 143-46.995 0-91.018-23.122-117.76-61.852-2.511-3.636-7.492-4.549-11.129-2.038-3.636 2.51-4.548 7.493-2.037 11.128 29.729 43.056 78.673 68.761 130.926 68.761 87.673 0 159-71.327 159-159 0-71.611-47.383-131.926-111.682-151.868z" data-original="#000000" className="active-path" data-old_color="#000000" fill="#FFFFFF"/><path d="m300.39 414.019h66.61c4.418 0 8-3.582 8-8s-3.582-8-8-8h-55.46l15.271-45.173 26.694-5.608c4.324-.909 7.092-5.151 6.184-9.475s-5.15-7.092-9.475-6.184l-17.454 3.667 13.058-38.626c1.414-4.186-.832-8.726-5.018-10.141-4.189-1.414-8.726.832-10.141 5.018l-16.082 47.568-14.963 3.144c-4.323.908-7.094 5.149-6.186 9.473.908 4.327 5.15 7.092 9.473 6.187l5.727-1.203-15.818 46.791c-1.751 5.179 2.107 10.562 7.58 10.562z" data-original="#000000" className="active-path" data-old_color="#000000" fill="#FFFFFF"/><path d="m346.101 87.969-30.79 52.46c-2.146 3.657-1.066 8.354 2.463 10.707l30.79 20.52c2.683 1.787 6.18 1.794 8.873 0l30.79-20.52c3.529-2.352 4.609-7.049 2.463-10.707l-30.79-52.46c-3.089-5.261-10.711-5.261-13.799 0zm6.899 67.416-20.066-13.373 20.066-34.189 20.066 34.188z" data-original="#000000" className="active-path" data-old_color="#000000" fill="#FFFFFF"/></g> </svg>
