<?xml version="1.0"?>
<svg xmlns="http://www.w3.org/2000/svg" xmlns:xlink="http://www.w3.org/1999/xlink" xmlns:svgjs="http://svgjs.com/svgjs" version="1.1" width="512" height="512" x="0" y="0" viewBox="0 0 512 512" style="enable-background:new 0 0 512 512" xml:space="preserve" className=""><g>
<g xmlns="http://www.w3.org/2000/svg">
	<g>
		<g>
			<path d="M477.867,0H34.133C15.291,0.022,0.022,15.291,0,34.133V409.6c0.047,16.842,12.387,31.126,29.044,33.619l-15.51,15.51     c-6.654,6.67-6.654,17.467,0,24.138L37.667,507c6.669,6.656,17.468,6.656,24.138,0l63.267-63.267H204.8V460.8h-8.533     c-23.553,0.028-42.639,19.114-42.667,42.667c0,4.713,3.82,8.533,8.533,8.533h187.733c4.713,0,8.533-3.82,8.533-8.533     c-0.028-23.553-19.114-42.639-42.667-42.667H307.2v-17.067h170.667c18.842-0.022,34.112-15.291,34.133-34.133V34.133     C511.978,15.291,496.709,0.022,477.867,0z M17.067,409.6v-17.067h62.662l-34.133,34.133H34.133     C24.712,426.657,17.076,419.022,17.067,409.6z M115.544,429.125l-0.102,0.102l-65.708,65.706L25.6,470.8l80.73-80.73l0.091-0.091     l28.044-28.044L158.6,386.07L115.544,429.125z M224.905,198.254c3.094-2.574,7.56-2.659,10.75-0.204l64.85,50.517     c3.397,2.641,8.228,2.342,11.275-0.696l62.641-62.562c0.347,0.784,0.668,1.584,0.997,2.379c0.687,1.655,1.36,3.32,1.969,5.021     c0.421,1.179,0.802,2.381,1.185,3.581c0.536,1.678,1.046,3.369,1.507,5.085c0.162,0.603,0.302,1.217,0.455,1.826l-67.375,67.375     c-3.023,3.037-7.838,3.34-11.217,0.704l-65.879-51.2c-3.186-2.476-7.671-2.383-10.75,0.225l-56.531,47.834     c-0.303-0.834-0.567-1.674-0.848-2.512c-0.591-1.756-1.17-3.515-1.667-5.284c-0.336-1.197-0.619-2.402-0.911-3.605     c-0.416-1.708-0.807-3.418-1.134-5.134c-0.108-0.566-0.19-1.135-0.289-1.702L224.905,198.254z M162.271,228.939     c0.168-48.988,32.589-92.011,79.634-105.673s97.468,5.302,123.849,46.581l-60.704,60.625l-58.933-45.904     c-9.573-7.365-22.979-7.09-32.242,0.662L162.271,228.939z M383.701,224.166c3.013,51.641-30.108,98.496-79.796,112.883     s-102.719-7.523-127.764-52.785l54.913-46.464l60.421,46.963c10.192,7.922,24.693,6.994,33.792-2.163L383.701,224.166z      M185.212,323.324c4.132,3.907,8.518,7.537,13.128,10.866l-11.374,11.376l-11.999-11.999L185.212,323.324z M180.967,363.704     l-10.3,10.3l-24.135-24.135l10.302-10.302L180.967,363.704z M315.733,477.867c10.845,0.012,20.51,6.846,24.137,17.067H172.129     c3.627-10.221,13.292-17.054,24.137-17.067H315.733z M221.867,460.8v-17.067h68.267V460.8H221.867z M494.933,409.6     c-0.009,9.422-7.645,17.057-17.067,17.067H142.138l34.133-34.133h318.662V409.6z M494.933,375.467H193.282     c4.097-4.305,5.648-10.438,4.091-16.173l15.737-15.74c43.892,23.239,97.264,18.999,136.937-10.878     c39.673-29.877,58.49-80.001,48.279-128.604c-1.063-4.928-2.41-9.79-4.033-14.563L435.2,148.6v22.067     c0,4.713,3.82,8.533,8.533,8.533s8.533-3.82,8.533-8.533V128c-0.018-1.022-0.222-2.032-0.602-2.98     c-0.113-0.276-0.241-0.547-0.384-0.809c-0.322-0.642-0.725-1.239-1.198-1.779c-0.184-0.227-0.38-0.444-0.587-0.65     c-0.669-0.632-1.438-1.15-2.274-1.533c-0.071-0.032-0.124-0.088-0.196-0.118L447,120.117c-0.939-0.369-1.936-0.567-2.945-0.585     c-0.113-0.005-0.208-0.065-0.322-0.065h-42.667c-4.713,0-8.533,3.82-8.533,8.533s3.821,8.533,8.533,8.533h22.067l-35.956,35.956     c-0.817-1.603-1.589-3.236-2.474-4.793l-0.008-0.015l-0.016-0.031l-0.01-0.011c-30.117-53.555-94.037-78.159-152.289-58.618     c-58.252,19.541-94.405,77.713-86.134,138.596c0.408,3.173,0.945,6.334,1.609,9.484c0.371,1.759,0.875,3.5,1.325,5.248     l-29.939,25.33l-71.337-55.484c-2.407-1.871-5.63-2.316-8.454-1.167c-2.824,1.149-4.821,3.717-5.237,6.737     c-0.417,3.02,0.809,6.033,3.216,7.905l76.8,59.733c3.186,2.475,7.669,2.383,10.75-0.221l30.064-25.434     c0.717,1.712,1.383,3.436,2.178,5.13c4.378,9.281,9.87,17.995,16.355,25.948l-12.331,12.329     c-5.875-1.61-12.163,0.047-16.482,4.343l-47.967,47.967H17.067V34.133c0.009-9.422,7.645-17.057,17.067-17.067h443.733     c9.422,0.009,17.057,7.645,17.067,17.067V375.467z" fill="#2453b6" data-original="#000000" style=""/>
			<path d="M102.4,34.133c-30.881-0.028-57.936,20.679-65.975,50.495c-8.039,29.817,4.939,61.317,31.649,76.816     c26.71,15.5,60.499,11.138,82.397-10.635c0.062-0.058,0.143-0.075,0.203-0.135c0.06-0.06,0.077-0.142,0.135-0.203     c19.444-19.545,25.213-48.872,14.621-74.325C154.839,50.693,129.969,34.116,102.4,34.133z M102.4,153.6     c-26.612,0.015-48.794-20.37-51.02-46.889c-2.227-26.519,16.245-50.318,42.487-54.74V102.4c0.007,2.263,0.906,4.432,2.503,6.036     l35.651,35.65C123.382,150.273,113.025,153.6,102.4,153.6z M144.086,132.02L123,110.933h29.829     C151.55,118.534,148.561,125.744,144.086,132.02z M110.933,93.867V51.971c21.441,3.659,38.237,20.455,41.896,41.896H110.933z" fill="#2453b6" data-original="#000000" style=""/>
			<path d="M401.067,315.733c-4.713,0-8.533,3.82-8.533,8.533v25.6c0,4.713,3.821,8.533,8.533,8.533s8.533-3.82,8.533-8.533v-25.6     C409.6,319.554,405.78,315.733,401.067,315.733z" fill="#2453b6" data-original="#000000" style=""/>
			<path d="M435.2,281.6c-4.713,0-8.533,3.82-8.533,8.533v59.733c0,4.713,3.82,8.533,8.533,8.533s8.533-3.82,8.533-8.533v-59.733     C443.733,285.421,439.913,281.6,435.2,281.6z" fill="#2453b6" data-original="#000000" style=""/>
			<path d="M469.333,298.667c-4.713,0-8.533,3.82-8.533,8.533v42.667c0,4.713,3.82,8.533,8.533,8.533s8.533-3.82,8.533-8.533V307.2     C477.867,302.487,474.046,298.667,469.333,298.667z" fill="#2453b6" data-original="#000000" style=""/>
		</g>
	</g>
</g>
<g xmlns="http://www.w3.org/2000/svg">
</g>
<g xmlns="http://www.w3.org/2000/svg">
</g>
<g xmlns="http://www.w3.org/2000/svg">
</g>
<g xmlns="http://www.w3.org/2000/svg">
</g>
<g xmlns="http://www.w3.org/2000/svg">
</g>
<g xmlns="http://www.w3.org/2000/svg">
</g>
<g xmlns="http://www.w3.org/2000/svg">
</g>
<g xmlns="http://www.w3.org/2000/svg">
</g>
<g xmlns="http://www.w3.org/2000/svg">
</g>
<g xmlns="http://www.w3.org/2000/svg">
</g>
<g xmlns="http://www.w3.org/2000/svg">
</g>
<g xmlns="http://www.w3.org/2000/svg">
</g>
<g xmlns="http://www.w3.org/2000/svg">
</g>
<g xmlns="http://www.w3.org/2000/svg">
</g>
<g xmlns="http://www.w3.org/2000/svg">
</g>
</g></svg>
