<svg xmlns="http://www.w3.org/2000/svg" width="141.094" height="102.038" viewBox="0 0 141.094 102.038">
  <g id="analaysis" transform="translate(-3 -11.128)">
    <g id="Group_966" data-name="Group 966" transform="translate(3 25.681)">
      <g id="Group_965" data-name="Group 965" transform="translate(1.462 14.134)">
        <path id="Path_1731" data-name="Path 1731" d="M11.8,43.973V72.483H23.253V35.2Z" transform="translate(8.182 -5.227)" fill="#2453b6"/>
        <path id="Path_1732" data-name="Path 1732" d="M3.6,37.5V69.179H15.053V42.861Z" transform="translate(-3.6 -1.923)" fill="#2453b6"/>
        <g id="Group_963" data-name="Group 963" transform="translate(79.684)">
          <path id="Path_1733" data-name="Path 1733" d="M47.753,52.142V22.9h-.244L36.3,35.571V53.6h.975A19.044,19.044,0,0,0,47.753,52.142Z" transform="translate(-36.3 -22.9)" fill="#2453b6"/>
          <path id="Path_1734" data-name="Path 1734" d="M36.3,42.075V64.006H47.753V41.1A35.9,35.9,0,0,1,36.3,42.075Z" transform="translate(-36.3 3.25)" fill="#2453b6"/>
        </g>
        <g id="Group_964" data-name="Group 964" transform="translate(59.702 22.175)">
          <path id="Path_1735" data-name="Path 1735" d="M35.63,32l-3.168,3.412L31,34.924a31.033,31.033,0,0,0,4.63,3.168Z" transform="translate(-23.933 -32)" fill="#2453b6"/>
          <path id="Path_1736" data-name="Path 1736" d="M28.1,38.5V67.742H39.8V44.1A30.589,30.589,0,0,1,28.1,38.5Z" transform="translate(-28.1 -22.661)" fill="#2453b6"/>
        </g>
        <path id="Path_1737" data-name="Path 1737" d="M25.992,30.7,19.9,35.33V79.193H31.6V41.422A41.114,41.114,0,0,1,25.992,30.7Z" transform="translate(19.82 -11.693)" fill="#2453b6"/>
      </g>
      <path id="Path_1738" data-name="Path 1738" d="M95.6,17.1,83.415,19.537,86.826,22.7,69.038,42.93,51.493,36.351a3.887,3.887,0,0,0-3.655.487L17.865,59.744,5.68,53.9,3,59.257l13.4,6.336a3.69,3.69,0,0,0,4.143-.487L50.762,42.2,68.55,48.779a4.824,4.824,0,0,0,4.386-.975L91.7,26.6l3.168,2.924Z" transform="translate(-3 -17.1)" fill="#2453b6"/>
    </g>
    <g id="Group_967" data-name="Group 967" transform="translate(51.736 11.128)">
      <path id="Path_1739" data-name="Path 1739" d="M57.862,57.229a5.367,5.367,0,1,0,8.285-6.823L64.685,48.7,56.4,55.767Z" transform="translate(24.99 42.857)" fill="#2453b6"/>
      <path id="Path_1740" data-name="Path 1740" d="M88.55,73.93l-1.706,1.462L83.92,71.737a35.845,35.845,0,0,0,1.706-48.005C72.955,8.623,50.292,6.918,35.184,19.589A35.009,35.009,0,0,0,23,42.008c.244,0,.731.244.975.244l7.554,2.68a27.29,27.29,0,0,1,9.26-18.763A26.251,26.251,0,0,1,69.3,22.27l.731-.244v.487a25.165,25.165,0,0,1,8.529,6.823,27.229,27.229,0,0,1-2.924,38.014C64.426,77.1,47.368,75.392,37.621,64.183a23.727,23.727,0,0,1-3.655-5.848l-10.722-3.9A34.941,34.941,0,0,0,30.8,69.787a35.827,35.827,0,0,0,47.762,6.092l3.168,3.655L80.021,81l22.175,25.83,8.285-7.067Z" transform="translate(-23 -11.128)" fill="#2453b6"/>
    </g>
  </g>
</svg>
