<svg id="Layer_1" enable-background="new 0 0 512 512" height="512" viewBox="0 0 512 512" width="512" xmlns="http://www.w3.org/2000/svg"><g><g><path d="m474.5 47h-26.261c-4.143 0-7.5 3.357-7.5 7.5s3.357 7.5 7.5 7.5h26.261c12.406 0 22.5 10.094 22.5 22.5v34.5h-482v-34.5c0-12.406 10.093-22.5 22.5-22.5h378c4.143 0 7.5-3.357 7.5-7.5s-3.357-7.5-7.5-7.5h-378c-20.678 0-37.5 16.822-37.5 37.5v106.62c0 4.143 3.358 7.5 7.5 7.5s7.5-3.357 7.5-7.5v-57.12h482v244.5c0 9.777-6.271 18.114-15 21.21v-15.846c0-4.143-3.357-7.5-7.5-7.5s-7.5 3.357-7.5 7.5v17.136h-171v-203.5c0-3.584 2.916-6.5 6.5-6.5h158c3.584 0 6.5 2.916 6.5 6.5v153.992c0 4.143 3.357 7.5 7.5 7.5s7.5-3.357 7.5-7.5v-153.992c0-11.855-9.645-21.5-21.5-21.5h-158c-11.855 0-21.5 9.645-21.5 21.5v203.5h-243.5c-12.407 0-22.5-10.094-22.5-22.5v-154.636c0-4.143-3.358-7.5-7.5-7.5s-7.5 3.357-7.5 7.5v154.636c0 20.678 16.822 37.5 37.5 37.5h243.5v27.5c0 11.855 9.645 21.5 21.5 21.5h158c11.855 0 21.5-9.645 21.5-21.5v-28.255c17.096-3.484 30-18.635 30-36.745v-294c0-20.678-16.822-37.5-37.5-37.5zm-7.5 396.5c0 3.584-2.916 6.5-6.5 6.5h-158c-3.584 0-6.5-2.916-6.5-6.5v-27.5h171z"/><path d="m33.006 90.871c0 12.406 10.093 22.5 22.5 22.5s22.5-10.094 22.5-22.5-10.093-22.5-22.5-22.5-22.5 10.094-22.5 22.5zm30 0c0 4.136-3.364 7.5-7.5 7.5s-7.5-3.364-7.5-7.5 3.364-7.5 7.5-7.5 7.5 3.364 7.5 7.5z"/><path d="m91.166 90.871c0 12.406 10.093 22.5 22.5 22.5s22.5-10.094 22.5-22.5-10.093-22.5-22.5-22.5-22.5 10.094-22.5 22.5zm30 0c0 4.136-3.364 7.5-7.5 7.5s-7.5-3.364-7.5-7.5 3.364-7.5 7.5-7.5 7.5 3.364 7.5 7.5z"/><path d="m149.325 90.871c0 12.406 10.093 22.5 22.5 22.5s22.5-10.094 22.5-22.5-10.093-22.5-22.5-22.5-22.5 10.094-22.5 22.5zm30 0c0 4.136-3.364 7.5-7.5 7.5s-7.5-3.364-7.5-7.5 3.364-7.5 7.5-7.5 7.5 3.364 7.5 7.5z"/><path d="m399.5 199h-36c-4.143 0-7.5 3.357-7.5 7.5s3.357 7.5 7.5 7.5h36c4.143 0 7.5-3.357 7.5-7.5s-3.357-7.5-7.5-7.5z"/><path d="m351.783 276.038c-2.93-2.928-7.678-2.928-10.607 0l-28.473 28.473c-2.929 2.93-2.929 7.678 0 10.606l28.096 28.097c1.465 1.465 3.384 2.197 5.304 2.197 1.919 0 3.839-.732 5.303-2.196 2.93-2.929 2.93-7.678.001-10.606l-22.793-22.794 23.17-23.169c2.928-2.93 2.928-7.678-.001-10.608z"/><path d="m411.595 343.215c1.464 1.464 3.384 2.196 5.303 2.196s3.839-.732 5.304-2.197l28.096-28.097c2.929-2.929 2.929-7.677 0-10.606l-28.473-28.473c-2.93-2.928-7.678-2.928-10.607 0-2.929 2.93-2.929 7.678 0 10.607l23.17 23.169-22.793 22.794c-2.93 2.929-2.93 7.678 0 10.607z"/><path d="m401.01 258.267c-3.872-1.471-8.202.477-9.673 4.351l-33.668 88.696c-1.47 3.872.478 8.203 4.351 9.673.876.333 1.775.49 2.66.49 3.025 0 5.875-1.844 7.013-4.841l33.668-88.696c1.469-3.873-.478-8.204-4.351-9.673z"/><path d="m102.742 209.439c4.142 0 7.5-3.357 7.5-7.5v-40.015c0-4.143-3.358-7.5-7.5-7.5h-8.553c-4.142 0-7.5 3.357-7.5 7.5s3.358 7.5 7.5 7.5h1.053v32.515c0 4.143 3.358 7.5 7.5 7.5z"/><path d="m58.59 291.444c4.142 0 7.5-3.357 7.5-7.5v-40.014c0-4.143-3.358-7.5-7.5-7.5h-8.553c-4.142 0-7.5 3.357-7.5 7.5s3.358 7.5 7.5 7.5h1.053v32.515c0 4.142 3.358 7.499 7.5 7.499z"/><path d="m73.385 191.185v-18.506c0-10.516-8.555-19.07-19.071-19.07s-19.071 8.555-19.071 19.07v18.506c0 10.516 8.555 19.071 19.071 19.071s19.071-8.556 19.071-19.071zm-15 0c0 2.245-1.826 4.071-4.071 4.071s-4.071-1.826-4.071-4.071v-18.506c0-2.244 1.826-4.07 4.071-4.07s4.071 1.826 4.071 4.07z"/><path d="m83.671 273.189c0 10.516 8.555 19.071 19.071 19.071s19.071-8.556 19.071-19.071v-18.505c0-10.516-8.555-19.071-19.071-19.071s-19.071 8.556-19.071 19.071zm15-18.504c0-2.245 1.826-4.071 4.071-4.071s4.071 1.826 4.071 4.071v18.505c0 2.245-1.826 4.071-4.071 4.071s-4.071-1.826-4.071-4.071z"/><path d="m150.872 291.444c4.142 0 7.5-3.357 7.5-7.5v-40.014c0-4.143-3.358-7.5-7.5-7.5h-8.553c-4.142 0-7.5 3.357-7.5 7.5s3.358 7.5 7.5 7.5h1.053v32.515c0 4.142 3.358 7.499 7.5 7.499z"/><path d="m243.154 291.444c4.142 0 7.5-3.357 7.5-7.5v-40.014c0-4.143-3.358-7.5-7.5-7.5h-8.553c-4.142 0-7.5 3.357-7.5 7.5s3.358 7.5 7.5 7.5h1.053v32.515c0 4.142 3.358 7.499 7.5 7.499z"/><path d="m175.953 273.189c0 10.516 8.555 19.071 19.071 19.071s19.071-8.556 19.071-19.071v-18.505c0-10.516-8.555-19.071-19.071-19.071s-19.071 8.556-19.071 19.071zm15-18.504c0-2.245 1.826-4.071 4.071-4.071s4.071 1.826 4.071 4.071v18.505c0 2.245-1.826 4.071-4.071 4.071s-4.071-1.826-4.071-4.071z"/><path d="m195.024 209.439c4.142 0 7.5-3.357 7.5-7.5v-40.015c0-4.143-3.358-7.5-7.5-7.5h-8.553c-4.142 0-7.5 3.357-7.5 7.5s3.358 7.5 7.5 7.5h1.053v32.515c0 4.143 3.358 7.5 7.5 7.5z"/><path d="m165.667 191.185v-18.506c0-10.516-8.555-19.07-19.071-19.07s-19.071 8.555-19.071 19.07v18.506c0 10.516 8.555 19.071 19.071 19.071s19.071-8.556 19.071-19.071zm-15 0c0 2.245-1.826 4.071-4.071 4.071s-4.071-1.826-4.071-4.071v-18.506c0-2.244 1.826-4.07 4.071-4.07s4.071 1.826 4.071 4.07z"/><path d="m257.948 191.185v-18.506c0-10.516-8.555-19.07-19.071-19.07s-19.071 8.555-19.071 19.07v18.506c0 10.516 8.555 19.071 19.071 19.071s19.071-8.556 19.071-19.071zm-14.999 0c0 2.245-1.826 4.071-4.071 4.071s-4.071-1.826-4.071-4.071v-18.506c0-2.244 1.826-4.07 4.071-4.07s4.071 1.826 4.071 4.07z"/><path d="m102.742 373.856c4.142 0 7.5-3.357 7.5-7.5v-40.015c0-4.143-3.358-7.5-7.5-7.5h-8.553c-4.142 0-7.5 3.357-7.5 7.5s3.358 7.5 7.5 7.5h1.053v32.515c0 4.143 3.358 7.5 7.5 7.5z"/><path d="m35.242 355.602c0 10.516 8.555 19.071 19.071 19.071s19.071-8.556 19.071-19.071v-18.505c0-10.516-8.555-19.071-19.071-19.071s-19.071 8.556-19.071 19.071zm15-18.505c0-2.245 1.826-4.071 4.071-4.071s4.071 1.826 4.071 4.071v18.505c0 2.245-1.826 4.071-4.071 4.071s-4.071-1.826-4.071-4.071z"/><path d="m195.024 373.856c4.142 0 7.5-3.357 7.5-7.5v-40.015c0-4.143-3.358-7.5-7.5-7.5h-8.553c-4.142 0-7.5 3.357-7.5 7.5s3.358 7.5 7.5 7.5h1.053v32.515c0 4.143 3.358 7.5 7.5 7.5z"/><path d="m127.524 355.602c0 10.516 8.555 19.071 19.071 19.071s19.071-8.556 19.071-19.071v-18.505c0-10.516-8.555-19.071-19.071-19.071s-19.071 8.556-19.071 19.071zm15-18.505c0-2.245 1.826-4.071 4.071-4.071s4.071 1.826 4.071 4.071v18.505c0 2.245-1.826 4.071-4.071 4.071s-4.071-1.826-4.071-4.071z"/><path d="m219.806 355.602c0 10.516 8.555 19.071 19.071 19.071s19.071-8.556 19.071-19.071v-18.505c0-10.516-8.555-19.071-19.071-19.071s-19.071 8.556-19.071 19.071zm15-18.505c0-2.245 1.826-4.071 4.071-4.071s4.071 1.826 4.071 4.071v18.505c0 2.245-1.826 4.071-4.071 4.071s-4.071-1.826-4.071-4.071z"/></g></g></svg>