<svg xmlns="http://www.w3.org/2000/svg" width="96.782" height="108.642" viewBox="0 0 96.782 108.642">
  <g id="atomic-swap" transform="translate(-9.736 -5.475)">
    <path id="Path_1317" data-name="Path 1317" d="M47.883,5.475c-2.93,0-5.558,1.806-7.8,4.664a39.207,39.207,0,0,0-5.811,11.736c-3.246,9.786-5.2,23.149-5.2,37.921s1.953,28.174,5.2,37.959a39.207,39.207,0,0,0,5.811,11.736c2.241,2.857,4.868,4.625,7.8,4.625s5.6-1.768,7.837-4.625a39.212,39.212,0,0,0,5.772-11.736c3.246-9.786,5.237-23.187,5.237-37.959S64.737,31.66,61.492,21.874a39.212,39.212,0,0,0-5.772-11.736C53.479,7.281,50.813,5.475,47.883,5.475Zm0,2.447c1.934,0,3.913,1.191,5.887,3.708A37.3,37.3,0,0,1,59.2,22.639c3.129,9.433,5.084,22.6,5.084,37.157S62.327,87.52,59.2,96.952a37.3,37.3,0,0,1-5.428,11.009c-1.974,2.517-3.953,3.708-5.887,3.708s-3.913-1.191-5.887-3.708a37.33,37.33,0,0,1-5.39-11.009c-3.129-9.433-5.084-22.6-5.084-37.157s1.955-27.724,5.084-37.157A37.328,37.328,0,0,1,42,11.63c1.974-2.517,3.953-3.708,5.887-3.708Z" transform="translate(10.231 0)" fill="#2453b6"/>
    <path id="Path_1318" data-name="Path 1318" d="M95.352,17.52c-2.009-2.133-5.126-2.806-8.742-2.477a39.206,39.206,0,0,0-12.526,3.819C64.736,23.21,53.671,30.953,42.92,41.084S23.754,61.827,18.858,70.9A39.206,39.206,0,0,0,14.3,83.177c-.543,3.59-.028,6.715,1.982,8.848s5.124,2.86,8.741,2.531a39.211,39.211,0,0,0,12.5-3.847c9.348-4.348,20.467-12.09,31.218-22.221S87.853,47.744,92.749,38.671a39.211,39.211,0,0,0,4.583-12.249c.543-3.59.029-6.769-1.98-8.9ZM93.572,19.2c1.326,1.407,1.817,3.665,1.339,6.827a37.3,37.3,0,0,1-4.29,11.5c-4.719,8.746-12.964,19.2-23.556,29.182S45.546,84.3,36.535,88.489a37.3,37.3,0,0,1-11.735,3.6c-3.185.29-5.41-.334-6.736-1.742s-1.817-3.665-1.339-6.827a37.328,37.328,0,0,1,4.316-11.473C25.761,63.3,34.005,52.845,44.6,42.865s21.519-17.59,30.529-21.781a37.328,37.328,0,0,1,11.709-3.627c3.185-.29,5.41.334,6.736,1.742Z" transform="translate(2.308 5.02)" fill="#2453b6"/>
    <path id="Path_1319" data-name="Path 1319" d="M105.584,78.293c1.427-2.559,1.128-5.734-.276-9.082a39.207,39.207,0,0,0-7.421-10.79C90.921,50.82,80.2,42.607,67.3,35.414S41.739,23.4,31.611,21.47a39.206,39.206,0,0,0-13.08-.64c-3.587.566-6.411,2-7.837,4.559s-1.181,5.749.224,9.1a39.212,39.212,0,0,0,7.439,10.756c6.966,7.6,17.7,15.865,30.6,23.059S74.506,80.263,84.633,82.193a39.212,39.212,0,0,0,13.061.673c3.587-.566,6.463-2.014,7.889-4.574ZM103.447,77.1c-.942,1.689-2.946,2.838-6.105,3.336a37.3,37.3,0,0,1-12.259-.62c-9.762-1.861-22.218-6.566-34.929-13.653S26.89,50.956,20.175,43.63a37.3,37.3,0,0,1-6.972-10.1c-1.237-2.949-1.313-5.259-.372-6.947s2.946-2.838,6.105-3.336a37.328,37.328,0,0,1,12.241.653c9.762,1.861,22.218,6.566,34.929,13.653S89.369,52.759,96.084,60.085a37.328,37.328,0,0,1,6.991,10.069c1.237,2.949,1.313,5.259.372,6.947Z" transform="translate(0 7.964)" fill="#2453b6"/>
    <path id="Path_1320" data-name="Path 1320" d="M-27.235,21.041A4.955,4.955,0,0,1-32.189,26a4.955,4.955,0,0,1-4.955-4.955,4.955,4.955,0,0,1,4.955-4.955A4.955,4.955,0,0,1-27.235,21.041Z" transform="translate(48.37 26.697)" fill="#2453b6"/>
    <path id="Path_1321" data-name="Path 1321" d="M-27.235,21.041A4.955,4.955,0,0,1-32.189,26a4.955,4.955,0,0,1-4.955-4.955,4.955,4.955,0,0,1,4.955-4.955A4.955,4.955,0,0,1-27.235,21.041Z" transform="translate(122.995 27.219)" fill="#2453b6"/>
    <path id="Path_1322" data-name="Path 1322" d="M-27.235,21.041A4.955,4.955,0,0,1-32.189,26a4.955,4.955,0,0,1-4.955-4.955,4.955,4.955,0,0,1,4.955-4.955A4.955,4.955,0,0,1-27.235,21.041Z" transform="translate(103.687 74.708)" fill="#2453b6"/>
    <path id="Path_1323" data-name="Path 1323" d="M40.862,35.3a5.994,5.994,0,0,0-5.887,6.116A6.224,6.224,0,0,0,36.236,45.2a7.954,7.954,0,0,1,5.925-2.676h.153a8.025,8.025,0,0,1,3.823-3.861A5.919,5.919,0,0,0,40.862,35.3Z" transform="translate(13.353 15.78)" fill="#2453b6"/>
    <path id="Path_1324" data-name="Path 1324" d="M41.319,40.881a6.139,6.139,0,0,0,0,12.271,5.877,5.877,0,0,0,4.7-2.408,8.454,8.454,0,0,1-4.09-9.824A5.9,5.9,0,0,0,41.319,40.881Z" transform="translate(13.575 18.733)" fill="#2453b6"/>
    <path id="Path_1325" data-name="Path 1325" d="M-42.332,28.645a6.985,6.985,0,0,1-6.862,7.1,6.986,6.986,0,0,1-6.862-7.1,6.986,6.986,0,0,1,6.862-7.1,6.986,6.986,0,0,1,6.862,7.1Z" transform="translate(112.334 33.087)" fill="#2453b6"/>
  </g>
</svg>
