<?xml version="1.0"?>
<svg xmlns="http://www.w3.org/2000/svg" height="512px" viewBox="0 0 56 56" width="512px"><g><g id="Page-1" fill="none" fill-rule="evenodd"><g id="006---AR-Phone-Projection" fill="rgb(0,0,0)" fill-rule="nonzero"><path id="Shape" d="m37.474 9.031c-.4865629.26178297-1.093217.07956286-1.355-.407s-.0795629-1.09321703.407-1.355l2.363-1.269-10.652-5.737c-.1479618-.0796501-.3260382-.0796501-.474 0l-10.652 5.737 2.363 1.27c.4865629.26178297.668783.86843714.407 1.355s-.8684371.66878297-1.355.407l-2.526-1.359v11.427c.0000965.1838674.1011001.3528469.263.44l10.737 5.786v-3.326c0-.5522847.4477153-1 1-1s1 .4477153 1 1v3.326l10.737-5.782c.1631693-.0878299.2643824-.2586992.263-.444v-11.427zm-5 2.7-3.474 1.869v2.4c0 .5522847-.4477153 1-1 1s-1-.4477153-1-1v-2.4l-3.474-1.867c-.4865629-.261783-.668783-.8684371-.407-1.355.261783-.48656286.8684371-.66878297 1.355-.407l3.526 1.894 3.526-1.9c.4865629-.26178297 1.093217-.07956286 1.355.407.261783.4865629.0795629 1.093217-.407 1.355z" data-original="#000000" className="active-path" data-old_color="#000000" fill="#FFFFFF"/><path id="Shape" d="m1.12 52h4.226l6.125-14h-1.241c-1.10169583-.0139716-2.13716203.5247862-2.758 1.435l-7.308 11.056c-.10590558.148666-.16319432.3264707-.164.509.03490518.5845677.53522731 1.0312839 1.12 1z" data-original="#000000" className="active-path" data-old_color="#000000" fill="#FFFFFF"/><path id="Shape" d="m1.12 54c-.38276875-.0017901-.76211149-.0722394-1.12-.208v1.208c0 .5522847.44771525 1 1 1h54c.5522847 0 1-.4477153 1-1v-1.208c-.3578885.1357606-.7372313.2062099-1.12.208z" data-original="#000000" className="active-path" data-old_color="#000000" fill="#FFFFFF"/><path id="Shape" d="m45.77 38h-.242l1 2.29c.1244492.2851966.1090461.6120726-.0416703.8843028-.1507163.2722302-.4195684.4587878-.7273297.5046972l-.87.435c-.4471552.223402-.66067.7426698-.5 1.216l1.071 3.214c.1172767.350588.4184052.607874.783.669l2.868.477c.3974352.0002048.757026.2357446.916.6l1.627 3.71h3.226c.5847727.0312839 1.0850948-.4154323 1.12-1 .0000436-.1788025-.0547538-.3533165-.157-.5l-7.317-11.07c-.6215805-.9077194-1.6559505-1.4444208-2.756-1.43z" data-original="#000000" className="active-path" data-old_color="#000000" fill="#FFFFFF"/><path id="Shape" d="m14.882 38h-1.228l-6.125 14h41.94l-1.049-2.393-2.505-.42c-1.0998152-.1789215-2.0081231-.9560936-2.355-2.015l-1.069-3.206c-.4671103-1.4166996.1701306-2.9622211 1.5-3.638l.306-.153-.952-2.175h-2.227l12.719-19.453c.2018671-.2990627.2269735-.6836811.065697-1.0064483-.1612764-.3227673-.483923-.5336247-.8442838-.5517602-.3603608-.0181354-.7025466.1592638-.8954132.4642085l-16.704 25.547h-14.918l-16.704-25.547c-.19286656-.3049447-.53505243-.4823439-.89541323-.4642085-.36036079.0181355-.68300733.2289929-.84428378.5517602-.16127644.3227672-.13617006.7073856.06569701 1.0064483z" data-original="#000000" className="active-path" data-old_color="#000000" fill="#FFFFFF"/></g></g></g> </svg>
