<?xml version="1.0"?>
<svg xmlns="http://www.w3.org/2000/svg" xmlns:xlink="http://www.w3.org/1999/xlink" xmlns:svgjs="http://svgjs.com/svgjs" version="1.1" width="512" height="512" x="0" y="0" viewBox="0 0 511.975 511.975" style="enable-background:new 0 0 512 512" xml:space="preserve" className=""><g><g xmlns="http://www.w3.org/2000/svg"><path d="m255.02 492.353c0 10.181 8.283 18.463 18.464 18.463h200.879c10.181 0 18.464-8.282 18.464-18.463v-224.129c0-10.181-8.283-18.463-18.464-18.463h-43.503c41.551-20.759 70.127-63.486 70.127-112.719 0-19.866-4.523-38.88-13.443-56.514-1.87-3.696-6.382-5.175-10.078-3.307-3.696 1.87-5.177 6.382-3.307 10.078 7.849 15.515 11.828 32.251 11.828 49.742 0 61.267-50.271 111.111-112.064 111.111s-112.064-49.845-112.064-111.111 50.271-111.11 112.064-111.11c32.133 0 62.769 13.712 84.051 37.619 2.754 3.092 7.493 3.37 10.589.614 3.094-2.754 3.369-7.494.614-10.589-24.125-27.101-58.845-42.645-95.254-42.645-70.063 0-127.064 56.573-127.064 126.111 0 49.233 28.576 91.96 70.127 112.719h-43.502c-10.181 0-18.464 8.282-18.464 18.463zm222.807-144.17h-207.807v-34.211h207.807zm0 49.211h-207.807v-34.211h207.807zm-207.807 15h207.807v34.211h-207.807zm0-144.17c0-1.909 1.554-3.463 3.464-3.463h200.879c1.91 0 3.464 1.554 3.464 3.463v30.748h-207.807zm207.807 224.129c0 1.909-1.554 3.463-3.464 3.463h-200.879c-1.91 0-3.464-1.554-3.464-3.463v-30.748h207.807z" fill="#ffffff" data-original="#000000" style="" className=""/><path d="m373.923 41.234c-53.227 0-96.529 42.979-96.529 95.809s43.303 95.809 96.529 95.809 96.529-42.979 96.529-95.809-43.302-95.809-96.529-95.809zm0 176.617c-44.955 0-81.529-36.251-81.529-80.809s36.574-80.809 81.529-80.809 81.529 36.251 81.529 80.809-36.574 80.809-81.529 80.809z" fill="#ffffff" data-original="#000000" style="" className=""/><path d="m351.868 186.768v5.708c0 4.143 3.357 7.5 7.5 7.5s7.5-3.357 7.5-7.5v-5.708h9.063v5.708c0 4.143 3.357 7.5 7.5 7.5s7.5-3.357 7.5-7.5v-5.708h.702c15.957 0 28.939-12.982 28.939-28.939 0-10.66-5.798-19.985-14.401-25.006 3.88-4.925 6.204-11.13 6.204-17.872 0-13.365-9.11-24.638-21.444-27.95v-6.698c0-4.143-3.357-7.5-7.5-7.5s-7.5 3.357-7.5 7.5v5.708h-9.063v-5.708c0-4.143-3.357-7.5-7.5-7.5s-7.5 3.357-7.5 7.5v5.708h-17.093c-4.143 0-7.5 3.357-7.5 7.5s3.357 7.5 7.5 7.5h5.229v70.757h-5.229c-4.143 0-7.5 3.357-7.5 7.5s3.357 7.5 7.5 7.5zm45.506-71.817c0 7.687-6.253 13.939-13.939 13.939h-28.432v-27.879h28.432c7.686 0 13.939 6.253 13.939 13.94zm-5.742 28.939c7.687 0 13.939 6.253 13.939 13.938 0 7.687-6.253 13.939-13.939 13.939h-36.629v-27.877z" fill="#ffffff" data-original="#000000" style="" className=""/><path d="m193.305 281.885v-11.205h8.48c4.143 0 7.5-3.357 7.5-7.5 0-21.67-17.629-39.299-39.299-39.299h-119.7c-21.669 0-39.299 17.629-39.299 39.299 0 4.143 3.357 7.5 7.5 7.5h7.54v11.205c0 19.644 13.691 41.314 40.694 64.41 10.732 9.18 21.371 16.686 28.854 21.631-10.501 6.934-27.203 18.901-41.598 33.43-2.916 2.942-2.895 7.691.048 10.607 2.942 2.913 7.691 2.893 10.606-.049 16.474-16.626 36.817-30.061 45.065-35.222 22.209 13.699 68.607 48.323 68.607 77.279v11.205h-137.275v-11.205c0-6.012 2.038-12.67 6.058-19.789 2.036-3.607.763-8.182-2.844-10.219-3.607-2.034-8.182-.763-10.219 2.844-5.305 9.397-7.995 18.536-7.995 27.164v11.205h-7.54c-4.143 0-7.5 3.357-7.5 7.5 0 21.67 17.63 39.299 39.299 39.299h119.7c21.67 0 39.299-17.629 39.299-39.299 0-4.143-3.357-7.5-7.5-7.5h-8.48v-11.205c0-19.644-13.691-41.314-40.694-64.411-10.734-9.181-21.374-16.688-28.857-21.633 7.483-4.945 18.124-12.452 28.857-21.633 27.002-23.095 40.693-44.766 40.693-64.409zm-23.318 215.09h-119.7c-10.782 0-19.947-7.06-23.114-16.799h6.355 152.277 7.296c-3.167 9.74-12.332 16.799-23.114 16.799zm-119.701-258.094h119.7c10.782 0 19.947 7.06 23.114 16.799h-7.296-152.276-6.355c3.166-9.74 12.331-16.799 23.113-16.799zm-9.258 43.004v-11.205h137.277v11.205c0 28.971-46.447 63.615-68.641 77.3-22.197-13.671-68.636-48.286-68.636-77.3z" fill="#ffffff" data-original="#000000" style="" className=""/><path d="m66.176 86.498 13.405-11.877v100.253c0 12.768 10.422 23.154 23.232 23.154s23.233-10.387 23.233-23.154v-100.253l13.405 11.876c4.257 3.772 9.737 5.85 15.431 5.85 6.619 0 12.94-2.822 17.344-7.742 4.135-4.62 6.215-10.567 5.856-16.748-.358-6.183-3.114-11.854-7.759-15.969l-52.072-46.132c-8.656-7.674-22.217-7.674-30.873-.002l-52.073 46.133c-4.646 4.114-7.401 9.786-7.76 15.969-.358 6.18 1.721 12.128 5.855 16.747 8.513 9.516 23.217 10.364 32.776 1.895zm-23.656-17.774c.126-2.168 1.096-4.16 2.731-5.608l52.077-46.136c3.025-2.682 7.948-2.684 10.976.002l52.074 46.134h.001c1.635 1.448 2.604 3.44 2.73 5.608.125 2.166-.606 4.252-2.06 5.877-1.562 1.744-3.809 2.745-6.166 2.745-2.024 0-3.972-.737-5.483-2.077l-25.879-22.927c-2.21-1.957-5.362-2.436-8.052-1.225-2.691 1.211-4.422 3.888-4.422 6.839v116.917c0 4.496-3.693 8.154-8.233 8.154-4.539 0-8.232-3.658-8.232-8.154v-116.916c0-2.951-1.73-5.628-4.422-6.839-.987-.444-2.035-.661-3.077-.661-1.798 0-3.575.646-4.975 1.886l-25.879 22.927c-3.401 3.012-8.626 2.711-11.65-.669-1.454-1.624-2.184-3.711-2.059-5.877z" fill="#ffffff" data-original="#000000" style="" className=""/></g></g></svg>
