<?xml version="1.0" encoding="iso-8859-1"?>
<!-- Generator: Adobe Illustrator 19.0.0, SVG Export Plug-In . SVG Version: 6.00 Build 0)  -->
<svg xmlns="http://www.w3.org/2000/svg" xmlns:xlink="http://www.w3.org/1999/xlink" version="1.1" id="Capa_1" x="0px" y="0px" viewBox="0 0 480 480" style="enable-background:new 0 0 480 480;" xml:space="preserve" width="512px" height="512px">
<g>
	<g>
		<path d="M352,320c-13.255,0-24,10.745-24,24s10.745,24,24,24s24-10.745,24-24S365.255,320,352,320z M352,352c-4.418,0-8-3.582-8-8    s3.582-8,8-8s8,3.582,8,8S356.418,352,352,352z" fill="#2453b6"/>
	</g>
</g>
<g>
	<g>
		<path d="M432,224.8V120c0-4.418-3.582-8-8-8h-66.4C344.428,38.215,273.936-10.922,200.151,2.249    C144.193,12.238,100.389,56.042,90.4,112H64c-26.499,0.026-47.974,21.501-48,48v272c0.026,26.499,21.501,47.974,48,48h360    c4.418,0,8-3.582,8-8v-72.8c18.611-3.827,31.976-20.199,32-39.2v-96C463.976,244.999,450.611,228.627,432,224.8z M431.976,241.368    c9.591,3.395,16.008,12.458,16.024,22.632c-0.01,1.48-0.16,2.956-0.448,4.408c-0.08,0.448-0.208,0.872-0.32,1.312    c-0.236,0.978-0.535,1.941-0.896,2.88c-0.176,0.456-0.352,0.904-0.552,1.336c-0.432,0.935-0.923,1.841-1.472,2.712    c-0.208,0.328-0.392,0.68-0.608,1c-0.795,1.14-1.687,2.211-2.664,3.2c-0.168,0.168-0.368,0.312-0.544,0.48    c-0.842,0.796-1.737,1.534-2.68,2.208c-0.376,0.264-0.8,0.504-1.16,0.744c-0.829,0.52-1.689,0.987-2.576,1.4    c-0.432,0.2-0.864,0.408-1.304,0.584c-0.248,0.096-0.52,0.144-0.8,0.24V241.368z M348.352,190.704    c1.704-3.856,3.264-7.768,4.6-11.752c0.168-0.504,0.304-1.024,0.464-1.528c1.208-3.744,2.232-7.528,3.104-11.36    c0.168-0.728,0.36-1.448,0.52-2.184c0.864-4.088,1.52-8.208,2-12.36c0.104-0.872,0.176-1.736,0.264-2.608    C359.72,144.624,360,140.32,360,136c0-2.592-0.088-5.224-0.28-8H416v64h-68.16C348.032,191.576,348.16,191.128,348.352,190.704z     M224,16c66.093,0.436,119.564,53.907,120,120c-0.014,4.575-0.297,9.146-0.848,13.688c0,0.4-0.064,0.8-0.12,1.216    c-0.565,4.307-1.366,8.581-2.4,12.8c-0.144,0.592-0.264,1.176-0.416,1.768c-1.06,4.112-2.337,8.166-3.824,12.144    c-0.24,0.648-0.48,1.296-0.736,1.944c-1.55,3.942-3.304,7.801-5.256,11.56c-0.152,0.296-0.32,0.584-0.472,0.88h-18.4    c10.734-16.707,16.451-36.142,16.472-56h-16c-0.012,20.454-7.168,40.261-20.232,56h-25.864c10.382-15.471,7.214-36.312-7.296-48    c15.435-12.413,17.886-34.988,5.473-50.423c-4.195-5.216-9.765-9.154-16.081-11.369V64h-16v16h-16V64h-16v16h-16    c-4.418,0-8,3.582-8,8v104h-57.952c-0.152-0.296-0.32-0.584-0.472-0.88c-1.95-3.756-3.702-7.612-5.248-11.552    c-0.256-0.64-0.488-1.288-0.728-1.928c-1.494-3.979-2.773-8.036-3.832-12.152c-0.152-0.592-0.272-1.176-0.416-1.768    c-1.035-4.219-1.836-8.492-2.4-12.8c-0.056-0.4-0.08-0.8-0.12-1.2c-0.546-4.553-0.824-9.134-0.832-13.72    C104.436,69.907,157.907,16.436,224,16z M236,136h-44V96h44c11.046,0,20,8.954,20,20S247.046,136,236,136z M256,172    c0,11.046-8.954,20-20,20h-44v-40h44C247.046,152,256,160.954,256,172z M64,128h24.28c-0.192,2.776-0.28,5.408-0.28,8    c0,4.32,0.28,8.624,0.696,12.912c0.088,0.872,0.16,1.736,0.264,2.608c0.48,4.152,1.136,8.272,2,12.36    c0.16,0.736,0.352,1.456,0.52,2.184c0.872,3.832,1.896,7.616,3.104,11.36c0.16,0.504,0.296,1.024,0.464,1.528    c1.336,4,2.896,7.896,4.6,11.752c0.192,0.424,0.32,0.872,0.512,1.296H64c-17.673,0-32-14.327-32-32S46.327,128,64,128z M416,464    H64c-17.673,0-32-14.327-32-32V195.68c8.773,7.927,20.176,12.317,32,12.32h352v80h-61.992    c-30.745-0.334-56.306,23.589-58.008,54.288c-0.945,30.914,23.348,56.74,54.262,57.686c0.579,0.018,1.159,0.026,1.738,0.026h64    V464z M448,360c0,13.255-10.745,24-24,24h-72c-22.091,0.011-40.009-17.889-40.019-39.981c0-0.42,0.006-0.84,0.019-1.259    c1.391-22.072,19.896-39.146,42.008-38.76H424c2.49-0.018,4.973-0.269,7.416-0.752c0.8-0.144,1.504-0.376,2.256-0.568    c1.61-0.394,3.194-0.885,4.744-1.472c0.8-0.32,1.6-0.664,2.4-1.032c1.431-0.67,2.82-1.426,4.16-2.264    c0.696-0.432,1.4-0.8,2.064-1.312c0.312-0.224,0.672-0.392,0.976-0.616L448,360z" fill="#2453b6"/>
	</g>
</g>
<g>
	<g>
		<path d="M120,136h16c0.057-48.577,39.423-87.943,88-88V32C166.59,32.066,120.066,78.59,120,136z" fill="#2453b6"/>
	</g>
</g>
<g>
	<g>
		<path d="M144,224v52.688l-21.656,21.656c-1.5,1.5-2.344,3.534-2.344,5.656v33.472c-12.497,4.418-19.046,18.131-14.627,30.627    c4.418,12.497,18.131,19.046,30.627,14.627s19.046-18.131,14.627-30.627c-2.416-6.835-7.793-12.211-14.627-14.627v-30.16    l21.656-21.656c1.5-1.5,2.344-3.534,2.344-5.656v-56H144z M128,368c-4.418,0-8-3.582-8-8s3.582-8,8-8s8,3.582,8,8    S132.418,368,128,368z" fill="#2453b6"/>
	</g>
</g>
<g>
	<g>
		<path d="M104,224v20l-28.8,21.6c-2.014,1.511-3.2,3.882-3.2,6.4v9.472c-12.497,4.418-19.046,18.131-14.627,30.627    c4.418,12.497,18.131,19.046,30.627,14.627s19.046-18.131,14.627-30.627c-2.416-6.835-7.793-12.211-14.627-14.627V276l28.8-21.6    c2.014-1.511,3.2-3.882,3.2-6.4v-24H104z M80,312c-4.418,0-8-3.582-8-8s3.582-8,8-8s8,3.582,8,8S84.418,312,80,312z" fill="#2453b6"/>
	</g>
</g>
<g>
	<g>
		<path d="M286.627,408.099c-2.416-6.835-7.793-12.211-14.627-14.627V328c0-2.122-0.844-4.156-2.344-5.656L248,300.688V224h-16v80    c0,2.122,0.844,4.156,2.344,5.656L256,331.312v62.16c-12.497,4.418-19.046,18.131-14.627,30.627s18.131,19.046,30.627,14.627    C284.497,434.309,291.046,420.596,286.627,408.099z M264,424c-4.418,0-8-3.582-8-8s3.582-8,8-8s8,3.582,8,8S268.418,424,264,424z" fill="#2453b6"/>
	</g>
</g>
<g>
	<g>
		<path d="M192,224v92.688l-13.656,13.656c-1.5,1.5-2.344,3.534-2.344,5.656v64h16v-60.688l13.656-13.656    c1.5-1.5,2.344-3.534,2.344-5.656v-96H192z" fill="#2453b6"/>
	</g>
</g>
<g>
	<g>
		<rect x="288" y="224" width="16" height="32" fill="#2453b6"/>
	</g>
</g>
<g>
	<g>
		<path d="M364.44,249.344L344,235.72V224h-16v16c0,2.674,1.335,5.172,3.56,6.656L352,260.28V272h16v-16    C368,253.326,366.665,250.828,364.44,249.344z" fill="#2453b6"/>
	</g>
</g>
<g>
	<g>
		<rect x="288" y="272" width="16" height="16" fill="#2453b6"/>
	</g>
</g>
<g>
	<g>
		<path d="M72,0H56c0,17.673-14.327,32-32,32v16c17.673,0,32,14.327,32,32h16c0-17.673,14.327-32,32-32V32C86.327,32,72,17.673,72,0    z M64,53.6c-3.546-5.388-8.135-10.012-13.496-13.6c5.361-3.588,9.95-8.212,13.496-13.6c3.546,5.388,8.135,10.012,13.496,13.6    C72.135,43.588,67.546,48.212,64,53.6z" fill="#2453b6"/>
	</g>
</g>
<g>
</g>
<g>
</g>
<g>
</g>
<g>
</g>
<g>
</g>
<g>
</g>
<g>
</g>
<g>
</g>
<g>
</g>
<g>
</g>
<g>
</g>
<g>
</g>
<g>
</g>
<g>
</g>
<g>
</g>
</svg>
