<?xml version="1.0"?>
<svg xmlns="http://www.w3.org/2000/svg" xmlns:xlink="http://www.w3.org/1999/xlink" version="1.1" id="Capa_1" x="0px" y="0px" viewBox="0 0 512 512" style="enable-background:new 0 0 512 512;" xml:space="preserve" width="512px" height="512px"><g><g>
	<g>
		<path d="M256,0C124.254,0,17.067,107.187,17.067,238.933S124.254,477.867,256,477.867S494.933,370.68,494.933,238.933    S387.746,0,256,0z M256,460.8c-122.334,0-221.867-99.524-221.867-221.867S133.666,17.067,256,17.067    s221.867,99.524,221.867,221.867S378.334,460.8,256,460.8z" data-original="#000000" className="active-path" data-old_color="#000000" fill="#FFFFFF"/>
	</g>
</g><g>
	<g>
		<path d="M256,42.667c-108.22,0-196.267,88.038-196.267,196.267S147.78,435.2,256,435.2s196.267-88.038,196.267-196.267    S364.22,42.667,256,42.667z M256,418.133c-98.816,0-179.2-80.393-179.2-179.2s80.384-179.2,179.2-179.2s179.2,80.393,179.2,179.2    S354.816,418.133,256,418.133z" data-original="#000000" className="active-path" data-old_color="#000000" fill="#FFFFFF"/>
	</g>
</g><g>
	<g>
		<path d="M494.217,255.377c-0.333-4.463-4.045-7.91-8.516-7.91c-4.463,0-8.183,3.447-8.508,7.91    C468.745,370.569,371.584,460.8,256,460.8c-115.593,0-212.753-90.232-221.184-205.423c-0.333-4.463-4.045-7.91-8.516-7.91    c-4.471,0-8.183,3.447-8.516,7.91c-0.486,6.707-0.717,12.322-0.717,17.69C17.067,404.813,124.254,512,256,512    s238.933-107.187,238.933-238.933C494.933,267.699,494.703,262.084,494.217,255.377z M256,494.933    c-87.723,0-163.721-51.174-199.697-125.235C99.277,434.935,173.252,477.867,256,477.867c82.756,0,156.732-42.94,199.706-108.186    C419.729,443.75,343.731,494.933,256,494.933z" data-original="#000000" className="active-path" data-old_color="#000000" fill="#FFFFFF"/>
	</g>
</g><g>
	<g>
		<path d="M281.6,145.067h-59.733c-4.71,0-8.533,3.814-8.533,8.533v85.333c0,4.719,3.823,8.533,8.533,8.533H281.6    c28.237,0,51.2-22.963,51.2-51.2S309.837,145.067,281.6,145.067z M281.6,230.4h-51.2v-68.267h51.2    c18.825,0,34.133,15.309,34.133,34.133S300.425,230.4,281.6,230.4z" data-original="#000000" className="active-path" data-old_color="#000000" fill="#FFFFFF"/>
	</g>
</g><g>
	<g>
		<path d="M281.6,230.4h-59.733c-4.71,0-8.533,3.814-8.533,8.533v85.333c0,4.719,3.823,8.533,8.533,8.533H281.6    c28.237,0,51.2-22.963,51.2-51.2C332.8,253.363,309.837,230.4,281.6,230.4z M281.6,315.733h-51.2v-68.267h51.2    c18.825,0,34.133,15.309,34.133,34.133C315.733,300.425,300.425,315.733,281.6,315.733z" data-original="#000000" className="active-path" data-old_color="#000000" fill="#FFFFFF"/>
	</g>
</g><g>
	<g>
		<path d="M221.867,145.067h-34.133c-4.71,0-8.533,3.814-8.533,8.533c0,4.719,3.823,8.533,8.533,8.533h34.133    c4.71,0,8.533-3.814,8.533-8.533C230.4,148.881,226.577,145.067,221.867,145.067z" data-original="#000000" className="active-path" data-old_color="#000000" fill="#FFFFFF"/>
	</g>
</g><g>
	<g>
		<path d="M221.867,110.933c-4.71,0-8.533,3.814-8.533,8.533V153.6c0,4.719,3.823,8.533,8.533,8.533c4.71,0,8.533-3.814,8.533-8.533    v-34.133C230.4,114.748,226.577,110.933,221.867,110.933z" data-original="#000000" className="active-path" data-old_color="#000000" fill="#FFFFFF"/>
	</g>
</g><g>
	<g>
		<path d="M273.067,110.933c-4.71,0-8.533,3.814-8.533,8.533V153.6c0,4.719,3.823,8.533,8.533,8.533s8.533-3.814,8.533-8.533    v-34.133C281.6,114.748,277.777,110.933,273.067,110.933z" data-original="#000000" className="active-path" data-old_color="#000000" fill="#FFFFFF"/>
	</g>
</g><g>
	<g>
		<path d="M221.867,315.733c-4.71,0-8.533,3.814-8.533,8.533V358.4c0,4.719,3.823,8.533,8.533,8.533c4.71,0,8.533-3.814,8.533-8.533    v-34.133C230.4,319.548,226.577,315.733,221.867,315.733z" data-original="#000000" className="active-path" data-old_color="#000000" fill="#FFFFFF"/>
	</g>
</g><g>
	<g>
		<path d="M273.067,315.733c-4.71,0-8.533,3.814-8.533,8.533V358.4c0,4.719,3.823,8.533,8.533,8.533s8.533-3.814,8.533-8.533    v-34.133C281.6,319.548,277.777,315.733,273.067,315.733z" data-original="#000000" className="active-path" data-old_color="#000000" fill="#FFFFFF"/>
	</g>
</g><g>
	<g>
		<path d="M221.867,315.733h-34.133c-4.71,0-8.533,3.814-8.533,8.533c0,4.719,3.823,8.533,8.533,8.533h34.133    c4.71,0,8.533-3.814,8.533-8.533C230.4,319.548,226.577,315.733,221.867,315.733z" data-original="#000000" className="active-path" data-old_color="#000000" fill="#FFFFFF"/>
	</g>
</g></g> </svg>
