<?xml version="1.0" encoding="iso-8859-1"?>
<!-- Generator: Adobe Illustrator 19.0.0, SVG Export Plug-In . SVG Version: 6.00 Build 0)  -->
<svg xmlns="http://www.w3.org/2000/svg" xmlns:xlink="http://www.w3.org/1999/xlink" version="1.1" id="Capa_1" x="0px" y="0px" viewBox="0 0 480 480" style="enable-background:new 0 0 480 480;" xml:space="preserve" width="512px" height="512px">
<g>
	<g>
		<path d="M153.872,184c8.825-9.807,8.029-24.911-1.778-33.736c-2.354-2.118-5.105-3.747-8.094-4.792V128h-16v16h-16v-16H96v16h-8    c-4.418,0-8,3.582-8,8v64c0,4.418,3.582,8,8,8h8v16h16v-16h16v16h16v-17.472c9.555-3.378,15.958-12.394,16-22.528    C160.005,194.093,157.822,188.393,153.872,184z M136,208H96v-16h40c4.418,0,8,3.582,8,8S140.418,208,136,208z M136,176H96v-16h40    c4.418,0,8,3.582,8,8S140.418,176,136,176z" fill="#FFFFFF"/>
	</g>
</g>
<g>
	<g>
		<path d="M440,0H192c-22.08,0.026-39.974,17.92-40,40v45.144c-10.326-3.403-21.128-5.139-32-5.144    C62.62,79.925,16.043,126.38,15.968,183.76C15.921,219.631,34.381,252.989,64.8,272H40c-4.418,0-8,3.582-8,8v40H8    c-4.418,0-8,3.582-8,8v48c0,4.418,3.582,8,8,8h24v32H8c-4.418,0-8,3.582-8,8v48c0,4.418,3.582,8,8,8h176    c0.82-0.037,1.63-0.202,2.4-0.488c1.851,0.307,3.724,0.47,5.6,0.488h248c22.08-0.026,39.974-17.92,40-40V40    C479.974,17.92,462.08,0.026,440,0z M32,184c0.08-48.521,39.479-87.791,88-87.712s87.791,39.479,87.712,88    C207.632,232.697,168.409,271.921,120,272C71.423,271.943,32.057,232.577,32,184z M48,288h160v32H48V288z M16,368v-32h160v32H16z     M176,464H16v-32h160V464z M48,416v-32h160v32H48z M464,440c0,13.255-10.745,24-24,24H192v-32h24c4.418,0,8-3.582,8-8v-8h240V440z     M464,400H224v-24c0-4.418-3.582-8-8-8h-24v-32h24c4.418,0,8-3.582,8-8v-48c0-4.418-3.582-8-8-8h-40.736    c0.152-0.096,0.28-0.216,0.432-0.312c3.245-2.079,6.372-4.336,9.368-6.76c0.536-0.432,1.072-0.864,1.6-1.304    c2.899-2.429,5.663-5.014,8.28-7.744c0.448-0.464,0.872-0.936,1.304-1.408c2.634-2.832,5.11-5.807,7.416-8.912    c0.208-0.28,0.392-0.576,0.6-0.864c2.265-3.139,4.356-6.4,6.264-9.768c0.144-0.264,0.304-0.504,0.448-0.76    c1.872-3.412,3.549-6.927,5.024-10.528c0.232-0.568,0.48-1.128,0.712-1.696c1.386-3.528,2.579-7.127,3.576-10.784    c0.176-0.656,0.344-1.312,0.512-1.976c0.949-3.729,1.689-7.508,2.216-11.32c0.072-0.528,0.112-1.064,0.176-1.6    c0.515-4.068,0.785-8.163,0.808-12.264c0-2.472-0.096-4.936-0.272-7.384c-0.056-0.8-0.176-1.6-0.256-2.4    c-0.152-1.6-0.304-3.248-0.536-4.856c-0.136-0.952-0.336-1.888-0.496-2.832c-0.248-1.448-0.488-2.896-0.8-4.328    c-0.216-1-0.488-1.984-0.736-2.976c-0.336-1.352-0.656-2.712-1.048-4.04c-0.296-1.016-0.64-2.008-0.968-3.016    c-0.416-1.28-0.8-2.568-1.296-3.832c-0.368-1.008-0.8-1.992-1.184-2.984c-0.496-1.24-0.992-2.472-1.536-3.68    c-0.448-0.984-0.928-1.944-1.392-2.912c-0.584-1.192-1.16-2.4-1.784-3.536c-0.512-0.96-1.056-1.896-1.6-2.832    c-0.656-1.136-1.312-2.264-2.008-3.376c-0.576-0.928-1.184-1.832-1.792-2.736c-0.728-1.08-1.464-2.16-2.224-3.2    c-0.648-0.88-1.312-1.752-1.984-2.616c-0.789-1.035-1.589-2.051-2.4-3.048c-0.704-0.84-1.424-1.664-2.152-2.48    c-0.872-0.976-1.76-1.944-2.664-2.888c-0.76-0.8-1.528-1.6-2.312-2.328c-0.944-0.92-1.904-1.816-2.88-2.704    c-0.8-0.736-1.6-1.456-2.472-2.168c-1-0.856-2.024-1.68-3.064-2.496c-0.872-0.688-1.744-1.368-2.632-2.024    c-1.072-0.8-2.16-1.536-3.256-2.28c-0.92-0.624-1.84-1.24-2.776-1.84c-1.136-0.712-2.296-1.392-3.456-2.072    c-0.96-0.552-1.912-1.112-2.888-1.6c-0.376-0.2-0.728-0.432-1.104-0.624V80H464V400z M464,64H168V40c0-13.255,10.745-24,24-24h248    c13.255,0,24,10.745,24,24V64z" fill="#FFFFFF"/>
	</g>
</g>
<g>
	<g>
		<rect x="304" y="32" width="16" height="16" fill="#FFFFFF"/>
	</g>
</g>
<g>
	<g>
		<path d="M296,272h-32c-4.418,0-8,3.582-8,8v88c0,4.418,3.582,8,8,8h32c4.418,0,8-3.582,8-8v-88C304,275.582,300.418,272,296,272z     M288,360h-16v-72h16V360z" fill="#FFFFFF"/>
	</g>
</g>
<g>
	<g>
		<path d="M360,200h-32c-4.418,0-8,3.582-8,8v160c0,4.418,3.582,8,8,8h32c4.418,0,8-3.582,8-8V208C368,203.582,364.418,200,360,200z     M352,360h-16V216h16V360z" fill="#FFFFFF"/>
	</g>
</g>
<g>
	<g>
		<path d="M424,120h-32c-4.418,0-8,3.582-8,8v240c0,4.418,3.582,8,8,8h32c4.418,0,8-3.582,8-8V128C432,123.582,428.418,120,424,120z     M416,360h-16V136h16V360z" fill="#FFFFFF"/>
	</g>
</g>
<g>
	<g>
		<path d="M360,104h-32v16h14.4l-38.76,44.296l-17.952-17.952c-3.124-3.123-8.188-3.123-11.312,0l-32,32l11.312,11.312L280,163.312    l18.344,18.344c1.559,1.574,3.707,2.421,5.92,2.336c2.215-0.072,4.301-1.06,5.76-2.728l41.976-48V144h16v-32    C368,107.582,364.418,104,360,104z" fill="#FFFFFF"/>
	</g>
</g>
<g>
	<g>
		<path d="M48,0H32c0,17.673-14.327,32-32,32v16c17.673,0,32,14.327,32,32h16c0-17.673,14.327-32,32-32V32C62.327,32,48,17.673,48,0    z M40,53.6c-3.546-5.388-8.135-10.012-13.496-13.6c5.361-3.588,9.95-8.212,13.496-13.6c3.546,5.388,8.135,10.012,13.496,13.6    C48.135,43.588,43.546,48.212,40,53.6z" fill="#FFFFFF"/>
	</g>
</g>
<g>
</g>
<g>
</g>
<g>
</g>
<g>
</g>
<g>
</g>
<g>
</g>
<g>
</g>
<g>
</g>
<g>
</g>
<g>
</g>
<g>
</g>
<g>
</g>
<g>
</g>
<g>
</g>
<g>
</g>
</svg>
