<?xml version="1.0"?>
<svg xmlns="http://www.w3.org/2000/svg" id="Layer_1" enable-background="new 0 0 511.996 511.996" height="512px" viewBox="0 0 511.996 511.996" width="512px"><g><path d="m160.866 130.916c3.496 2.702 8.52 2.06 11.222-1.436 2.977-3.851 2.029-8.788-1.318-11.375-3.299-2.55-8.315-2.312-11.34 1.588-2.702 3.496-2.059 8.52 1.436 11.223z" data-original="#000000" className="active-path" data-old_color="#000000" fill="#FFFFFF"/><path d="m253.581 297.752c3.452 1.095-8.356 4.18 144.834-44.367 7.421-2.351 7.424-12.899 0-15.252l-44.546-14.116c-4.211-1.335-8.708.997-10.043 5.209s.998 8.708 5.209 10.043l20.481 6.49-113.519 35.975-113.517-35.975 63.262-20.048c51.894 16.446 48.85 15.878 51.589 15.414 1.054-.177 141.296-44.64 142.154-45.056 4.56-2.205 5.95-8.061 2.84-12.087-149.97-193.761-140.211-181.616-142.17-182.81-2.259-1.378-5.07-1.573-7.542-.415-2.524 1.176 3.583-6.084-77.653 98.873-2.704 3.494-2.064 8.519 1.43 11.223 3.495 2.704 8.519 2.064 11.223-1.43l60.386-78.019v190.914l-118.66-37.604 21.999-28.423c2.704-3.494 2.064-8.519-1.43-11.223-3.494-2.703-8.519-2.063-11.223 1.43-31.39 40.557-30.024 38.192-30.54 40.884-.233 1.219-.177 2.583.205 3.831 1.705 5.573 3.383 4.705 70.911 26.105l-65.679 20.814c-7.421 2.352-7.425 12.9 0 15.252l65.68 20.814-65.68 20.814c-7.421 2.352-7.425 12.9 0 15.252 152.786 48.419 141.372 45.465 144.834 44.367l140-44.367c7.421-2.351 7.424-12.899 0-15.252l-39.488-12.512c-4.213-1.332-8.709.998-10.043 5.209-1.335 4.212.998 8.708 5.209 10.043l15.423 4.888-113.519 35.975-113.518-35.975 63.262-20.048zm10.417-75.434v-190.914l118.66 153.31z" data-original="#000000" className="active-path" data-old_color="#000000" fill="#FFFFFF"/><path d="m393.581 329.142-137.583 43.601-137.583-43.601c-7.601-2.409-13.675 6.641-8.551 12.761 125.307 149.679 139.874 167.083 139.962 167.184 3.211 3.837 8.96 3.861 12.192.168 24.862-28.602-66.587 79.552 140.115-167.352 5.12-6.117-.947-15.173-8.552-12.761zm-145.583 57.851v94.987l-108.236-129.289zm16 94.987v-94.987l108.236-34.302z" data-original="#000000" className="active-path" data-old_color="#000000" fill="#FFFFFF"/></g> </svg>
