<?xml version="1.0" encoding="iso-8859-1"?>
<!-- Generator: Adobe Illustrator 19.0.0, SVG Export Plug-In . SVG Version: 6.00 Build 0)  -->
<svg xmlns="http://www.w3.org/2000/svg" xmlns:xlink="http://www.w3.org/1999/xlink" version="1.1" id="Capa_1" x="0px" y="0px" viewBox="0 0 480 480" style="enable-background:new 0 0 480 480;" xml:space="preserve" width="512px" height="512px">
<g>
	<g>
		<path d="M434.344,378.344L400,412.688l-18.344-18.344l-11.312,11.312l24,24c1.56,1.56,3.608,2.344,5.656,2.344    c2.048,0,4.096-0.784,5.656-2.344l40-40L434.344,378.344z" fill="#FFFFFF"/>
	</g>
</g>
<g>
	<g>
		<path d="M272,336c4.416,0,8-3.576,8-8v-16h192c4.416,0,8-3.576,8-8V32c0-4.424-3.584-8-8-8h-24V8c0-4.424-3.584-8-8-8h-96    c-4.416,0-8,3.576-8,8v16h-24c-4.416,0-8,3.576-8,8v72h-72V64h40c4.416,0,8-3.576,8-8V8c0-4.424-3.584-8-8-8h-96    c-4.416,0-8,3.576-8,8v48c0,4.424,3.584,8,8,8h40v40h-72V32c0-4.424-3.584-8-8-8h-24V8c0-4.424-3.584-8-8-8H8C3.584,0,0,3.576,0,8    v48c0,4.424,3.584,8,8,8h96c4.416,0,8-3.576,8-8V40h16v72c0,4.424,3.584,8,8,8h80v24h-40c-4.416,0-8,3.576-8,8v48    c0,4.424,3.584,8,8,8h40v24H112v-16c0-4.424-3.584-8-8-8H64v-24h40c4.416,0,8-3.576,8-8v-48c0-4.424-3.584-8-8-8H8    c-4.416,0-8,3.576-8,8v48c0,4.424,3.584,8,8,8h40v24H8c-4.416,0-8,3.576-8,8v48c0,4.424,3.584,8,8,8h96c4.416,0,8-3.576,8-8v-16    h104v24h-40c-4.416,0-8,3.576-8,8v48c0,4.424,3.584,8,8,8h40v40h-40c-4.416,0-8,3.576-8,8v48c0,4.424,3.584,8,8,8h96    c4.416,0,8-3.576,8-8v-16h56.472c4,35.944,34.536,64,71.528,64c39.696,0,72-32.296,72-72c0-39.704-32.304-72-72-72    c-36.992,0-67.536,28.056-71.528,64H280v-16c0-4.424-3.584-8-8-8h-40v-40H272z M96,48H16V16h80V48z M16,168v-32h80v32H16z M96,256    H16v-32h80V256z M408,352c30.88,0,56,25.128,56,56s-25.12,56-56,56s-56-25.128-56-56S377.12,352,408,352z M352,16h80v32h-80V16z     M312,120c4.416,0,8-3.576,8-8V40h16v16c0,4.424,3.584,8,8,8h96c4.416,0,8-3.576,8-8V40h16v256H280v-16c0-4.424-3.584-8-8-8h-40    v-64h40c4.416,0,8-3.576,8-8v-48c0-4.424-3.584-8-8-8h-40v-24H312z M184,48V16h80v32H184z M184,192v-32h80v32H184z M264,392v32    h-80v-32H264z M184,320v-32h80v32H184z" fill="#FFFFFF"/>
	</g>
</g>
<g>
</g>
<g>
</g>
<g>
</g>
<g>
</g>
<g>
</g>
<g>
</g>
<g>
</g>
<g>
</g>
<g>
</g>
<g>
</g>
<g>
</g>
<g>
</g>
<g>
</g>
<g>
</g>
<g>
</g>
</svg>
