<svg id="_x31__x2C_5" enable-background="new 0 0 24 24" height="512" viewBox="0 0 24 24" width="512" xmlns="http://www.w3.org/2000/svg"><path d="m11.864 16.75h11.272v1.5h-11.272z" transform="matrix(.707 -.707 .707 .707 -7.249 17.5)"/><path d="m17.5 24c-3.584 0-6.5-2.916-6.5-6.5s2.916-6.5 6.5-6.5 6.5 2.916 6.5 6.5-2.916 6.5-6.5 6.5zm0-11.5c-2.757 0-5 2.243-5 5s2.243 5 5 5 5-2.243 5-5-2.243-5-5-5z"/><path d="m8.5 21c-.048 0-.096-.005-.143-.014-.084-.016-8.357-1.725-8.357-11.056v-6.18c0-.31.19-.588.479-.699l7.75-3c.174-.068.367-.068.541 0l7.75 3c.29.111.48.389.48.699v4.5c0 .414-.336.75-.75.75s-.75-.336-.75-.75v-3.986l-7-2.709-7 2.709v5.666c0 7.558 6.006 9.313 7.012 9.555.398-.078.8.18.884.586.082.405-.18.802-.586.885l-.189.034c-.04.007-.08.01-.121.01z"/></svg>