<svg xmlns="http://www.w3.org/2000/svg" width="106.655" height="93.53" viewBox="0 0 106.655 93.53">
  <g id="block-expert" transform="translate(-2.496 -8.4)">
    <g id="Group_598" data-name="Group 598" transform="translate(2.496 8.4)">
      <path id="Path_1330" data-name="Path 1330" d="M57.986,53.572a2.385,2.385,0,0,0,1.682-.785A1.711,1.711,0,0,0,60,50.993l-1.346-5.719A.9.9,0,0,1,59,44.264l4.486-3.813a2.152,2.152,0,0,0,.673-2.243A2.2,2.2,0,0,0,62.36,36.75L56.416,36.3a.843.843,0,0,1-.785-.561l-2.243-5.5A2.184,2.184,0,0,0,51.482,28.9a1.916,1.916,0,0,0-1.906,1.346l-2.243,5.5a.843.843,0,0,1-.785.561L40.6,36.75a2.058,2.058,0,0,0-1.794,1.458,2.152,2.152,0,0,0,.673,2.243l4.486,3.813a1.036,1.036,0,0,1,.336,1.009l-1.346,5.719a2.493,2.493,0,0,0,.336,1.794,2.018,2.018,0,0,0,1.682.785,2.164,2.164,0,0,0,1.121-.336l5.047-3.14a.84.84,0,0,1,.561-.112,1.011,1.011,0,0,1,.561.112l5.047,3.14C57.313,53.46,57.65,53.572,57.986,53.572Z" transform="translate(1.904 -5.91)" fill="#2453b6"/>
      <path id="Path_1331" data-name="Path 1331" d="M26.19,22.643a1.387,1.387,0,0,1,.449,1.57l-1.346,5.719a1.558,1.558,0,0,0,1.458,1.906,2.079,2.079,0,0,0,.785-.224l5.047-3.14a2.079,2.079,0,0,1,.785-.224,2.079,2.079,0,0,1,.785.224l5.047,3.14a2.079,2.079,0,0,0,.785.224,1.5,1.5,0,0,0,1.458-1.906L40.1,24.213a2.01,2.01,0,0,1,.449-1.57l4.486-3.813a1.546,1.546,0,0,0-.9-2.692l-5.944-.449a1.662,1.662,0,0,1-1.346-.9L34.6,9.3a1.443,1.443,0,0,0-1.458-.9,1.75,1.75,0,0,0-1.458.9l-2.243,5.5a1.352,1.352,0,0,1-1.346.9l-5.944.449a1.546,1.546,0,0,0-.9,2.692Z" transform="translate(-0.28 -8.4)" fill="#2453b6"/>
      <path id="Path_1332" data-name="Path 1332" d="M61.966,24.255a1.387,1.387,0,0,1,.449,1.57l-1.346,5.719a1.558,1.558,0,0,0,1.458,1.906,2.079,2.079,0,0,0,.785-.224l5.047-3.14a1.486,1.486,0,0,1,1.57,0l5.047,3.14a2.079,2.079,0,0,0,.785.224,1.5,1.5,0,0,0,1.458-1.906L76.1,25.713a2.01,2.01,0,0,1,.449-1.57l4.486-3.813a1.546,1.546,0,0,0-.9-2.692l-5.944-.449a1.662,1.662,0,0,1-1.346-.9L70.6,10.8a1.443,1.443,0,0,0-1.458-.9,1.75,1.75,0,0,0-1.458.9l-2.243,5.5a1.352,1.352,0,0,1-1.346.9l-5.944.449a1.546,1.546,0,0,0-.9,2.692Z" transform="translate(4.092 -8.218)" fill="#2453b6"/>
      <path id="Path_1333" data-name="Path 1333" d="M98.646,29.407a5.1,5.1,0,0,0-5.719,3.813,84.061,84.061,0,0,1-4.037,9.757c.785,2.243,1.234,5.832-1.121,10.317a29.506,29.506,0,0,1-1.794,2.916,97.421,97.421,0,0,1-6.841,7.962l-.561.673a2.676,2.676,0,0,1-4.71-1.346,2.48,2.48,0,0,1,.673-2.131l.673-.673c3.364-3.7,6.617-7.177,7.962-9.757,2.355-4.6.785-7.626-1.346-8.86-1.682-1.009-4.149-1.121-5.383.9a104.423,104.423,0,0,1-8.187,10.093c-2.131,2.467-4.037,4.71-5.5,6.617a37.311,37.311,0,0,0-3.14,4.486c-2.243,3.7-4.822,12.224-5.271,20.747-.224,4.262-.336,9.084-.449,12.448a2.132,2.132,0,0,0,.561,1.458,1.722,1.722,0,0,0,1.458.561H73.638a2.362,2.362,0,0,0,1.458-.561,2.132,2.132,0,0,0,.561-1.458V92.321a4.181,4.181,0,0,1,1.906-3.589A90.444,90.444,0,0,0,92.927,75.387c6.953-8.187,9.645-32.41,9.981-40.26C102.908,31.65,100.777,29.743,98.646,29.407Z" transform="translate(3.747 -5.856)" fill="#2453b6"/>
      <path id="Path_1334" data-name="Path 1334" d="M45.677,64.063a49.045,49.045,0,0,0-3.14-4.486c-1.458-1.906-3.364-4.149-5.5-6.617a107.763,107.763,0,0,1-8.187-10.093c-1.346-2.019-3.7-1.906-5.383-.9-2.243,1.234-3.7,4.262-1.346,8.86,1.346,2.579,4.486,6.056,7.962,9.757l.673.673a2.48,2.48,0,0,1,.673,2.131,2.676,2.676,0,0,1-4.71,1.346l-.561-.561a97.423,97.423,0,0,1-6.841-7.962A23,23,0,0,1,17.528,53.3c-2.355-4.486-1.906-8.075-1.121-10.317a93.128,93.128,0,0,1-4.037-9.757c-1.009-3.14-3.589-4.262-5.719-3.813-2.131.336-4.262,2.355-4.149,5.719.336,7.85,3.14,32.186,9.981,40.26,3.364,3.925,9.42,9.084,15.364,13.345a4.459,4.459,0,0,1,1.906,3.589v5.047a2.362,2.362,0,0,0,.561,1.458,2.132,2.132,0,0,0,1.458.561H49.49a2.132,2.132,0,0,0,1.458-.561,2.362,2.362,0,0,0,.561-1.458c-.112-3.364-.224-8.187-.449-12.448C50.5,76.287,47.92,67.764,45.677,64.063Z" transform="translate(-2.496 -5.86)" fill="#2453b6"/>
    </g>
  </g>
</svg>
