<?xml version="1.0"?>
<svg xmlns="http://www.w3.org/2000/svg" height="512px" viewBox="0 0 480 480" width="512px"><g><path d="m328 0c-70.691406 0-128 57.308594-128 128s57.308594 128 128 128 128-57.308594 128-128c-.082031-70.65625-57.34375-127.9179688-128-128zm0 240c-61.855469 0-112-50.144531-112-112s50.144531-112 112-112 112 50.144531 112 112c-.066406 61.828125-50.171875 111.933594-112 112zm0 0" data-original="#000000" className="active-path" data-old_color="#000000" fill="#FFFFFF"/><path d="m384 104c0-17.671875-14.328125-32-32-32v-16h-16v16h-16v-16h-16v16h-24v16h8v80h-8v16h24v16h16v-16h16v16h16v-16c13.34375.058594 25.3125-8.203125 29.984375-20.703125 4.675781-12.496094 1.066406-26.585937-9.039063-35.296875 6.992188-6.019531 11.023438-14.773438 11.054688-24zm-16 48c0 8.835938-7.164062 16-16 16h-48v-32h48c8.835938 0 16 7.164062 16 16zm-64-32v-32h48c8.835938 0 16 7.164062 16 16s-7.164062 16-16 16zm0 0" data-original="#000000" className="active-path" data-old_color="#000000" fill="#FFFFFF"/><path d="m88 104h48v16h-48zm0 0" data-original="#000000" className="active-path" data-old_color="#000000" fill="#FFFFFF"/><path d="m104 240h16v16h-16zm0 0" data-original="#000000" className="active-path" data-old_color="#000000" fill="#FFFFFF"/><path d="m128 240h16v16h-16zm0 0" data-original="#000000" className="active-path" data-old_color="#000000" fill="#FFFFFF"/><path d="m80 240h16v16h-16zm0 0" data-original="#000000" className="active-path" data-old_color="#000000" fill="#FFFFFF"/><path d="m464 16v-16h-16v16h-16v16h16v16h16v-16h16v-16zm0 0" data-original="#000000" className="active-path" data-old_color="#000000" fill="#FFFFFF"/><path d="m464 216h-16v16h-16v16h16v16h16v-16h16v-16h-16zm0 0" data-original="#000000" className="active-path" data-old_color="#000000" fill="#FFFFFF"/><path d="m192 48h16v-16h16v-16h-16v-16h-16v16h-16v16h16zm0 0" data-original="#000000" className="active-path" data-old_color="#000000" fill="#FFFFFF"/><path d="m396 256c-11.046875 0-20 8.953125-20 20v12h-96v-12c0-11.046875-8.953125-20-20-20s-20 8.953125-20 20v44c0 4.417969 3.582031 8 8 8h56v8h-80v-88c-.027344-22.082031-17.917969-39.972656-40-40h-48v-16c22.082031-.027344 39.972656-17.917969 40-40v-8h8c4.417969 0 8-3.582031 8-8v-48c0-4.417969-3.582031-8-8-8h-8v-24c0-4.417969-3.582031-8-8-8h-112c-4.417969 0-8 3.582031-8 8v24h-8c-4.417969 0-8 3.582031-8 8v48c0 4.417969 3.582031 8 8 8h8v8c.027344 22.082031 17.917969 39.972656 40 40v16h-48c-22.082031.027344-39.9726562 17.917969-40 40v192c.0273438 22.082031 17.917969 39.972656 40 40h144c22.082031-.027344 39.972656-17.917969 40-40v-56h120c4.417969 0 8-3.582031 8-8v-48h56c4.417969 0 8-3.582031 8-8v-44c0-11.046875-8.953125-20-20-20zm-332-192h96v16h-96zm-16 32h128v32h-128zm16 56v-8h96v8c0 13.253906-10.746094 24-24 24h-48c-13.253906 0-24-10.746094-24-24zm40 40h16v16h-16zm80 272h-32v-48c0-4.417969-3.582031-8-8-8h-33.136719c-4.027343-15.601562-19.03125-25.777344-35.015625-23.746094s-27.96875 15.632813-27.96875 31.746094 11.984375 29.714844 27.96875 31.746094 30.988282-8.144532 35.015625-23.746094h25.136719v40h-96c-13.253906 0-24-10.746094-24-24v-168h32v9.136719c-15.601562 4.027343-25.777344 19.03125-23.746094 35.015625s15.632813 27.96875 31.746094 27.96875 29.714844-11.984375 31.746094-27.96875-8.144532-30.988282-23.746094-35.015625v-17.136719c0-4.417969-3.582031-8-8-8h-40v-8c0-13.253906 10.746094-24 24-24h144c13.253906 0 24 10.746094 24 24v24h-56c-4.417969 0-8 3.582031-8 8v25.136719c-15.601562 4.027343-25.777344 19.03125-23.746094 35.015625s15.632813 27.96875 31.746094 27.96875 29.714844-11.984375 31.746094-27.96875-8.144532-30.988282-23.746094-35.015625v-17.136719h48v152c0 13.253906-10.746094 24-24 24zm-88-48c0 8.835938-7.164062 16-16 16s-16-7.164062-16-16 7.164062-16 16-16 16 7.164062 16 16zm-40-120c8.835938 0 16 7.164062 16 16s-7.164062 16-16 16-16-7.164062-16-16 7.164062-16 16-16zm96 24c8.835938 0 16 7.164062 16 16s-7.164062 16-16 16-16-7.164062-16-16 7.164062-16 16-16zm184 48h-112v-16h88c4.417969 0 8-3.582031 8-8v-16h16zm64-56h-144v-36c0-2.210938 1.789062-4 4-4s4 1.789062 4 4v20c0 4.417969 3.582031 8 8 8h112c4.417969 0 8-3.582031 8-8v-20c0-2.210938 1.789062-4 4-4s4 1.789062 4 4zm0 0" data-original="#000000" className="active-path" data-old_color="#000000" fill="#FFFFFF"/></g> </svg>
