<?xml version="1.0"?>
<svg xmlns="http://www.w3.org/2000/svg" height="512px" viewBox="0 0 512 512" width="512px"><g><path d="m282.746094 310.765625c48.734375 0 88.675781-40.085937 89.03125-89.359375.175781-24.574219-9.148438-47.601562-26.265625-64.839844-16.566407-16.6875-38.5-25.878906-61.753907-25.878906h-88.277343c-13.367188 0-24.238281 11.0625-24.238281 24.65625v40.65625c0 9.675781 15 9.675781 15 0v-40.65625c0-5.324219 4.144531-9.65625 9.238281-9.65625h12.902343v192.859375h-22.140624v-101.546875c0-9.675781-15-9.675781-15 0v101.546875h-8.519532c-9.675781 0-9.675781 15 0 15h8.519532v28.265625c0 9.675781 15 9.675781 15 0v-28.265625h22.140624v28.265625c0 9.675781 15 9.675781 15 0v-28.265625h8.9375c9.675782 0 9.675782-15 0-15h-8.9375v-27.78125zm1.011718-165.078125c19.226563 0 37.378907 7.617188 51.109376 21.449219 14.277343 14.378906 22.058593 33.613281 21.910156 54.160156-.296875 41.0625-33.507813 74.46875-74.03125 74.46875h-59.363282v-150.078125zm0 0" data-original="#000000" className="active-path" data-old_color="#000000" fill="#FFFFFF"/><path d="m259.902344 244.933594c12.796875 14.542968 32.570312 18.382812 51.132812 17.125 3.265625-.222656 6.007813-2.53125 6.78125-5.710938.371094-1.519531 8.835938-37.488281-10.605468-60.648437-11.328126-13.496094-29.28125-19.546875-53.363282-17.996094-3.394531.222656-6.214844 2.695313-6.875 6.03125-.304687 1.550781-7.269531 38.246094 12.929688 61.199219zm1.042968-52.46875h.082032c15.832031 0 27.476562 4.304687 34.660156 12.835937 10.777344 12.789063 9.78125 32.488281 8.503906 41.996094-.011718 0-.027344 0-.039062 0-14.707032 0-25.773438-4.101563-32.953125-12.230469-11.265625-12.753906-11.136719-32.773437-10.253907-42.601562zm0 0" data-original="#000000" className="active-path" data-old_color="#000000" fill="#FFFFFF"/><path d="m393.710938 403.632812c2.933593 2.921876 7.683593 2.914063 10.605468-.023437 39.292969-39.484375 60.933594-91.90625 60.933594-147.609375 0-115.382812-93.867188-209.25-209.25-209.25s-209.25 93.867188-209.25 209.25 93.867188 209.25 209.25 209.25c35.878906 0 71.277344-9.234375 102.371094-26.710938 5.042968-2.835937 10.035156-5.917968 14.835937-9.167968 8.007813-5.425782-.402343-17.84375-8.410156-12.421875-4.457031 3.019531-9.089844 5.882812-13.773437 8.515625-28.855469 16.214844-61.714844 24.785156-95.023438 24.785156-107.109375 0-194.25-87.140625-194.25-194.25s87.140625-194.25 194.25-194.25 194.25 87.140625 194.25 194.25c0 51.710938-20.089844 100.375-56.566406 137.027344-2.921875 2.933594-2.910156 7.683594.027344 10.605468zm0 0" data-original="#000000" className="active-path" data-old_color="#000000" fill="#FFFFFF"/><path d="m437.019531 74.980469c-48.351562-48.351563-112.640625-74.980469-181.019531-74.980469-43.660156 0-86.765625 11.1875-124.65625 32.351562-8.445312 4.714844-1.132812 17.8125 7.3125 13.09375 35.660156-19.917968 76.238281-30.445312 117.34375-30.445312 64.375 0 124.894531 25.066406 170.414062 70.585938 45.519532 45.519531 70.585938 106.039062 70.585938 170.414062s-25.066406 124.894531-70.585938 170.414062c-45.519531 45.519532-106.039062 70.585938-170.414062 70.585938s-124.894531-25.066406-170.414062-70.585938c-45.519532-45.519531-70.585938-106.039062-70.585938-170.414062 0-70.589844 30.808594-137.398438 84.523438-183.296875 7.355468-6.285156-2.390626-17.691406-9.746094-11.402344-57.054688 48.753907-89.777344 119.71875-89.777344 194.699219 0 68.378906 26.628906 132.667969 74.980469 181.019531 48.351562 48.351563 112.640625 74.980469 181.019531 74.980469s132.667969-26.628906 181.019531-74.980469c48.351563-48.351562 74.980469-112.640625 74.980469-181.019531s-26.628906-132.667969-74.980469-181.019531zm0 0" data-original="#000000" className="active-path" data-old_color="#000000" fill="#FFFFFF"/></g> </svg>
