<?xml version="1.0" encoding="iso-8859-1"?>
<!-- Generator: Adobe Illustrator 19.0.0, SVG Export Plug-In . SVG Version: 6.00 Build 0)  -->
<svg xmlns="http://www.w3.org/2000/svg" xmlns:xlink="http://www.w3.org/1999/xlink" version="1.1" id="Capa_1" x="0px" y="0px" viewBox="0 0 496.008 496.008" style="enable-background:new 0 0 496.008 496.008;" xml:space="preserve" width="512px" height="512px">
<g>
	<g>
		<g>
			<path d="M360.004,0h-224v352h224V0z M344.004,336h-192V16h192V336z" fill="#FFFFFF"/>
			<path d="M232.004,208c13.232,0,24-10.768,24-24v-16c0-4.416,3.592-8,8-8c4.408,0,8,3.584,8,8v16c0,4.416-3.592,8-8,8h-8v16h8     c13.232,0,24-10.768,24-24h16v-16h-16c0-13.232-10.768-24-24-24s-24,10.768-24,24v16c0,4.416-3.592,8-8,8s-8-3.584-8-8v-16     c0-4.416,3.592-8,8-8h8v-16h-8c-13.232,0-24,10.768-24,24h-16v16h16C208.004,197.24,218.772,208,232.004,208z" fill="#FFFFFF"/>
			<path d="M248.004,256c44.112,0,80-35.888,80-80s-35.888-80-80-80s-80,35.888-80,80S203.892,256,248.004,256z M248.004,112     c35.288,0,64,28.712,64,64c0,35.288-28.712,64-64,64c-35.288,0-64-28.712-64-64C184.004,140.712,212.716,112,248.004,112z" fill="#FFFFFF"/>
			<polygon points="184.004,48 208.004,48 208.004,32 168.004,32 168.004,72 184.004,72    " fill="#FFFFFF"/>
			<polygon points="312.004,72 328.004,72 328.004,32 288.004,32 288.004,48 312.004,48    " fill="#FFFFFF"/>
			<polygon points="208.004,304 184.004,304 184.004,280 168.004,280 168.004,320 208.004,320    " fill="#FFFFFF"/>
			<polygon points="312.004,304 288.004,304 288.004,320 328.004,320 328.004,280 312.004,280    " fill="#FFFFFF"/>
			<path d="M469.548,352H450.46l-24,64h-5.512l-32-64H370.46l-23.488,62.624L324.004,384h-15.312l-18.88,18.88     C279.548,391.328,264.628,384,248.004,384s-31.544,7.328-41.808,18.88L187.316,384h-15.312l-22.968,30.624L125.548,352H107.06     l-32,64h-5.512l-24-64H26.46L0.004,422.552v49.456c0,13.232,10.768,24,24,24h448c13.232,0,24-10.768,24-24v-49.456L469.548,352z      M24.004,480c-4.408,0-8-3.584-8-8v-46.544l20-53.336L58.46,432h26.488l30.576-61.16L138.46,432h17.544l24-32h0.688     l16.536,16.536c-3.32,7.152-5.224,15.08-5.224,23.464c0,15.664,6.48,29.824,16.888,40H24.004z M248.004,480     c-22.056,0-40-17.944-40-40c0-22.056,17.944-40,40-40c22.056,0,40,17.944,40,40C288.004,462.056,270.06,480,248.004,480z      M480.004,472c0,4.416-3.592,8-8,8H287.116c10.4-10.176,16.888-24.336,16.888-40c0-8.384-1.904-16.32-5.224-23.464L315.316,400     h0.688l24,32h17.544l22.936-61.16L411.06,432h26.488l22.456-59.88l20,53.336V472z" fill="#FFFFFF"/>
			<path d="M248.004,416c-13.232,0-24,10.768-24,24s10.768,24,24,24s24-10.768,24-24S261.236,416,248.004,416z M248.004,448     c-4.408,0-8-3.584-8-8c0-4.416,3.592-8,8-8s8,3.584,8,8C256.004,444.416,252.412,448,248.004,448z" fill="#FFFFFF"/>
			<rect x="32.004" y="448" width="16" height="16" fill="#FFFFFF"/>
			<rect x="64.004" y="448" width="72" height="16" fill="#FFFFFF"/>
		</g>
	</g>
</g>
<g>
</g>
<g>
</g>
<g>
</g>
<g>
</g>
<g>
</g>
<g>
</g>
<g>
</g>
<g>
</g>
<g>
</g>
<g>
</g>
<g>
</g>
<g>
</g>
<g>
</g>
<g>
</g>
<g>
</g>
</svg>
