<?xml version="1.0" encoding="iso-8859-1"?>
<!-- Generator: Adobe Illustrator 19.1.0, SVG Export Plug-In . SVG Version: 6.00 Build 0)  -->
<svg version="1.1" id="Capa_1" xmlns="http://www.w3.org/2000/svg" xmlns:xlink="http://www.w3.org/1999/xlink" x="0px" y="0px"
	 viewBox="0 0 324.842 324.842" style="enable-background:new 0 0 324.842 324.842;" xml:space="preserve">
<g>
	<g>
		<path d="M56.955,162.421c0,58.154,47.312,105.467,105.466,105.467s105.466-47.313,105.466-105.467S220.575,56.954,162.421,56.954
			S56.955,104.267,56.955,162.421z M252.887,162.421c0,49.884-40.583,90.467-90.466,90.467s-90.466-40.583-90.466-90.467
			s40.583-90.467,90.466-90.467S252.887,112.537,252.887,162.421z"/>
		<path d="M155.673,103.326v11.748c-4.221,0.975-8.204,2.808-11.87,5.515c-10.031,7.403-14.539,17.662-12.06,27.443
			c2.385,9.406,10.942,16.242,22.333,17.839c25.827,3.619,30.031,7.476,28.925,16.522c-0.589,4.82-3.359,8.271-8.234,10.252
			c-8.241,3.352-22.528,1.93-35.877-8.797l-9.396,11.693c8.071,6.486,17.19,10.78,26.177,12.653v13.32h15v-12.532
			c3.403-0.394,6.679-1.196,9.745-2.443c9.862-4.009,16.231-12.147,17.475-22.329c1.412-11.556-3.121-20.498-13.108-25.859
			c-7.74-4.155-17.957-5.842-28.625-7.337c-5.314-0.744-9.005-3.238-9.875-6.67c-0.929-3.663,1.474-8.032,6.427-11.688
			c5.245-3.87,11.426-4.44,18.896-1.744c6.338,2.289,11.008,6.119,11.054,6.157l4.803-5.76l4.824-5.743
			c-0.646-0.543-6.563-5.397-15.093-8.581c-2.204-0.823-4.379-1.451-6.522-1.903v-11.757L155.673,103.326L155.673,103.326z"/>
		<path d="M162.421,15c32.26,0,62.947,10.307,88.3,29.347h-19.724v15h48.265V11.082h-15v24.799C235.488,12.638,199.918,0,162.421,0
			C72.862,0,0,72.862,0,162.421h15C15,81.133,81.133,15,162.421,15z"/>
		<path d="M309.842,162.421c0,81.288-66.133,147.421-147.421,147.421c-31.345,0-61.291-9.767-86.256-27.84h19.583v-15H47.483v48.265
			h15v-24.803c28.446,22.273,63.324,34.378,99.938,34.378c89.56,0,162.421-72.861,162.421-162.421H309.842z"/>
	</g>
	<g>
	</g>
	<g>
	</g>
	<g>
	</g>
	<g>
	</g>
	<g>
	</g>
	<g>
	</g>
	<g>
	</g>
	<g>
	</g>
	<g>
	</g>
	<g>
	</g>
	<g>
	</g>
	<g>
	</g>
	<g>
	</g>
	<g>
	</g>
	<g>
	</g>
</g>
<g>
</g>
<g>
</g>
<g>
</g>
<g>
</g>
<g>
</g>
<g>
</g>
<g>
</g>
<g>
</g>
<g>
</g>
<g>
</g>
<g>
</g>
<g>
</g>
<g>
</g>
<g>
</g>
<g>
</g>
</svg>
