<?xml version="1.0"?>
<svg xmlns="http://www.w3.org/2000/svg" viewBox="0 0 64 64" width="512" height="512"><g id="Flat"><path d="M7,20H57a2,2,0,0,1,2,2V57a0,0,0,0,1,0,0H5a0,0,0,0,1,0,0V22A2,2,0,0,1,7,20Z" style="fill:#a7d6dd"/><path d="M3,57H61v2a2,2,0,0,1-2,2H5a2,2,0,0,1-2-2Z" style="fill:#6cbbc7"/><path d="M30,7h4V5a2,2,0,0,0-2-2h0a2,2,0,0,0-2,2Z" style="fill:#fdb62f"/><rect x="12" y="7" width="40" height="46" rx="2" ry="2" style="fill:#fdb62f"/><rect x="16" y="11" width="32" height="38" style="fill:#ffe9cc"/><polygon points="22 24.414 19.293 21.707 20.707 20.293 22 21.586 25.293 18.293 26.707 19.707 22 24.414" style="fill:#02998a"/><rect x="29" y="20" width="16" height="2" style="fill:#6cbbc7"/><polygon points="22 31.414 19.293 28.707 20.707 27.293 22 28.586 25.293 25.293 26.707 26.707 22 31.414" style="fill:#02998a"/><rect x="29" y="27" width="16" height="2" style="fill:#6cbbc7"/><rect x="29" y="34" width="16" height="2" style="fill:#6cbbc7"/><rect x="29" y="41" width="16" height="2" style="fill:#6cbbc7"/><rect x="21" y="7" width="22" height="4" style="fill:#83beb9"/><polyline points="21 11 21 15 43 15 43 11" style="fill:#02998a"/><polygon points="25.707 33.707 24.293 32.293 23 33.586 21.707 32.293 20.293 33.707 21.586 35 20.293 36.293 21.707 37.707 23 36.414 24.293 37.707 25.707 36.293 24.414 35 25.707 33.707" style="fill:#ff6536"/><polygon points="22 45.414 19.293 42.707 20.707 41.293 22 42.586 25.293 39.293 26.707 40.707 22 45.414" style="fill:#02998a"/></g></svg>
