<svg xmlns="http://www.w3.org/2000/svg" width="92.331" height="91.737" viewBox="0 0 92.331 91.737">
  <g id="complete-disclose" transform="translate(-1 -1.399)">
    <path id="Path_1741" data-name="Path 1741" d="M93.331,52.647V41.295L87.7,40.108a20.733,20.733,0,0,0-.911-2.206l3.142-4.819L81.9,25.055,77.084,28.2a20.32,20.32,0,0,0-2.207-.91L73.69,21.654H69.5V12.718H41.329L32.273,1.4,23.217,12.718H1V93.136H69.5V72.287H73.69l1.187-5.632a20.623,20.623,0,0,0,2.207-.91L81.9,68.884l8.027-8.025-3.142-4.819a20.863,20.863,0,0,0,.911-2.206ZM41.088,17.186H36.741V38.035H27.806V17.186H23.459L32.273,6.167ZM66.525,90.157H3.978V15.7H20.835l-3.574,4.468h7.567V41.013H39.719V20.164h7.567L43.712,15.7H66.525v5.957H62.339l-1.187,5.632a20.623,20.623,0,0,0-2.207.91l-4.819-3.142L46.1,33.082,49.241,37.9a20.865,20.865,0,0,0-.911,2.206L42.7,41.293V52.646l5.632,1.187a20.735,20.735,0,0,0,.911,2.206L46.1,60.857l8.027,8.025,4.819-3.139a20.322,20.322,0,0,0,2.207.91l1.187,5.634h4.186Zm19.589-29.7L81.5,65.072,77.247,62.3l-.779.418a17.622,17.622,0,0,1-3.3,1.363l-.846.255-1.048,4.977h-6.52l-1.048-4.977-.846-.255a17.664,17.664,0,0,1-3.3-1.363l-.779-.418L54.525,65.07l-4.611-4.611L52.689,56.2l-.418-.777a17.724,17.724,0,0,1-1.364-3.3l-.255-.846-4.975-1.05V43.71l4.975-1.048.255-.846a17.766,17.766,0,0,1,1.364-3.3l.418-.777-2.774-4.256,4.609-4.612,4.258,2.776.779-.418a17.622,17.622,0,0,1,3.3-1.363l.846-.255,1.048-4.977h6.52l1.048,4.977.846.255a17.664,17.664,0,0,1,3.3,1.363l.779.418,4.258-2.776,4.609,4.612L83.34,37.737l.418.777a17.724,17.724,0,0,1,1.364,3.3l.255.846,4.975,1.05V50.23l-4.975,1.048-.255.846a17.765,17.765,0,0,1-1.364,3.3l-.418.777Z" transform="translate(0 0)" fill="#2453b6"/>
    <path id="Path_1742" data-name="Path 1742" d="M50.892,22A14.892,14.892,0,1,0,65.784,36.892,14.909,14.909,0,0,0,50.892,22Zm0,26.806A11.914,11.914,0,1,1,62.806,36.892,11.928,11.928,0,0,1,50.892,48.806Z" transform="translate(17.122 10.078)" fill="#2453b6"/>
    <path id="Path_1743" data-name="Path 1743" d="M48.935,26a8.935,8.935,0,1,0,8.935,8.935A8.944,8.944,0,0,0,48.935,26Zm0,14.892a5.957,5.957,0,1,1,5.957-5.957A5.963,5.963,0,0,1,48.935,40.892Z" transform="translate(19.079 12.035)" fill="#2453b6"/>
    <path id="Path_1744" data-name="Path 1744" d="M5,63.892h8.935V49H5ZM7.978,51.978h2.978v8.935H7.978Z" transform="translate(1.957 23.287)" fill="#2453b6"/>
    <path id="Path_1745" data-name="Path 1745" d="M13,65.849h8.935V45H13Zm2.978-17.87h2.978V62.87H15.978Z" transform="translate(5.87 21.33)" fill="#2453b6"/>
    <path id="Path_1746" data-name="Path 1746" d="M21,67.806h8.935V41H21Zm2.978-23.827h2.978V64.827H23.978Z" transform="translate(9.784 19.373)" fill="#2453b6"/>
    <path id="Path_1747" data-name="Path 1747" d="M31.568,43.4h2.978V30h-13.4v2.978h8.774A94.833,94.833,0,0,1,5.485,54.04l1.532,2.554a97.761,97.761,0,0,0,24.55-20.946V43.4Z" transform="translate(2.194 13.992)" fill="#2453b6"/>
    <rect id="Rectangle_540" data-name="Rectangle 540" width="14.892" height="2.978" transform="translate(6.957 38.035)" fill="#2453b6"/>
    <rect id="Rectangle_541" data-name="Rectangle 541" width="14.892" height="2.978" transform="translate(6.957 32.078)" fill="#2453b6"/>
    <rect id="Rectangle_542" data-name="Rectangle 542" width="14.892" height="2.978" transform="translate(6.957 26.121)" fill="#2453b6"/>
    <rect id="Rectangle_543" data-name="Rectangle 543" width="13.403" height="2.978" transform="translate(6.957 43.992)" fill="#2453b6"/>
    <rect id="Rectangle_544" data-name="Rectangle 544" width="20.849" height="2.978" transform="translate(42.698 84.2)" fill="#2453b6"/>
    <rect id="Rectangle_545" data-name="Rectangle 545" width="20.849" height="2.978" transform="translate(42.698 78.244)" fill="#2453b6"/>
    <rect id="Rectangle_546" data-name="Rectangle 546" width="14.892" height="2.978" transform="translate(42.698 72.287)" fill="#2453b6"/>
  </g>
</svg>
