<?xml version="1.0"?>
<svg xmlns="http://www.w3.org/2000/svg" xmlns:xlink="http://www.w3.org/1999/xlink" xmlns:svgjs="http://svgjs.com/svgjs" version="1.1" width="512" height="512" x="0" y="0" viewBox="0 0 256 256" style="enable-background:new 0 0 512 512" xml:space="preserve" className=""><g><path xmlns="http://www.w3.org/2000/svg" d="m184.847 59.5h-113.694a2.5 2.5 0 0 1 0-5h113.694a2.5 2.5 0 0 1 0 5z" fill="#cf29e5" data-original="#ebe7f2" style="" className=""/><path xmlns="http://www.w3.org/2000/svg" d="m175.588 31.87h-95.176a11.773 11.773 0 0 0 -11.759 11.759v168.742a11.773 11.773 0 0 0 11.759 11.759h95.176a11.773 11.773 0 0 0 11.759-11.759v-168.742a11.773 11.773 0 0 0 -11.759-11.759zm6.759 180.5a6.767 6.767 0 0 1 -6.759 6.759h-95.176a6.767 6.767 0 0 1 -6.759-6.759v-168.741a6.767 6.767 0 0 1 6.759-6.759h95.176a6.767 6.767 0 0 1 6.759 6.759z" fill="#29419f" data-original="#846f75" style="" className=""/><g xmlns="http://www.w3.org/2000/svg" fill="#a58bc9"><path d="m128 209.54a12.737 12.737 0 1 1 12.737-12.74 12.752 12.752 0 0 1 -12.737 12.74zm0-20.474a7.737 7.737 0 1 0 7.737 7.737 7.746 7.746 0 0 0 -7.737-7.737z" fill="#68c13f" data-original="#a58bc9" style="" className=""/><path d="m120.578 150.233c-.151 0-.3 0-.455-.011a8.854 8.854 0 0 1 -6.391-3.233l-17.814-21.773a8.844 8.844 0 1 1 13.691-11.2l11.624 14.208 25.75-25.749a8.844 8.844 0 1 1 12.508 12.507l-32.66 32.66a8.782 8.782 0 0 1 -6.253 2.591zm-17.821-34.462a3.844 3.844 0 0 0 -2.969 6.279l17.812 21.773a3.851 3.851 0 0 0 2.785 1.406h.191a3.813 3.813 0 0 0 2.717-1.125l32.661-32.66a3.845 3.845 0 1 0 -5.438-5.436l-27.7 27.7a2.5 2.5 0 0 1 -3.7-.185l-13.375-16.346a3.816 3.816 0 0 0 -2.592-1.392c-.133-.008-.263-.014-.392-.014z" fill="#68c13f" data-original="#a58bc9" style="" className=""/><path d="m96.418 209.54a12.737 12.737 0 1 1 12.737-12.74 12.751 12.751 0 0 1 -12.737 12.74zm0-20.474a7.737 7.737 0 1 0 7.737 7.737 7.745 7.745 0 0 0 -7.737-7.737z" fill="#68c13f" data-original="#a58bc9" style="" className=""/><path d="m159.582 209.54a12.737 12.737 0 1 1 12.736-12.74 12.752 12.752 0 0 1 -12.736 12.74zm0-20.474a7.737 7.737 0 1 0 7.736 7.737 7.745 7.745 0 0 0 -7.736-7.737z" fill="#68c13f" data-original="#a58bc9" style="" className=""/><path d="m99.75 48.25h-15.568a2.5 2.5 0 0 1 0-5h15.568a2.5 2.5 0 0 1 0 5z" fill="#68c13f" data-original="#a58bc9" style="" className=""/><path d="m142.5 48.25h-4.263a2.5 2.5 0 0 1 0-5h4.263a2.5 2.5 0 0 1 0 5z" fill="#68c13f" data-original="#a58bc9" style="" className=""/><path d="m157.75 48.25h-4.263a2.5 2.5 0 0 1 0-5h4.263a2.5 2.5 0 0 1 0 5z" fill="#68c13f" data-original="#a58bc9" style="" className=""/><path d="m173 48.25h-4.263a2.5 2.5 0 0 1 0-5h4.263a2.5 2.5 0 0 1 0 5z" fill="#68c13f" data-original="#a58bc9" style="" className=""/></g><path xmlns="http://www.w3.org/2000/svg" d="m128 166.007a44.007 44.007 0 1 1 44.006-44.007 44.056 44.056 0 0 1 -44.006 44.007zm0-83.014a39.007 39.007 0 1 0 39.006 39.007 39.05 39.05 0 0 0 -39.006-39.007z" fill="#cf29e5" data-original="#ebe7f2" style="" className=""/></g></svg>
