<svg id="Capa_1" enable-background="new 0 0 512 512" height="512" viewBox="0 0 512 512" width="512" xmlns="http://www.w3.org/2000/svg"><g><g><g><g><g><g><g><g><g><g><path d="m327.098 0h-188.757c-4.123 0-8.23.919-11.916 2.584l-3.875 4.832v62.859c0 9.85-7.985 17.835-17.835 17.835h-56.555l-11.138 3.875c-1.687 3.707-2.584 7.765-2.584 11.916v350.262c0 15.888 12.88 28.768 28.768 28.768h263.891c15.888 0 28.768-12.88 28.768-28.768v-425.395c.001-15.888-12.879-28.768-28.767-28.768z" fill="#f4fbff"/><path d="m385.577 0h-65.479c15.888 0 28.768 12.88 28.768 28.768v425.397c0 15.888-12.88 28.768-28.768 28.768h65.479c15.888 0 28.768-12.88 28.768-28.768v-425.397c0-15.888-12.88-28.768-28.768-28.768z" fill="#e4f6ff"/><path d="m126.424 74.151v-71.567c-3.107 1.414-5.966 3.382-8.426 5.842l-75.134 75.134c-2.46 2.46-4.428 5.319-5.842 8.426h71.567c9.85 0 17.835-7.985 17.835-17.835z" fill="#e28086"/></g></g></g></g></g></g></g><g><g fill="#e8ae4d"><path d="m136.302 239.773h-33.214c-6.28 0-11.371-5.091-11.371-11.371v-33.214c0-6.28 5.091-11.371 11.371-11.371h33.214c6.28 0 11.371 5.091 11.371 11.371v33.214c0 6.28-5.091 11.371-11.371 11.371z"/><path d="m136.302 332.599h-33.214c-6.28 0-11.371-5.091-11.371-11.371v-33.214c0-6.28 5.091-11.371 11.371-11.371h33.214c6.28 0 11.371 5.091 11.371 11.371v33.214c0 6.28-5.091 11.371-11.371 11.371z"/><path d="m136.302 425.426h-33.214c-6.28 0-11.371-5.091-11.371-11.371v-33.214c0-6.28 5.091-11.371 11.371-11.371h33.214c6.28 0 11.371 5.091 11.371 11.371v33.214c0 6.28-5.091 11.371-11.371 11.371z"/></g><g><g><path d="m357.066 204.468h-165.537c-4.267 0-7.726-3.459-7.726-7.726 0-4.268 3.459-7.726 7.726-7.726h165.537c4.268 0 7.726 3.459 7.726 7.726 0 4.268-3.459 7.726-7.726 7.726z" fill="#407093"/></g><g><path d="m357.066 236.856h-165.537c-4.267 0-7.726-3.459-7.726-7.726s3.459-7.726 7.726-7.726h165.537c4.268 0 7.726 3.459 7.726 7.726s-3.459 7.726-7.726 7.726z" fill="#407093"/></g></g><g><g><path d="m343.574 296.154h-152.045c-4.267 0-7.726-3.459-7.726-7.726s3.459-7.726 7.726-7.726h152.045c4.268 0 7.726 3.459 7.726 7.726s-3.459 7.726-7.726 7.726z" fill="#407093"/></g><g><path d="m328.065 328.542h-136.536c-4.267 0-7.726-3.459-7.726-7.726s3.459-7.726 7.726-7.726h136.536c4.268 0 7.726 3.459 7.726 7.726s-3.459 7.726-7.726 7.726z" fill="#407093"/></g></g><g><g><path d="m299.669 387.841h-108.14c-4.267 0-7.726-3.459-7.726-7.726 0-4.268 3.459-7.726 7.726-7.726h108.141c4.268 0 7.726 3.459 7.726 7.726s-3.459 7.726-7.727 7.726z" fill="#407093"/></g><g><path d="m284.16 420.228h-92.632c-4.267 0-7.726-3.459-7.726-7.726s3.459-7.726 7.726-7.726h92.632c4.268 0 7.726 3.459 7.726 7.726s-3.458 7.726-7.726 7.726z" fill="#407093"/></g></g></g><g><circle cx="288.856" cy="96.209" fill="#bed8fb" r="59.756"/><path d="m288.856 110.305c-19.044 0-35.117 12.685-40.256 30.063 10.621 9.687 24.747 15.597 40.256 15.597s29.635-5.909 40.256-15.597c-5.139-17.379-21.212-30.063-40.256-30.063z" fill="#4a80aa"/><circle cx="288.856" cy="94.472" fill="#365e7d" r="21.144"/></g></g><g><g fill="#407093"><path d="m413.466 237.283-4.928 1.555-101.95 212.903 44.378 21.25 101.949-212.903-1.177-4.479z"/><path d="m463.58 180.854c-12.255-5.868-26.946-.691-32.814 11.563l-10.13 21.155.835 4.367 38.422 18.398 5.12-1.515 10.13-21.155c5.868-12.254.691-26.946-11.563-32.813z"/></g><path d="m345.885 479.759-34.456 30.803c-3.711 3.318-9.583.506-9.325-4.465l2.396-46.155c.148-2.845.857-5.632 2.087-8.201l44.377 21.25c-1.229 2.569-2.955 4.869-5.079 6.768z" fill="#b9cbea"/><path d="m422.769 212.228h28.013v49.203h-28.013z" fill="#f4fbff" transform="matrix(.432 -.902 .902 .432 34.534 528.485)"/></g></g></g></svg>