<?xml version="1.0"?>
<svg xmlns="http://www.w3.org/2000/svg" xmlns:xlink="http://www.w3.org/1999/xlink" xmlns:svgjs="http://svgjs.com/svgjs" version="1.1" width="512" height="512" x="0" y="0" viewBox="0 0 512 512" style="enable-background:new 0 0 512 512" xml:space="preserve" className=""><g><path xmlns="http://www.w3.org/2000/svg" d="m100 113c0-11.046875 8.953125-20 20-20h272c11.046875 0 20 8.953125 20 20s-8.953125 20-20 20h-272c-11.046875 0-20-8.953125-20-20zm312 80c0-11.046875-8.953125-20-20-20h-272c-11.046875 0-20 8.953125-20 20s8.953125 20 20 20h272c11.046875 0 20-8.953125 20-20zm-292 60c-11.046875 0-20 8.953125-20 20s8.953125 20 20 20h92c11.046875 0 20-8.953125 20-20s-8.953125-20-20-20zm374.441406 156.589844c23.378906 23.378906 23.378906 61.441406-.015625 84.835937-11.695312 11.695313-27.0625 17.546875-42.425781 17.546875s-30.730469-5.851562-42.425781-17.546875l-109.367188-109.570312c-2.4375-2.441407-4.199219-5.46875-5.117187-8.792969l-22.363282-80.722656c-1.945312-7.03125.085938-14.5625 5.308594-19.65625 5.21875-5.089844 12.796875-6.941406 19.777344-4.820313l78.726562 23.914063c3.152344.957031 6.019532 2.675781 8.34375 5.007812zm-162.210937-49.273438 73.515625 73.652344 28.289062-28.289062-73.925781-74.089844-39.128906-11.886719zm133.910156 77.542969-3.851563-3.863281-28.285156 28.285156 3.867188 3.875c7.785156 7.785156 20.472656 7.785156 28.269531-.015625 7.800781-7.796875 7.800781-20.484375 0-28.28125zm-34.140625-437.859375h-352c-44.113281 0-80 35.886719-80 80v352c0 44.113281 35.886719 80 80 80h245c11.046875 0 20-8.953125 20-20s-8.953125-20-20-20h-245c-22.054688 0-40-17.945312-40-40v-352c0-22.054688 17.945312-40 40-40h352c22.054688 0 40 17.945312 40 40v246c0 11.046875 8.953125 20 20 20s20-8.953125 20-20v-246c0-44.113281-35.886719-80-80-80zm0 0" fill="#2453b6" data-original="#000000" style="" className=""/></g></svg>
