<?xml version="1.0"?>
<svg xmlns="http://www.w3.org/2000/svg" xmlns:xlink="http://www.w3.org/1999/xlink" xmlns:svgjs="http://svgjs.com/svgjs" version="1.1" width="512" height="512" x="0" y="0" viewBox="0 0 512 512" style="enable-background:new 0 0 512 512" xml:space="preserve"><g><path xmlns="http://www.w3.org/2000/svg" d="m265.535156 117.351562c14.71875 2.140626 43.296875 11.195313 71.441406 47.59375l-16.09375 16.09375c-3.144531 3.148438-4.171874 7.714844-2.683593 11.914063 1.496093 4.207031 5.1875 7.105469 9.628906 7.5625l77.289063 7.941406c.394531.039063.789062.0625 1.183593.0625 3.015625 0 5.902344-1.1875 8.0625-3.347656 2.441407-2.441406 3.640625-5.8125 3.285157-9.246094l-7.953126-77.28125c-.457031-4.441406-3.355468-8.128906-7.5625-9.625-4.203124-1.492187-8.765624-.464843-11.914062 2.683594l-14.765625 14.769531c-7.667969-7.753906-23.132813-21.96875-41.84375-31.523437-27.421875-14-52.785156-13.335938-73.335937 1.917969-3.707032 2.75-5.371094 7.425781-4.238282 11.910156 1.144532 4.535156 4.871094 7.902344 9.5 8.574218zm61.253906-9.042968c19.023438 9.710937 34.527344 24.980468 40.3125 31.097656 2.144532 2.269531 5.039063 3.539062 8.15625 3.582031 3.058594.019531 6.066407-1.175781 8.238282-3.347656l12.042968-12.039063 6.738282 65.484376-65.496094-6.730469 13.003906-13.003907c3.988282-3.988281 4.457032-10.402343 1.082032-14.917968-27.085938-36.246094-55.527344-49.40625-74.128907-54.117188 14.351563-6.988281 31.144531-5.660156 50.050781 3.992188zm0 0" fill="#2453b6" data-original="#000000" style=""/><path xmlns="http://www.w3.org/2000/svg" d="m114.808594 459.679688c-3.847656-9.066407-10.960938-16.183594-20.023438-20.035157-4.410156-1.875-7.257812-6.339843-7.257812-11.417969l-.066406-12.417968c-.023438-4.128906-3.375-7.460938-7.5-7.460938h-.039063c-4.144531.019532-7.484375 3.398438-7.460937 7.539063l.066406 12.378906c0 11.066406 6.433594 20.949219 16.390625 25.183594 5.390625 2.289062 9.792969 6.699219 12.082031 12.089843 4.230469 9.96875 14.109375 16.40625 25.171875 16.40625h302.152344c11.0625 0 20.941406-6.4375 25.167969-16.40625 2.289062-5.390624 6.695312-9.800781 12.082031-12.089843 9.957031-4.230469 16.390625-14.117188 16.390625-25.222657l-.492188-91.492187c0-11.0625-6.433594-20.949219-16.390625-25.179687-5.390625-2.292969-9.792969-6.699219-12.082031-12.09375-4.230469-9.964844-14.105469-16.40625-25.164062-16.40625h-302.164063c-11.058594 0-20.9375 6.441406-25.164063 16.40625-2.289062 5.394531-6.695312 9.800781-12.085937 12.09375-9.957031 4.230468-16.390625 14.113281-16.390625 25.21875l.257812 47.265624c.019532 4.132813 3.375 7.460938 7.496094 7.460938h.042969c4.144531-.019531 7.484375-3.398438 7.460937-7.539062l-.257812-47.226563c0-5.035156 2.851562-9.503906 7.257812-11.375 9.066407-3.855469 16.175782-10.96875 20.027344-20.039063 1.871094-4.414062 6.328125-7.265624 11.355469-7.265624h302.164063c5.023437 0 9.484374 2.851562 11.355468 7.265624 3.847656 9.070313 10.960938 16.1875 20.023438 20.039063 4.410156 1.871094 7.257812 6.339844 7.257812 11.414063l.492188 91.492187c0 5.039063-2.847656 9.503906-7.257813 11.378906-9.0625 3.851563-16.175781 10.96875-20.023437 20.035157-1.871094 4.414062-6.332032 7.265624-11.363282 7.265624h-302.148437c-5.03125 0-9.492187-2.851562-11.363281-7.265624zm0 0" fill="#2453b6" data-original="#000000" style=""/><path xmlns="http://www.w3.org/2000/svg" d="m511.507812 270.519531c0-9.660156-7.855468-17.519531-17.511718-17.519531h-78.082032c-4.140624 0-7.5 3.355469-7.5 7.5s3.359376 7.5 7.5 7.5h78.082032c1.382812 0 2.511718 1.128906 2.511718 2.535156l.492188 223.945313c0 1.390625-1.125 2.519531-2.511719 2.519531h-434.484375c-1.382812 0-2.511718-1.128906-2.511718-2.535156l-.492188-223.945313c0-1.390625 1.125-2.519531 2.511719-2.519531h323.984375c4.144531 0 7.5-3.355469 7.5-7.5s-3.355469-7.5-7.5-7.5h-323.984375c-9.65625 0-17.511719 7.859375-17.511719 17.535156l.492188 223.945313c0 9.660156 7.855468 17.519531 17.511718 17.519531h434.484375c9.65625 0 17.511719-7.859375 17.511719-17.535156zm0 0" fill="#2453b6" data-original="#000000" style=""/><path xmlns="http://www.w3.org/2000/svg" d="m344.195312 380.941406c0-36.910156-30.03125-66.941406-66.941406-66.941406s-66.941406 30.03125-66.941406 66.941406c0 36.914063 30.03125 66.945313 66.941406 66.945313s66.941406-30.03125 66.941406-66.945313zm-118.886718 0c0-28.640625 23.304687-51.941406 51.945312-51.941406s51.941406 23.300781 51.941406 51.941406c0 28.644532-23.300781 51.945313-51.941406 51.945313s-51.945312-23.300781-51.945312-51.945313zm0 0" fill="#2453b6" data-original="#000000" style=""/><path xmlns="http://www.w3.org/2000/svg" d="m277.253906 424.535156c3.929688 0 7.144532-3.019531 7.46875-6.863281 8.667969-3.136719 14.890625-11.570313 14.890625-21.457031 0-12.554688-10.03125-22.769532-22.359375-22.769532-4.058594 0-7.363281-3.484374-7.363281-7.769531 0-4.277343 3.292969-7.757812 7.34375-7.769531h.019531.019532c4.046874.011719 7.339843 3.492188 7.339843 7.769531 0 4.140625 3.359375 7.5 7.5 7.5 4.144531 0 7.5-3.359375 7.5-7.5 0-9.890625-6.222656-18.320312-14.890625-21.457031-.324218-3.847656-3.539062-6.867188-7.46875-6.867188-3.925781 0-7.144531 3.019532-7.46875 6.863282-8.667968 3.136718-14.894531 11.570312-14.894531 21.460937 0 12.554688 10.03125 22.769531 22.363281 22.769531 4.058594 0 7.359375 3.484376 7.359375 7.769532s-3.300781 7.769531-7.359375 7.769531-7.363281-3.484375-7.363281-7.769531c0-4.144532-3.355469-7.5-7.5-7.5-4.140625 0-7.5 3.355468-7.5 7.5 0 9.886718 6.226563 18.320312 14.894531 21.460937.328125 3.839844 3.542969 6.859375 7.46875 6.859375zm0 0" fill="#2453b6" data-original="#000000" style=""/><path xmlns="http://www.w3.org/2000/svg" d="m135.265625 335.957031h33.988281c4.140625 0 7.5-3.359375 7.5-7.5 0-4.144531-3.359375-7.5-7.5-7.5h-33.988281c-4.140625 0-7.5 3.355469-7.5 7.5 0 4.140625 3.359375 7.5 7.5 7.5zm0 0" fill="#2453b6" data-original="#000000" style=""/><path xmlns="http://www.w3.org/2000/svg" d="m135.265625 365.957031h33.988281c4.140625 0 7.5-3.359375 7.5-7.5 0-4.144531-3.359375-7.5-7.5-7.5h-33.988281c-4.140625 0-7.5 3.355469-7.5 7.5 0 4.140625 3.359375 7.5 7.5 7.5zm0 0" fill="#2453b6" data-original="#000000" style=""/><path xmlns="http://www.w3.org/2000/svg" d="m385.253906 419.5h29c4.140625 0 7.5-3.355469 7.5-7.5s-3.359375-7.5-7.5-7.5h-29c-4.144531 0-7.5 3.355469-7.5 7.5s3.355469 7.5 7.5 7.5zm0 0" fill="#2453b6" data-original="#000000" style=""/><path xmlns="http://www.w3.org/2000/svg" d="m385.253906 449.5h29c4.140625 0 7.5-3.355469 7.5-7.5s-3.359375-7.5-7.5-7.5h-29c-4.144531 0-7.5 3.355469-7.5 7.5s3.355469 7.5 7.5 7.5zm0 0" fill="#2453b6" data-original="#000000" style=""/><path xmlns="http://www.w3.org/2000/svg" d="m116 202c47.421875 0 86-38.578125 86-86s-38.578125-86-86-86-86 38.578125-86 86 38.578125 86 86 86zm0-157c39.148438 0 71 31.851562 71 71s-31.851562 71-71 71-71-31.851562-71-71 31.851562-71 71-71zm0 0" fill="#2453b6" data-original="#000000" style=""/><path xmlns="http://www.w3.org/2000/svg" d="m15 116c0-55.691406 45.308594-101 101-101s101 45.308594 101 101-45.308594 101-101 101c-22.0625 0-43.019531-6.984375-60.605469-20.195312-3.3125-2.488282-8.011719-1.820313-10.5 1.492187-2.488281 3.308594-1.824219 8.011719 1.488281 10.5 20.207032 15.179687 44.277344 23.203125 69.617188 23.203125 63.960938 0 116-52.035156 116-116s-52.039062-116-116-116-116 52.035156-116 116c0 24.863281 7.753906 48.570312 22.421875 68.5625 2.449219 3.339844 7.144531 4.058594 10.480469 1.609375 3.339844-2.449219 4.0625-7.144531 1.613281-10.484375-12.769531-17.398438-19.515625-38.039062-19.515625-59.6875zm0 0" fill="#2453b6" data-original="#000000" style=""/><path xmlns="http://www.w3.org/2000/svg" d="m93.210938 150.03125h-3.210938c-4.140625 0-7.5 3.359375-7.5 7.5 0 4.144531 3.359375 7.5 7.5 7.5h3.210938v2.96875c0 4.144531 3.359374 7.5 7.5 7.5 4.140624 0 7.5-3.355469 7.5-7.5v-2.96875h9.628906v2.96875c0 4.144531 3.359375 7.5 7.5 7.5 4.144531 0 7.5-3.355469 7.5-7.5v-5.449219c9.8125-4.421875 16.660156-14.285156 16.660156-25.722656v-.125c0-8.175781-3.5-15.546875-9.078125-20.703125 5.578125-5.15625 9.078125-12.527344 9.078125-20.703125v-.125c0-11.4375-6.847656-21.300781-16.660156-25.722656v-5.449219c0-4.144531-3.355469-7.5-7.5-7.5-4.140625 0-7.5 3.355469-7.5 7.5v2.96875h-9.628906v-2.96875c0-4.144531-3.359376-7.5-7.5-7.5-4.140626 0-7.5 3.355469-7.5 7.5v2.96875h-3.210938c-4.140625 0-7.5 3.355469-7.5 7.5 0 4.140625 3.359375 7.5 7.5 7.5h3.210938zm41.289062-13.328125v.125c0 7.28125-5.925781 13.203125-13.207031 13.203125h-13.082031v-26.53125h13.082031c7.28125 0 13.207031 5.925781 13.207031 13.203125zm0-41.40625c0 7.277344-5.925781 13.203125-13.207031 13.203125h-13.082031v-26.53125h13.082031c7.28125 0 13.207031 5.921875 13.207031 13.203125zm0 0" fill="#2453b6" data-original="#000000" style=""/></g></svg>
