<?xml version="1.0"?>
<svg xmlns="http://www.w3.org/2000/svg" xmlns:xlink="http://www.w3.org/1999/xlink" xmlns:svgjs="http://svgjs.com/svgjs" version="1.1" width="512" height="512" x="0" y="0" viewBox="0 0 64 64" style="enable-background:new 0 0 512 512" xml:space="preserve" className=""><g><g xmlns="http://www.w3.org/2000/svg"><path d="m18 13c1.103 0 2 .897 2 2h2c0-1.859-1.28-3.411-3-3.858v-2.142h-2v2h-3v4c0 2.206 1.794 4 4 4 1.103 0 2 .897 2 2v2h-2c-1.103 0-2-.897-2-2h-2c0 1.859 1.28 3.411 3 3.858v2.142h2v-2h3v-4c0-2.206-1.794-4-4-4-1.103 0-2-.897-2-2v-2z" fill="#2453b6" data-original="#000000" style=""/><path d="m49 42h10c2.206 0 4-1.794 4-4v-8c0-2.206-1.794-4-4-4h-4v-7h-10v2h-1.879c-1.084 0-2.146-.44-2.914-1.207-.778-.778-1.207-1.813-1.207-2.914v-6.465c0-1.331-1.083-2.414-2.414-2.414-.635 0-1.257.258-1.707.707-.627.628-1.105 1.364-1.424 2.164-2.713-5.842-8.645-9.871-15.455-9.871-9.374 0-17 7.626-17 17s7.626 17 17 17c2.13 0 4.184-.401 6.135-1.159.366 1.243 1.505 2.159 2.865 2.159h13.789c.991 0 1.95-.29 2.773-.84l1.438-.958v1.798h10v-8h4c1.103 0 2 .897 2 2v8c0 1.103-.897 2-2 2h-10c-2.206 0-4 1.794-4 4s1.794 4 4 4h10c1.103 0 2 .897 2 2s-.897 2-2 2h-30c0-4.963-4.038-9-9-9h-9c-5.514 0-10 4.486-10 10s4.486 10 10 10h9c4.962 0 9-4.037 9-9h30c2.206 0 4-1.794 4-4s-1.794-4-4-4h-10c-1.103 0-2-.897-2-2s.897-2 2-2zm-46-24c0-8.271 6.729-15 15-15 7.912 0 14.488 6.153 14.997 14.016-.009.544-.451.984-.997.984h-1c0-7.168-5.832-13-13-13s-13 5.832-13 13 5.832 13 13 13c2.133 0 4.201-.526 6.05-1.501.097.573.356 1.087.73 1.501-.154.17-.284.359-.396.561-2.003.946-4.147 1.439-6.384 1.439-8.271 0-15-6.729-15-15zm21 3c0 .771.301 1.468.78 2-.48.532-.78 1.229-.78 2 0 .674.231 1.289.607 1.791-1.898 1.429-4.205 2.209-6.607 2.209-6.065 0-11-4.935-11-11s4.935-11 11-11 11 4.935 11 11h-2c-1.654 0-3 1.346-3 3zm20.697 11-2.245 1.496c-.493.33-1.068.504-1.663.504h-13.789c-.551 0-1-.448-1-1s.449-1 1-1h3v-2h-3c-.551 0-1-.448-1-1s.449-1 1-1h3v-2h-3c-.551 0-1-.448-1-1s.449-1 1-1h3v-2h-3c-.551 0-1-.448-1-1s.449-1 1-1h5c1.654 0 3-1.346 3-3v-3.758c0-1.179.459-2.287 1.292-3.12.24-.242.708-.045.708.292v6.465c0 1.636.637 3.173 1.793 4.328 1.157 1.156 2.694 1.793 4.328 1.793h1.879v9zm8.303 2h-6v-13h6zm-26.295 16h-4.705c-1.302 0-2.402.839-2.816 2h-2.184v-7h3c3.165 0 5.842 2.112 6.705 5zm.295 4h-5c-.551 0-1-.448-1-1s.449-1 1-1h5zm-24-1c0-4.411 3.589-8 8-8h4v16h-4c-4.411 0-8-3.589-8-8zm17 8h-3v-7h2.184c.414 1.161 1.514 2 2.816 2h4.705c-.863 2.887-3.54 5-6.705 5z" fill="#2453b6" data-original="#000000" style=""/></g></g></svg>
