<?xml version="1.0"?>
<svg xmlns="http://www.w3.org/2000/svg" id="Capa_1" enable-background="new 0 0 505.743 505.743" height="512px" viewBox="0 0 505.743 505.743" width="512px"><g><g><path d="m425.246 260.217c-17.602-42.21-40.115-79.35-64.801-107.329 13.337-2.438 29.261-4.145 52.393-4.145v-30c-35.14 0-55.752 3.746-73.623 7.988l37.843-93.222c-66.961-44.841-182.06-44.515-248.439 0l37.843 93.222c-17.871-4.242-38.483-7.988-73.623-7.988v30c23.132 0 39.057 1.707 52.394 4.145-58.869 62.268-139.67 256.557-71.649 325.022 30.309 29.656 81.257 28.548 140.252 27.263 25.119-.699 52.887-.699 78.006 0 48.182 1.136 110.558 3.569 140.251-27.264 47.766-48.898 20.061-150.248-6.847-217.692zm-172.407-230.474c39.966 0 70.719 10.527 86.352 17.291l-35.67 87.871c-22.645 4.984-78.717 4.985-101.363 0l-35.67-87.869c15.649-6.772 46.396-17.293 86.351-17.293zm158.273 426.724c-25.366 27.103-107.285 17.498-158.273 18.147-51.021-.651-132.866 8.955-158.273-18.148-11.213-10.971-16.663-28.774-16.663-54.427-1.016-72.963 47.253-191.171 101.212-241.307 35.297 10.488 112.202 10.475 147.442.001 54.006 50.179 102.254 168.427 101.216 241.307.001 25.652-5.449 43.456-16.661 54.427z" data-original="#000000" className="active-path" data-old_color="#000000" fill="#193DC0"/><path d="m245.754 267.835c19.796-6.332 35.086 5.992 47.485 12.043l14.233-26.408c-13.63-7.054-21.329-13.046-40.527-16.521v-19.206h-30v21.384c-31.431 9.654-45.626 54.788-18.7 76.216 9.268 7.269 22.062 13.42 44.159 21.232 25.404 9.194 11.412 42.439-10.559 41.6-13.908.081-18.235-.593-28.898-7.568l-12.552-8.211-16.422 25.104c14.339 9.525 27.372 18.834 42.973 20.052v21.191h30v-22.645c46.777-13.264 54.403-80.945 5.456-97.808-13.088-4.627-27.558-10.212-35.643-16.552-3.269-2.563-2.778-7.763-2.55-9.295.739-4.962 4.206-11.764 11.545-14.608z" data-original="#000000" className="active-path" data-old_color="#000000" fill="#193DC0"/></g></g> </svg>
