<?xml version="1.0"?>
<svg xmlns="http://www.w3.org/2000/svg" xmlns:xlink="http://www.w3.org/1999/xlink" xmlns:svgjs="http://svgjs.com/svgjs" version="1.1" width="512" height="512" x="0" y="0" viewBox="0 0 64 64" style="enable-background:new 0 0 512 512" xml:space="preserve" className=""><g><path xmlns="http://www.w3.org/2000/svg" d="m21 5h14v2h-14z" fill="#2453b6" data-original="#000000" style="" className=""/><path xmlns="http://www.w3.org/2000/svg" d="m21 9h14v2h-14z" fill="#2453b6" data-original="#000000" style="" className=""/><path xmlns="http://www.w3.org/2000/svg" d="m16 53h2v2h-2z" fill="#2453b6" data-original="#000000" style="" className=""/><path xmlns="http://www.w3.org/2000/svg" d="m20 53h2v2h-2z" fill="#2453b6" data-original="#000000" style="" className=""/><path xmlns="http://www.w3.org/2000/svg" d="m24 53h2v2h-2z" fill="#2453b6" data-original="#000000" style="" className=""/><path xmlns="http://www.w3.org/2000/svg" d="m25 17h2v2h-2z" fill="#2453b6" data-original="#000000" style="" className=""/><path xmlns="http://www.w3.org/2000/svg" d="m29 17h2v2h-2z" fill="#2453b6" data-original="#000000" style="" className=""/><path xmlns="http://www.w3.org/2000/svg" d="m33 17h2v2h-2z" fill="#2453b6" data-original="#000000" style="" className=""/><path xmlns="http://www.w3.org/2000/svg" d="m15 37h2v2h-2z" fill="#2453b6" data-original="#000000" style="" className=""/><path xmlns="http://www.w3.org/2000/svg" d="m19 37h2v2h-2z" fill="#2453b6" data-original="#000000" style="" className=""/><path xmlns="http://www.w3.org/2000/svg" d="m23 37h2v2h-2z" fill="#2453b6" data-original="#000000" style="" className=""/><path xmlns="http://www.w3.org/2000/svg" d="m27 37h2v2h-2z" fill="#2453b6" data-original="#000000" style="" className=""/><path xmlns="http://www.w3.org/2000/svg" d="m63 13.979c0-7.15-5.811-12.967-13-12.978v-.001h-32.414l-10.586 10.586v33.94c-2.023.703-3.773 2.087-4.865 3.973l-.7 1.208 5.963 1.193 1.4 2.1-1.4 2.101-5.963 1.193.7 1.208c1.607 2.774 4.621 4.498 7.865 4.498 2.999 0 5.812-1.519 7.475-4h23.051c1.662 2.481 4.476 4 7.475 4 3.244 0 6.258-1.724 7.865-4.499l.7-1.208-5.963-1.193-1.401-2.1 1.4-2.101 5.963-1.193-.7-1.208c-1.093-1.886-2.842-3.269-4.865-3.973v-5.595c3.612-.453 6.477-3.319 6.931-6.931h.069c1.654 0 3-1.346 3-3s-1.346-3-3-3h-.235l3.684-6.867c1.015-1.884 1.551-4.012 1.551-6.153zm-46-9.565v6.586h-6.586zm32.397 45.687-2.599 3.899 2.6 3.899 3.878.775c-1.325 1.46-3.242 2.326-5.276 2.326-2.484 0-4.805-1.342-6.056-3.501l-.289-.499h-25.31l-.289.499c-1.251 2.159-3.572 3.501-6.056 3.501-2.034 0-3.951-.866-5.275-2.325l3.878-.775 2.6-3.899-2.6-3.899-3.878-.775c1.324-1.461 3.241-2.327 5.275-2.327 2.484 0 4.805 1.342 6.056 3.501l.289.499h25.311l.289-.499c1.25-2.159 3.571-3.501 6.055-3.501 2.034 0 3.951.866 5.275 2.325zm-1.397-5.101c-2.999 0-5.812 1.519-7.475 4h-23.05c-1.662-2.481-4.476-4-7.475-4-.337 0-.669.03-1 .066v-32.066h10v-10h24.089c-3.39 2.135-5.722 5.786-6.039 10h-16.05v12h-10v18h22v-12h6.184c.414 1.161 1.514 2 2.816 2h.069c.453 3.612 3.319 6.477 6.931 6.931v5.135c-.331-.036-.663-.066-1-.066zm-8.816-16h-16.184v-14h14.064c.143 1.791.634 3.548 1.487 5.133l3.694 6.867h-.245c-1.302 0-2.402.839-2.816 2zm-8.184 2v10h-18v-14h8v4zm19 7c-2.967 0-5.431-2.167-5.91-5h11.82c-.479 2.833-2.943 5-5.91 5zm9-8c0 .551-.448 1-1 1h-16c-.552 0-1-.449-1-1s.448-1 1-1h16c.552 0 1 .449 1 1zm-9.735-14h1.471l-.579 11h-.313zm10.423 3.185-4.208 7.815h-3.32l.578-11h1.262c1.654 0 3-1.346 3-3s-1.346-3-3-3h-.103c-1.597 0-2.912 1.249-2.996 2.842l-.06 1.158h-1.682l-.061-1.157c-.083-1.594-1.399-2.843-2.995-2.843h-.103c-1.654 0-3 1.346-3 3s1.346 3 3 3h1.262l.578 11h-3.319l-4.208-7.815c-.859-1.595-1.313-3.395-1.313-5.206 0-6.054 4.926-10.979 11.021-10.979 6.053 0 10.979 4.925 10.979 10.979 0 1.811-.454 3.611-1.312 5.206zm-6.844-5.185.056-1.053c.027-.531.465-.947.997-.947h.103c.552 0 1 .449 1 1s-.448 1-1 1zm-5.688 0h-1.156c-.552 0-1-.449-1-1s.448-1 1-1h.103c.532 0 .971.416.998.948z" fill="#2453b6" data-original="#000000" style="" className=""/></g></svg>
