<?xml version="1.0"?>
<svg xmlns="http://www.w3.org/2000/svg" id="Capa_1" enable-background="new 0 0 512 512" height="512px" viewBox="0 0 512 512" width="512px"><g><g><path d="m487.888 150.155c5.024 0 9.112 4.088 9.112 9.112v265.639c0 5.024-4.087 9.111-9.112 9.111h-463.776c-5.024 0-9.112-4.087-9.112-9.111v-265.638c0-5.024 4.087-9.112 9.112-9.112h53.272c4.142 0 7.5-3.357 7.5-7.5s-3.358-7.5-7.5-7.5h-53.272c-13.296-.001-24.112 10.816-24.112 24.112v265.639c0 13.295 10.816 24.111 24.112 24.111h22.888v31.482c0 4.143 3.358 7.5 7.5 7.5h149c4.142 0 7.5-3.357 7.5-7.5v-31.482h28v31.482c0 4.143 3.358 7.5 7.5 7.5h64c4.142 0 7.5-3.357 7.5-7.5v-31.482h30v31.482c0 4.143 3.358 7.5 7.5 7.5h100c4.142 0 7.5-3.357 7.5-7.5v-31.482h24.888c13.295 0 24.112-10.816 24.112-24.111v-265.639c0-13.296-10.816-24.112-24.112-24.112h-190.239l.061-50.304c0-1.37 1.122-2.485 2.5-2.485h13.063c3.021 9.369 11.833 16.168 22.21 16.168 12.864 0 23.329-10.445 23.329-23.285s-10.465-23.286-23.329-23.286c-10.093 0-18.707 6.432-21.95 15.403h-13.323c-9.649 0-17.5 7.844-17.5 17.477l-.061 50.313h-18.989v-65.843c9.171-3.138 15.784-11.824 15.784-22.028 0-12.84-10.465-23.286-23.329-23.286s-23.329 10.446-23.329 23.286c0 10.238 6.657 18.947 15.875 22.059v65.81h-19.308l-.053-50.317c-.017-9.634-7.868-17.472-17.5-17.472h-13.333c-3.244-8.972-11.858-15.403-21.95-15.403-12.864 0-23.329 10.446-23.329 23.286s10.465 23.285 23.329 23.285c10.377 0 19.19-6.799 22.21-16.168h13.073c1.376 0 2.498 1.121 2.5 2.493l.052 50.296h-104.584c-4.142 0-7.5 3.357-7.5 7.5s3.358 7.5 7.5 7.5zm-152.405-83.192c4.593 0 8.329 3.717 8.329 8.286 0 4.568-3.736 8.285-8.329 8.285s-8.329-3.717-8.329-8.285c0-4.569 3.737-8.286 8.329-8.286zm-79.368-27.963c4.593 0 8.329 3.717 8.329 8.286 0 4.568-3.736 8.285-8.329 8.285s-8.329-3.717-8.329-8.285c0-4.569 3.736-8.286 8.329-8.286zm-79.598 44.534c-4.593 0-8.329-3.717-8.329-8.285 0-4.569 3.736-8.286 8.329-8.286s8.329 3.717 8.329 8.286c0 4.568-3.737 8.285-8.329 8.285zm19.483 389.466h-134v-23.982h134zm107 0h-49v-23.982h49zm145 0h-85v-23.982h85z" data-original="#000000" className="active-path" data-old_color="#000000" fill="#FFFFFF"/><path d="m408.883 419.031h65.617c4.142 0 7.5-3.357 7.5-7.5v-238.89c0-4.143-3.358-7.5-7.5-7.5h-437c-4.142 0-7.5 3.357-7.5 7.5v238.89c0 4.143 3.358 7.5 7.5 7.5h341.613c4.142 0 7.5-3.357 7.5-7.5s-3.358-7.5-7.5-7.5h-334.113v-223.89h422v223.89h-58.117c-4.142 0-7.5 3.357-7.5 7.5s3.358 7.5 7.5 7.5z" data-original="#000000" className="active-path" data-old_color="#000000" fill="#FFFFFF"/><path d="m237.445 336.037v4.542c0 4.143 3.358 7.5 7.5 7.5s7.5-3.357 7.5-7.5v-4.542h6.683v4.542c0 4.143 3.358 7.5 7.5 7.5s7.5-3.357 7.5-7.5v-4.55c14.755-.162 26.709-12.21 26.709-27.074 0-9.656-5.096-18.14-12.737-22.916 3.359-4.513 5.351-10.11 5.351-16.177 0-12.223-8.164-22.57-19.323-25.889v-5.663c0-4.143-3.358-7.5-7.5-7.5s-7.5 3.357-7.5 7.5v4.542h-6.683v-4.542c0-4.143-3.358-7.5-7.5-7.5s-7.5 3.357-7.5 7.5v4.542h-14.66c-4.142 0-7.5 3.357-7.5 7.5s3.358 7.5 7.5 7.5h3.969v63.185h-3.969c-4.142 0-7.5 3.357-7.5 7.5s3.358 7.5 7.5 7.5zm41.006-66.101c0 6.622-5.388 12.01-12.01 12.01h-24.687v-24.093h24.687c6.622 0 12.01 5.387 12.01 12.083zm-4.623 27.009c6.622 0 12.01 5.388 12.01 12.082 0 6.622-5.388 12.01-12.01 12.01h-32.073v-24.092z" data-original="#000000" className="active-path" data-old_color="#000000" fill="#FFFFFF"/><path d="m380.788 297.065c3.12 8.835 11.552 15.186 21.444 15.186 12.537 0 22.736-10.196 22.736-22.729s-10.2-22.729-22.736-22.729c-9.925 0-18.379 6.393-21.474 15.273h-31.361c-.511-6.169-1.615-12.172-3.261-17.948l20.836-.086c8.899-.036 16.14-7.305 16.14-16.202v-13.566c8.669-3.208 14.865-11.556 14.865-21.324 0-12.533-10.2-22.729-22.736-22.729s-22.736 10.196-22.736 22.729c0 10.044 6.553 18.581 15.607 21.579v13.311c0 .66-.539 1.199-1.202 1.202l-26.47.11c-15.159-31.445-47.276-53.186-84.359-53.186s-69.2 21.741-84.359 53.186l-26.636-.11c-.663-.003-1.201-.542-1.201-1.202v-13.31c9.056-2.996 15.61-11.535 15.61-21.58 0-12.533-10.2-22.729-22.736-22.729s-22.736 10.196-22.736 22.729c0 9.767 6.195 18.113 14.862 21.323v13.567c0 8.897 7.24 16.166 16.14 16.202l21.001.087c-1.646 5.776-2.75 11.779-3.261 17.948h-31.523c-3.095-8.881-11.549-15.273-21.474-15.273-12.537 0-22.736 10.196-22.736 22.729s10.2 22.729 22.736 22.729c9.892 0 18.324-6.35 21.444-15.186h31.492c.456 6.058 1.493 11.956 3.044 17.642l-20.724.087c-8.899.036-16.139 7.305-16.139 16.202v13.564c-8.667 3.209-14.862 11.555-14.862 21.323 0 12.533 10.2 22.729 22.736 22.729s22.736-10.196 22.736-22.729c0-10.045-6.555-18.583-15.61-21.58v-13.307c0-.66.539-1.199 1.201-1.202l26.161-.109c14.953 31.991 47.355 54.202 84.835 54.202s69.882-22.211 84.835-54.202l25.996.109c.663.003 1.201.542 1.201 1.202v13.308c-9.054 2.997-15.607 11.535-15.607 21.579 0 12.533 10.2 22.729 22.736 22.729s22.736-10.196 22.736-22.729c0-9.768-6.196-18.115-14.865-21.324v-13.563c0-8.897-7.24-16.166-16.139-16.202l-20.56-.086c1.551-5.686 2.588-11.584 3.044-17.642h31.329zm-5.546-91.855c4.266 0 7.736 3.468 7.736 7.729s-3.471 7.729-7.736 7.729-7.736-3.468-7.736-7.729 3.47-7.729 7.736-7.729zm-238.484 0c4.266 0 7.736 3.468 7.736 7.729s-3.471 7.729-7.736 7.729-7.736-3.468-7.736-7.729 3.471-7.729 7.736-7.729zm0 168.402c-4.266 0-7.736-3.468-7.736-7.729s3.471-7.729 7.736-7.729 7.736 3.468 7.736 7.729-3.47 7.729-7.736 7.729zm238.484 0c-4.266 0-7.736-3.468-7.736-7.729s3.471-7.729 7.736-7.729 7.736 3.468 7.736 7.729-3.471 7.729-7.736 7.729zm26.99-91.82c4.266 0 7.736 3.468 7.736 7.729s-3.471 7.729-7.736 7.729-7.736-3.468-7.736-7.729 3.47-7.729 7.736-7.729zm-292.464 15.459c-4.266 0-7.736-3.468-7.736-7.729s3.471-7.729 7.736-7.729 7.736 3.468 7.736 7.729-3.47 7.729-7.736 7.729zm146.313 71.636c-43.366 0-78.646-35.424-78.646-78.966s35.281-78.966 78.646-78.966 78.646 35.424 78.646 78.966-35.28 78.966-78.646 78.966z" data-original="#000000" className="active-path" data-old_color="#000000" fill="#FFFFFF"/></g></g> </svg>
