<svg xmlns="http://www.w3.org/2000/svg" width="86.586" height="86.586" viewBox="0 0 86.586 86.586">
  <g id="Dedicated_hosting" data-name="Dedicated hosting" transform="translate(-2 -2)">
    <rect id="Rectangle_547" data-name="Rectangle 547" width="2" height="3" transform="translate(12.586 12)" fill="#2453b6"/>
    <rect id="Rectangle_548" data-name="Rectangle 548" width="3" height="3" transform="translate(17.586 12)" fill="#2453b6"/>
    <rect id="Rectangle_549" data-name="Rectangle 549" width="3" height="3" transform="translate(23.586 12)" fill="#2453b6"/>
    <rect id="Rectangle_550" data-name="Rectangle 550" width="3" height="3" transform="translate(29.586 12)" fill="#2453b6"/>
    <rect id="Rectangle_551" data-name="Rectangle 551" width="2" height="3" transform="translate(35.586 12)" fill="#2453b6"/>
    <rect id="Rectangle_552" data-name="Rectangle 552" width="2" height="3" transform="translate(12.586 44)" fill="#2453b6"/>
    <rect id="Rectangle_553" data-name="Rectangle 553" width="3" height="3" transform="translate(17.586 44)" fill="#2453b6"/>
    <rect id="Rectangle_554" data-name="Rectangle 554" width="3" height="3" transform="translate(23.586 44)" fill="#2453b6"/>
    <rect id="Rectangle_555" data-name="Rectangle 555" width="2" height="2" transform="translate(12.586 76)" fill="#2453b6"/>
    <rect id="Rectangle_556" data-name="Rectangle 556" width="3" height="2" transform="translate(17.586 76)" fill="#2453b6"/>
    <rect id="Rectangle_557" data-name="Rectangle 557" width="3" height="2" transform="translate(23.586 76)" fill="#2453b6"/>
    <rect id="Rectangle_558" data-name="Rectangle 558" width="3" height="3" transform="translate(29.586 44)" fill="#2453b6"/>
    <rect id="Rectangle_559" data-name="Rectangle 559" width="2" height="3" transform="translate(35.586 44)" fill="#2453b6"/>
    <rect id="Rectangle_560" data-name="Rectangle 560" width="3" height="3" transform="translate(40.586 44)" fill="#2453b6"/>
    <rect id="Rectangle_561" data-name="Rectangle 561" width="12" height="3" transform="translate(7.586 28)" fill="#2453b6"/>
    <rect id="Rectangle_562" data-name="Rectangle 562" width="8" height="3" transform="translate(25.586 28)" fill="#2453b6"/>
    <rect id="Rectangle_563" data-name="Rectangle 563" width="12" height="3" transform="translate(7.586 60)" fill="#2453b6"/>
    <path id="Path_1748" data-name="Path 1748" d="M34.443,25.659h7.215A1.443,1.443,0,0,0,43.1,24.215V22.772h2.886v1.443a1.443,1.443,0,0,0,1.443,1.443h7.215a1.443,1.443,0,0,0,1.443-1.443V18.443A1.443,1.443,0,0,0,54.646,17H47.431a1.443,1.443,0,0,0-1.443,1.443v1.443H43.1V18.443A1.443,1.443,0,0,0,41.659,17H34.443A1.443,1.443,0,0,0,33,18.443v5.772A1.443,1.443,0,0,0,34.443,25.659Zm14.431-5.772H53.2v2.886H48.874Zm-12.988,0h4.329v2.886H35.886Z" transform="translate(13.736 6.646)" fill="#2453b6"/>
    <path id="Path_1749" data-name="Path 1749" d="M88.528,64.053a10.128,10.128,0,0,0-7.273-8.947l-12.872-3.68v-4a15.857,15.857,0,0,0,5.772-12.237V32.305H75.6a4.342,4.342,0,0,0,4.329-4.329V25.09A4.342,4.342,0,0,0,75.6,20.76H74.155V19.317H75.6V16.431H39.521v2.886h2.886V20.76H40.964a4.309,4.309,0,0,0-3.2,1.443H4.886V4.886H44.369a11.946,11.946,0,0,0-1.515,1.443H7.772A1.443,1.443,0,0,0,6.329,7.772V19.317A1.443,1.443,0,0,0,7.772,20.76H38.077V17.874H9.215V9.215H40.892a12.935,12.935,0,0,0-1.371,5.772h2.886A10.1,10.1,0,0,1,60.142,8.379a1.458,1.458,0,0,0,1.8.317,7.23,7.23,0,0,1,10.765,6.292H75.6a10.113,10.113,0,0,0-10.1-10.1,10.217,10.217,0,0,0-3.94.794A12.906,12.906,0,0,0,52.508,2H3.443A1.443,1.443,0,0,0,2,3.443v83.7a1.443,1.443,0,0,0,1.443,1.443h83.7a1.443,1.443,0,0,0,1.443-1.443V64.053ZM74.155,23.646H75.6a1.443,1.443,0,0,1,1.443,1.443v2.886A1.443,1.443,0,0,1,75.6,29.419H74.155ZM39.521,25.09a1.443,1.443,0,0,1,1.443-1.443h1.443v5.772H40.964a1.443,1.443,0,0,1-1.443-1.443Zm-34.634,0H36.634v2.886a4.342,4.342,0,0,0,4.329,4.329h1.443v1.443H4.886Zm0,11.545H42.479c.043.491.115.967.2,1.443H7.772a1.443,1.443,0,0,0-1.443,1.443V51.065a1.443,1.443,0,0,0,1.443,1.443h36.6l-5.051,1.443H4.886ZM27.976,81.37H9.215V72.712h18.76Zm0-11.545H7.772a1.443,1.443,0,0,0-1.443,1.443V82.814a1.443,1.443,0,0,0,1.443,1.443h20.2V85.7H4.886V68.383h23.09Zm1.414-10.1h-4.3V62.61h3.16a12,12,0,0,0-.216,1.443h-.058V65.5H4.886V56.838H31.93A10.119,10.119,0,0,0,29.39,59.724ZM48.179,85.7H42.407V69.826H39.521V85.7H30.862V64.818A7.247,7.247,0,0,1,36.1,57.877l12.079-3.449Zm0-36.077H9.215V40.964H43.5a15.9,15.9,0,0,0,4.676,6.465ZM65.5,85.7H51.065V55.207l6.422,4.272a1.407,1.407,0,0,0,1.587,0L65.5,55.207Zm0-33.971-7.215,4.82-7.215-4.82v-2.41a15.782,15.782,0,0,0,14.431,0Zm-7.215-3.55A13.008,13.008,0,0,1,45.293,35.191V19.317H71.269V35.191A13.008,13.008,0,0,1,58.281,48.179ZM85.7,85.7H77.041V71.269H74.155V85.7H68.383V54.428l12.079,3.449A7.247,7.247,0,0,1,85.7,64.818Z" transform="translate(0 0)" fill="#2453b6"/>
  </g>
</svg>
