<svg id="Layer_1" enable-background="new 0 0 512 512" height="512" viewBox="0 0 512 512" width="512" xmlns="http://www.w3.org/2000/svg"><g><g><g><path d="m156 264h144v256h-144z" fill="#46508c" transform="matrix(0 1 -1 0 620 164)"/></g><g><path d="m148 432h-48c-8.837 0-16 7.163-16 16v16h80v-16c0-8.837-7.163-16-16-16z" fill="#73cddc"/></g><g><path d="m252 432h-48c-8.837 0-16 7.163-16 16v16h80v-16c0-8.837-7.163-16-16-16z" fill="#73cddc"/></g><g><path d="m356 432h-48c-8.837 0-16 7.163-16 16v16h80v-16c0-8.837-7.163-16-16-16z" fill="#73cddc"/></g><g><path d="m372 464h-288v16c0 8.837 7.163 16 16 16h256c8.837 0 16-7.163 16-16z" fill="#5f78be"/></g><g><path d="m84 368h80v48h-80z" fill="#5f78be" transform="matrix(0 1 -1 0 516 268)"/></g><g><path d="m188 368h80v48h-80z" fill="#5f78be" transform="matrix(0 1 -1 0 620 164)"/></g><g><path d="m292 368h80v48h-80z" fill="#5f78be" transform="matrix(0 1 -1 0 724 60)"/></g><g><path d="m228 192c-10.386 0-20.491 3.369-28.8 9.6l-108.8 81.6c-4.029 3.022-6.4 7.764-6.4 12.8v24h288v-24c0-5.036-2.371-9.778-6.4-12.8l-108.8-81.6c-8.309-6.231-18.414-9.6-28.8-9.6z" fill="#73cddc"/></g><g><path d="m213.6 220.8-76.8 57.6c-1.343 1.007-2.133 2.588-2.133 4.267 0 2.945 2.388 5.333 5.333 5.333h176c2.946 0 5.333-2.388 5.333-5.333 0-1.679-.79-3.259-2.133-4.267l-76.8-57.6c-4.154-3.116-9.207-4.8-14.4-4.8-5.193 0-10.246 1.684-14.4 4.8z" fill="#5f78be"/></g><g><path d="m148 352h-48c-8.837 0-16-7.163-16-16v-16h80v16c0 8.837-7.163 16-16 16z" fill="#5f78be"/></g><g><path d="m252 352h-48c-8.837 0-16-7.163-16-16v-16h80v16c0 8.837-7.163 16-16 16z" fill="#5f78be"/></g><g><path d="m356 352h-48c-8.837 0-16-7.163-16-16v-16h80v16c0 8.837-7.163 16-16 16z" fill="#5f78be"/></g><g><path d="m124 432h-24v-64h8c8.837 0 16 7.163 16 16z" fill="#73cddc"/></g><g><path d="m228 432h-24v-64h8c8.837 0 16 7.163 16 16z" fill="#73cddc"/></g><g><path d="m332 432h-24v-64h8c8.837 0 16 7.163 16 16z" fill="#73cddc"/></g></g><path d="m118.597 208h-10.597v-80c0-4.418-3.582-8-8-8s-8 3.582-8 8v80h-10.597c-2.984 0-5.403 2.419-5.403 5.403 0 1.641.746 3.194 2.028 4.219l14.849 11.879c2.021 1.618 4.534 2.499 7.123 2.499s5.102-.881 7.124-2.499l14.849-11.879c1.282-1.025 2.028-2.578 2.028-4.219-.001-2.984-2.42-5.403-5.404-5.403z" fill="#46508c"/><g><g><path d="m396 32h-146.745c-8.487 0-16.626 3.371-22.627 9.373l-38.628 38.627v96h176c17.673 0 32-14.327 32-32h16v-112z" fill="#f0915a"/></g><g><g><g><circle cx="228" cy="112" fill="#faa51e" r="88"/></g><g><path d="m228 32c44.112 0 80 35.888 80 80s-35.888 80-80 80-80-35.888-80-80 35.888-80 80-80m0-16c-53.019 0-96 42.981-96 96s42.981 96 96 96 96-42.981 96-96-42.981-96-96-96z" fill="#f06423"/></g></g><path d="m252 104c4.418 0 8-3.582 8-8v-5.404c0-13.789-10.549-25.158-24-26.468v-8.128c0-4.418-3.582-8-8-8s-8 3.582-8 8v8.128c-13.451 1.31-24 12.679-24 26.468 0 11.466 7.309 21.606 18.186 25.231l22.568 7.523c4.334 1.445 7.246 5.485 7.246 10.053 0 5.843-4.754 10.596-10.597 10.596h-10.807c-5.843 0-10.597-4.753-10.597-10.596v-5.403c0-4.418-3.582-8-8-8s-8 3.582-8 8v5.404c0 13.789 10.549 25.158 24 26.468v8.128c0 4.418 3.582 8 8 8s8-3.582 8-8v-8.128c13.451-1.31 24-12.679 24-26.468 0-11.466-7.309-21.606-18.186-25.231l-22.568-7.523c-4.333-1.446-7.245-5.485-7.245-10.054 0-5.843 4.754-10.596 10.597-10.596h10.807c5.842 0 10.596 4.753 10.596 10.596v5.404c0 4.418 3.582 8 8 8z" fill="#f06423"/></g><g><path d="m412 32v112c0 8.837 7.163 16 16 16h8v-144h-8c-8.837 0-16 7.163-16 16z" fill="#5f78be"/></g><g><path d="m412 32v56h24v-72h-8c-8.837 0-16 7.163-16 16z" fill="#46508c"/></g><g><path d="m287.314 36.686-40 40c-6.248 6.248-6.248 16.379 0 22.627l.726.726c12.497 12.497 32.758 12.497 45.255 0l12.038-12.039h34.667c30.928 0 56-25.072 56-56h-97.373c-4.243 0-8.313 1.686-11.313 4.686z" fill="#fab991"/></g><g><path d="m249.333 74.667 2.02 2.02c6.248 6.248 16.379 6.248 22.627 0l1.696-1.696c3.124-3.124 3.124-8.19 0-11.314l-7.676-7.677z" fill="#f0915a"/></g></g><path d="m374.597 208h-10.597v-80c0-4.418-3.582-8-8-8s-8 3.582-8 8v80h-10.597c-2.984 0-5.403 2.419-5.403 5.403 0 1.641.746 3.194 2.028 4.219l14.849 11.879c2.022 1.617 4.534 2.499 7.124 2.499s5.102-.881 7.124-2.499l14.849-11.879c1.282-1.025 2.028-2.578 2.028-4.219-.002-2.984-2.421-5.403-5.405-5.403z" fill="#46508c"/></g></svg>