<?xml version="1.0"?>
<svg xmlns="http://www.w3.org/2000/svg" xmlns:xlink="http://www.w3.org/1999/xlink" xmlns:svgjs="http://svgjs.com/svgjs" version="1.1" width="512" height="512" x="0" y="0" viewBox="0 0 64 64" style="enable-background:new 0 0 512 512" xml:space="preserve" className=""><g><path xmlns="http://www.w3.org/2000/svg" d="m15 57h6v2h-6z" fill="#2453b6" data-original="#000000" style=""/><path xmlns="http://www.w3.org/2000/svg" d="m60.969 30h.031v-4c0-2.757-2.243-5-5-5h-.062c.026-.333.062-.663.062-1 0-7.168-5.832-13-13-13-3.018 0-5.791 1.043-8 2.774v-3.774c0-2.757-2.243-5-5-5h-24c-2.757 0-5 2.243-5 5v52c0 2.757 2.243 5 5 5h24c2.757 0 5-2.243 5-5v-1h23c2.757 0 5-2.243 5-5v-18c0-1.641-.806-3.088-2.031-4zm-4.969-7c1.654 0 3 1.346 3 3v3.101c-.323-.066-.658-.101-1-.101h-5.647c1.615-1.676 2.751-3.741 3.286-6zm-13-14c6.065 0 11 4.935 11 11 0 3.599-1.76 6.936-4.705 9h-5.295v-2.142c1.72-.447 3-2 3-3.858 0-2.206-1.794-4-4-4-1.103 0-2-.897-2-2s.897-2 2-2 2 .897 2 2h2c0-1.858-1.28-3.411-3-3.858v-2.142h-2v2.142c-1.72.447-3 2-3 3.858 0 2.206 1.794 4 4 4 1.103 0 2 .897 2 2s-.897 2-2 2-2-.897-2-2h-2c0 1.858 1.28 3.411 3 3.858v2.142h-5.295c-2.945-2.064-4.705-5.401-4.705-9 0-6.065 4.935-11 11-11zm-19.899 44h-20.101v-44h30v2.705c-1.872 2.253-3 5.144-3 8.295 0 .337.036.667.062 1h-2.062c-2.757 0-5 2.243-5 5v26c0 .342.035.677.101 1zm4.899-30h2.361c.163.687.385 1.353.655 2h-3.016v2h4v-.116c.474.757 1.021 1.467 1.647 2.116h-5.647c-1.654 0-3-1.346-3-3s1.346-3 3-3zm-22-20h24c1.654 0 3 1.346 3 3v1h-30v-1c0-1.654 1.346-3 3-3zm27 55c0 1.654-1.346 3-3 3h-24c-1.654 0-3-1.346-3-3v-3h21v-.031c.912 1.225 2.359 2.031 4 2.031h5zm25-3h-30c-1.654 0-3-1.346-3-3v-22.002c.836.628 1.875 1.002 3 1.002h30c1.654 0 3 1.346 3 3v3h-12c-3.309 0-6 2.691-6 6s2.691 6 6 6h12v3c0 1.654-1.346 3-3 3zm3-16v8h-12c-2.206 0-4-1.794-4-4s1.794-4 4-4z" fill="#2453b6" data-original="#000000" style=""/><path xmlns="http://www.w3.org/2000/svg" d="m47 42h2v2h-2z" fill="#2453b6" data-original="#000000" style=""/><path xmlns="http://www.w3.org/2000/svg" d="m50 19h2v2h-2z" fill="#2453b6" data-original="#000000" style=""/><path xmlns="http://www.w3.org/2000/svg" d="m34 19h2v2h-2z" fill="#2453b6" data-original="#000000" style=""/><path xmlns="http://www.w3.org/2000/svg" d="m59 11h2v2h-2z" fill="#2453b6" data-original="#000000" style=""/><path xmlns="http://www.w3.org/2000/svg" d="m59 15h2v2h-2z" fill="#2453b6" data-original="#000000" style=""/><path xmlns="http://www.w3.org/2000/svg" d="m61 13h2v2h-2z" fill="#2453b6" data-original="#000000" style=""/><path xmlns="http://www.w3.org/2000/svg" d="m57 13h2v2h-2z" fill="#2453b6" data-original="#000000" style=""/><path xmlns="http://www.w3.org/2000/svg" d="m25 13h2v2h-2z" fill="#2453b6" data-original="#000000" style=""/><path xmlns="http://www.w3.org/2000/svg" d="m25 17h2v2h-2z" fill="#2453b6" data-original="#000000" style=""/><path xmlns="http://www.w3.org/2000/svg" d="m27 15h2v2h-2z" fill="#2453b6" data-original="#000000" style=""/><path xmlns="http://www.w3.org/2000/svg" d="m23 15h2v2h-2z" fill="#2453b6" data-original="#000000" style=""/><path xmlns="http://www.w3.org/2000/svg" d="m51 1h2v2h-2z" fill="#2453b6" data-original="#000000" style=""/><path xmlns="http://www.w3.org/2000/svg" d="m51 5h2v2h-2z" fill="#2453b6" data-original="#000000" style=""/><path xmlns="http://www.w3.org/2000/svg" d="m53 3h2v2h-2z" fill="#2453b6" data-original="#000000" style=""/><path xmlns="http://www.w3.org/2000/svg" d="m49 3h2v2h-2z" fill="#2453b6" data-original="#000000" style=""/></g></svg>
