<svg xmlns="http://www.w3.org/2000/svg" width="101.163" height="101" viewBox="0 0 101.163 101">
  <g id="dispute-management" transform="translate(-2 -2.163)">
    <path id="Path_1335" data-name="Path 1335" d="M22.233,71.977v-8.43a8.422,8.422,0,0,0-4.871-7.614,6.678,6.678,0,0,0,1.5-4.188,6.744,6.744,0,1,0-13.488,0,6.678,6.678,0,0,0,1.5,4.188A8.422,8.422,0,0,0,2,63.547v8.43a1.685,1.685,0,0,0,1.686,1.686H20.547A1.685,1.685,0,0,0,22.233,71.977Zm-10.116-23.6a3.372,3.372,0,1,1-3.372,3.372A3.375,3.375,0,0,1,12.116,48.372Zm6.744,21.919H5.372V63.547a5.064,5.064,0,0,1,5.058-5.058H13.8a5.064,5.064,0,0,1,5.058,5.058Z" transform="translate(0 29.5)" fill="#2453b6"/>
    <path id="Path_1336" data-name="Path 1336" d="M16,63.547v8.43a1.685,1.685,0,0,0,1.686,1.686H34.547a1.685,1.685,0,0,0,1.686-1.686v-8.43a8.422,8.422,0,0,0-4.871-7.614,6.678,6.678,0,0,0,1.5-4.188,6.744,6.744,0,1,0-13.488,0,6.678,6.678,0,0,0,1.5,4.188A8.422,8.422,0,0,0,16,63.547ZM26.116,48.372a3.372,3.372,0,1,1-3.372,3.372A3.375,3.375,0,0,1,26.116,48.372ZM19.372,63.547a5.064,5.064,0,0,1,5.058-5.058H27.8a5.064,5.064,0,0,1,5.058,5.058v6.744H19.372Z" transform="translate(9.605 29.5)" fill="#2453b6"/>
    <path id="Path_1337" data-name="Path 1337" d="M36,63.547v8.43a1.685,1.685,0,0,0,1.686,1.686H54.547a1.685,1.685,0,0,0,1.686-1.686v-8.43a8.422,8.422,0,0,0-4.871-7.614,6.678,6.678,0,0,0,1.5-4.188,6.744,6.744,0,1,0-13.488,0,6.678,6.678,0,0,0,1.5,4.188A8.422,8.422,0,0,0,36,63.547ZM46.116,48.372a3.372,3.372,0,1,1-3.372,3.372A3.375,3.375,0,0,1,46.116,48.372ZM39.372,63.547a5.064,5.064,0,0,1,5.058-5.058H47.8a5.064,5.064,0,0,1,5.058,5.058v6.744H39.372Z" transform="translate(23.326 29.5)" fill="#2453b6"/>
    <path id="Path_1338" data-name="Path 1338" d="M65.362,55.932a6.678,6.678,0,0,0,1.5-4.188,6.744,6.744,0,1,0-13.488,0,6.678,6.678,0,0,0,1.5,4.188A8.422,8.422,0,0,0,50,63.547v8.43a1.685,1.685,0,0,0,1.686,1.686H68.547a1.685,1.685,0,0,0,1.686-1.686v-8.43A8.422,8.422,0,0,0,65.362,55.932Zm-5.245-7.56a3.372,3.372,0,1,1-3.372,3.372A3.375,3.375,0,0,1,60.116,48.372Zm6.744,21.919H53.372V63.547a5.064,5.064,0,0,1,5.058-5.058H61.8a5.064,5.064,0,0,1,5.058,5.058Z" transform="translate(32.93 29.5)" fill="#2453b6"/>
    <path id="Path_1339" data-name="Path 1339" d="M14.43,6A8.44,8.44,0,0,0,6,14.43V39.721a8.44,8.44,0,0,0,8.43,8.43h2.956L14.471,61.274a1.685,1.685,0,0,0,2.905,1.485L30.362,48.151h5.987a8.44,8.44,0,0,0,8.43,8.43H65.932l11.3,12.912a1.681,1.681,0,0,0,1.27.577,1.655,1.655,0,0,0,.69-.148,1.684,1.684,0,0,0,.983-1.747L78.724,56.582h3.148a8.44,8.44,0,0,0,8.43-8.43V22.861a8.44,8.44,0,0,0-8.43-8.43H59.954A8.44,8.44,0,0,0,51.523,6ZM59.954,39.721V17.8H81.872a5.064,5.064,0,0,1,5.058,5.058V48.151a5.064,5.064,0,0,1-5.058,5.058H76.814a1.684,1.684,0,0,0-1.673,1.9l1,8.027-8.177-9.346a1.687,1.687,0,0,0-1.27-.577H44.779a5.064,5.064,0,0,1-5.058-5.058h11.8A8.44,8.44,0,0,0,59.954,39.721ZM56.582,14.43V39.721a5.064,5.064,0,0,1-5.058,5.058H29.6a1.682,1.682,0,0,0-1.259.567L19.171,55.664l1.964-8.833a1.685,1.685,0,0,0-1.647-2.052H14.43a5.064,5.064,0,0,1-5.058-5.058V14.43A5.064,5.064,0,0,1,14.43,9.372H51.523A5.064,5.064,0,0,1,56.582,14.43Z" transform="translate(2.744 2.744)" fill="#2453b6"/>
    <rect id="Rectangle_483" data-name="Rectangle 483" width="19" height="3" transform="translate(66 27.163)" fill="#2453b6"/>
    <rect id="Rectangle_484" data-name="Rectangle 484" width="19" height="3" transform="translate(66 36.163)" fill="#2453b6"/>
    <rect id="Rectangle_485" data-name="Rectangle 485" width="9" height="3" transform="translate(76 44.163)" fill="#2453b6"/>
    <rect id="Rectangle_486" data-name="Rectangle 486" width="7" height="3" transform="translate(66 44.163)" fill="#2453b6"/>
    <rect id="Rectangle_487" data-name="Rectangle 487" width="25" height="3" transform="translate(17 19.163)" fill="#2453b6"/>
    <rect id="Rectangle_488" data-name="Rectangle 488" width="37" height="3" transform="translate(17 27.163)" fill="#2453b6"/>
    <rect id="Rectangle_489" data-name="Rectangle 489" width="15" height="3" transform="translate(17 36.163)" fill="#2453b6"/>
    <rect id="Rectangle_490" data-name="Rectangle 490" width="18" height="3" transform="translate(36 36.163)" fill="#2453b6"/>
    <rect id="Rectangle_491" data-name="Rectangle 491" width="8" height="3" transform="translate(46 19.163)" fill="#2453b6"/>
    <rect id="Rectangle_492" data-name="Rectangle 492" width="4" height="3" transform="translate(96 2.163)" fill="#2453b6"/>
    <rect id="Rectangle_493" data-name="Rectangle 493" width="4" height="3" transform="translate(96 9.163)" fill="#2453b6"/>
    <rect id="Rectangle_494" data-name="Rectangle 494" width="3" height="4" transform="translate(100 5.163)" fill="#2453b6"/>
    <rect id="Rectangle_495" data-name="Rectangle 495" width="3" height="4" transform="translate(93 5.163)" fill="#2453b6"/>
  </g>
</svg>
