<?xml version="1.0"?>
<svg xmlns="http://www.w3.org/2000/svg" xmlns:xlink="http://www.w3.org/1999/xlink" xmlns:svgjs="http://svgjs.com/svgjs" version="1.1" width="512" height="512" x="0" y="0" viewBox="0 0 512 512" style="enable-background:new 0 0 512 512" xml:space="preserve" className=""><g><g xmlns="http://www.w3.org/2000/svg"><path d="m493.5 283.184h-114.549c.99-1.578 1.943-3.184 2.822-4.841 14.947-28.152 10.5-61.544-8.612-84.76l-39.216-69.185c-21.955-40.663-59.702-44.376-96.209-47.967-5.234-.515-10.647-1.047-15.97-1.682-36.919-4.413-44.124-8.367-70.934-23.077-3.167-1.738-6.598-3.62-10.359-5.657.538-3.655.259-7.419-.862-11.066-1.977-6.432-6.324-11.693-12.202-14.794l-32.296-17.21c-5.919-3.145-12.72-3.797-19.147-1.831-6.436 1.967-11.711 6.314-14.851 12.234l-49.668 93.502c-3.146 5.911-3.798 12.707-1.834 19.138 1.965 6.435 6.308 11.712 12.229 14.857l32.285 17.205c3.746 1.99 7.772 2.933 11.746 2.933 9.004-.001 17.731-4.846 22.252-13.337l.48-.904c10.191 6.322 16.16 12.298 21.597 21.132 15.985 25.93 31.612 33.483 46.725 40.786 5.256 2.54 10.221 4.94 15.402 8.172l65.598 40.907c.484.301.976.601 1.471.899 1.902 8.758 5.294 17.056 9.999 24.545h-103.949c-5.523 0-10 4.477-10 10v187.303c0 17.377 14.128 31.514 31.495 31.514h305.063c17.366 0 31.494-14.137 31.494-31.514v-187.302c0-5.523-4.477-10-10-10zm-129.39-14.219c-2.821 5.313-6.427 10.077-10.725 14.219h-78.396c-5.306-5.098-9.546-11.163-12.503-17.851.805-.118 1.611-.274 2.418-.491 6.099-1.641 11.013-5.9 14.605-12.658 6.744-12.69 4.038-33.285-5.302-49.836 17.367-17.443 44.29-21.777 66.532-9.951 27.513 14.672 37.997 49.019 23.371 76.568zm-102.286-82.461-33.094-34.364c-.094-.114-.182-.224-.264-.328 1.163-.45 2.955-.982 5.631-1.432 26.239-4.388 33.784 2.995 46.002 23.371-6.592 3.283-12.755 7.555-18.275 12.753zm-191.358-48.248c-1.311 2.463-4.497 3.441-6.946 2.139l-32.285-17.205c-.004-.002-.008-.004-.012-.006-1.617-.859-2.25-2.271-2.483-3.036-.234-.765-.498-2.288.365-3.907l49.676-93.516c.858-1.618 2.267-2.251 3.03-2.484.366-.111.905-.23 1.544-.23.7 0 1.52.142 2.364.59l32.323 17.225c1.591.839 2.22 2.239 2.453 2.998.237.77.505 2.304-.361 3.931zm178.034 102.508-65.588-40.901c-6.092-3.801-11.782-6.55-17.283-9.209-14.237-6.881-25.482-12.315-38.399-33.268-8.074-13.119-17.438-21.213-29.219-28.35l34.352-64.668c3.172 1.723 6.113 3.336 8.851 4.838 27.226 14.939 37.414 20.529 78.184 25.402 5.531.659 11.048 1.202 16.383 1.727 35.596 3.501 63.714 6.267 80.61 37.643.035.064.069.127.105.19l19.76 34.861c-12.124-3.67-24.752-4.209-36.803-1.847-14.587-24.797-28.082-43.314-68.66-36.526-12.165 2.042-19.708 6.84-22.419 14.262-1.648 4.514-2.068 11.715 5.295 20.384.135.159.274.313.419.463l36.312 37.706c11.515 11.934 15.166 32.335 11.45 39.327-1.091 2.053-1.933 2.675-2.141 2.731-.416.111-2.899.405-11.209-4.765zm223.505 251.236h-305.062c-6.338 0-11.495-5.165-11.495-11.514v-118.034h54.088c5.523 0 10-4.477 10-10s-4.477-10-10-10h-54.088v-39.269h328.052v39.269h-184.247c-5.523 0-10 4.477-10 10s4.477 10 10 10h184.247v118.034c0 6.349-5.156 11.514-11.495 11.514z" fill="#2453b6" data-original="#000000" style="" className=""/><path d="m414.944 391.719h-190.937c-5.523 0-10 4.477-10 10v50.994c0 5.523 4.477 10 10 10h190.937c5.523 0 10-4.477 10-10v-50.994c0-5.523-4.477-10-10-10zm-10 50.994h-170.937v-30.994h170.937z" fill="#2453b6" data-original="#000000" style="" className=""/><path d="m254.394 362.454h.057c5.523 0 9.972-4.477 9.972-10s-4.505-10-10.028-10-10 4.477-10 10 4.476 10 9.999 10z" fill="#2453b6" data-original="#000000" style="" className=""/></g></g></svg>
