<?xml version="1.0"?>
<svg xmlns="http://www.w3.org/2000/svg" xmlns:xlink="http://www.w3.org/1999/xlink" version="1.1" id="Capa_1" x="0px" y="0px" viewBox="0 0 512 512" style="enable-background:new 0 0 512 512;" xml:space="preserve" width="512px" height="512px"><g><g>
	<g>
		<g>
			<path d="M473.886,85.384c-0.019-0.149-0.037-0.297-0.058-0.446c-0.068-0.47-0.146-0.938-0.238-1.403     c-0.053-0.276-0.116-0.549-0.177-0.822c-0.085-0.374-0.167-0.747-0.267-1.117c-0.176-0.658-0.371-1.31-0.593-1.952     c-0.067-0.193-0.131-0.387-0.202-0.578c-0.055-0.149-0.116-0.296-0.174-0.444c-0.121-0.311-0.246-0.621-0.378-0.928     c-0.035-0.082-0.073-0.163-0.109-0.244c-0.163-0.366-0.332-0.729-0.51-1.088c-0.023-0.047-0.048-0.094-0.071-0.141     c-0.194-0.387-0.398-0.769-0.61-1.147c-0.018-0.032-0.037-0.064-0.055-0.096c-0.219-0.385-0.446-0.764-0.683-1.139     c-0.02-0.032-0.04-0.063-0.06-0.094c-0.234-0.368-0.478-0.73-0.73-1.087c-0.027-0.039-0.054-0.078-0.082-0.117     c-0.244-0.342-0.496-0.678-0.756-1.009c-0.04-0.052-0.079-0.104-0.12-0.155c-0.249-0.313-0.506-0.62-0.769-0.923     c-0.055-0.063-0.107-0.128-0.163-0.191c-0.259-0.294-0.527-0.581-0.8-0.865c-0.061-0.063-0.118-0.128-0.179-0.191     c-0.333-0.34-0.673-0.673-1.024-0.998l-32.863-30.362L399.353,7.482c-0.451-0.417-0.918-0.811-1.392-1.196     c-0.096-0.078-0.193-0.156-0.29-0.233c-0.998-0.786-2.042-1.504-3.131-2.145c-0.032-0.019-0.064-0.039-0.096-0.057     c-0.668-0.391-1.356-0.743-2.052-1.077c-0.139-0.066-0.28-0.129-0.42-0.193c-0.63-0.29-1.269-0.556-1.918-0.798     c-0.074-0.027-0.146-0.057-0.22-0.084c-1.538-0.559-3.125-0.98-4.746-1.264c-0.02-0.003-0.038-0.009-0.058-0.013     c-0.019-0.003-0.039-0.003-0.058-0.007C383.414,0.151,381.831,0,380.227,0H204.85c-17.763,0-32.213,14.45-32.213,32.212v213.592     c-0.555-0.007-1.109-0.021-1.666-0.021c-73.396,0-133.108,59.712-133.108,133.108S97.573,512,170.971,512     c59.359,0,109.76-39.059,126.871-92.822h144.084c17.762,0,32.212-14.45,32.212-32.212V88.909     C474.138,87.723,474.036,86.549,473.886,85.384z M393.324,29.144l52.543,48.544h-47.608c-2.721,0-4.935-2.213-4.935-4.934V29.144     z M282.254,399.178c-1.255,6.905-3.144,13.59-5.596,20C260.39,461.712,219.154,492,170.971,492     c-62.368,0-113.108-50.74-113.108-113.108s50.74-113.108,113.108-113.108c0.557,0,1.111,0.013,1.666,0.021     c6.829,0.099,13.512,0.806,20,2.07c52.038,10.137,91.442,56.059,91.442,111.018C284.079,385.815,283.451,392.594,282.254,399.178     z M454.139,386.966h-0.001c0,6.734-5.479,12.212-12.212,12.212h-139.39c1.016-6.616,1.543-13.391,1.543-20.286     c0-66.019-48.315-120.957-111.442-131.336V32.212c0-6.734,5.479-12.212,12.213-12.212h168.475v52.753     c0,13.749,11.186,24.934,24.935,24.934h55.879V386.966z" data-original="#000000" className="active-path" data-old_color="#000000" fill="#2453B6"/>
			<path d="M192.637,286.55c-6.44-1.559-13.13-2.471-20-2.653c-0.852-0.022-1.707-0.035-2.564-0.035     c-52.895,0-95.928,43.033-95.928,95.928c0,17.422,4.72,34.486,13.65,49.347c2.845,4.734,8.986,6.266,13.722,3.42     c4.734-2.845,6.266-8.988,3.421-13.722c-7.061-11.75-10.793-25.251-10.793-39.045c0-41.867,34.062-75.928,75.928-75.928     c0.86,0,1.711,0.037,2.564,0.065c6.938,0.232,13.65,1.378,20,3.358C223.518,316.917,246,345.778,246,379.791     c0,6.699-0.881,13.195-2.518,19.387c-1.884,7.128-4.773,13.851-8.519,20c-13.337,21.892-37.435,36.541-64.89,36.541     c-3.501,0-7.019-0.24-10.453-0.713c-5.474-0.748-10.518,3.072-11.271,8.543c-0.754,5.471,3.071,10.517,8.542,11.271     c4.336,0.597,8.771,0.899,13.182,0.899c38.865,0,72.406-23.233,87.464-56.541c2.863-6.333,5.057-13.029,6.494-20     c1.291-6.263,1.97-12.748,1.97-19.387C266,334.666,234.679,296.725,192.637,286.55z" data-original="#000000" className="active-path" data-old_color="#000000" fill="#2453B6"/>
			<path d="M248.818,124.758c-5.522,0-10,4.477-10,10s4.478,10,10,10h149.228c5.522,0,10-4.477,10-10s-4.478-10-10-10H248.818z" data-original="#000000" className="active-path" data-old_color="#000000" fill="#2453B6"/>
			<path d="M368.046,198.397c0-5.523-4.478-10-10-10H248.818c-5.522,0-10,4.477-10,10c0,5.523,4.478,10,10,10h109.228     C363.568,208.397,368.046,203.92,368.046,198.397z" data-original="#000000" className="active-path" data-old_color="#000000" fill="#2453B6"/>
			<path d="M398.046,252.036h-96.388c-5.522,0-10,4.477-10,10s4.478,10,10,10h96.388c5.522,0,10-4.477,10-10     S403.568,252.036,398.046,252.036z" data-original="#000000" className="active-path" data-old_color="#000000" fill="#2453B6"/>
			<path d="M398.046,315.674h-69.658c-5.522,0-10,4.477-10,10s4.478,10,10,10h69.658c5.522,0,10-4.477,10-10     S403.568,315.674,398.046,315.674z" data-original="#000000" className="active-path" data-old_color="#000000" fill="#2453B6"/>
			<path d="M170.072,389.791h2.696h20.212h10.687c5.522,0,10-4.477,10-10s-4.478-10-10-10h-11.03h-16.804l-3.196-5.513     l-20.073-34.62c-2.771-4.777-8.887-6.405-13.668-3.635c-4.777,2.771-6.404,8.889-3.635,13.667l26.16,45.116     C163.21,387.892,166.505,389.791,170.072,389.791z" data-original="#000000" className="active-path" data-old_color="#000000" fill="#2453B6"/>
			<path d="M131.169,447.16c-0.25-0.61-0.561-1.19-0.92-1.73c-0.36-0.55-0.78-1.06-1.24-1.52c-0.46-0.46-0.97-0.88-1.52-1.24     c-0.54-0.36-1.12-0.67-1.73-0.92c-0.6-0.25-1.229-0.45-1.87-0.57c-1.29-0.26-2.62-0.26-3.91,0c-0.63,0.12-1.26,0.32-1.87,0.57     c-0.6,0.25-1.18,0.56-1.72,0.92c-0.55,0.36-1.06,0.78-1.52,1.24c-0.471,0.46-0.88,0.97-1.25,1.52c-0.36,0.54-0.67,1.12-0.92,1.73     c-0.25,0.6-0.44,1.23-0.57,1.87c-0.13,0.64-0.19,1.3-0.19,1.95s0.061,1.31,0.19,1.96c0.13,0.63,0.32,1.26,0.57,1.87     c0.25,0.6,0.56,1.18,0.92,1.72c0.37,0.55,0.779,1.06,1.25,1.52c0.46,0.46,0.97,0.88,1.52,1.24c0.54,0.36,1.12,0.67,1.72,0.92     c0.61,0.25,1.24,0.45,1.87,0.57c0.65,0.13,1.311,0.2,1.96,0.2c0.65,0,1.311-0.07,1.95-0.2c0.641-0.12,1.271-0.32,1.87-0.57     c0.61-0.25,1.19-0.56,1.73-0.92c0.55-0.36,1.06-0.78,1.52-1.24c0.46-0.46,0.88-0.97,1.24-1.52c0.359-0.54,0.67-1.12,0.92-1.72     c0.25-0.61,0.439-1.24,0.57-1.87c0.13-0.65,0.199-1.31,0.199-1.96c0-0.65-0.069-1.31-0.199-1.95     C131.609,448.39,131.419,447.76,131.169,447.16z" data-original="#000000" className="active-path" data-old_color="#000000" fill="#2453B6"/>
			<path d="M407.28,194.04c-0.25-0.61-0.561-1.19-0.921-1.73c-0.359-0.55-0.779-1.06-1.239-1.52c-0.46-0.46-0.971-0.88-1.521-1.24     c-0.54-0.36-1.13-0.67-1.729-0.92c-0.601-0.25-1.23-0.44-1.87-0.57c-1.29-0.26-2.62-0.26-3.91,0c-0.64,0.13-1.271,0.32-1.87,0.57     s-1.18,0.56-1.729,0.92c-0.54,0.36-1.051,0.78-1.511,1.24c-0.47,0.46-0.88,0.97-1.25,1.52c-0.359,0.54-0.67,1.12-0.92,1.73     c-0.25,0.6-0.439,1.23-0.569,1.87c-0.131,0.64-0.19,1.3-0.19,1.95c0,0.65,0.06,1.31,0.19,1.96c0.13,0.63,0.319,1.26,0.569,1.87     c0.25,0.6,0.561,1.18,0.92,1.72c0.37,0.55,0.78,1.06,1.25,1.52c0.46,0.46,0.971,0.88,1.511,1.25c0.55,0.36,1.13,0.67,1.729,0.92     s1.23,0.44,1.87,0.57c0.65,0.13,1.31,0.19,1.96,0.19c0.65,0,1.31-0.06,1.95-0.19s1.27-0.32,1.87-0.57     c0.6-0.25,1.189-0.56,1.729-0.92c0.55-0.37,1.061-0.79,1.521-1.25c0.46-0.46,0.88-0.97,1.239-1.52     c0.36-0.54,0.671-1.12,0.921-1.72c0.25-0.61,0.439-1.24,0.569-1.87c0.13-0.65,0.2-1.31,0.2-1.96s-0.07-1.31-0.2-1.95     C407.72,195.27,407.53,194.64,407.28,194.04z" data-original="#000000" className="active-path" data-old_color="#000000" fill="#2453B6"/>
		</g>
	</g>
</g></g> </svg>
