<?xml version="1.0"?>
<svg xmlns="http://www.w3.org/2000/svg" xmlns:xlink="http://www.w3.org/1999/xlink" xmlns:svgjs="http://svgjs.com/svgjs" version="1.1" width="512" height="512" x="0" y="0" viewBox="0 0 512 512" style="enable-background:new 0 0 512 512" xml:space="preserve" className=""><g>
<g xmlns="http://www.w3.org/2000/svg">
	<g>
		<path d="M497.567,230.259c-19.243-19.244-50.554-19.243-69.796,0l-85.162,85.162c-7.316-18.114-25.07-30.934-45.774-30.934    h-47.634c-18.744,0-37.338-4.764-53.773-13.776c-20.382-11.176-43.316-15.348-66.326-12.059    c-23.011,3.287-43.861,13.712-60.296,30.149L0,357.606l21.23,21.23l68.806-68.806c23.906-23.907,61.308-29.252,90.955-12.993    c20.847,11.432,44.433,17.474,68.21,17.474h47.634c10.658,0,19.329,8.671,19.329,19.33c0,10.658-8.671,19.329-19.329,19.329    h-80.13v30.024h80.13c13.135,0,25.077-5.167,33.93-13.564l0.047,0.047l118.19-118.188c7.536-7.537,19.799-7.536,27.335,0    c7.536,7.537,7.536,19.8-0.027,27.364L355.32,400.49c-16.401,16.488-39.145,25.944-62.401,25.944h-80.03    c-38.461,0-74.62,14.977-101.814,42.173l21.23,21.23c21.526-21.525,50.144-33.379,80.585-33.379h80.03    c31.188,0,61.692-12.682,83.687-34.795l120.961-121.606C516.811,280.813,516.811,249.502,497.567,230.259z" fill="#2453b6" data-original="#000000" style="" className=""/>
	</g>
</g>
<g xmlns="http://www.w3.org/2000/svg">
	<g>
		<polygon points="305.855,111.698 271.278,106.673 255.814,75.34 240.352,106.673 205.774,111.698 230.794,136.086     224.888,170.524 255.814,154.264 286.742,170.524 280.835,136.086   " fill="#2453b6" data-original="#000000" style="" className=""/>
	</g>
</g>
<g xmlns="http://www.w3.org/2000/svg">
	<g>
		<rect x="240.806" y="193.993" width="30.024" height="50.041" fill="#2453b6" data-original="#000000" style="" className=""/>
	</g>
</g>
<g xmlns="http://www.w3.org/2000/svg">
	<g>
		<rect x="328.99" y="129.894" transform="matrix(0.309 -0.9511 0.9511 0.309 90.3748 434.2171)" width="30.025" height="50.043" fill="#2453b6" data-original="#000000" style="" className=""/>
	</g>
</g>
<g xmlns="http://www.w3.org/2000/svg">
	<g>
		<rect x="285.299" y="36.216" transform="matrix(0.5878 -0.809 0.809 0.5878 86.469 272.1656)" width="50.041" height="30.023" fill="#2453b6" data-original="#000000" style="" className=""/>
	</g>
</g>
<g xmlns="http://www.w3.org/2000/svg">
	<g>
		<rect x="186.3" y="26.218" transform="matrix(0.809 -0.5878 0.5878 0.809 8.332 128.118)" width="30.023" height="50.041" fill="#2453b6" data-original="#000000" style="" className=""/>
	</g>
</g>
<g xmlns="http://www.w3.org/2000/svg">
	<g>
		<rect x="142.586" y="139.932" transform="matrix(0.9511 -0.309 0.309 0.9511 -39.6743 59.3709)" width="50.043" height="30.026" fill="#2453b6" data-original="#000000" style="" className=""/>
	</g>
</g>
<g xmlns="http://www.w3.org/2000/svg">
</g>
<g xmlns="http://www.w3.org/2000/svg">
</g>
<g xmlns="http://www.w3.org/2000/svg">
</g>
<g xmlns="http://www.w3.org/2000/svg">
</g>
<g xmlns="http://www.w3.org/2000/svg">
</g>
<g xmlns="http://www.w3.org/2000/svg">
</g>
<g xmlns="http://www.w3.org/2000/svg">
</g>
<g xmlns="http://www.w3.org/2000/svg">
</g>
<g xmlns="http://www.w3.org/2000/svg">
</g>
<g xmlns="http://www.w3.org/2000/svg">
</g>
<g xmlns="http://www.w3.org/2000/svg">
</g>
<g xmlns="http://www.w3.org/2000/svg">
</g>
<g xmlns="http://www.w3.org/2000/svg">
</g>
<g xmlns="http://www.w3.org/2000/svg">
</g>
<g xmlns="http://www.w3.org/2000/svg">
</g>
</g></svg>
