<?xml version="1.0"?>
<svg xmlns="http://www.w3.org/2000/svg" id="Layer_5" enable-background="new 0 0 64 64" height="512px" viewBox="0 0 64 64" width="512px"><g><path d="m22 20h2v2h-2z" data-original="#000000" className="active-path" data-old_color="#000000" fill="#2453b6"/><path d="m26 20h2v2h-2z" data-original="#000000" className="active-path" data-old_color="#000000" fill="#2453b6"/><path d="m30 20h2v2h-2z" data-original="#000000" className="active-path" data-old_color="#000000" fill="#2453b6"/><path d="m22 32h2v2h-2z" data-original="#000000" className="active-path" data-old_color="#000000" fill="#2453b6"/><path d="m26 32h2v2h-2z" data-original="#000000" className="active-path" data-old_color="#000000" fill="#2453b6"/><path d="m30 32h2v2h-2z" data-original="#000000" className="active-path" data-old_color="#000000" fill="#2453b6"/><path d="m49.45 35.703-.45-.227-.45.228c-2.693 1.358-5.586 2.123-8.599 2.271l-.951.046v6.378c0 6.323 3.778 11.932 9.626 14.289l.374.15.374-.151c5.848-2.357 9.626-7.966 9.626-14.289v-6.378l-.951-.047c-3.012-.147-5.904-.911-8.599-2.27zm7.55 8.695c0 5.367-3.127 10.142-8 12.277-4.873-2.135-8-6.91-8-12.277v-4.493c2.786-.249 5.471-.986 8-2.196 2.529 1.21 5.215 1.947 8 2.196z" data-original="#000000" className="active-path" data-old_color="#000000" fill="#2453b6"/><path d="m59.101 34c-2.319 0-4.605-.467-6.729-1.357.408-1.847.628-3.739.628-5.643 0-14.336-11.663-26-26-26s-26 11.664-26 26 11.663 26 26 26c3.196 0 6.306-.577 9.263-1.707 2.069 5.489 6.555 9.852 12.443 11.663l.294.09.294-.091c8.198-2.521 13.706-9.979 13.706-18.557v-10.398zm-8.96-2.482-1.141-.684-1.141.684c-2.316 1.39-4.921 2.214-7.602 2.424.415-1.92.652-3.908.711-5.942h10c-.052 1.257-.197 2.505-.443 3.732-.127-.072-.258-.138-.384-.214zm-23.063 19.104c-.028.024-.051.043-.079.067-.034-.029-.062-.053-.097-.082-2.352-1.98-6.244-5.276-8.935-10.606h17.033v1.864c-2.584 4.244-5.787 6.957-7.922 8.757zm7.922-16.622v4h-17.947c-1.137-2.807-1.899-6.121-2.016-10h23.932c-.064 2.062-.323 4.071-.774 6zm-31.975-6h10.011c.108 3.841.808 7.153 1.864 10h-9.22c-1.564-3.019-2.506-6.408-2.655-10zm23.975-24.699c1.521 1.318 5.577 5.134 8.556 10.699h-17.112c2.979-5.565 7.035-9.381 8.556-10.699zm9.539 12.699c1.329 2.956 2.284 6.32 2.434 10h-23.946c.15-3.68 1.105-7.044 2.434-10zm14.436 10h-10.001c-.135-3.672-.995-7.026-2.224-10h9.57c1.564 3.019 2.506 6.408 2.655 10zm-37.949 0h-10.001c.148-3.592 1.091-6.981 2.655-10h9.57c-1.229 2.974-2.089 6.328-2.224 10zm34.132-12h-9.312c-2.46-4.987-5.812-8.715-8.005-10.826 7.255.86 13.526 4.967 17.317 10.826zm-22.999-10.826c-2.193 2.111-5.545 5.839-8.005 10.826h-9.312c3.791-5.859 10.062-9.966 17.317-10.826zm-17.317 36.826h8.885c2.349 5.101 5.752 8.533 8.346 10.815-7.219-.882-13.455-4.979-17.231-10.815zm23.074 10.818c1.534-1.354 3.377-3.15 5.122-5.465.067 1.383.271 2.732.612 4.031-1.851.718-3.769 1.196-5.734 1.434zm31.084-6.42c0 7.591-4.809 14.204-12 16.553-7.191-2.349-12-8.961-12-16.553v-8.398h1.899c.031 0 .062-.003.094-.003h.771l.007-.027c3.214-.145 6.35-1.077 9.117-2.737l.112-.067.111.067c3.018 1.81 6.472 2.767 9.99 2.767h1.899z" data-original="#000000" className="active-path" data-old_color="#000000" fill="#2453b6"/><path d="m45.707 46.793-1.414 1.414 3.707 3.707 8.207-8.207-1.414-1.414-6.793 6.793z" data-original="#000000" className="active-path" data-old_color="#000000" fill="#2453b6"/><path d="m56.865 24.226c-1.093.449-1.865 1.522-1.865 2.774 0 1.654 1.346 3 3 3s3-1.346 3-3c0-1.352-.904-2.484-2.135-2.858-.705-7.959-4.318-15.299-10.242-20.731l-1.352 1.474c5.531 5.072 8.913 11.916 9.594 19.341zm1.135 3.774c-.552 0-1-.449-1-1s.448-1 1-1 1 .449 1 1-.448 1-1 1z" data-original="#000000" className="active-path" data-old_color="#000000" fill="#2453b6"/><path d="m47.035 2.046c-.573-.46-1.168-.906-1.77-1.324l-1.143 1.642c.564.392 1.122.81 1.658 1.241z" data-original="#000000" className="active-path" data-old_color="#000000" fill="#2453b6"/><path d="m2.472 44.277-1.635 1.152c.417.591.865 1.183 1.333 1.759l1.553-1.262c-.44-.539-.861-1.094-1.251-1.649z" data-original="#000000" className="active-path" data-old_color="#000000" fill="#2453b6"/><path d="m31 55c-1.289 0-2.381.821-2.804 1.964-.398.015-.795.036-1.196.036-8.317 0-16.334-3.498-21.994-9.598l-1.467 1.36c6.038 6.507 14.589 10.238 23.461 10.238.394 0 .783-.022 1.173-.036.404 1.18 1.512 2.036 2.827 2.036 1.654 0 3-1.346 3-3s-1.346-3-3-3zm0 4c-.552 0-1-.449-1-1s.448-1 1-1 1 .449 1 1-.448 1-1 1z" data-original="#000000" className="active-path" data-old_color="#000000" fill="#2453b6"/></g> </svg>
