<?xml version="1.0"?>
<svg xmlns="http://www.w3.org/2000/svg" id="Layer_1" data-name="Layer 1" viewBox="0 0 512 512" width="512" height="512"><title>a2</title><path d="M467.113,223.784A32.012,32.012,0,0,0,435.538,250H389.4a133.951,133.951,0,0,0-35.317-84.412L386.8,132.92a31.8,31.8,0,1,0-8.356-8.559l-32.889,32.89A133.012,133.012,0,0,0,261,122.785V76.6a32.12,32.12,0,1,0-12-.386v46.65a133.034,133.034,0,0,0-83.454,35.213l-32.7-32.7a32.075,32.075,0,1,0-8.677,8.3l32.922,32.81A133.829,133.829,0,0,0,122.565,251H76.636a32.116,32.116,0,0,0-63.856,4.945,32.073,32.073,0,0,0,32.107,32.024A32.481,32.481,0,0,0,76.164,263h46.481a133.4,133.4,0,0,0,35.064,83.4L125.2,378.97a32.3,32.3,0,1,0,8.356,8.669l32.658-32.658A133.029,133.029,0,0,0,250,389.617v45.961a32.106,32.106,0,1,0,12,0V389.617a133.028,133.028,0,0,0,84.36-35.168L378.9,386.986a32.03,32.03,0,1,0,8.554-8.417l-32.627-32.737A133.65,133.65,0,0,0,389.4,262h46.221a32.1,32.1,0,1,0,31.5-38.216ZM391.063,92.5A20.107,20.107,0,0,1,419.5,120.938h0A20.106,20.106,0,0,1,391.063,92.5ZM120.937,120.938a20.106,20.106,0,1,1,0-28.436h0a20.108,20.108,0,0,1,0,28.435ZM44.887,276.106A20.106,20.106,0,1,1,64.993,256,20.129,20.129,0,0,1,44.887,276.106ZM120.937,419.5A20.107,20.107,0,0,1,92.5,391.062h0a20.063,20.063,0,0,1,27.793-.58,5.769,5.769,0,0,0,1.8,1.862,20.089,20.089,0,0,1-1.163,27.154Zm270.126-28.436a20.106,20.106,0,1,1,0,28.436h0a20.107,20.107,0,0,1,0-28.435ZM235.894,44.886A20.106,20.106,0,1,1,256,64.993,20.129,20.129,0,0,1,235.894,44.886Zm40.212,422.228A20.106,20.106,0,1,1,254.7,447.073a5.866,5.866,0,0,0,2.61,0A20.116,20.116,0,0,1,276.106,467.114ZM256,377.758A121.538,121.538,0,1,1,377.538,256.22,121.675,121.675,0,0,1,256,377.758ZM467.113,276.106A20.106,20.106,0,1,1,487.22,256,20.128,20.128,0,0,1,467.113,276.106Z"/><path d="M256,201.537a24.027,24.027,0,0,1,24,24,6,6,0,1,0,12,0,36.051,36.051,0,0,0-30-35.49V179.054a6,6,0,1,0-12,0v10.993a36,36,0,0,0,6,71.49,24,24,0,0,1,.283,47.993c-.1,0-.187-.014-.283-.014s-.188.01-.283.014A24.024,24.024,0,0,1,232,285.537a6,6,0,0,0-12,0,36.052,36.052,0,0,0,30,35.491v12.358a6,6,0,0,0,12,0V321.028a36,36,0,0,0-6-71.491,24,24,0,0,1,0-48Z"/></svg>
