<?xml version="1.0"?>
<svg xmlns="http://www.w3.org/2000/svg" id="_x33_0" enable-background="new 0 0 64 64" height="512px" viewBox="0 0 64 64" width="512px"><g><g><path d="m24.008 23.876 1.984.248.891-7.124h6.234l.891 7.124 1.984-.248-.939-7.515 1.947-1.947v-10.414c0-1.598-1.402-3-3-3h-6c-1.598 0-3 1.402-3 3v1c-1.103 0-2 .897-2 2v7.414l1.947 1.947zm.992-16.876h2v4h2v-4c0-1.103-.897-2-2-2v-1c0-.505.495-1 1-1h6c.505 0 1 .495 1 1v9.586l-1.414 1.414h-7.172l-1.414-1.414z" data-original="#000000" className="active-path" data-old_color="#000000" fill="#2353B8"/><path d="m16.008 42.124 1.984-.248-.939-7.515 1.947-1.947v-10.414c0-1.598-1.402-3-3-3h-6c-1.598 0-3 1.402-3 3v1c-1.103 0-2 .897-2 2v7.414l1.953 1.953-1.947 17.523 1.988.221 1.902-17.111h6.222zm-7.594-9.124-1.414-1.414v-6.586h2v4h2v-4c0-1.103-.897-2-2-2v-1c0-.505.495-1 1-1h6c.505 0 1 .495 1 1v9.586l-1.414 1.414z" data-original="#000000" className="active-path" data-old_color="#000000" fill="#2353B8"/><path d="m41.005 35.9 1.99.199.91-9.1h6.222l2.882 21.135 1.982-.271-2.933-21.509 1.942-1.94v-10.414c0-1.598-1.402-3-3-3h-6c-1.598 0-3 1.402-3 3v1c-1.103 0-2 .897-2 2v7.414l1.958 1.958zm.995-18.9h2v4h2v-4c0-1.103-.897-2-2-2v-1c0-.505.495-1 1-1h6c.505 0 1 .495 1 1v9.586l-1.414 1.414h-7.172l-1.414-1.414z" data-original="#000000" className="active-path" data-old_color="#000000" fill="#2353B8"/><path d="m53 50h-7.366c.119-1.601-.1-3.364-.676-5.287-2.332-7.775-7.634-9.906-10.325-10.49l2.582-4.304-.434-.543c-4.403-5.504-12.777-2.444-13.133-2.312l-1.249.469 1.368 1.825-3.619 1.206 5.296 5.295c-2.622 1.949-9.071 7.761-6.486 16.142h-4.958c-1.794 0-3 1.206-3 3v1c0 1.794 1.206 3 3 3h4c.458 0 1 .542 1 1 0 1.57 1.43 3 3 3h22c1.935 0 3-1.065 3-3v-2c0-.505.495-1 1-1h5c1.683 0 3-1.318 3-3v-1c0-1.683-1.317-3.001-3-3.001zm-29.148-18.563 1.181-.394 1.167 1.557 1.6-1.2-2.135-2.847c2.149-.522 6.44-1.107 9.1 1.562l-2.385 3.974-5.037.84zm3.506 5.517 5.71-.951c.668.027 7.345.522 9.973 9.285.923 3.075.835 5.621-.261 7.567-1.391 2.469-4.002 3.169-4.023 3.175-.151.038-15.137 3.671-17.81-4.346-2.829-8.493 5.161-13.94 6.411-14.73zm26.642 17.046c0 .58-.421 1-1 1h-5c-1.626 0-3 1.374-3 3v2c0 .832-.168 1-1 1h-22c-.448 0-1-.551-1-1 0-1.57-1.43-3-3-3h-4c-.691 0-1-.309-1-1v-1c0-.691.309-1 1-1h5.821c2.313 3.923 7.241 4.9 11.561 4.899 4.043 0 7.548-.851 7.86-.929.14-.035 3.437-.891 5.264-4.104.333-.585.59-1.209.781-1.867h7.713c.579 0 1 .42 1 1z" data-original="#000000" className="active-path" data-old_color="#000000" fill="#2353B8"/><path d="m31 54h2v-2h3.9v-6h-8.8v-2h8.9v-2h-4v-2h-2v2h-4.9v6h8.8v2h-8.9v2h5z" data-original="#000000" className="active-path" data-old_color="#000000" fill="#2353B8"/></g></g> </svg>
