<?xml version="1.0"?>
<svg xmlns="http://www.w3.org/2000/svg" xmlns:xlink="http://www.w3.org/1999/xlink" version="1.1" id="Capa_1" x="0px" y="0px" viewBox="0 0 477.656 477.656" style="enable-background:new 0 0 477.656 477.656;" xml:space="preserve" width="512px" height="512px"><g><g>
	<g>
		<path d="M314.827,269.656c-35.346,0-64,28.654-64,64c0.04,35.33,28.67,63.96,64,64c35.346,0,64-28.654,64-64    C378.827,298.31,350.173,269.656,314.827,269.656z M314.827,381.656c-26.51,0-48-21.49-48-48c0.026-26.499,21.501-47.974,48-48    c26.51,0,48,21.49,48,48C362.827,360.166,341.337,381.656,314.827,381.656z" data-original="#000000" className="active-path" data-old_color="#000000" fill="#FFFFFF"/>
	</g>
</g><g>
	<g>
		<path d="M106.827,253.656c-17.673,0-32,14.327-32,32c0,17.673,14.327,32,32,32s32-14.327,32-32    C138.827,267.983,124.5,253.656,106.827,253.656z M106.827,301.656c-8.837,0-16-7.163-16-16s7.163-16,16-16s16,7.163,16,16    S115.664,301.656,106.827,301.656z" data-original="#000000" className="active-path" data-old_color="#000000" fill="#FFFFFF"/>
	</g>
</g><g>
	<g>
		<path d="M450.827,301.656h-37.144c-1.693-5.255-3.806-10.365-6.32-15.28l26.264-26.256c3.123-3.124,3.123-8.188,0-11.312    l-33.952-33.944c-3.124-3.123-8.188-3.123-11.312,0l-26.256,26.256c-4.916-2.512-10.026-4.625-15.28-6.32v-37.144    c0-4.418-3.582-8-8-8h-1.872c2.981-18.973,2.398-38.336-1.72-57.096l121.24-121.24L445.163,0.008l-124.368,124.36    c-1.974,1.969-2.781,4.825-2.128,7.536c2.713,11.047,4.109,22.377,4.16,33.752c-0.075,8.049-0.825,16.077-2.24,24h-29.76    c-4.418,0-8,3.582-8,8V234.8c-5.254,1.695-10.364,3.808-15.28,6.32l-26.256-26.256c-1.095-1.04-2.467-1.74-3.952-2.016    l-99.768-99.76c-3.124-3.123-8.188-3.123-11.312,0l-87.2,87.2C20.016,122.986,67.245,44.883,144.546,25.84    c11.218-2.763,22.727-4.168,34.281-4.184c19.464-0.031,38.73,3.914,56.616,11.592c3.006,1.283,6.49,0.608,8.8-1.704l20.232-20.232    L253.171,0l-16.48,16.48c-82.456-31.908-175.166,9.07-207.074,91.525c-13.412,34.659-14.348,72.905-2.646,108.179    c0.487,1.464,1.387,2.756,2.592,3.72l1.352,1.088c3.184,2.547,7.774,2.292,10.656-0.592l90.344-90.344l91.432,91.432l-27.32,27.32    c-3.123,3.124-3.123,8.188,0,11.312l26.264,26.256c-2.514,4.915-4.627,10.025-6.32,15.28h-29.144v-32c0-4.418-3.582-8-8-8h-14.056    l9.936-9.944c3.123-3.124,3.123-8.188,0-11.312l-22.624-22.624c-3.124-3.123-8.188-3.123-11.312,0l-9.944,9.936v-14.056    c0-4.418-3.582-8-8-8h-32c-4.418,0-8,3.582-8,8v14.056l-9.944-9.936c-3.124-3.123-8.188-3.123-11.312,0L38.947,240.4    c-3.123,3.124-3.123,8.188,0,11.312l9.936,9.944H34.827c-4.418,0-8,3.582-8,8v32c0,4.418,3.582,8,8,8h14.056l-9.936,9.944    c-3.123,3.124-3.123,8.188,0,11.312l22.624,22.624c3.124,3.123,8.188,3.123,11.312,0l9.944-9.936v14.056c0,4.418,3.582,8,8,8h32    c4.418,0,8-3.582,8-8v-14.064l9.944,9.944c3.174,3.001,8.138,3.001,11.312,0l18.744-18.744v22.864c0,4.418,3.582,8,8,8h37.144    c1.693,5.255,3.806,10.365,6.32,15.28l-26.264,26.256c-3.123,3.124-3.123,8.188,0,11.312l33.952,33.944    c3.124,3.123,8.188,3.123,11.312,0l26.256-26.256c4.916,2.512,10.026,4.626,15.28,6.32v37.144c0,4.418,3.582,8,8,8h48    c4.418,0,8-3.582,8-8v-37.144c5.255-1.693,10.365-3.806,15.28-6.32l26.256,26.256c3.124,3.123,8.188,3.123,11.312,0l33.952-33.944    c3.123-3.124,3.123-8.188,0-11.312l-26.264-26.256c2.514-4.915,4.627-10.025,6.32-15.28h37.144c4.418,0,8-3.582,8-8v-48    C458.827,305.238,455.245,301.656,450.827,301.656z M170.827,315.712l-6.056-6.056h6.056V315.712z M170.827,293.656h-18.792    c-3.375,0-6.387,2.119-7.528,5.296c-0.468,1.33-1.002,2.635-1.6,3.912c-1.451,3.067-0.81,6.716,1.6,9.104l13.288,13.288    l-11.368,11.312l-13.288-13.312c-2.385-2.403-6.025-3.044-9.088-1.6c-1.267,0.6-2.565,1.134-3.888,1.6    c-3.198,1.129-5.336,4.153-5.336,7.544v18.856h-16v-18.792c-0.001-3.384-2.131-6.402-5.32-7.536    c-1.316-0.464-2.605-0.998-3.864-1.6c-3.071-1.459-6.729-0.817-9.12,1.6l-13.296,13.24l-11.312-11.312l13.312-13.288    c2.41-2.388,3.051-6.037,1.6-9.104c-0.598-1.276-1.132-2.582-1.6-3.912c-1.151-3.204-4.203-5.33-7.608-5.296H42.827v-16h18.792    c3.375,0,6.387-2.119,7.528-5.296c0.468-1.33,1.002-2.635,1.6-3.912c1.451-3.067,0.81-6.716-1.6-9.104l-13.232-13.288    l11.312-11.312l13.296,13.312c2.388,2.41,6.037,3.051,9.104,1.6c1.257-0.605,2.547-1.139,3.864-1.6    c3.22-1.137,5.364-4.193,5.336-7.608v-18.792h16v18.792c0.001,3.384,2.131,6.402,5.32,7.536c1.322,0.461,2.617,0.995,3.88,1.6    c3.067,1.451,6.716,0.81,9.104-1.6l13.296-13.288l11.312,11.312l-13.312,13.336c-2.41,2.388-3.051,6.037-1.6,9.104    c0.598,1.276,1.132,2.582,1.6,3.912c1.141,3.177,4.153,5.295,7.528,5.296h18.872V293.656z M442.827,349.656h-35.152    c-3.647,0.001-6.832,2.469-7.744,6c-2.044,7.943-5.195,15.559-9.36,22.624c-1.853,3.142-1.347,7.14,1.232,9.72l24.856,24.856    l-22.632,22.624l-24.848-24.848c-2.581-2.583-6.584-3.09-9.728-1.232c-7.063,4.166-14.676,7.319-22.616,9.368    c-3.531,0.912-5.999,4.097-6,7.744v35.144h-32.008v-35.144c-0.001-3.647-2.469-6.832-6-7.744    c-7.941-2.045-15.555-5.199-22.616-9.368c-3.144-1.858-7.147-1.351-9.728,1.232l-24.856,24.848l-22.632-22.624l24.856-24.848    c2.579-2.58,3.086-6.578,1.232-9.72c-4.165-7.065-7.316-14.681-9.36-22.624c-0.912-3.531-4.097-5.999-7.744-6h-35.152v-32.008    h35.152c3.647-0.001,6.832-2.469,7.744-6c2.044-7.943,5.195-15.559,9.36-22.624c1.853-3.142,1.347-7.14-1.232-9.72l-24.856-24.856    l22.64-22.632l24.848,24.856c2.581,2.583,6.584,3.09,9.728,1.232c7.062-4.166,14.675-7.317,22.616-9.36    c3.531-0.912,5.999-4.097,6-7.744v-35.152h32v35.152c0.001,3.647,2.469,6.832,6,7.744c7.942,2.039,15.556,5.191,22.616,9.36    c3.144,1.858,7.147,1.351,9.728-1.232l24.856-24.848l22.64,22.632l-24.856,24.848c-2.579,2.58-3.085,6.578-1.232,9.72    c4.165,7.065,7.316,14.681,9.36,22.624c0.912,3.531,4.097,5.999,7.744,6h35.144V349.656z" data-original="#000000" className="active-path" data-old_color="#000000" fill="#FFFFFF"/>
	</g>
</g></g> </svg>
