<?xml version="1.0"?>
<svg xmlns="http://www.w3.org/2000/svg" xmlns:xlink="http://www.w3.org/1999/xlink" xmlns:svgjs="http://svgjs.com/svgjs" version="1.1" width="512" height="512" x="0" y="0" viewBox="0 0 64 64" style="enable-background:new 0 0 512 512" xml:space="preserve" className=""><g><g xmlns="http://www.w3.org/2000/svg"><path d="m53 15h-2c-.551 0-1-.449-1-1h-2c0 1.654 1.346 3 3 3v2h2v-2c1.654 0 3-1.346 3-3s-1.346-3-3-3h-2c-.551 0-1-.449-1-1s.449-1 1-1h2c.551 0 1 .449 1 1h2c0-1.654-1.346-3-3-3v-2h-2v2c-1.654 0-3 1.346-3 3s1.346 3 3 3h2c.551 0 1 .449 1 1s-.449 1-1 1z" fill="#2453b6" data-original="#000000" style=""/><path d="m49 31v1.947l-1.203 11.432c-2.367-3.727-6.212-6.38-10.651-7.187l-.332-.06-.393-1.572c2.367-.876 4.13-2.993 4.5-5.56h.079c2.206 0 4-1.794 4-4 0-1.365-.689-2.57-1.736-3.292l.691-1.382c.212-.425.382-.869.531-1.32 2.023 1.891 4.708 2.994 7.514 2.994 6.065 0 11-4.935 11-11s-4.935-11-11-11c-5.07 0-9.409 3.485-10.644 8.235-1.707-1.395-3.884-2.235-6.255-2.235h-2.101c-3.313 0-6.484 1.522-8.561 4.092l-.068.014c-3.112.623-5.371 3.378-5.371 6.553 0 1.032.244 2.065.706 2.988l1.03 2.061c-.486.335-.881.781-1.18 1.292h-2.556v-9.586l3.707-3.707-1.414-1.414-7.293 7.293-4-4-6.707 6.707 1.414 1.414.293-.293v3.586h-2v2h18c0 2.206 1.794 4 4 4h.08c.37 2.567 2.133 4.683 4.5 5.56l-.393 1.572-.332.06c-4.44.807-8.284 3.46-10.652 7.187l-1.203-11.432v-1.947c0-1.654-1.346-3-3-3h-9v1c0 2.453 1.779 4.488 4.111 4.91l.655 17.044c.152 3.951 3.369 7.046 7.323 7.046 2.379 0 4.546-1.133 5.911-3.011v8.011h22v-8.011c1.364 1.878 3.531 3.011 5.911 3.011 3.955 0 7.171-3.095 7.322-7.046l.656-17.044c2.333-.422 4.111-2.457 4.111-4.91v-1h-9c-1.654 0-3 1.346-3 3zm-42-7h-2v-5.586l2-2zm4 0h-2v-7.586l2 2zm4 0h-2v-5.586l2-2zm21.788 15.16.012.003-.602 6.621-2.857-2.857 3.068-3.835zm-4.788 2.239-2.91-3.637.447-1.786c.154.011.307.024.463.024h4c.156 0 .309-.013.463-.023l.447 1.786zm9-13.399v-4c1.103 0 2 .897 2 2s-.897 2-2 2zm11-25c4.962 0 9 4.038 9 9s-4.038 9-9 9c-2.739 0-5.339-1.277-7.04-3.415.016-.229.04-.457.04-.686 0-2.194-.726-4.217-1.939-5.86.483-4.533 4.339-8.039 8.939-8.039zm-29 25c-1.103 0-2-.897-2-2s.897-2 2-2zm0-7.171v1.171c-.124 0-.242.026-.363.037l-1.142-2.284c-.324-.648-.495-1.372-.495-2.094 0-2.224 1.583-4.155 3.764-4.592l.807-.161.229-.306c1.691-2.254 4.382-3.6 7.2-3.6h2.101c4.356 0 7.899 3.543 7.899 7.899 0 1.22-.289 2.441-.834 3.532l-.803 1.605c-.121-.01-.239-.036-.363-.036 0-1.654-1.346-3-3-3h-.343c-3.381 0-6.559-1.316-8.95-3.707l-.707-.707-4.121 4.121c-.567.566-.879 1.32-.879 2.122zm2 8.171v-8.171c0-.267.104-.519.293-.708l2.73-2.73c2.67 2.334 6.054 3.609 9.634 3.609h.343c.551 0 1 .449 1 1v7c0 2.757-2.243 5-5 5h-4c-2.757 0-5-2.243-5-5zm2.213 10.16.379-.069 3.068 3.835-2.857 2.857-.602-6.621c.004 0 .008-.002.012-.002zm-22.042-9.16h6.829c.551 0 1 .449 1 1v1h-5c-1.304 0-2.416-.836-2.829-2zm17.829 31v-13h-2v2.764l-1.146 2.291c-.908 1.817-2.733 2.945-4.765 2.945-2.875 0-5.214-2.25-5.324-5.123l-.649-16.877h3.984l1.906 18.104 1.989-.209-.403-3.833c1.477-3.974 4.684-7.047 8.648-8.388l.958 10.542 3.168-3.168-1.418 9.215 3.552 4.737zm7.052-5.264 1.705-11.079.243-.243.243.243 1.705 11.079-1.948 2.597zm24.183-4.859c-.11 2.873-2.449 5.123-5.324 5.123-2.031 0-3.857-1.128-4.765-2.945l-1.146-2.291v-2.764h-2v13h-8.5l3.552-4.736-1.418-9.215 3.168 3.168.958-10.542c3.964 1.342 7.17 4.414 8.648 8.388l-.403 3.832 1.989.209 1.906-18.104h3.984zm1.765-18.877h-5v-1c0-.551.449-1 1-1h6.829c-.413 1.164-1.525 2-2.829 2z" fill="#2453b6" data-original="#000000" style=""/><circle cx="28" cy="23" r="1" fill="#2453b6" data-original="#000000" style=""/><circle cx="36" cy="23" r="1" fill="#2453b6" data-original="#000000" style=""/><path d="m36.698 28.332.583-2.332h-10.562l.583 2.332c.54 2.16 2.472 3.668 4.698 3.668s4.158-1.508 4.698-3.668zm-7.412-.332h5.429c-.367 1.186-1.461 2-2.714 2s-2.349-.814-2.715-2z" fill="#2453b6" data-original="#000000" style=""/></g></g></svg>
