<?xml version="1.0"?>
<svg xmlns="http://www.w3.org/2000/svg" xmlns:xlink="http://www.w3.org/1999/xlink" version="1.1" id="Capa_1" x="0px" y="0px" viewBox="0 0 480.002 480.002" style="enable-background:new 0 0 480.002 480.002;" xml:space="preserve" width="512px" height="512px"><g><g>
	<g>
		<rect x="96.001" y="280.002" width="16" height="16" data-original="#000000" className="active-path" data-old_color="#000000" fill="#FFFFFF"/>
	</g>
</g><g>
	<g>
		<rect x="96.001" y="312.002" width="16" height="16" data-original="#000000" className="active-path" data-old_color="#000000" fill="#FFFFFF"/>
	</g>
</g><g>
	<g>
		<rect x="112.001" y="296.002" width="16" height="16" data-original="#000000" className="active-path" data-old_color="#000000" fill="#FFFFFF"/>
	</g>
</g><g>
	<g>
		<rect x="80.001" y="296.002" width="16" height="16" data-original="#000000" className="active-path" data-old_color="#000000" fill="#FFFFFF"/>
	</g>
</g><g>
	<g>
		<rect x="200.001" y="0.002" width="16" height="16" data-original="#000000" className="active-path" data-old_color="#000000" fill="#FFFFFF"/>
	</g>
</g><g>
	<g>
		<rect x="200.001" y="32.002" width="16" height="16" data-original="#000000" className="active-path" data-old_color="#000000" fill="#FFFFFF"/>
	</g>
</g><g>
	<g>
		<rect x="216.001" y="16.002" width="16" height="16" data-original="#000000" className="active-path" data-old_color="#000000" fill="#FFFFFF"/>
	</g>
</g><g>
	<g>
		<rect x="184.001" y="16.002" width="16" height="16" data-original="#000000" className="active-path" data-old_color="#000000" fill="#FFFFFF"/>
	</g>
</g><g>
	<g>
		<path d="M88.005,424.002c-0.001,0-0.003,0-0.004,0h-64c-4.417-0.001-7.999,3.579-8,7.996c0,0.001,0,0.003,0,0.004v40    c-0.001,4.417,3.579,7.999,7.996,8c0.001,0,0.003,0,0.004,0h64c4.417,0.001,7.999-3.579,8-7.996c0-0.001,0-0.003,0-0.004v-40    C96.002,427.585,92.422,424.003,88.005,424.002z M80.001,464.002h-48v-24h48V464.002z" data-original="#000000" className="active-path" data-old_color="#000000" fill="#FFFFFF"/>
	</g>
</g><g>
	<g>
		<path d="M312.005,376.002c-0.001,0-0.003,0-0.004,0h-64c-4.417-0.001-7.999,3.579-8,7.996c0,0.001,0,0.003,0,0.004v88    c-0.001,4.417,3.579,7.999,7.996,8c0.001,0,0.003,0,0.004,0h64c4.417,0.001,7.999-3.579,8-7.996c0-0.001,0-0.003,0-0.004v-88    C320.002,379.585,316.422,376.003,312.005,376.002z M304.001,464.002h-48v-72h48V464.002z" data-original="#000000" className="active-path" data-old_color="#000000" fill="#FFFFFF"/>
	</g>
</g><g>
	<g>
		<path d="M424.005,344.002c-0.001,0-0.003,0-0.004,0h-64c-4.417-0.001-7.999,3.579-8,7.996c0,0.001,0,0.003,0,0.004v120    c-0.001,4.417,3.579,7.999,7.996,8c0.001,0,0.003,0,0.004,0h64c4.417,0.001,7.999-3.579,8-7.996c0-0.001,0-0.003,0-0.004v-120    C432.002,347.585,428.422,344.003,424.005,344.002z M416.001,464.002h-48v-104h48V464.002z" data-original="#000000" className="active-path" data-old_color="#000000" fill="#FFFFFF"/>
	</g>
</g><g>
	<g>
		<path d="M200.005,400.002c-0.001,0-0.003,0-0.004,0h-64c-4.417-0.001-7.999,3.579-8,7.996c0,0.001,0,0.003,0,0.004v64    c-0.001,4.417,3.579,7.999,7.996,8c0.001,0,0.003,0,0.004,0h64c4.417,0.001,7.999-3.579,8-7.996c0-0.001,0-0.003,0-0.004v-64    C208.002,403.585,204.422,400.003,200.005,400.002z M192.001,464.002h-48v-48h48V464.002z" data-original="#000000" className="active-path" data-old_color="#000000" fill="#FFFFFF"/>
	</g>
</g><g>
	<g>
		<path d="M476.368,14.096L456.731,1.299c-3.704-2.41-8.66-1.362-11.071,2.342c-0.022,0.034-0.044,0.069-0.066,0.103l-24.504,38.93    c-7.359-16.066-26.348-23.124-42.414-15.765c-6.975,3.195-12.57,8.79-15.765,15.765l-24.504-38.93    c-2.353-3.74-7.293-4.865-11.033-2.511c-0.035,0.022-0.069,0.044-0.103,0.066l-19.637,12.797    c-3.677,2.396-4.737,7.308-2.375,11.008l46.742,73.234v141.664c-0.001,4.417,3.579,7.999,7.996,8c0.001,0,0.003,0,0.004,0h64    c4.417,0.001,7.999-3.579,8-7.996c0-0.001,0-0.003,0-0.004V98.338l46.742-73.234C481.105,21.404,480.045,16.492,476.368,14.096z     M417.259,91.697c-0.82,1.286-1.256,2.779-1.258,4.305v136h-16v-80h-16v80h-16v-136c-0.001-1.525-0.438-3.019-1.258-4.305    l-43.734-68.523l6.187-4.031l38.094,60.523c2.246,3.576,6.886,4.787,10.594,2.766l1.652-0.938c4.07-1.72,5.975-6.414,4.256-10.484    c-0.479-1.134-1.214-2.142-2.146-2.946c-3.572-2.989-5.638-7.405-5.645-12.062c0-8.837,7.163-16,16-16s16,7.163,16,16    c-0.006,4.657-2.073,9.074-5.645,12.063c-2.013,1.931-2.898,4.758-2.344,7.492c0.56,2.824,2.478,5.189,5.125,6.32l0.98,0.555    c3.707,2.025,8.35,0.813,10.594-2.766l38.094-60.523l6.187,4.031L417.259,91.697z" data-original="#000000" className="active-path" data-old_color="#000000" fill="#FFFFFF"/>
	</g>
</g><g>
	<g>
		<path d="M395.571,264.845c-1.109-0.554-2.331-0.842-3.571-0.843h-56c-4.418,0-8,3.581-8,7.999c0,1.58,0.468,3.124,1.344,4.439    l10.959,16.438c-76.06,36.594-235.13,79.125-324.303,79.125v16c91.896,0,256.291-44.118,333.264-81.683l12.08,18.121    c1.483,2.226,3.981,3.563,6.656,3.563c0.164,0,0.332-0.008,0.496-0.016c2.846-0.18,5.382-1.857,6.66-4.406l24-48    C401.131,271.625,399.526,266.819,395.571,264.845z M367.009,304.096l-16.059-24.094h28.106L367.009,304.096z" data-original="#000000" className="active-path" data-old_color="#000000" fill="#FFFFFF"/>
	</g>
</g><g>
	<g>
		<path d="M94.358,33.701c-1.513-1.982-3.864-3.144-6.358-3.145H63.345L55.646,5.643c-1.303-4.222-5.783-6.588-10.005-5.285    c-2.527,0.78-4.505,2.758-5.285,5.285l-7.7,24.914H8.001c-4.419,0-8,3.583-8,8.002c0,2.493,1.163,4.844,3.145,6.358l20.285,15.5    l-7.797,25.227c-1.304,4.221,1.061,8.701,5.282,10.005c2.472,0.764,5.162,0.285,7.218-1.286L48.001,79.19l19.867,15.172    c3.511,2.682,8.532,2.01,11.214-1.501c1.571-2.056,2.05-4.746,1.286-7.218l-7.797-25.227l20.285-15.5    C96.368,42.234,97.04,37.213,94.358,33.701z M58.423,51.088c-2.663,2.036-3.777,5.515-2.789,8.719l2.055,6.648l-4.832-3.695    c-2.867-2.188-6.844-2.188-9.711,0l-4.832,3.695l2.055-6.648c0.987-3.204-0.126-6.683-2.789-8.719l-5.934-4.531h6.914    c3.509-0.001,6.608-2.288,7.645-5.641l1.797-5.812l1.797,5.812c1.036,3.353,4.135,5.639,7.645,5.641h6.914L58.423,51.088z" data-original="#000000" className="active-path" data-old_color="#000000" fill="#FFFFFF"/>
	</g>
</g><g>
	<g>
		<path d="M263.579,163.994c-1.099-3.25-4.148-5.437-7.578-5.437h-24.656l-7.699-24.914c-1.303-4.222-5.783-6.588-10.005-5.285    c-2.527,0.78-4.505,2.758-5.285,5.285l-7.699,24.914h-24.656c-4.419,0-8,3.583-8,8.002c0,2.493,1.163,4.844,3.145,6.358    l20.285,15.5l-7.797,25.227c-1.304,4.221,1.061,8.701,5.282,10.005c2.472,0.764,5.162,0.285,7.218-1.286l19.867-15.172    l19.867,15.172c3.511,2.682,8.532,2.01,11.214-1.501c1.571-2.056,2.05-4.745,1.286-7.218l-7.797-25.227l20.285-15.5    C263.582,170.833,264.677,167.244,263.579,163.994z M226.423,179.088c-2.664,2.036-3.777,5.515-2.789,8.719l2.055,6.648    l-4.832-3.695c-2.867-2.188-6.844-2.188-9.711,0l-4.832,3.695l2.055-6.648c0.987-3.204-0.126-6.683-2.789-8.719l-5.934-4.531    h6.914c3.509-0.001,6.608-2.288,7.645-5.641l1.797-5.812l1.797,5.813c1.036,3.353,4.135,5.639,7.645,5.641h6.914L226.423,179.088z    " data-original="#000000" className="active-path" data-old_color="#000000" fill="#FFFFFF"/>
	</g>
</g><g>
	<g>
		<rect x="320.001" y="112.002" width="16" height="16" data-original="#000000" className="active-path" data-old_color="#000000" fill="#FFFFFF"/>
	</g>
</g><g>
	<g>
		<rect x="320.001" y="144.002" width="16" height="16" data-original="#000000" className="active-path" data-old_color="#000000" fill="#FFFFFF"/>
	</g>
</g><g>
	<g>
		<rect x="448.001" y="112.002" width="16" height="16" data-original="#000000" className="active-path" data-old_color="#000000" fill="#FFFFFF"/>
	</g>
</g><g>
	<g>
		<rect x="448.001" y="144.002" width="16" height="16" data-original="#000000" className="active-path" data-old_color="#000000" fill="#FFFFFF"/>
	</g>
</g></g> </svg>
