<?xml version="1.0"?>
<svg xmlns="http://www.w3.org/2000/svg" xmlns:xlink="http://www.w3.org/1999/xlink" xmlns:svgjs="http://svgjs.com/svgjs" version="1.1" width="512" height="512" x="0" y="0" viewBox="0 0 64 64" style="enable-background:new 0 0 512 512" xml:space="preserve" className=""><g><path xmlns="http://www.w3.org/2000/svg" d="m44.986 51.87 1.367 1.46c.51-.478 1.001-.986 1.458-1.509l-1.506-1.316c-.413.473-.857.932-1.319 1.365z" fill="#ffffff" data-original="#000000" style=""/><path xmlns="http://www.w3.org/2000/svg" d="m51.95 44.574-1.899-.625c-.197.599-.427 1.195-.684 1.771l1.827.814c.284-.638.538-1.297.756-1.96z" fill="#ffffff" data-original="#000000" style=""/><path xmlns="http://www.w3.org/2000/svg" d="m31.011 58.977c.328.015.657.023.989.023.372 0 .742-.01 1.109-.029l-.104-1.997c-.629.033-1.271.035-1.9.005z" fill="#ffffff" data-original="#000000" style=""/><path xmlns="http://www.w3.org/2000/svg" d="m35.197 58.758c.689-.105 1.381-.247 2.056-.421l-.499-1.937c-.61.157-1.236.285-1.86.381z" fill="#ffffff" data-original="#000000" style=""/><path xmlns="http://www.w3.org/2000/svg" d="m38.565 55.836.692 1.876c.655-.241 1.304-.518 1.929-.823l-.876-1.798c-.564.276-1.152.526-1.745.745z" fill="#ffffff" data-original="#000000" style=""/><path xmlns="http://www.w3.org/2000/svg" d="m43.025 55.876c.594-.367 1.175-.768 1.728-1.19l-1.216-1.588c-.5.382-1.025.745-1.563 1.077z" fill="#ffffff" data-original="#000000" style=""/><path xmlns="http://www.w3.org/2000/svg" d="m50.245 48.406-1.736-.992c-.312.546-.657 1.084-1.024 1.6l1.63 1.16c.405-.57.785-1.164 1.13-1.768z" fill="#ffffff" data-original="#000000" style=""/><path xmlns="http://www.w3.org/2000/svg" d="m16.508 59.368c.121.357.502.632.933.632h5.117c.431 0 .813-.275.949-.684l1.182-4.316h-9.378z" fill="#ffffff" data-original="#000000" style=""/><path xmlns="http://www.w3.org/2000/svg" d="m60 12h-7c-.552 0-1-.448-1-1v-1c0-3.309-2.691-6-6-6s-6 2.691-6 6v1c0 .552-.448 1-1 1h-7v7c0 .552-.448 1-1 1h-1c-3.309 0-6 2.691-6 6s2.691 6 6 6h1c.552 0 1 .448 1 1v7h6c0-4.411 3.589-8 8-8s8 3.589 8 8h6zm-17 12v-1h4v-1h-3c-.552 0-1-.448-1-1v-3c0-.552.448-1 1-1h1v-1h2v1h1c.552 0 1 .448 1 1v1h-4v1h3c.552 0 1 .448 1 1v3c0 .552-.448 1-1 1h-1v1h-2v-1h-1c-.552 0-1-.448-1-1zm3 6c-.396 0-.795-.026-1.185-.078l.261-1.982c.304.039.615.06.924.06 3.86 0 7-3.14 7-7s-3.14-7-7-7-7 3.14-7 7c0 2.469 1.323 4.782 3.453 6.036l-1.015 1.724c-2.737-1.613-4.438-4.586-4.438-7.76 0-4.962 4.038-9 9-9s9 4.038 9 9-4.038 9-9 9z" fill="#ffffff" data-original="#000000" style=""/><path xmlns="http://www.w3.org/2000/svg" d="m30 38.843v-4.843c-4.207 0-7.659-3.267-7.969-7.397-1.651 2.067-4.187 3.397-7.031 3.397-.396 0-.795-.026-1.185-.078l.261-1.982c.304.039.615.06.924.06 3.86 0 7-3.14 7-7s-3.14-7-7-7-7 3.14-7 7c0 2.469 1.323 4.782 3.453 6.036l-1.015 1.724c-2.737-1.613-4.438-4.586-4.438-7.76 0-4.962 4.038-9 9-9 4.875 0 8.848 3.899 8.987 8.741 1.467-1.676 3.616-2.741 6.013-2.741v-5.447c-3.346-2.695-7.527-3.926-11.832-3.451-7.408.821-13.331 6.804-14.083 14.226-.411 4.056.701 8.062 3.13 11.28 4.224 5.595 6.552 11.933 6.768 18.392h1.77l-3.73-16.783 1.952-.434.878 3.949 1.439-1.439c.337-.337.864-.389 1.262-.125l2.446 1.63 2.445-1.63c.396-.264.925-.211 1.262.125l1.439 1.439.878-3.949 1.952.434-3.73 16.783h1.77c.165-4.905 1.537-9.767 3.984-14.157zm-18-14.843v-1h4v-1h-3c-.552 0-1-.448-1-1v-3c0-.552.448-1 1-1h1v-1h2v1h1c.552 0 1 .448 1 1v1h-4v1h3c.552 0 1 .448 1 1v3c0 .552-.448 1-1 1h-1v1h-2v-1h-1c-.552 0-1-.448-1-1z" fill="#ffffff" data-original="#000000" style=""/><path xmlns="http://www.w3.org/2000/svg" d="m24.293 41.707-1.42-1.42-2.318 1.545c-.168.112-.362.168-.555.168s-.387-.056-.555-.168l-2.318-1.545-1.42 1.42-.533-.533 2.628 11.826h4.396l2.628-11.826z" fill="#ffffff" data-original="#000000" style=""/></g></svg>
