<?xml version="1.0"?>
<svg xmlns="http://www.w3.org/2000/svg" xmlns:xlink="http://www.w3.org/1999/xlink" xmlns:svgjs="http://svgjs.com/svgjs" version="1.1" width="512" height="512" x="0" y="0" viewBox="0 0 480 480" style="enable-background:new 0 0 512 512" xml:space="preserve" className=""><g>
<g xmlns="http://www.w3.org/2000/svg">
	<g>
		<path d="M397.656,266.344l-4.797-4.797l6.898-27.605c1.047-4.188-1.414-8.449-5.563-9.633l-56-16    C337.484,208.105,336.742,208,336,208h-22.305l-70.445-31.309c-1.023-0.457-2.133-0.691-3.25-0.691H128    c-3.234,0-6.156,1.949-7.391,4.938c-1.242,2.992-0.555,6.43,1.734,8.719l2.344,2.344l-18.344,18.344    c-1.5,1.5-2.344,3.535-2.344,5.656v56c0,4.418,3.578,8,8,8h17.136c3.577,13.762,15.994,24,30.864,24s27.287-10.238,30.864-24    h114.272c3.577,13.762,15.994,24,30.864,24s27.287-10.238,30.864-24H392c3.234,0,6.156-1.949,7.391-4.938    C400.633,272.07,399.945,268.633,397.656,266.344z M248,196.309L274.305,208H248V196.309z M184,192h48v16h-48V192z     M141.656,197.656c1.563-1.563,2.344-3.609,2.344-5.656h24v16h-36.688L141.656,197.656z M160,288c-8.82,0-16-7.176-16-16    s7.18-16,16-16s16,7.176,16,16S168.82,288,160,288z M336,288c-8.82,0-16-7.176-16-16s7.18-16,16-16s16,7.176,16,16    S344.82,288,336,288z M376.242,262.059C376.078,262.703,376,263.355,376,264h-9.016c-0.282-1.092-0.713-2.118-1.104-3.162    c-0.19-0.507-0.32-1.039-0.535-1.533c-0.766-1.764-1.675-3.446-2.732-5.028c-0.236-0.353-0.53-0.655-0.78-0.998    c-0.875-1.205-1.802-2.363-2.833-3.433c-0.469-0.486-0.983-0.914-1.481-1.37c-0.916-0.839-1.857-1.637-2.866-2.366    c-0.595-0.43-1.204-0.822-1.828-1.211c-1.031-0.643-2.096-1.215-3.201-1.74c-0.659-0.313-1.309-0.625-1.992-0.894    c-1.224-0.481-2.492-0.848-3.783-1.176c-0.621-0.158-1.217-0.362-1.852-0.483C340.05,240.234,338.055,240,336,240    s-4.05,0.234-5.998,0.606c-0.635,0.121-1.231,0.325-1.852,0.483c-1.291,0.329-2.559,0.695-3.783,1.176    c-0.683,0.268-1.333,0.581-1.992,0.894c-1.105,0.524-2.17,1.097-3.201,1.74c-0.625,0.389-1.233,0.782-1.828,1.211    c-1.009,0.729-1.95,1.527-2.866,2.366c-0.498,0.456-1.012,0.883-1.481,1.37c-1.031,1.07-1.958,2.228-2.833,3.433    c-0.25,0.343-0.544,0.645-0.78,0.998c-1.058,1.583-1.967,3.265-2.732,5.028c-0.215,0.495-0.345,1.026-0.535,1.533    c-0.391,1.044-0.822,2.07-1.104,3.162H190.984c-0.282-1.092-0.713-2.118-1.104-3.162c-0.19-0.507-0.32-1.039-0.535-1.533    c-0.766-1.764-1.675-3.446-2.732-5.028c-0.236-0.353-0.53-0.655-0.78-0.998c-0.875-1.205-1.802-2.363-2.833-3.433    c-0.469-0.486-0.983-0.914-1.481-1.37c-0.916-0.839-1.857-1.637-2.866-2.366c-0.595-0.43-1.204-0.822-1.828-1.211    c-1.031-0.643-2.096-1.215-3.201-1.74c-0.659-0.313-1.309-0.625-1.992-0.894c-1.224-0.481-2.492-0.848-3.783-1.176    c-0.621-0.158-1.217-0.362-1.852-0.483C164.05,240.234,162.055,240,160,240s-4.05,0.234-5.998,0.606    c-0.635,0.121-1.231,0.325-1.852,0.483c-1.291,0.329-2.559,0.695-3.783,1.176c-0.683,0.268-1.333,0.581-1.992,0.894    c-1.105,0.524-2.17,1.097-3.201,1.74c-0.625,0.389-1.233,0.782-1.828,1.211c-1.009,0.729-1.95,1.527-2.866,2.366    c-0.498,0.456-1.012,0.883-1.481,1.37c-1.031,1.07-1.958,2.228-2.833,3.433c-0.25,0.343-0.544,0.645-0.78,0.998    c-1.058,1.583-1.967,3.265-2.732,5.028c-0.215,0.495-0.345,1.026-0.535,1.533c-0.391,1.044-0.822,2.07-1.104,3.162H120v-40h192    h22.883l47.477,13.566L376.242,262.059z" fill="#2453b6" data-original="#000000" style="" className=""/>
	</g>
</g>
<g xmlns="http://www.w3.org/2000/svg">
	<g>
		<path d="M304,400v24h-16v-16c0-4.418-3.578-8-8-8h-8v-8c0-4.418-3.578-8-8-8h-72c-4.422,0-8,3.582-8,8v8h-8c-4.422,0-8,3.582-8,8    v48c0,4.418,3.578,8,8,8h12.688l13.656,13.656c1.5,1.5,3.531,2.344,5.656,2.344h56c2.125,0,4.156-0.844,5.656-2.344l16-16    c1.5-1.5,2.344-3.535,2.344-5.656v-16h16v24h16v-64H304z M272,452.688L260.688,464h-49.375l-13.656-13.656    c-1.5-1.5-3.531-2.344-5.656-2.344h-8v-32h8c4.422,0,8-3.582,8-8v-8h56v8c0,4.418,3.578,8,8,8h8V452.688z" fill="#2453b6" data-original="#000000" style="" className=""/>
	</g>
</g>
<g xmlns="http://www.w3.org/2000/svg">
	<g>
		<path d="M312,24h-8V8c0-4.418-3.578-8-8-8H176c-4.422,0-8,3.582-8,8v80c0,4.418,3.578,8,8,8h120c4.422,0,8-3.582,8-8V72h8    c4.422,0,8-3.582,8-8V32C320,27.582,316.422,24,312,24z M304,56h-8c-4.422,0-8,3.582-8,8v16H184V16h104v16c0,4.418,3.578,8,8,8h8    V56z" fill="#2453b6" data-original="#000000" style="" className=""/>
	</g>
</g>
<g xmlns="http://www.w3.org/2000/svg">
	<g>
		<rect x="192" y="24" width="16" height="48" fill="#2453b6" data-original="#000000" style="" className=""/>
	</g>
</g>
<g xmlns="http://www.w3.org/2000/svg">
	<g>
		<rect x="216" y="24" width="16" height="48" fill="#2453b6" data-original="#000000" style="" className=""/>
	</g>
</g>
<g xmlns="http://www.w3.org/2000/svg">
	<g>
		<rect x="240" y="24" width="16" height="48" fill="#2453b6" data-original="#000000" style="" className=""/>
	</g>
</g>
<g xmlns="http://www.w3.org/2000/svg">
	<g>
		<rect x="264" y="24" width="16" height="48" fill="#2453b6" data-original="#000000" style="" className=""/>
	</g>
</g>
<g xmlns="http://www.w3.org/2000/svg">
	<g>
		<path d="M152,88V55.426c0-3.723-2.563-6.953-6.195-7.793l-32-7.426l-3.609,15.586l12.509,2.903    c-52.153,33.733-87.342,88.163-96.329,149.873C11.411,211.243,0,224.281,0,240s11.411,28.757,26.375,31.431    c9.967,68.448,52.111,128.022,113.929,160.233l7.391-14.188c-56.891-29.648-95.883-84.289-105.422-147.172    c0.812-0.272,1.562-0.662,2.343-0.996c0.565-0.242,1.144-0.446,1.69-0.719c1.525-0.76,2.981-1.627,4.353-2.611    c0.104-0.075,0.225-0.129,0.328-0.205c1.465-1.079,2.809-2.3,4.067-3.608c0.392-0.408,0.726-0.859,1.096-1.287    c0.825-0.953,1.609-1.933,2.317-2.98c0.375-0.554,0.709-1.127,1.05-1.705c0.603-1.023,1.145-2.075,1.632-3.167    c0.277-0.621,0.548-1.236,0.787-1.877c0.442-1.19,0.786-2.418,1.086-3.671c0.14-0.585,0.319-1.149,0.426-1.747    C63.785,243.866,64,241.96,64,240s-0.215-3.866-0.552-5.731c-0.107-0.597-0.286-1.162-0.426-1.747    c-0.3-1.252-0.644-2.48-1.086-3.671c-0.238-0.641-0.509-1.256-0.787-1.877c-0.487-1.092-1.029-2.144-1.632-3.167    c-0.34-0.578-0.675-1.151-1.05-1.705c-0.708-1.047-1.493-2.027-2.317-2.98c-0.37-0.428-0.704-0.879-1.096-1.287    c-1.258-1.308-2.602-2.53-4.067-3.608c-0.104-0.076-0.224-0.13-0.328-0.205c-1.372-0.984-2.828-1.852-4.353-2.611    c-0.547-0.272-1.125-0.477-1.69-0.719c-0.781-0.334-1.531-0.724-2.343-0.996C51.143,151.233,85.496,99.919,136,69.162V88H152z     M48,240c0,8.508-6.609,15.504-15.047,15.934c-0.297,0.012-0.656,0.02-0.953,0.066c-8.82,0-16-7.176-16-16s7.18-16,16.063-16.027    c0.297,0.047,0.594,0.082,0.891,0.094C41.391,224.496,48,231.492,48,240z" fill="#2453b6" data-original="#000000" style="" className=""/>
	</g>
</g>
<g xmlns="http://www.w3.org/2000/svg">
	<g>
		<path d="M453.625,208.569c-9.968-68.444-52.111-128.022-113.929-160.237l-7.391,14.188    c56.891,29.652,95.883,84.297,105.422,147.176c-0.812,0.272-1.562,0.662-2.343,0.996c-0.565,0.242-1.144,0.446-1.69,0.719    c-1.521,0.758-2.973,1.623-4.342,2.604c-0.108,0.078-0.233,0.134-0.341,0.213c-1.464,1.078-2.808,2.3-4.065,3.607    c-0.392,0.408-0.726,0.859-1.096,1.287c-0.825,0.953-1.609,1.933-2.317,2.98c-0.375,0.554-0.709,1.127-1.05,1.705    c-0.602,1.023-1.143,2.074-1.631,3.166c-0.278,0.623-0.55,1.239-0.789,1.882c-0.441,1.188-0.783,2.414-1.083,3.664    c-0.141,0.586-0.319,1.153-0.428,1.751C416.215,236.134,416,238.04,416,240s0.215,3.866,0.552,5.73    c0.108,0.599,0.287,1.165,0.428,1.751c0.3,1.25,0.642,2.476,1.083,3.664c0.239,0.643,0.51,1.259,0.789,1.882    c0.488,1.092,1.029,2.143,1.631,3.166c0.34,0.578,0.675,1.151,1.05,1.705c0.708,1.047,1.493,2.027,2.317,2.98    c0.37,0.428,0.704,0.879,1.096,1.287c1.257,1.308,2.601,2.529,4.065,3.607c0.108,0.079,0.232,0.135,0.341,0.213    c1.369,0.981,2.821,1.847,4.342,2.604c0.547,0.272,1.125,0.477,1.69,0.719c0.781,0.334,1.531,0.724,2.343,0.996    c-8.869,58.462-43.223,109.776-93.727,140.533V392h-16v32.574c0,3.07,1.758,5.871,4.523,7.207l32,15.426l6.953-14.414    l-18.313-8.826c54.438-33.491,91.236-89.198,100.46-152.536C468.589,268.757,480,255.719,480,240S468.589,211.243,453.625,208.569    z M447.938,256.027c-0.297-0.047-0.594-0.082-0.891-0.094C438.609,255.504,432,248.508,432,240s6.609-15.504,15.047-15.934    c0.297-0.012,0.656-0.02,0.953-0.066c8.82,0,16,7.176,16,16S456.82,256,447.938,256.027z" fill="#2453b6" data-original="#000000" style="" className=""/>
	</g>
</g>
<g xmlns="http://www.w3.org/2000/svg">
</g>
<g xmlns="http://www.w3.org/2000/svg">
</g>
<g xmlns="http://www.w3.org/2000/svg">
</g>
<g xmlns="http://www.w3.org/2000/svg">
</g>
<g xmlns="http://www.w3.org/2000/svg">
</g>
<g xmlns="http://www.w3.org/2000/svg">
</g>
<g xmlns="http://www.w3.org/2000/svg">
</g>
<g xmlns="http://www.w3.org/2000/svg">
</g>
<g xmlns="http://www.w3.org/2000/svg">
</g>
<g xmlns="http://www.w3.org/2000/svg">
</g>
<g xmlns="http://www.w3.org/2000/svg">
</g>
<g xmlns="http://www.w3.org/2000/svg">
</g>
<g xmlns="http://www.w3.org/2000/svg">
</g>
<g xmlns="http://www.w3.org/2000/svg">
</g>
<g xmlns="http://www.w3.org/2000/svg">
</g>
</g></svg>
