<?xml version="1.0" encoding="iso-8859-1"?>
<!-- Generator: Adobe Illustrator 19.0.0, SVG Export Plug-In . SVG Version: 6.00 Build 0)  -->
<svg xmlns="http://www.w3.org/2000/svg" xmlns:xlink="http://www.w3.org/1999/xlink" version="1.1" id="Capa_1" x="0px" y="0px" viewBox="0 0 508 508" style="enable-background:new 0 0 508 508;" xml:space="preserve" width="512px" height="512px">
<g>
	<g>
		<path d="M255.926,302.8l-7.2-4.5l-50.6,88.5l-14.4-38.5l12.3-38.5h-56.2l12.3,38.5l-14.1,37.6l-50-87.5l-7.2,4.5    c-54.9,34.2-85.4,98-77.8,162.4l5.1,42.7h320.6l5.1-42.7C341.526,400.9,310.926,337.1,255.926,302.8z M173.726,326l-5.8,18    l-5.8-18H173.726z M167.926,352.7l19.7,52.5l-19.2,33.7l-19.8-34.6L167.926,352.7z M317.626,463.4l-3.4,28.3h-291.6l-3.4-28.3    c-6.6-55.4,18.1-110.2,63.2-142l85.9,150.4l85.9-150.4C299.526,353.2,324.226,408,317.626,463.4z" fill="#2453b6"/>
	</g>
</g>
<g>
	<g>
		<path d="M167.926,97.8c-47.2,0-85.5,41.1-85.5,91.6c0,50.8,38.1,112.2,85.5,112.2c47.4,0,85.6-61.4,85.6-112.2    C253.526,138.9,215.126,97.8,167.926,97.8z M167.926,285.3c-37.3,0-69.2-52.7-69.2-95.9c0-41.5,31-75.3,69.2-75.3    c38.2,0,69.3,33.8,69.3,75.3C237.226,232.6,205.226,285.3,167.926,285.3z" fill="#2453b6"/>
	</g>
</g>
<g>
	<g>
		<path d="M383.926,32.6c-3.4,0-6.8,0.2-10.2,0.6c-40.1,4.4-73.1,36.6-78.6,76.4c-4.3,31.2,7.5,61.8,31.6,81.7    c10.2,8.4,16.1,20.4,16.3,33c-4.9,3.7-8.1,9.5-8.1,16.2c0,9.8,7,18.1,16.3,20v0.4c0,18,14.6,32.6,32.6,32.6s32.6-14.6,32.6-32.6    v-0.4c9.3-1.9,16.3-10.1,16.3-20c0-6.6-3.2-12.4-8.1-16.2c0.3-12.5,6.4-24.6,16.8-33.4c20.4-17.1,32-42.1,32-68.6    C473.526,72.8,433.326,32.6,383.926,32.6z M383.926,277.1c-9,0-16.3-7.3-16.3-16.3h32.6    C400.226,269.8,392.926,277.1,383.926,277.1z M412.426,244.5h-57.1c-2.2,0-4.1-1.8-4.1-4.1c0-2.2,1.8-4.1,4.1-4.1h57.1    c2.2,0,4.1,1.8,4.1,4.1C416.526,242.7,414.726,244.5,412.426,244.5z M431.026,178.4c-13,10.9-21,25.9-22.5,41.6h-49.4    c-1.4-15.9-9.3-30.7-22.1-41.3c-19.7-16.3-29.4-41.4-25.9-66.9c4.5-32.6,31.5-58.8,64.2-62.4c44.1-4.9,81.8,29.7,81.8,72.9    C457.226,144,447.726,164.4,431.026,178.4z" fill="#2453b6"/>
	</g>
</g>
<g>
	<g>
		<rect x="489.826" y="114.1" width="16.3" height="16.3" fill="#2453b6"/>
	</g>
</g>
<g>
	<g>
		<rect x="261.626" y="114.1" width="16.3" height="16.3" fill="#2453b6"/>
	</g>
</g>
<g>
	<g>
		<rect x="456.438" y="194.802" transform="matrix(0.7071 -0.7071 0.7071 0.7071 -7.4338 387.958)" width="16.3" height="16.3" fill="#2453b6"/>
	</g>
</g>
<g>
	<g>
		<rect x="295.058" y="33.362" transform="matrix(0.7072 -0.707 0.707 0.7072 59.4277 226.5241)" width="16.3" height="16.3" fill="#2453b6"/>
	</g>
</g>
<g>
	<g>
		<rect x="375.726" width="16.3" height="16.3" fill="#2453b6"/>
	</g>
</g>
<g>
	<g>
		<rect x="295.037" y="194.762" transform="matrix(0.7071 -0.7071 0.7071 0.7071 -54.679 273.816)" width="16.3" height="16.3" fill="#2453b6"/>
	</g>
</g>
<g>
	<g>
		<rect x="456.442" y="33.448" transform="matrix(0.7071 -0.7071 0.7071 0.7071 106.6615 340.7002)" width="16.3" height="16.3" fill="#2453b6"/>
	</g>
</g>
<g>
</g>
<g>
</g>
<g>
</g>
<g>
</g>
<g>
</g>
<g>
</g>
<g>
</g>
<g>
</g>
<g>
</g>
<g>
</g>
<g>
</g>
<g>
</g>
<g>
</g>
<g>
</g>
<g>
</g>
</svg>
