<?xml version="1.0"?>
<svg xmlns="http://www.w3.org/2000/svg" xmlns:xlink="http://www.w3.org/1999/xlink" xmlns:svgjs="http://svgjs.com/svgjs" version="1.1" width="512" height="512" x="0" y="0" viewBox="0 0 512 512" style="enable-background:new 0 0 512 512" xml:space="preserve" className=""><g><path xmlns="http://www.w3.org/2000/svg" d="m494.933594 298.667969h-51.199219v-145.066407c-.011719-9.421874-7.648437-17.058593-17.066406-17.066406h-59.734375v-119.46875c-.011719-9.421875-7.644532-17.0546872-17.066406-17.066406h-332.800782c-9.421875.0117188-17.0546872 7.644531-17.066406 17.066406v247.46875c.015625 2.21875.492188 4.410156 1.40625 6.4375l.023438.054688c.179687.40625.285156.886718.496093 1.25.207031.414062.539063.734375.78125 1.125.144531.207031.253907.417968.421875.605468 3.101563 4.683594 8.320313 7.527344 13.9375 7.59375h128v68.265626c-.027344 6.6875 3.933594 12.75 10.070313 15.410156.078125.042968.121093.121094.199219.164062.125.0625.253906.085938.375.140625.152343.054688.265624.171875.417968.222657.234375.09375.492188.128906.734375.214843.21875.0625.433594.140625.652344.1875 1.496094.464844 3.050781.710938 4.617187.726563h128v85.332031c.011719 9.421875 7.644532 17.058594 17.066407 17.066406h187.734375c9.421875-.007812 17.054687-7.644531 17.066406-17.066406v-136.53125c-.011719-9.421875-7.644531-17.058594-17.066406-17.066406zm-68.265625 0h-34.789063l-51.527344-97.847657c-1.476562-2.804687-4.382812-4.558593-7.554687-4.558593-3.167969 0-6.074219 1.753906-7.550781 4.558593l-56.871094 108.117188-38.957031-73.984375c-1.476563-2.800781-4.386719-4.554687-7.550781-4.554687h-.007813c-3.167969.003906-6.070313 1.761718-7.542969 4.5625l-52.183594 99.242187v-180.601563h57.675782c1.25.289063 2.550781.289063 3.800781 0h9.621094c1.640625.566407 3.421875.566407 5.058593 0h188.378907zm-253.496094 51.199219 48.703125-92.617188 36.855469 70.007812-11.890625 22.609376zm-8.425781-213.332032 21.535156-41.28125 21.515625 41.28125zm85.351562 0 39.277344-75.40625 39.328125 75.40625zm99.769532-119.46875v119.46875h-1.910157l-51.023437-97.8125c-1.46875-2.820312-4.386719-4.589844-7.566406-4.589844-3.179688 0-6.097657 1.769532-7.566407 4.589844l-50.960937 97.8125h-3.796875l-33.195313-63.679687c-1.46875-2.820313-4.386718-4.589844-7.566406-4.589844s-6.097656 1.769531-7.566406 4.589844l-48.117188 92.222656-30.632812-58.125c-1.476563-2.800781-4.386719-4.558594-7.554688-4.554687-3.167968 0-6.078125 1.757812-7.550781 4.5625l-67.792969 128.902343v-218.796875zm-328.605469 247.46875 71.167969-135.285156 28.574218 54.226562-42.296875 81.058594zm76.699219 0 47.105468-90.285156v90.285156zm168.160156 85.332032 66.6875-126.753907 39.789062 75.554688h-65.398437c-9.421875.007812-17.054688 7.644531-17.066407 17.066406v34.132813zm99.671875 102.398437 35.28125-67.023437 35.269531 67.023437zm89.832031 0-47.007812-89.3125c-1.476563-2.804687-4.382813-4.558594-7.550782-4.558594-3.171875 0-6.078125 1.753907-7.554687 4.558594l-47.003907 89.3125h-39.308593v-136.53125h187.734375l.007812 136.53125zm0 0" fill="#2453b6" data-original="#000000" style=""/><path xmlns="http://www.w3.org/2000/svg" d="m59.734375 93.867188c18.851563 0 34.132813-15.28125 34.132813-34.132813s-15.28125-34.132813-34.132813-34.132813-34.132813 15.28125-34.132813 34.132813c.019532 18.84375 15.289063 34.113281 34.132813 34.132813zm0-51.199219c9.425781 0 17.066406 7.640625 17.066406 17.066406s-7.640625 17.066406-17.066406 17.066406-17.066406-7.640625-17.066406-17.066406c.007812-9.421875 7.644531-17.058594 17.066406-17.066406zm0 0" fill="#2453b6" data-original="#000000" style=""/><path xmlns="http://www.w3.org/2000/svg" d="m200.535156 162.132812c-16.496094 0-29.867187 13.371094-29.867187 29.867188s13.371093 29.867188 29.867187 29.867188c16.492188 0 29.863282-13.371094 29.863282-29.867188-.019532-16.488281-13.378907-29.847656-29.863282-29.867188zm0 42.667969c-5.179687 0-9.847656-3.121093-11.828125-7.902343s-.886719-10.289063 2.773438-13.949219c3.664062-3.660157 9.167969-4.757813 13.953125-2.773438 4.78125 1.980469 7.898437 6.648438 7.898437 11.824219-.007812 7.066406-5.734375 12.792969-12.796875 12.800781zm0 0" fill="#2453b6" data-original="#000000" style=""/><path xmlns="http://www.w3.org/2000/svg" d="m341.332031 324.265625c-14.136719 0-25.597656 11.460937-25.597656 25.601563 0 14.136718 11.460937 25.597656 25.597656 25.597656 14.140625 0 25.601563-11.460938 25.601563-25.597656-.015625-14.132813-11.46875-25.585938-25.601563-25.601563zm0 34.132813c-4.710937 0-8.53125-3.820313-8.53125-8.53125 0-4.714844 3.820313-8.535157 8.53125-8.535157 4.714844 0 8.535157 3.820313 8.535157 8.535157-.003907 4.710937-3.824219 8.527343-8.535157 8.53125zm0 0" fill="#2453b6" data-original="#000000" style=""/></g></svg>
