<svg xmlns="http://www.w3.org/2000/svg" width="115.316" height="92.815" viewBox="0 0 115.316 92.815">
  <g id="in-house" transform="translate(-9 -969.362)">
    <path id="Path_1750" data-name="Path 1750" d="M66.666,969.362a4.934,4.934,0,0,1,2.593.879L122.7,1012.43c1.373,1.363,2.338,4.3.923,6.108a4.368,4.368,0,0,1-6.109.527L66.666,978.943,15.82,1019.072a4.32,4.32,0,0,1-6.109-.527,4.789,4.789,0,0,1,.923-6.109L30.1,997.054V973.587a4.219,4.219,0,0,1,4.218-4.219H45.571a4.22,4.22,0,0,1,4.219,4.219v7.955l14.283-11.294a4.3,4.3,0,0,1,2.593-.879ZM41.353,977.8H38.54v12.613l2.813-2.241Zm59.064,32.74,8.438,6.68v40.739a4.219,4.219,0,0,1-4.218,4.219H77.916a4.219,4.219,0,0,1-4.219-4.218v-16.876a7.031,7.031,0,1,0-14.063,0v16.876a4.219,4.219,0,0,1-4.218,4.219H28.7a4.219,4.219,0,0,1-4.219-4.218V1017.22l8.438-6.68v43.2H51.2v-12.657a15.469,15.469,0,0,1,30.938,0v12.657h18.282Z" transform="translate(0 0)" fill="#2453b6"/>
  </g>
</svg>
