<?xml version="1.0"?>
<svg xmlns="http://www.w3.org/2000/svg" xmlns:xlink="http://www.w3.org/1999/xlink" xmlns:svgjs="http://svgjs.com/svgjs" version="1.1" width="512" height="512" x="0" y="0" viewBox="0 0 512 512" style="enable-background:new 0 0 512 512" xml:space="preserve" className=""><g><g xmlns="http://www.w3.org/2000/svg" id="XMLID_150_"><path id="XMLID_245_" d="m502 492h-4v-290c0-5.523-4.478-10-10-10h-80c-5.522 0-10 4.477-10 10v290h-28v-236c0-5.523-4.478-10-10-10h-80c-5.522 0-10 4.477-10 10v236h-28v-178.108c0-5.523-4.478-10-10-10h-80c-5.522 0-10 4.477-10 10v178.108h-28v-102c0-5.523-4.478-10-10-10h-80c-5.522 0-10 4.477-10 10v102h-4c-5.522 0-10 4.477-10 10s4.478 10 10 10h492c5.522 0 10-4.477 10-10s-4.478-10-10-10zm-468 0v-92h60v92zm128 0v-168.108h60v168.108zm128 0v-226h60v226zm128 0v-280h60v280z" fill="#3964bd" data-original="#000000" style=""/><path id="XMLID_1251_" d="m410.528 144.685c10.731 7.019 18.134 9.226 27.472 9.836v7.479c0 5.523 4.478 10 10 10s10-4.477 10-10v-8.636c17.624-4.521 28.92-19.595 31.419-34.461 3.266-19.423-6.883-36.306-25.854-43.012-1.832-.648-3.697-1.32-5.564-2.012v-35.783c4.477 1.597 7.382 3.659 7.537 3.77 4.399 3.287 10.633 2.412 13.955-1.973 3.335-4.402 2.471-10.674-1.932-14.009-.5-.379-8.18-6.079-19.561-8.542v-7.342c0-5.523-4.478-10-10-10s-10 4.477-10 10v7.283c-1.116.244-2.24.521-3.377.863-12.561 3.774-21.945 14.499-24.493 27.989-2.334 12.364 1.658 24.314 10.422 31.187 4.448 3.489 9.951 6.677 17.448 10.028v47.11c-5.913-.563-9.915-2.191-16.522-6.513-4.623-3.024-10.821-1.727-13.843 2.895-3.024 4.621-1.728 10.819 2.893 13.843zm59.168-29.098c-1.058 6.288-5.021 12.923-11.696 16.493v-36.913c13.124 5.271 12.288 16.903 11.696 20.42zm-36.801-54.002c-2.819-2.211-4.041-6.819-3.111-11.739.786-4.165 3.35-9.094 8.217-11.586v26.716c-1.893-1.097-3.621-2.226-5.106-3.391z" fill="#3964bd" data-original="#000000" style=""/><path id="XMLID_1257_" d="m65.335 302.965c1.876 1.875 4.419 2.929 7.071 2.929s5.195-1.054 7.071-2.929l115.396-115.396 33.118 33.119c1.876 1.875 4.419 2.929 7.071 2.929s5.195-1.054 7.071-2.929l109.615-109.616 8.16 8.16c2.86 2.859 7.161 3.716 10.898 2.167 3.736-1.548 6.173-5.194 6.173-9.239v-62.16c0-5.523-4.478-10-10-10h-62.161c-4.045 0-7.691 2.437-9.239 6.173-1.547 3.737-.691 8.038 2.168 10.898l8.261 8.26-70.946 70.948-33.118-33.119c-3.906-3.905-10.236-3.905-14.143 0l-154.064 154.065c-3.905 3.905-3.905 10.237 0 14.142zm129.538-178.59 33.118 33.119c1.876 1.875 4.419 2.929 7.071 2.929s5.195-1.054 7.071-2.929l85.089-85.09c1.875-1.875 2.929-4.419 2.929-7.071 0-1.902-.542-3.748-1.54-5.332h28.369v28.405c-3.854-2.369-8.964-1.884-12.303 1.454l-109.614 109.615-33.118-33.119c-3.906-3.904-10.236-3.904-14.143 0l-115.396 115.396-17.455-17.456z" fill="#3964bd" data-original="#000000" style=""/></g></g></svg>
