<svg height="480pt" viewBox="0 0 480 480" width="480pt" xmlns="http://www.w3.org/2000/svg"><path d="m96 40v24h184v-16h-168v-8c0-13.253906 10.746094-24 24-24h152v-16h-152c-22.082031.0273438-39.972656 17.917969-40 40zm0 0"/><path d="m96 176v264c.027344 22.082031 17.917969 39.972656 40 40h176v-16h-176c-13.253906 0-24-10.746094-24-24v-24h184v-16h-184v-224zm0 0"/><path d="m368 208v100.6875l-54.34375-54.34375c-14.167969-14.167969-37.144531-14.167969-51.3125 0s-14.167969 37.144531 0 51.3125l63.679688 63.679688-3.550782 6.214843c-16.578125 28.757813-14.402344 64.632813 5.527344 91.175781v13.273438h16v-16c0-1.816406-.617188-3.582031-1.753906-5-17.359375-21.539062-19.699219-51.535156-5.886719-75.503906l6.585937-11.527344c1.777344-3.125 1.25-7.054688-1.289062-9.601562l-68-68c-7.710938-7.957032-7.609375-20.628907.222656-28.460938 7.835938-7.835938 20.507813-7.9375 28.464844-.226562l84 84 11.3125-11.3125-13.65625-13.679688v-116.6875zm0 0"/><path d="m232 432h16v16h-16zm0 0"/><path d="m440 480v-159.648438c.019531-21.234374-7.652344-41.761718-21.601562-57.777343l-12.238282-14.734375-12.320312 10.214844 12.34375 14.890624c11.484375 13.121094 17.816406 29.96875 17.816406 47.40625v159.648438zm0 0"/><path d="m264 200h16v32h-16zm0 0"/><path d="m58.96875 65.777344c-1.878906 1.519531-2.96875 3.804687-2.96875 6.222656v80c0 4.417969 3.582031 8 8 8 .378906 0 .761719-.027344 1.136719-.078125l70.863281-10.128906v34.207031c0 13.253906 10.746094 24 24 24h40v168c0 4.417969 3.582031 8 8 8h64c4.417969 0 8-3.582031 8-8v-40h-16v32h-16v-64h-16v64h-16v-168c0-4.417969-3.582031-8-8-8h-48c-4.417969 0-8-3.582031-8-8v-36.488281l16-2.289063v22.777344c0 4.417969 3.582031 8 8 8h96c13.253906 0 24 10.746094 24 24v32h16v-32c-.027344-22.082031-17.917969-39.972656-40-40h-.207031c5.292969-6.882812 8.175781-15.316406 8.207031-24v-16c0-22.089844-17.910156-40-40-40s-40 17.910156-40 40v16c.03125 8.683594 2.914062 17.117188 8.207031 24h-24.207031v-64c0-3.773438-2.632812-7.03125-6.320312-7.824219l-112-24c-2.363282-.507812-4.832032.078125-6.710938 1.601563zm157.03125 70.222656v-16c0-13.253906 10.746094-24 24-24s24 10.746094 24 24v16c0 13.253906-10.746094 24-24 24s-24-10.746094-24-24zm-144-54.105469 96 20.578125v26.589844l-96 13.714844zm0 0"/><path d="m6.054688 79.765625 3.875-15.523437 32 7.988281-3.875 15.523437zm0 0"/><path d="m6.058594 144.230469 32-7.988281 3.875 15.523437-32 7.988281zm0 0"/><path d="m0 104h32v16h-32zm0 0"/><path d="m440 0h-96c-22.082031.0273438-39.972656 17.917969-40 40v80c.027344 22.082031 17.917969 39.972656 40 40h6.238281l-6.078125 30.398438c-.625 3.132812.671875 6.332031 3.296875 8.148437 2.625 1.8125 6.074219 1.894531 8.78125.207031l62.058594-38.753906h21.703125c22.082031-.027344 39.972656-17.917969 40-40v-80c-.027344-22.082031-17.917969-39.9726562-40-40zm24 120c0 13.253906-10.746094 24-24 24h-24c-1.5 0-2.96875.421875-4.238281 1.214844l-48.28125 30.175781 4.359375-21.789063c.480468-2.355468-.121094-4.800781-1.640625-6.660156-1.519531-1.863281-3.796875-2.941406-6.199219-2.941406h-16c-13.253906 0-24-10.746094-24-24v-80c0-13.253906 10.746094-24 24-24h96c13.253906 0 24 10.746094 24 24zm0 0"/><path d="m440 56h-27.71875l-13.601562-20.441406c-1.570313-2.097656-4.035157-3.332032-6.65625-3.332032-2.621094 0-5.085938 1.234376-6.65625 3.332032l-13.648438 20.441406h-27.71875c-3.234375 0-6.152344 1.949219-7.390625 4.9375s-.550781 6.429688 1.734375 8.71875l20.800781 20.800781-6.90625 27.597657c-.78125 3.039062.285157 6.253906 2.726563 8.222656s5.808594 2.328125 8.609375.921875l28.425781-14.253907 28.425781 14.253907c2.792969 1.398437 6.148438 1.039062 8.585938-.917969 2.433593-1.957031 3.507812-5.152344 2.75-8.183594l-6.90625-27.601562 20.800781-20.800782c2.316406-2.285156 3.019531-5.742187 1.777344-8.75-1.242188-3.003906-4.179688-4.960937-7.433594-4.945312zm-29.65625 26.34375c-1.988281 1.988281-2.785156 4.875-2.105469 7.601562l3.785157 15.117188-16.449219-8.222656c-2.25-1.125-4.898438-1.125-7.148438 0l-16.425781 8.222656 3.785156-15.117188c.679688-2.726562-.117187-5.613281-2.105468-7.601562l-10.367188-10.34375h12.6875c2.675781 0 5.171875-1.335938 6.65625-3.558594l9.34375-14.042968 9.34375 14.015624c1.480469 2.234376 3.976562 3.582032 6.65625 3.585938h12.6875zm0 0"/></svg>