<svg xmlns="http://www.w3.org/2000/svg" width="71.519" height="100.926" viewBox="0 0 71.519 100.926">
  <g id="inst-grade-security" transform="translate(-18.8 -5.9)">
    <path id="Path_1340" data-name="Path 1340" d="M78.99,42.632h-.572V26.039c0-9.726-9.383-19-20.6-20.139H51.069C39.969,7.159,30.7,16.313,30.7,26.039V42.632h-.572A11.281,11.281,0,0,0,18.8,53.96V95.5a11.354,11.354,0,0,0,11.328,11.328H78.99A11.281,11.281,0,0,0,90.318,95.5V53.96A11.429,11.429,0,0,0,78.99,42.632ZM51.3,10.706h6.179c8.7.915,16.134,8.01,16.134,15.448V42.632H68.119c0-.114.114-.229.114-.458V30.845c0-11.328-5.493-13.731-8.811-14.3H49.7c-3.318.458-8.811,2.975-8.811,14.3V42.059a.865.865,0,0,0,.114.458H35.507V26.039C35.507,18.716,42.83,11.621,51.3,10.706ZM63.427,42.632H45.576c0-.114.114-.229.114-.458V30.845c0-5.721,1.488-8.925,4.463-9.5h8.7c2.975.572,4.577,3.776,4.577,9.5V42.632ZM85.512,95.5a6.519,6.519,0,0,1-6.522,6.522H30.128A6.519,6.519,0,0,1,23.606,95.5V53.96a6.519,6.519,0,0,1,6.522-6.522H78.99a6.519,6.519,0,0,1,6.522,6.522Z" fill="#2453b6"/>
    <path id="Path_1341" data-name="Path 1341" d="M57.731,57.366a6.866,6.866,0,1,0-10.3,5.95L45.373,76.59H56.244L54.3,63.43A6.915,6.915,0,0,0,57.731,57.366Z" transform="translate(3.636 6.435)" fill="#2453b6"/>
  </g>
</svg>
