<?xml version="1.0"?>
<svg xmlns="http://www.w3.org/2000/svg" xmlns:xlink="http://www.w3.org/1999/xlink" xmlns:svgjs="http://svgjs.com/svgjs" version="1.1" width="512" height="512" x="0" y="0" viewBox="0 0 512 512" style="enable-background:new 0 0 512 512" xml:space="preserve" className=""><g><g xmlns="http://www.w3.org/2000/svg" id="Outline"><path d="m256 104a111.135 111.135 0 0 1 73.337 27.349l-11.351 11.351a95.993 95.993 0 0 0 -127.878 3.483l10.984 11.634a80.006 80.006 0 0 1 105.538-3.76l-11.393 11.393a64 64 0 0 0 -72.226-4.3l8.259 13.7a48.019 48.019 0 0 1 52.538 2.026l-17.457 17.458a24.006 24.006 0 1 0 6.619 38.635 24.035 24.035 0 0 0 4.693-27.321l85.816-85.816-11.312-11.312-11.495 11.5a128 128 0 0 0 -187.072 19.18l12.79 9.6a111.149 111.149 0 0 1 89.61-44.8zm5.657 117.656a8 8 0 1 1 2.343-5.656 7.944 7.944 0 0 1 -2.344 5.657z" fill="#2453b6" data-original="#000000" style="" className=""/><path d="m48 312h416a32.036 32.036 0 0 0 32-32v-16a8 8 0 0 0 -8-8h-16v-208a32.036 32.036 0 0 0 -32-32h-368a32.036 32.036 0 0 0 -32 32v208h-16a8 8 0 0 0 -8 8v16a32.036 32.036 0 0 0 32 32zm8-264a16.019 16.019 0 0 1 16-16h368a16.019 16.019 0 0 1 16 16v208h-104a7.994 7.994 0 0 0 -3.578.845l-14.311 7.155h-156.222l-14.311-7.155a7.994 7.994 0 0 0 -3.578-.845h-104zm-24 224h126.111l14.311 7.155a7.994 7.994 0 0 0 3.578.845h160a7.994 7.994 0 0 0 3.578-.845l14.311-7.155h126.111v8a16.019 16.019 0 0 1 -16 16h-416a16.019 16.019 0 0 1 -16-16z" fill="#2453b6" data-original="#000000" style="" className=""/><path d="m424 240h16v-184a8 8 0 0 0 -8-8h-352a8 8 0 0 0 -8 8v184h16v-176h336z" fill="#2453b6" data-original="#000000" style="" className=""/><path d="m192 328h16v32h-16z" fill="#2453b6" data-original="#000000" style="" className=""/><path d="m328 328h16v32h-16z" fill="#2453b6" data-original="#000000" style="" className=""/><path d="m256 448h16v24h-16z" fill="#2453b6" data-original="#000000" style="" className=""/><path d="m211.571 377.338 8.858 13.324a40.007 40.007 0 0 1 62.113 33.338 40.474 40.474 0 0 1 -.553 6.676l15.779 2.648a56.042 56.042 0 0 0 -55.226-65.324 55.758 55.758 0 0 0 -30.971 9.338z" fill="#2453b6" data-original="#000000" style="" className=""/><path d="m123.188 469.334 15.086 5.332a40.02 40.02 0 0 1 75.452 0l15.086-5.332a56.02 56.02 0 0 0 -105.624 0z" fill="#2453b6" data-original="#000000" style="" className=""/><path d="m362.731 432a56.1 56.1 0 0 0 -52.811 37.334l15.085 5.332a40.02 40.02 0 0 1 75.453 0l15.085-5.332a56.1 56.1 0 0 0 -52.812-37.334z" fill="#2453b6" data-original="#000000" style="" className=""/><path d="m64 440c.571 0 1.141.015 1.709.039.434.019.87.05 1.306.084.117.009.235.014.352.024.516.044 1.032.1 1.55.164l.116.013c.5.064 1 .14 1.508.222a39.9 39.9 0 0 1 20.124 9.638l10.67-11.922a55.862 55.862 0 0 0 -20.943-11.8 40.007 40.007 0 0 1 59.6-29.115l8.012-13.85a55.876 55.876 0 0 0 -20.004-6.917v-48.58h-16v48.574a56.125 56.125 0 0 0 -47.431 47.426h-.569a56.206 56.206 0 0 0 -48.5 27.994l13.849 8.012a40.161 40.161 0 0 1 34.651-20.006z" fill="#2453b6" data-original="#000000" style="" className=""/><path d="m448 424.006v-.006c-.072 0-.144 0-.217 0-.117 0-.234 0-.352 0a56.125 56.125 0 0 0 -47.431-47.426v-48.574h-16v48.58a55.876 55.876 0 0 0 -20.006 6.917l8.012 13.85a40.009 40.009 0 0 1 59.6 29.114 55.88 55.88 0 0 0 -20.945 11.8l10.67 11.922a39.9 39.9 0 0 1 20.124-9.638c.5-.082 1-.158 1.508-.222l.116-.013c.518-.064 1.034-.12 1.55-.164.117-.01.235-.015.352-.024.436-.034.872-.065 1.306-.084.568-.024 1.138-.039 1.709-.039a40.161 40.161 0 0 1 34.654 20.006l13.849-8.012a56.142 56.142 0 0 0 -48.499-27.987z" fill="#2453b6" data-original="#000000" style="" className=""/><path d="m168 392h16v16h-16z" fill="#2453b6" data-original="#000000" style="" className=""/><path d="m320 384h16v16h-16z" fill="#2453b6" data-original="#000000" style="" className=""/><path d="m144 344h16v16h-16z" fill="#2453b6" data-original="#000000" style="" className=""/><path d="m256 336h16v16h-16z" fill="#2453b6" data-original="#000000" style="" className=""/><path d="m136 208h16v16h-16z" fill="#2453b6" data-original="#000000" style="" className=""/><path d="m168 208h16v16h-16z" fill="#2453b6" data-original="#000000" style="" className=""/><path d="m200 208h16v16h-16z" fill="#2453b6" data-original="#000000" style="" className=""/><path d="m296 208h16v16h-16z" fill="#2453b6" data-original="#000000" style="" className=""/><path d="m328 208h16v16h-16z" fill="#2453b6" data-original="#000000" style="" className=""/><path d="m360 208h16v16h-16z" fill="#2453b6" data-original="#000000" style="" className=""/></g></g></svg>
