<?xml version="1.0"?>
<svg xmlns="http://www.w3.org/2000/svg" xmlns:xlink="http://www.w3.org/1999/xlink" xmlns:svgjs="http://svgjs.com/svgjs" version="1.1" width="512" height="512" x="0" y="0" viewBox="0 0 64 64" style="enable-background:new 0 0 512 512" xml:space="preserve" className=""><g><g xmlns="http://www.w3.org/2000/svg"><path d="m12 32c-2.757 0-5 2.243-5 5 0 1.563.754 3.041 2 3.979v7.021h6v-7.021c1.246-.939 2-2.416 2-3.979 0-2.757-2.243-5-5-5zm1.497 7.581-.497.289v6.13h-2v-6.13l-.497-.289c-.941-.548-1.503-1.513-1.503-2.581 0-1.654 1.346-3 3-3s3 1.346 3 3c0 1.068-.562 2.033-1.503 2.581z" fill="#ffffff" data-original="#000000" style=""/><path d="m28 31h32c1.654 0 3-1.346 3-3v-24c0-1.654-1.346-3-3-3h-11.171c-.801 0-1.555.312-2.122.879l-3.121 3.121h-15.586c-1.302 0-2.402.839-2.816 2h-14.184v5.059c-4.493.5-8 4.317-8 8.941v7.184c-1.161.414-2 1.514-2 2.816v18c0 1.654 1.346 3 3 3h7v6h14v2c0 1.654 1.346 3 3 3h32c1.654 0 3-1.346 3-3v-24c0-1.654-1.346-3-3-3h-11.171c-.801 0-1.555.312-2.122.879l-3.121 3.121h-15.586c-1.654 0-3 1.346-3 3v16h-12v-4h7c1.654 0 3-1.346 3-3v-18c0-1.302-.839-2.402-2-2.816v-7.184c0-4.624-3.507-8.441-8-8.941v-3.059h12v19c0 1.654 1.346 3 3 3zm32 30h-32c-.551 0-1-.449-1-1v-17h34v17c0 .551-.449 1-1 1zm-32-22h16.414l3.707-3.707c.189-.189.441-.293.708-.293h11.171c.551 0 1 .449 1 1v5h-34v-1c0-.551.449-1 1-1zm-7 10c0 .551-.449 1-1 1h-16c-.551 0-1-.449-1-1v-18c0-.551.449-1 1-1h16c.551 0 1 .449 1 1zm-6-21h-6v-7c0-1.654 1.346-3 3-3s3 1.346 3 3zm4-7v7h-2v-7c0-2.757-2.243-5-5-5s-5 2.243-5 5v7h-2v-7c0-3.86 3.14-7 7-7s7 3.14 7 7zm41 8h-32c-.551 0-1-.449-1-1v-17h34v17c0 .551-.449 1-1 1zm-32-22h16.414l3.707-3.707c.189-.189.441-.293.708-.293h11.171c.551 0 1 .449 1 1v5h-34v-1c0-.551.449-1 1-1z" fill="#ffffff" data-original="#000000" style=""/><path d="m33 23h6v-6h-6zm2-4h2v2h-2z" fill="#ffffff" data-original="#000000" style=""/><path d="m41 23h6v-6h-6zm2-4h2v2h-2z" fill="#ffffff" data-original="#000000" style=""/><path d="m49 23h6v-6h-6zm2-4h2v2h-2z" fill="#ffffff" data-original="#000000" style=""/><path d="m57 37h2v2h-2z" fill="#ffffff" data-original="#000000" style=""/><path d="m53 37h2v2h-2z" fill="#ffffff" data-original="#000000" style=""/><path d="m49 37h2v2h-2z" fill="#ffffff" data-original="#000000" style=""/><path d="m33 55h6v-6h-6zm2-4h2v2h-2z" fill="#ffffff" data-original="#000000" style=""/><path d="m41 55h6v-6h-6zm2-4h2v2h-2z" fill="#ffffff" data-original="#000000" style=""/><path d="m49 55h6v-6h-6zm2-4h2v2h-2z" fill="#ffffff" data-original="#000000" style=""/><g><path d="m59 7h-2v-2h2zm-4 0h-2v-2h2zm-4 0h-2v-2h2z" fill="#ffffff" data-original="#000000" style=""/></g></g></g></svg>
