<svg height="512pt" viewBox="0 0 512 512" width="512pt" xmlns="http://www.w3.org/2000/svg"><path d="m486.398438 221.867188h-34.132813c-4.710937 0-8.53125 3.820312-8.53125 8.53125 0 4.714843 3.820313 8.535156 8.53125 8.535156h34.132813c4.714843 0 8.535156 3.820312 8.535156 8.53125v85.335937c0 4.710938-3.820313 8.53125-8.535156 8.53125h-34.132813c-4.710937 0-8.53125 3.820313-8.53125 8.535157 0 4.710937 3.820313 8.53125 8.53125 8.53125h34.132813c14.140624 0 25.601562-11.460938 25.601562-25.597657v-85.335937c0-14.136719-11.460938-25.597656-25.601562-25.597656zm0 0"/><path d="m25.601562 358.398438h102.398438c4.710938 0 8.535156-3.820313 8.535156-8.53125 0-4.714844-3.824218-8.535157-8.535156-8.535157h-102.398438c-4.714843 0-8.535156-3.820312-8.535156-8.53125v-85.335937c0-4.710938 3.820313-8.53125 8.535156-8.53125h102.398438c4.710938 0 8.535156-3.820313 8.535156-8.535156 0-4.710938-3.824218-8.53125-8.535156-8.53125h-68.265625v-8.535157c0-4.710937-3.820313-8.53125-8.535156-8.53125-4.710938 0-8.53125 3.820313-8.53125 8.53125v8.535157h-17.066407c-14.140624 0-25.601562 11.460937-25.601562 25.597656v85.335937c0 14.136719 11.460938 25.597657 25.601562 25.597657zm0 0"/><path d="m290.132812 179.199219c-61.265624 0-110.933593 49.667969-110.933593 110.933593 0 61.265626 49.667969 110.933594 110.933593 110.933594 61.265626 0 110.933594-49.667968 110.933594-110.933594-.070312-61.238281-49.695312-110.863281-110.933594-110.933593zm0 204.800781c-51.839843 0-93.867187-42.027344-93.867187-93.867188 0-51.839843 42.027344-93.867187 93.867187-93.867187 51.839844 0 93.867188 42.027344 93.867188 93.867187-.0625 51.816407-42.050781 93.804688-93.867188 93.867188zm0 0"/><path d="m42.667969 264.535156v51.199219c0 4.710937 3.820312 8.53125 8.53125 8.53125 4.714843 0 8.535156-3.820313 8.535156-8.53125v-51.199219c0-4.714844-3.820313-8.535156-8.535156-8.535156-4.710938 0-8.53125 3.820312-8.53125 8.535156zm0 0"/><path d="m432.640625 391.988281c-3.34375-3.269531-8.691406-3.238281-12 .066407l-8.257813 8.253906-13.808593-13.808594c-.050781-.058594-.128907-.066406-.1875-.128906 52.359375-58.851563 48.425781-148.667969-8.875-202.71875-57.300781-54.050782-147.191407-52.742188-202.890625 2.957031-55.699219 55.699219-57.011719 145.59375-2.960938 202.894531 54.050782 57.300782 143.867188 61.230469 202.71875 8.875.0625.058594.070313.136719.128906.1875l13.808594 13.808594-9.847656 9.847656c-1.613281 1.613282-2.511719 3.804688-2.5 6.085938.015625 2.28125.941406 4.460937 2.578125 6.054687l70.476563 68.890625c7.554687 7.53125 18.558593 10.460938 28.863281 7.683594 10.300781-2.777344 18.339843-10.84375 21.082031-21.15625 2.746094-10.308594-.21875-21.304688-7.773438-28.835938zm-142.507813 26.144531c-70.691406 0-128-57.308593-128-128 0-70.691406 57.308594-128 128-128 70.691407 0 128 57.308594 128 128-.078124 70.660157-57.339843 127.921876-128 128zm136.601563-8.046874 49.714844 48.640624-18.097657 18.097657-49.714843-48.597657zm64.453125 81.066406c-2.414062 2.410156-5.6875 3.757812-9.101562 3.746094-3.410157-.015626-6.671876-1.390626-9.066407-3.820313l-2.464843-2.398437 18.097656-18.101563 2.558594 2.476563c4.992187 4.996093 4.992187 13.09375 0 18.089843zm0 0"/><path d="m353.679688 256.894531c-2.023438-1.011719-4.367188-1.175781-6.515626-.460937-2.148437.71875-3.921874 2.257812-4.933593 4.285156l-25.378907 50.746094-18.722656-49.933594c-1.246094-3.339844-4.433594-5.554688-7.996094-5.554688s-6.75 2.214844-7.996093 5.554688l-18.722657 49.933594-25.335937-50.746094c-2.105469-4.21875-7.230469-5.929688-11.449219-3.824219-4.21875 2.109375-5.929687 7.234375-3.824218 11.453125l34.132812 68.265625c1.496094 3.058594 4.683594 4.917969 8.082031 4.710938 3.394531-.175781 6.359375-2.347657 7.550781-5.527344l17.5625-46.960937 17.605469 46.933593c1.191407 3.183594 4.15625 5.355469 7.550781 5.53125h.445313c3.25.015625 6.226563-1.8125 7.679687-4.71875l34.132813-68.269531c2.078125-4.21875.351563-9.328125-3.867187-11.417969zm0 0"/><path d="m17.066406 51.199219h128c9.425782 0 17.066406-7.640625 17.066406-17.066407v-17.066406c0-9.425781-7.640624-17.066406-17.066406-17.066406h-128c-9.425781 0-17.066406 7.640625-17.066406 17.066406v17.066406c0 9.425782 7.640625 17.066407 17.066406 17.066407zm0-34.132813h128v17.066406h-128zm0 0"/><path d="m238.933594 85.332031v17.066407c0 9.425781 7.640625 17.066406 17.066406 17.066406h128c9.425781 0 17.066406-7.640625 17.066406-17.066406v-17.066407c0-9.425781-7.640625-17.066406-17.066406-17.066406h-128c-9.425781 0-17.066406 7.640625-17.066406 17.066406zm145.066406 17.066407h-128v-17.066407h128zm0 0"/><path d="m196.265625 51.199219h68.269531c9.425782 0 17.066406-7.640625 17.066406-17.066407v-17.066406c0-9.425781-7.640624-17.066406-17.066406-17.066406h-68.269531c-9.425781 0-17.066406 7.640625-17.066406 17.066406v17.066406c0 9.425782 7.640625 17.066407 17.066406 17.066407zm0-34.132813h68.269531v17.066406h-68.269531zm0 0"/><path d="m136.535156 68.265625c-9.425781 0-17.070312 7.640625-17.070312 17.066406v17.066407c0 9.425781 7.644531 17.066406 17.070312 17.066406h68.265625c9.425781 0 17.066407-7.640625 17.066407-17.066406v-17.066407c0-9.425781-7.640626-17.066406-17.066407-17.066406zm0 34.132813v-17.066407h68.265625v17.066407zm0 0"/><path d="m17.066406 119.464844h25.601563v8.535156c0 4.710938 3.820312 8.535156 8.53125 8.535156 4.714843 0 8.535156-3.824218 8.535156-8.535156v-8.535156h25.597656c9.425781 0 17.066407-7.640625 17.066407-17.066406v-17.066407c0-9.425781-7.640626-17.066406-17.066407-17.066406h-68.265625c-9.425781 0-17.066406 7.640625-17.066406 17.066406v17.066407c0 9.425781 7.640625 17.066406 17.066406 17.066406zm0-34.132813h68.265625v17.066407h-68.265625zm0 0"/><path d="m315.734375 51.199219h34.132813c9.425781 0 17.066406-7.640625 17.066406-17.066407v-17.066406c0-9.425781-7.640625-17.066406-17.066406-17.066406h-34.132813c-9.425781 0-17.066406 7.640625-17.066406 17.066406v17.066406c0 9.425782 7.640625 17.066407 17.066406 17.066407zm0-34.132813h34.132813v17.066406h-34.132813zm0 0"/><path d="m494.933594 68.265625h-59.734375c-9.425781 0-17.066407 7.640625-17.066407 17.066406v17.066407c0 9.425781 7.640626 17.066406 17.066407 17.066406h59.734375c9.425781 0 17.066406-7.640625 17.066406-17.066406v-17.066407c0-9.425781-7.640625-17.066406-17.066406-17.066406zm-59.734375 34.132813v-17.066407h59.734375v17.066407zm0 0"/><path d="m494.933594 0h-93.867188c-9.425781 0-17.066406 7.640625-17.066406 17.066406v17.066406c0 9.425782 7.640625 17.066407 17.066406 17.066407h93.867188c9.425781 0 17.066406-7.640625 17.066406-17.066407v-17.066406c0-9.425781-7.640625-17.066406-17.066406-17.066406zm-93.867188 34.132812v-17.066406h93.867188v17.066406zm0 0"/><path d="m51.199219 153.601562c-4.710938 0-8.53125 3.820313-8.53125 8.53125v17.066407c0 4.714843 3.820312 8.535156 8.53125 8.535156 4.714843 0 8.535156-3.820313 8.535156-8.535156v-17.066407c0-4.710937-3.820313-8.53125-8.535156-8.53125zm0 0"/></svg>