<svg xmlns="http://www.w3.org/2000/svg" width="86.017" height="107.854" viewBox="0 0 86.017 107.854">
  <g id="kyc" transform="translate(-59.812 -10)">
    <path id="Path_1342" data-name="Path 1342" d="M361.378,156.36a1.315,1.315,0,0,0-1.315,1.315V160.6H344.637V145.174h15.427v.969a1.315,1.315,0,1,0,2.631,0v-2.284a1.315,1.315,0,0,0-1.315-1.315H343.321a1.315,1.315,0,0,0-1.315,1.315v18.057a1.315,1.315,0,0,0,1.315,1.315h18.057a1.315,1.315,0,0,0,1.315-1.315v-4.24a1.315,1.315,0,0,0-1.315-1.315Z" transform="translate(-220.332 -103.487)" fill="#2453b6"/>
    <path id="Path_1343" data-name="Path 1343" d="M391.672,165.117l-9.952,7.492-1.869-3.446a1.315,1.315,0,0,0-2.313,1.254l2.6,4.788a1.315,1.315,0,0,0,1.947.424l11.173-8.41a1.315,1.315,0,1,0-1.582-2.1Z" transform="translate(-247.951 -120.906)" fill="#2453b6"/>
    <path id="Path_1344" data-name="Path 1344" d="M138.125,23.623V20.106a10.106,10.106,0,1,0-20.212,0v3.517a10.106,10.106,0,1,0,20.212,0Zm-17.581,0V20.106a7.475,7.475,0,1,1,14.951,0v3.517a7.475,7.475,0,1,1-14.951,0Z" transform="translate(-45.364 0)" fill="#2453b6"/>
    <path id="Path_1345" data-name="Path 1345" d="M96.716,125.5c-.246-.025-2.953-.043-8.047-.053h0a1.315,1.315,0,0,0-1.14.661l-4.535,7.9L78.7,126.135a1.315,1.315,0,0,0-1.155-.686H70.261A10.449,10.449,0,0,0,59.812,135.9c0,.306.044,21.582.046,22.485a6.172,6.172,0,0,0,6.165,6.164h.07a6.033,6.033,0,0,0,3.585-1.236l1.21,40.947c0,.03,0,.06.005.09A4.031,4.031,0,0,0,74.92,208H91.139a4.028,4.028,0,0,0,4.026-3.658c0-.03,0-.059.005-.089L96.3,163.387a6.166,6.166,0,0,0,9.768-5.008v-21.5A10.449,10.449,0,0,0,96.716,125.5Zm6.725,11.184a1.279,1.279,0,0,0-.007.132v21.56a3.538,3.538,0,1,1-7.076.127l0-.148a1.315,1.315,0,0,0-1.315-1.293h-.011a1.315,1.315,0,0,0-1.3,1.315c0,.064,0,.129,0,.193l.025,1.56-1.213,43.992a1.408,1.408,0,0,1-1.4,1.241H74.92a1.409,1.409,0,0,1-1.4-1.239l-1.3-44.007-.029-1.892a1.315,1.315,0,0,0-1.315-1.3h-.01a1.315,1.315,0,0,0-1.305,1.315,3.614,3.614,0,0,1-3.479,3.669h-.055a3.539,3.539,0,0,1-3.534-3.535c0-.222-.046-22.179-.046-22.482a7.819,7.819,0,0,1,7.818-7.818h6.5l5.045,9.259a1.315,1.315,0,0,0,2.3.025l5.325-9.282c2.784.007,6.614.022,7.049.041A7.826,7.826,0,0,1,103.441,136.686Z" transform="translate(0 -90.141)" fill="#2453b6"/>
    <path id="Path_1346" data-name="Path 1346" d="M361.378,14.915a1.315,1.315,0,0,0,1.315-1.315V11.315A1.315,1.315,0,0,0,361.378,10H343.321a1.315,1.315,0,0,0-1.315,1.315V29.372a1.315,1.315,0,0,0,1.315,1.315h18.057a1.315,1.315,0,0,0,1.315-1.315v-4.24a1.315,1.315,0,1,0-2.631,0v2.925H344.637V12.631h15.427V13.6A1.315,1.315,0,0,0,361.378,14.915Z" transform="translate(-220.332 0)" fill="#2453b6"/>
    <path id="Path_1347" data-name="Path 1347" d="M391.672,32.571l-9.952,7.492-1.869-3.446a1.315,1.315,0,0,0-2.313,1.254l2.6,4.788a1.315,1.315,0,0,0,1.947.424l11.173-8.411a1.315,1.315,0,1,0-1.582-2.1Z" transform="translate(-247.951 -17.416)" fill="#2453b6"/>
    <path id="Path_1348" data-name="Path 1348" d="M361.378,275.086H343.321a1.315,1.315,0,0,0-1.315,1.315v18.057a1.315,1.315,0,0,0,1.315,1.315h18.057a1.315,1.315,0,0,0,1.315-1.315V276.4A1.315,1.315,0,0,0,361.378,275.086Zm-1.315,18.057H344.637V277.717h15.427Z" transform="translate(-220.332 -206.975)" fill="#2453b6"/>
    <path id="Path_1349" data-name="Path 1349" d="M361.378,407.629H343.321a1.315,1.315,0,0,0-1.315,1.315V427a1.315,1.315,0,0,0,1.315,1.315h18.057A1.315,1.315,0,0,0,362.694,427V408.944A1.315,1.315,0,0,0,361.378,407.629Zm-1.315,18.057H344.637V410.26h15.427Z" transform="translate(-220.332 -310.462)" fill="#2453b6"/>
  </g>
</svg>
