<?xml version="1.0" encoding="iso-8859-1"?>
<!-- Generator: Adobe Illustrator 19.0.0, SVG Export Plug-In . SVG Version: 6.00 Build 0)  -->
<svg xmlns="http://www.w3.org/2000/svg" xmlns:xlink="http://www.w3.org/1999/xlink" version="1.1" id="Capa_1" x="0px" y="0px" viewBox="0 0 512 512" style="enable-background:new 0 0 512 512;" xml:space="preserve" width="512px" height="512px">
<g>
	<g>
		<path d="M407.74,430.091c-0.13-0.639-0.32-1.271-0.57-1.87c-0.25-0.61-0.56-1.189-0.92-1.729c-0.37-0.551-0.79-1.061-1.25-1.521    c-0.46-0.46-0.97-0.88-1.52-1.24c-0.54-0.359-1.12-0.67-1.72-0.92c-0.61-0.25-1.24-0.45-1.87-0.569    c-3.25-0.66-6.7,0.409-9.03,2.729c-0.46,0.46-0.88,0.97-1.24,1.521c-0.36,0.54-0.67,1.119-0.92,1.729    c-0.25,0.6-0.44,1.23-0.57,1.87c-0.13,0.64-0.2,1.3-0.2,1.95c0,0.649,0.07,1.31,0.2,1.95c0.13,0.639,0.32,1.269,0.57,1.879    c0.25,0.6,0.56,1.18,0.92,1.72c0.36,0.55,0.78,1.06,1.24,1.52c1.86,1.86,4.44,2.931,7.07,2.931c0.65,0,1.31-0.061,1.96-0.19    c0.63-0.13,1.26-0.33,1.87-0.58c0.6-0.25,1.18-0.55,1.72-0.91c0.55-0.369,1.06-0.79,1.52-1.25c0.46-0.46,0.88-0.97,1.25-1.52    c0.36-0.54,0.67-1.12,0.92-1.72c0.25-0.61,0.44-1.24,0.57-1.88c0.13-0.641,0.19-1.301,0.19-1.95    C407.93,431.391,407.87,430.73,407.74,430.091z" fill="#2453b6"/>
	</g>
</g>
<g>
	<g>
		<path d="M359.931,422.041H114.068c-5.523,0-10,4.478-10,10c0,5.522,4.477,10,10,10h245.863c5.523,0,10-4.478,10-10    C369.931,426.519,365.454,422.041,359.931,422.041z" fill="#2453b6"/>
	</g>
</g>
<g>
	<g>
		<path d="M121.14,462.76c-0.46-0.46-0.97-0.88-1.52-1.24c-0.54-0.359-1.12-0.67-1.73-0.92c-0.6-0.25-1.23-0.45-1.87-0.58    c-1.29-0.25-2.62-0.25-3.91,0c-0.63,0.13-1.26,0.33-1.87,0.58c-0.6,0.25-1.18,0.561-1.72,0.92c-0.55,0.36-1.06,0.78-1.52,1.24    c-0.46,0.46-0.88,0.97-1.25,1.521c-0.36,0.539-0.67,1.119-0.92,1.729c-0.25,0.6-0.44,1.23-0.57,1.87    c-0.13,0.64-0.19,1.3-0.19,1.95c0,0.649,0.06,1.31,0.19,1.95s0.32,1.27,0.57,1.869c0.25,0.61,0.56,1.19,0.92,1.73    c0.37,0.55,0.79,1.06,1.25,1.52c0.46,0.46,0.97,0.881,1.52,1.24c0.54,0.36,1.12,0.67,1.72,0.92c0.61,0.25,1.24,0.45,1.87,0.57    c0.65,0.13,1.31,0.2,1.96,0.2c0.65,0,1.31-0.07,1.95-0.2c0.64-0.12,1.27-0.32,1.87-0.57c0.61-0.25,1.19-0.56,1.73-0.92    c0.55-0.359,1.06-0.78,1.52-1.24c0.46-0.46,0.88-0.97,1.24-1.52c0.36-0.54,0.67-1.12,0.92-1.73c0.25-0.6,0.44-1.229,0.57-1.869    c0.13-0.641,0.2-1.301,0.2-1.95C124.07,467.2,123,464.62,121.14,462.76z" fill="#2453b6"/>
	</g>
</g>
<g>
	<g>
		<path d="M397.932,459.83H152.069c-5.523,0-10,4.478-10,10c0,5.522,4.477,10,10,10h245.863c5.523,0,10-4.478,10-10    C407.932,464.308,403.455,459.83,397.932,459.83z" fill="#2453b6"/>
	</g>
</g>
<g>
	<g>
		<path d="M448.185,0H63.815c-5.523,0-10,4.478-10,10v492c0,5.522,4.477,10,10,10h384.369c5.523,0,10-4.478,10-10V10    c0.001,0,0.001,0,0.001,0C458.185,4.478,453.708,0,448.185,0z M73.815,20h364.369v178.673h-28.911L319.996,79.635    c-1.889-2.518-4.853-4-8-4c-3.147,0-6.111,1.482-8,4l-63.258,84.345l-46.246-53.551c-1.899-2.199-4.662-3.464-7.568-3.464    s-5.669,1.265-7.568,3.464l-76.205,88.243H73.815V20z M307.063,153.702h-33.616l7.067-9.424h62.964l40.795,54.395H239.719    l18.728-24.971h48.616c5.523,0,10-4.478,10-10C317.063,158.18,312.586,153.702,307.063,153.702z M295.514,124.278l16.482-21.977    l16.482,21.977H295.514z M228.455,180.357l-13.47,17.961l-0.266,0.355h-85.143l57.348-66.407L228.455,180.357z M73.815,218.676    h364.369v128.673H73.815V218.676z M73.815,367.349h364.369v21H73.815V367.349z M73.815,492v-83.651h364.369V492H73.815z" fill="#2453b6"/>
	</g>
</g>
<g>
	<g>
		<path d="M230.586,32.559c-19.527,0-35.413,15.887-35.413,35.413s15.887,35.413,35.413,35.413    c19.527,0,35.414-15.887,35.414-35.413S250.114,32.559,230.586,32.559z M230.586,83.385c-8.499,0-15.413-6.914-15.413-15.413    c0-8.499,6.914-15.413,15.413-15.413c8.499,0,15.414,6.914,15.414,15.413C246,76.471,239.085,83.385,230.586,83.385z" fill="#2453b6"/>
	</g>
</g>
<g>
	<g>
		<path d="M177.505,237.521h-67.154c-5.523,0-10,4.478-10,10v68.333c0,5.522,4.477,10,10,10h67.154c5.523,0,10-4.478,10-10v-68.333    C187.505,241.998,183.028,237.521,177.505,237.521z M167.505,305.854h-47.154v-48.333h47.154V305.854z" fill="#2453b6"/>
	</g>
</g>
<g>
	<g>
		<path d="M289.577,237.521h-67.153c-5.523,0-10,4.478-10,10v68.333c0,5.522,4.477,10,10,10h67.153c5.523,0,10-4.478,10-10v-68.333    C299.577,241.998,295.1,237.521,289.577,237.521z M279.577,305.854h-47.153v-48.333h47.153V305.854z" fill="#2453b6"/>
	</g>
</g>
<g>
	<g>
		<path d="M401.649,237.521h-67.154c-5.523,0-10,4.478-10,10v68.333c0,5.522,4.477,10,10,10h67.154c5.523,0,10-4.478,10-10v-68.333    C411.649,241.999,407.172,237.521,401.649,237.521z M391.649,305.854h-47.154v-48.333h47.154V305.854z" fill="#2453b6"/>
	</g>
</g>
<g>
</g>
<g>
</g>
<g>
</g>
<g>
</g>
<g>
</g>
<g>
</g>
<g>
</g>
<g>
</g>
<g>
</g>
<g>
</g>
<g>
</g>
<g>
</g>
<g>
</g>
<g>
</g>
<g>
</g>
</svg>
