<?xml version="1.0"?>
<svg xmlns="http://www.w3.org/2000/svg" height="512px" viewBox="0 0 64 64" width="512px"><g><path d="m61 16h-58a1 1 0 0 0 -1 1v14a1 1 0 0 0 1 1h58a1 1 0 0 0 1-1v-14a1 1 0 0 0 -1-1zm-57 2h41v12h-41zm56 12h-13v-12h13z" data-original="#000000" className="active-path" data-old_color="#000000" fill="#2453b6"/><path d="m53 26.5a2.951 2.951 0 0 0 1.285-.3l1.508 1.508 1.414-1.414-1.507-1.509a2.951 2.951 0 0 0 .3-1.285 3 3 0 1 0 -3 3zm0-4a1 1 0 1 1 -1 1 1 1 0 0 1 1-1z" data-original="#000000" className="active-path" data-old_color="#000000" fill="#2453b6"/><path d="m6 34v18a4 4 0 0 0 4 4h27v-2h-27a2 2 0 0 1 -2-2v-18z" data-original="#000000" className="active-path" data-old_color="#000000" fill="#2453b6"/><path d="m56 34h2v3h-2z" data-original="#000000" className="active-path" data-old_color="#000000" fill="#2453b6"/><path d="m58 14v-8a4 4 0 0 0 -4-4h-44a4 4 0 0 0 -4 4v8h2v-2h48v2zm-50-4v-4a2 2 0 0 1 2-2h44a2 2 0 0 1 2 2v4z" data-original="#000000" className="active-path" data-old_color="#000000" fill="#2453b6"/><path d="m10 6h2v2h-2z" data-original="#000000" className="active-path" data-old_color="#000000" fill="#2453b6"/><path d="m14 6h2v2h-2z" data-original="#000000" className="active-path" data-old_color="#000000" fill="#2453b6"/><path d="m18 6h2v2h-2z" data-original="#000000" className="active-path" data-old_color="#000000" fill="#2453b6"/><path d="m6 26h2v2h-2z" data-original="#000000" className="active-path" data-old_color="#000000" fill="#2453b6"/><path d="m10 26h33v2h-33z" data-original="#000000" className="active-path" data-old_color="#000000" fill="#2453b6"/><path d="m61.242 46.375-2.215-.554a10.46 10.46 0 0 0 -.69-1.662l1.176-1.959a1 1 0 0 0 -.15-1.221l-2.341-2.341a1 1 0 0 0 -1.221-.151l-1.96 1.176c-.236-.123-.478-.237-.723-.342q-.459-.2-.937-.347l-.554-2.215a1 1 0 0 0 -.97-.758h-3.31a1 1 0 0 0 -.97.758l-.554 2.215a10.383 10.383 0 0 0 -1.662.69l-1.961-1.177a1 1 0 0 0 -1.221.151l-2.341 2.341a1 1 0 0 0 -.15 1.221l1.176 1.959a10.46 10.46 0 0 0 -.69 1.662l-2.215.554a1 1 0 0 0 -.758.97v3.31a1 1 0 0 0 .758.97l2.215.554a10.383 10.383 0 0 0 .69 1.662l-1.177 1.959a1 1 0 0 0 .15 1.221l2.341 2.341a1 1 0 0 0 1.221.151l1.96-1.176a10.383 10.383 0 0 0 1.662.69l.554 2.215a1 1 0 0 0 .97.758h3.31a1 1 0 0 0 .97-.758l.554-2.215a10.383 10.383 0 0 0 1.662-.69l1.96 1.176a1 1 0 0 0 1.221-.151l2.341-2.341a1 1 0 0 0 .15-1.221l-1.176-1.959a10.383 10.383 0 0 0 .69-1.662l2.215-.554a1 1 0 0 0 .758-.97v-3.31a1 1 0 0 0 -.758-.97zm-1.242 3.499-2.018.5a1 1 0 0 0 -.727.724 8.447 8.447 0 0 1 -.931 2.245 1 1 0 0 0 0 1.026l1.076 1.79-1.24 1.241-1.786-1.071a1 1 0 0 0 -1.025 0 8.486 8.486 0 0 1 -2.246.933 1 1 0 0 0 -.724.726l-.504 2.012h-1.75l-.5-2.018a1 1 0 0 0 -.724-.726 8.486 8.486 0 0 1 -2.246-.933 1 1 0 0 0 -1.025 0l-1.79 1.077-1.24-1.241 1.071-1.785a1 1 0 0 0 0-1.026 8.447 8.447 0 0 1 -.931-2.245 1 1 0 0 0 -.727-.724l-2.013-.505v-1.748l2.018-.5a1 1 0 0 0 .727-.724 8.425 8.425 0 0 1 .932-2.245 1 1 0 0 0 0-1.026l-1.077-1.79 1.24-1.241 1.786 1.071a1 1 0 0 0 1.025 0 8.486 8.486 0 0 1 2.246-.933 1 1 0 0 0 .724-.726l.5-2.018h1.75l.5 2.018a1 1 0 0 0 .725.727 8.369 8.369 0 0 1 2.244.932 1 1 0 0 0 1.026 0l1.794-1.071 1.24 1.241-1.071 1.785a1 1 0 0 0 0 1.026 8.425 8.425 0 0 1 .932 2.245 1 1 0 0 0 .727.724l2.018.5z" data-original="#000000" className="active-path" data-old_color="#000000" fill="#2453b6"/><path d="m49 43a6 6 0 1 0 6 6 6.006 6.006 0 0 0 -6-6zm0 10a4 4 0 1 1 4-4 4 4 0 0 1 -4 4z" data-original="#000000" className="active-path" data-old_color="#000000" fill="#2453b6"/><path d="m11 37h10v2h-10z" data-original="#000000" className="active-path" data-old_color="#000000" fill="#2453b6"/><path d="m11 41h14v2h-14z" data-original="#000000" className="active-path" data-old_color="#000000" fill="#2453b6"/><path d="m11 45h12v2h-12z" data-original="#000000" className="active-path" data-old_color="#000000" fill="#2453b6"/><path d="m11 49h17v2h-17z" data-original="#000000" className="active-path" data-old_color="#000000" fill="#2453b6"/><path d="m23 37h8v2h-8z" data-original="#000000" className="active-path" data-old_color="#000000" fill="#2453b6"/><path d="m33 37h2v2h-2z" data-original="#000000" className="active-path" data-old_color="#000000" fill="#2453b6"/><path d="m27 41h2v2h-2z" data-original="#000000" className="active-path" data-old_color="#000000" fill="#2453b6"/><path d="m30 49h2v2h-2z" data-original="#000000" className="active-path" data-old_color="#000000" fill="#2453b6"/><path d="m9 58h22v2h-22z" data-original="#000000" className="active-path" data-old_color="#000000" fill="#2453b6"/></g> </svg>
