<svg xmlns="http://www.w3.org/2000/svg" width="72.947" height="112.025" viewBox="0 0 72.947 112.025">
  <g id="lightning-speed" transform="translate(-273.033 -151.44)">
    <path id="Path_1350" data-name="Path 1350" d="M339.552,157.868h0m0,0L307.635,203.18l29.154.029L288.6,257.038l20.072-38.631H279.461l24.169-60.513,35.922-.027m0-6.428h0l-35.921.027a6.428,6.428,0,0,0-5.965,4.044l-24.169,60.513a6.428,6.428,0,0,0,5.969,8.812h18.623l-15.193,29.239a6.428,6.428,0,0,0,10.493,7.251L341.578,207.5a6.428,6.428,0,0,0-4.783-10.716l-16.778-.016,24.737-35.119a6.428,6.428,0,0,0-5.183-10.206h-.018Z" fill="#2453b6"/>
  </g>
</svg>
