<?xml version="1.0"?>
<svg xmlns="http://www.w3.org/2000/svg" xmlns:xlink="http://www.w3.org/1999/xlink" xmlns:svgjs="http://svgjs.com/svgjs" version="1.1" width="512" height="512" x="0" y="0" viewBox="0 0 511.989 511.989" style="enable-background:new 0 0 512 512" xml:space="preserve" className=""><g><g xmlns="http://www.w3.org/2000/svg"><path d="m63.731 251.526c-17.878 0-32.423 14.545-32.423 32.424s14.545 32.424 32.423 32.424 32.424-14.545 32.424-32.424-14.545-32.424-32.424-32.424zm0 49.847c-9.607 0-17.423-7.816-17.423-17.424s7.816-17.424 17.423-17.424 17.424 7.816 17.424 17.424-7.816 17.424-17.424 17.424z" fill="#2453b6" data-original="#000000" style=""/><path d="m333.229 494.288h-176.87c-12.785 0-24.919-4.328-34.714-12.283 1.846-4.262 2.874-8.957 2.874-13.89v-219.6c0-.041-.003-.081-.003-.121 0-.004.001-.006.001-.011-.177-9.84 1.749-19.365 5.726-28.311 5.781-13.017 15.298-23.687 27.52-30.855 16.175-9.485 30.17-23.051 40.473-39.232 2.225-3.494 1.195-8.13-2.298-10.354-3.496-2.226-8.13-1.195-10.355 2.298-9.031 14.183-21.274 26.061-35.408 34.349-14.945 8.765-26.577 21.803-33.639 37.703-1.28 2.879-2.383 5.807-3.315 8.778-6.255-5.777-14.606-9.316-23.772-9.316h-54.378c-19.338 0-35.071 15.733-35.071 35.072v219.6c0 19.339 15.733 35.072 35.071 35.072h54.377c8.999 0 17.215-3.41 23.43-9.002 12.34 9.78 27.507 15.103 43.481 15.103h176.87c4.142 0 7.5-3.358 7.5-7.5s-3.357-7.5-7.5-7.5zm-243.78-6.102h-54.378c-11.067 0-20.071-9.004-20.071-20.072v-219.6c0-11.067 9.004-20.072 20.071-20.072h54.377c11.067 0 20.071 9.004 20.071 20.072v219.6c.001 11.068-9.003 20.072-20.07 20.072z" fill="#2453b6" data-original="#000000" style=""/><path d="m389.926 286.571c8.395-7.806 13.653-18.941 13.653-31.282 0-11.425-4.447-22.156-12.512-30.209-8.049-8.061-18.773-12.501-30.198-12.501h-87.804l33.842-72.091c6.152-13.096 6.834-27.803 1.921-41.413-4.911-13.608-14.828-24.488-27.921-30.636-7.265-3.411-15-5.141-22.988-5.141-20.911 0-40.167 12.227-49.059 31.153l-10.14 21.6c-1.76 3.75-.147 8.216 3.602 9.976s8.216.148 9.976-3.602l10.139-21.598c6.43-13.686 20.358-22.529 35.482-22.529 5.768 0 11.357 1.251 16.612 3.719 9.466 4.445 16.636 12.312 20.188 22.15 3.552 9.84 3.059 20.474-1.39 29.944l-38.62 82.27c-1.069 2.278-.925 4.941.384 7.09.167.273.254.405.372.582l.08.121c1.384 2.124 3.748 3.405 6.283 3.405h99.04c7.414 0 14.368 2.876 19.591 8.107 5.236 5.228 8.119 12.189 8.119 19.603 0 15.285-12.431 27.72-27.71 27.72-4.142 0-7.5 3.358-7.5 7.5s3.358 7.5 7.5 7.5h11.85c7.671 0 15.176 3.169 20.591 8.693 5.242 5.35 8.048 12.301 7.901 19.577-.298 14.976-12.72 27.159-27.692 27.159h-12.65c-4.142 0-7.5 3.358-7.5 7.5s3.358 7.5 7.5 7.5c7.414 0 14.368 2.876 19.591 8.108 5.235 5.227 8.119 12.185 8.119 19.592 0 15.285-12.431 27.72-27.71 27.72h-12.64c-4.142 0-7.5 3.358-7.5 7.5s3.358 7.5 7.5 7.5c7.405 0 14.365 2.881 19.596 8.113 2.664 2.664 4.723 5.774 6.124 9.247.022.061.045.121.068.181 1.269 3.231 1.912 6.652 1.912 10.169 0 10.811-6.346 20.708-16.167 25.213-3.765 1.727-5.417 6.179-3.689 9.944 1.262 2.752 3.98 4.375 6.822 4.375 1.046 0 2.109-.22 3.123-.685 15.134-6.943 24.913-22.191 24.913-38.847 0-5.318-.962-10.506-2.86-15.423-.03-.085-.062-.169-.095-.253-2.16-5.468-5.371-10.356-9.542-14.528-.301-.301-.605-.596-.913-.887 15.302-6.504 26.06-21.689 26.06-39.34 0-11.418-4.447-22.146-12.512-30.199-.308-.308-.621-.612-.936-.91 15.003-6.426 25.735-21.242 26.077-38.449.229-11.337-4.098-22.125-12.185-30.377-4.044-4.124-8.858-7.384-14.098-9.631z" fill="#2453b6" data-original="#000000" style=""/><path d="m511.953 183.345c-.039-6.72-2.894-13.188-7.832-17.745s-11.617-6.884-18.314-6.386l-27.157 2.021c-12.709.946-22.607 11.669-22.533 24.414l.015 2.51c.074 12.744 10.095 23.352 22.814 24.151l27.179 1.707c.504.031 1.007.047 1.509.047 6.186 0 12.212-2.378 16.73-6.646 4.885-4.614 7.664-11.115 7.625-17.833zm-17.89 13.167c-1.901 1.797-4.393 2.696-6.999 2.532l-27.178-1.707c-4.881-.306-8.726-4.377-8.754-9.268l-.015-2.51c-.028-4.89 3.77-9.005 8.646-9.368l27.157-2.021c.24-.018.478-.027.715-.027 2.347 0 4.566.866 6.312 2.478 1.923 1.775 2.99 4.193 3.005 6.809l.036 6.238c.016 2.617-1.023 5.048-2.925 6.844z" fill="#2453b6" data-original="#000000" style=""/><path d="m467.995 123.779c6.019-2.989 10.574-8.395 12.497-14.834s1.08-13.458-2.313-19.257l-3.15-5.384c-3.393-5.8-9.099-9.974-15.654-11.452-6.557-1.479-13.5-.156-19.055 3.626l-22.508 15.328c-10.534 7.174-13.744 21.409-7.307 32.41l1.268 2.167c4.494 7.679 12.664 12.033 21.072 12.032 3.635 0 7.315-.814 10.76-2.525zm-43.276-4.972s0-.001-.001-.001l-1.267-2.165c-2.47-4.221-1.238-9.684 2.804-12.437l22.508-15.328c1.574-1.072 3.378-1.626 5.228-1.626.691 0 1.39.078 2.084.234 2.552.575 4.686 2.136 6.007 4.394l3.15 5.384c1.321 2.258 1.636 4.882.888 7.389-.749 2.507-2.452 4.529-4.795 5.692l-24.391 12.111c-4.378 2.175-9.746.574-12.215-3.647z" fill="#2453b6" data-original="#000000" style=""/><path d="m368.587 72.712 2.182 1.242c3.769 2.147 7.899 3.173 11.988 3.173 7.922 0 15.684-3.852 20.335-10.854l15.067-22.684c3.718-5.597 4.959-12.557 3.405-19.095s-5.793-12.195-11.632-15.521l-5.419-3.088c-5.839-3.326-12.868-4.089-19.283-2.091-6.416 1.998-11.77 6.615-14.688 12.667l-11.828 24.528c-5.539 11.481-1.201 25.415 9.873 31.723zm3.635-25.206 11.828-24.528c1.137-2.357 3.138-4.083 5.636-4.861.923-.287 1.863-.43 2.797-.43 1.594 0 3.169.415 4.603 1.232l5.419 3.088c2.273 1.295 3.859 3.41 4.464 5.956s.141 5.147-1.307 7.327l-15.067 22.684c-2.705 4.074-8.152 5.368-12.403 2.948l-2.181-1.242c-4.248-2.422-5.913-7.769-3.789-12.174z" fill="#2453b6" data-original="#000000" style=""/></g></g></svg>
