<?xml version="1.0"?>
<svg xmlns="http://www.w3.org/2000/svg" xmlns:xlink="http://www.w3.org/1999/xlink" version="1.1" id="Capa_1" x="0px" y="0px" viewBox="0 0 511.496 511.496" style="enable-background:new 0 0 511.496 511.496;" xml:space="preserve" width="512px" height="512px"><g><g>
	<g>
		<g>
			<path d="M419.055,102.891l23.36-21.872c-7.775-8.306-16.092-16.089-24.896-23.296l-20.256,24.768     C404.971,88.8,412.252,95.615,419.055,102.891z" data-original="#000000" className="active-path" data-old_color="#000000" fill="#FFFFFF"/>
			<path d="M453.615,151.355l28.288-14.96c-5.317-10.048-11.293-19.733-17.888-28.992l-26.064,18.576     C443.731,134.08,448.964,142.557,453.615,151.355z" data-original="#000000" className="active-path" data-old_color="#000000" fill="#FFFFFF"/>
			<path d="M495.791,167.563l-30.032,11.04c42.696,116.111-16.819,244.849-132.93,287.544     c-116.111,42.696-244.849-16.819-287.544-132.93S62.104,88.369,178.214,45.674c64.469-23.706,136.251-16.523,194.744,19.49     l16.816-27.2C269.496-36.048,111.992,1.46,37.981,121.739S1.477,399.521,121.756,473.533     c120.279,74.011,277.783,36.504,351.794-83.775C514.62,323.013,522.816,241.123,495.791,167.563z" data-original="#000000" className="active-path" data-old_color="#000000" fill="#FFFFFF"/>
			<polygon points="367.455,383.899 367.455,351.899 210.975,351.899 224.927,282.155 293.407,254.763 281.503,225.035      232.415,244.683 255.135,131.035 223.775,124.763 196.943,258.859 121.503,289.035 133.407,318.763 189.455,296.331      171.935,383.899    " data-original="#000000" className="active-path" data-old_color="#000000" fill="#FFFFFF"/>
		</g>
	</g>
</g></g> </svg>
