<?xml version="1.0"?>
<svg xmlns="http://www.w3.org/2000/svg" xmlns:xlink="http://www.w3.org/1999/xlink" version="1.1" id="Capa_1" x="0px" y="0px" viewBox="0 0 480 480" style="enable-background:new 0 0 480 480;" xml:space="preserve" width="512px" height="512px"><g><g>
	<g>
		<path d="M472,0h-64c-3.234,0-6.156,1.945-7.391,4.938c-1.242,2.992-0.555,6.43,1.734,8.719L412.688,24L312.332,124.356    c-21.706-13.599-46.546-20.833-72.332-20.833c-41.438,0-80.482,18.876-106.279,50.885l-40.064-40.064    c-3.125-3.125-8.188-3.125-11.313,0l-80,80C0.844,195.844,0,197.875,0,200v64c0,3.234,1.945,6.156,4.938,7.391    C5.93,271.805,6.969,272,8,272c2.078,0,4.125-0.813,5.656-2.344L88,195.313l18.293,18.293c-1.716,8.548-2.77,17.358-2.77,26.394    c0,3.688,0.175,7.368,0.479,10.952c0,0.003-0.002,0.006-0.002,0.009V472c0,4.422,3.578,8,8,8h64c4.422,0,8-3.578,8-8V364.413    c5.284,2.385,10.626,4.401,16,6.02V472c0,4.422,3.578,8,8,8h64c4.422,0,8-3.578,8-8V370.427c5.392-1.624,10.73-3.64,16-6.019V472    c0,4.422,3.578,8,8,8h64c4.422,0,8-3.578,8-8V250.961v-0.007c0.302-3.609,0.477-7.28,0.477-10.954s-0.175-7.344-0.477-10.954    v-0.007c0-0.219-0.008-0.43-0.023-0.648c-1.086-13.305-4.148-26.352-9.102-38.773c-3.038-7.657-6.96-14.906-11.32-21.86    L456,67.313l10.344,10.344c2.297,2.289,5.734,2.984,8.719,1.734C478.055,78.156,480,75.234,480,72V8C480,3.578,476.422,0,472,0z     M116.169,182.718c-1.625,3.507-3.057,7.084-4.367,10.707c-0.266,0.737-0.635,1.435-0.888,2.176l-17.258-17.258    c-3.125-3.125-8.188-3.125-11.313,0L16,244.688v-41.375l72-72l36.281,36.289c-0.472,0.752-0.82,1.559-1.276,2.318    c-1.649,2.744-3.167,5.541-4.609,8.375C117.646,179.767,116.862,181.222,116.169,182.718z M168,464h-48v-16h48V464z M168,432h-48    v-16h48V432z M168,400h-48v-16h48V400z M168,368h-48v-16h42.066c0.138,0.096,0.281,0.185,0.419,0.28    c1.355,0.938,2.722,1.861,4.116,2.753c0.474,0.303,0.921,0.638,1.399,0.936V368z M120,336v-30.961    c0.112,0.207,0.243,0.403,0.356,0.61c0.836,1.522,1.736,3.007,2.629,4.496c0.56,0.934,1.089,1.886,1.672,2.807    c1.179,1.863,2.431,3.678,3.699,5.483c0.356,0.506,0.68,1.033,1.042,1.534c1.646,2.275,3.367,4.499,5.153,6.672    c0.613,0.747,1.275,1.455,1.905,2.188c1.216,1.417,2.429,2.837,3.705,4.207c0.785,0.842,1.615,1.644,2.422,2.468    c0.163,0.166,0.324,0.333,0.488,0.498H120z M264,464h-48v-16h48V464z M264,432h-48v-16h48V432z M264,400h-48v-25.633    c0.579,0.104,1.182,0.137,1.764,0.233c2.835,0.471,5.698,0.85,8.589,1.137c0.883,0.087,1.756,0.18,2.643,0.25    c3.638,0.29,7.3,0.488,11.004,0.488c3.711,0,7.378-0.199,11.02-0.489c0.869-0.069,1.725-0.16,2.59-0.245    c2.94-0.291,5.844-0.675,8.717-1.154c0.552-0.091,1.125-0.123,1.673-0.222V400z M360,464h-48v-16h48V464z M360,432h-48v-16h48V432    z M360,400h-48v-16h48V400z M360,368h-48v-12.031c0.512-0.319,0.992-0.677,1.499-1.002c1.322-0.847,2.618-1.724,3.905-2.612    c0.175-0.12,0.356-0.233,0.53-0.354H360V368z M360,336h-23.083c1.033-1.043,2.082-2.071,3.08-3.146    c0.638-0.688,1.236-1.41,1.859-2.111c7.013-7.871,13.135-16.471,18.144-25.704V336z M360,229.375v21.136    c-0.414,4.828-1.105,9.599-2.085,14.283c-4.976,23.773-17.076,45.424-34.518,62.162c-3.346,3.21-6.912,6.215-10.639,9.044H312    v0.585c-3.812,2.846-7.799,5.499-11.977,7.907c-9.688,5.547-19.766,9.633-30.078,12.172c-14.285,3.797-30.117,4.746-45.176,2.848    c-2.522-0.319-5.028-0.719-7.507-1.199c-2.438-0.472-4.844-1.021-7.208-1.649c-0.001,0-0.003,0-0.004,0    c-0.045-0.012-0.091-0.02-0.136-0.031c-10.172-2.508-20.25-6.594-29.922-12.125c-4.183-2.412-8.175-5.069-11.992-7.919V336h-0.759    c-27.039-20.529-44.412-51.596-47.272-85.75c-0.297-3.367-0.445-6.805-0.445-10.25c0-9.391,1.055-18.555,3.156-27.344    c3.383-14.852,9.586-28.82,18.445-41.516c22.523-32.32,59.484-51.617,98.875-51.617c24.758,0,48.57,7.469,68.859,21.602    c2.932,2.047,5.762,4.213,8.486,6.495s5.342,4.678,7.85,7.186c5.015,5.015,9.586,10.471,13.68,16.334    c0.001,0.002,0.005,0.003,0.006,0.006c0,0.001,0.001,0.001,0.001,0.002c5.289,7.555,9.703,15.758,13.125,24.375    C356.336,206.383,359.023,217.773,360,229.375z M464,52.688l-2.344-2.344c-3.125-3.125-8.188-3.125-11.313,0L346.297,154.391    c-0.232-0.288-0.505-0.537-0.739-0.823c-5.728-6.993-12.111-13.378-19.105-19.107c-0.293-0.24-0.548-0.52-0.843-0.757    L429.656,29.656c3.125-3.125,3.125-8.188,0-11.313L427.313,16H464V52.688z" data-original="#000000" className="active-path" data-old_color="#000000" fill="#2453B6"/>
	</g>
</g><g>
	<g>
		<path d="M83.063,224.609c-2.992-1.25-6.43-0.555-8.719,1.734l-64,64C8.844,291.844,8,293.875,8,296v176c0,4.422,3.578,8,8,8h64    c4.422,0,8-3.578,8-8V232C88,228.766,86.055,225.844,83.063,224.609z M72,464H24v-16h48V464z M72,432H24v-16h48V432z M72,400H24    v-16h48V400z M72,368H24v-16h48V368z M72,336H24v-16h48V336z M72,304H24v-4.688L35.313,288H72V304z M72,272H51.313L72,251.313V272    z" data-original="#000000" className="active-path" data-old_color="#000000" fill="#2453B6"/>
	</g>
</g><g>
	<g>
		<path d="M467.063,80.609c-3-1.242-6.43-0.555-8.719,1.734l-64,64c-1.5,1.5-2.344,3.531-2.344,5.656v320c0,4.422,3.578,8,8,8h64    c4.422,0,8-3.578,8-8V88C472,84.766,470.055,81.844,467.063,80.609z M456,464h-48v-16h48V464z M456,432h-48v-16h48V432z M456,400    h-48v-16h48V400z M456,368h-48v-16h48V368z M456,336h-48v-16h48V336z M456,304h-48v-16h48V304z M456,272h-48v-16h48V272z M456,240    h-48v-16h48V240z M456,208h-48v-16h48V208z M456,176h-48v-16h48V176z M456,144h-36.688L456,107.313V144z" data-original="#000000" className="active-path" data-old_color="#000000" fill="#2453B6"/>
	</g>
</g><g>
	<g>
		<path d="M240,232c-13.234,0-24-10.766-24-24s10.766-24,24-24s24,10.766,24,24h16c0-19.315-13.766-35.474-32-39.191V152h-16v16.809    c-18.234,3.717-32,19.876-32,39.191c0,22.055,17.945,40,40,40c13.234,0,24,10.766,24,24s-10.766,24-24,24s-24-10.766-24-24h-16    c0,19.315,13.766,35.474,32,39.191V328h16v-16.809c18.234-3.717,32-19.876,32-39.191C280,249.945,262.055,232,240,232z" data-original="#000000" className="active-path" data-old_color="#000000" fill="#2453B6"/>
	</g>
</g><g>
	<g>
		<rect x="152" y="232" width="16" height="16" data-original="#000000" className="active-path" data-old_color="#000000" fill="#2453B6"/>
	</g>
</g><g>
	<g>
		<rect x="312" y="232" width="16" height="16" data-original="#000000" className="active-path" data-old_color="#000000" fill="#2453B6"/>
	</g>
</g><g>
	<g>
		<polygon points="320,16 320,0 304,0 304,16 288,16 288,32 304,32 304,48 320,48 320,32 336,32 336,16   " data-original="#000000" className="active-path" data-old_color="#000000" fill="#2453B6"/>
	</g>
</g><g>
	<g>
		<polygon points="176,64 176,48 160,48 160,64 144,64 144,80 160,80 160,96 176,96 176,80 192,80 192,64   " data-original="#000000" className="active-path" data-old_color="#000000" fill="#2453B6"/>
	</g>
</g><g>
	<g>
		<polygon points="32,16 32,0 16,0 16,16 0,16 0,32 16,32 16,48 32,48 32,32 48,32 48,16   " data-original="#000000" className="active-path" data-old_color="#000000" fill="#2453B6"/>
	</g>
</g><g>
	<g>
		<path d="M196.664,145.164c-22.938,10.508-41.313,28.859-51.734,51.672l14.547,6.656c8.836-19.32,24.406-34.867,43.859-43.781    L196.664,145.164z" data-original="#000000" className="active-path" data-old_color="#000000" fill="#2453B6"/>
	</g>
</g><g>
	<g>
		<path d="M320.547,276.844c-1.68,3.664-3.617,7.25-5.734,10.625c-7.734,12.164-18.375,22.352-30.742,29.453    c-2.438,1.398-4.906,2.664-7.406,3.805l6.672,14.547c2.922-1.344,5.828-2.828,8.695-4.469    c14.617-8.398,27.156-20.414,36.305-34.789c2.516-4.008,4.789-8.219,6.758-12.516L320.547,276.844z" data-original="#000000" className="active-path" data-old_color="#000000" fill="#2453B6"/>
	</g>
</g></g> </svg>
