<svg height="500pt" viewBox="-31 0 500 500" width="500pt" xmlns="http://www.w3.org/2000/svg"><path d="m187.300781 493.75c-6.902343 0-12.5-5.597656-12.5-12.503906v-12.492188h87.5l.003907 12.492188c0 6.90625-5.597657 12.503906-12.503907 12.503906zm0 0" fill="#59c3f0"/><path d="m262.304688 468.753906h-18.75v12.496094c0 6.902344-5.597657 12.503906-12.5 12.503906h18.75c6.902343 0 12.5-5.601562 12.5-12.503906zm0 0" fill="#21a0d6"/><path d="m174.804688 468.753906h18.75l-.003907 12.496094c0 6.902344 5.597657 12.503906 12.503907 12.503906h-18.75c-6.90625 0-12.503907-5.601562-12.503907-12.503906zm0 0" fill="#96dcfa"/><path d="m206.050781 43.753906c0 6.902344 5.597657 12.5 12.503907 12.5 6.902343 0 12.5-5.597656 12.5-12.5v-25c0-6.90625-5.59375-12.503906-12.5-12.503906s-12.503907 5.597656-12.503907 12.503906zm0 0" fill="#59c3f0"/><path d="m120.324219 73.421875c3.453125 5.980469 11.097656 8.027344 17.074219 4.574219 5.980468-3.449219 8.03125-11.097656 4.578124-17.074219l-12.5-21.652344c-3.453124-5.980469-11.097656-8.027343-17.078124-4.574219-5.980469 3.449219-8.027344 11.097657-4.578126 17.074219zm0 0" fill="#59c3f0"/><path d="m60.917969 141.980469c5.980469 3.453125 13.625 1.40625 17.078125-4.574219s1.402344-13.625-4.574219-17.078125l-21.652344-12.5c-5.980469-3.453125-13.625-1.402344-17.074219 4.574219-3.453124 5.980468-1.40625 13.625 4.574219 17.078125zm0 0" fill="#59c3f0"/><path d="m43.75 231.058594c6.902344 0 12.503906-5.597656 12.503906-12.503906 0-6.902344-5.601562-12.5-12.503906-12.5h-25c-6.902344 0-12.503906 5.597656-12.503906 12.5 0 6.90625 5.601562 12.503906 12.503906 12.503906zm0 0" fill="#59c3f0"/><path d="m73.421875 316.785156c5.976563-3.453125 8.027344-11.097656 4.574219-17.078125s-11.097656-8.027343-17.078125-4.574219l-21.652344 12.5c-5.980469 3.453126-8.027344 11.097657-4.574219 17.074219 3.449219 5.980469 11.097656 8.027344 17.078125 4.578125zm0 0" fill="#59c3f0"/><path d="m376.191406 295.128906c-5.980468-3.449218-13.628906-1.402344-17.078125 4.578125-3.453125 5.980469-1.402343 13.621094 4.578125 17.074219l21.648438 12.5c5.980468 3.453125 13.625 1.40625 17.074218-4.574219 3.453126-5.980469 1.40625-13.628906-4.574218-17.078125zm0 0" fill="#59c3f0"/><path d="m393.359375 206.050781c-6.90625 0-12.503906 5.597657-12.503906 12.503907 0 6.902343 5.597656 12.5 12.503906 12.5h25c6.902344 0 12.5-5.597657 12.5-12.5 0-6.90625-5.59375-12.503907-12.5-12.503907zm0 0" fill="#59c3f0"/><path d="m363.6875 120.324219c-5.980469 3.453125-8.03125 11.101562-4.578125 17.078125 3.453125 5.980468 11.097656 8.03125 17.078125 4.578125l21.652344-12.5c5.976562-3.453125 8.027344-11.097657 4.574218-17.078125-3.453124-5.976563-11.097656-8.027344-17.074218-4.574219zm0 0" fill="#59c3f0"/><path d="m295.128906 60.921875c-3.453125 5.976563-1.40625 13.625 4.574219 17.074219 5.980469 3.453125 13.625 1.40625 17.078125-4.574219l12.5-21.648437c3.449219-5.980469 1.402344-13.625-4.578125-17.078126-5.980469-3.453124-13.625-1.402343-17.074219 4.578126zm0 0" fill="#59c3f0"/><path d="m281.050781 381.25h-125v75.003906c0 6.902344 5.597657 12.5 12.5 12.5h100c6.90625 0 12.503907-5.597656 12.503907-12.5zm0 0" fill="#fff"/><path d="m281.050781 381.25h-25v75.003906c0 6.902344-5.59375 12.5-12.5 12.5h25c6.90625 0 12.503907-5.597656 12.503907-12.5zm0 0" fill="#e6e7e8"/><path d="m224.804688 381.25h-25.003907l.003907 75.003906c0 6.902344-5.597657 12.5-12.503907 12.5h25.003907c6.902343 0 12.5-5.597656 12.5-12.5zm0 0" fill="#fff"/><path d="m156.050781 381.25h25.003907l-.003907 75.003906c0 6.902344 5.597657 12.5 12.503907 12.5h-25.003907c-6.902343 0-12.5-5.597656-12.5-12.5zm0 0" fill="#e6e7e8"/><path d="m355.859375 218.554688c0-75.832032-61.472656-137.304688-137.304687-137.304688-75.832032 0-137.308594 61.472656-137.308594 137.304688 0 53.316406 30.402344 99.515624 74.804687 122.261718v40.4375h125.003907v-40.4375c44.402343-22.746094 74.804687-68.945312 74.804687-122.261718zm0 0" fill="#fcd64b"/><path d="m218.554688 81.25c-4.214844 0-8.382813.199219-12.5.570312 69.972656 6.316407 124.804687 65.117188 124.804687 136.734376 0 53.320312-30.402344 99.515624-74.804687 122.261718v40.433594h-12.5 37.5v-40.433594c44.40625-22.746094 74.808593-68.945312 74.808593-122.261718-.003906-75.832032-61.476562-137.304688-137.308593-137.304688zm0 0" fill="#f5ab33"/><path d="m218.457031 81.25c4.214844 0 8.382813.199219 12.5.570312-69.972656 6.316407-124.808593 65.117188-124.808593 136.734376 0 53.320312 30.402343 99.515624 74.808593 122.261718v40.433594h12.5-37.5v-40.433594c-44.40625-22.746094-74.808593-68.945312-74.808593-122.261718 0-75.832032 61.476562-137.304688 137.308593-137.304688zm0 0" fill="#ffeca6"/><path d="m281.050781 393.753906c6.90625 0 12.503907-5.601562 12.503907-12.503906s-5.597657-12.503906-12.503907-12.503906h-125c-6.902343 0-12.5 5.601562-12.5 12.503906s5.597657 12.503906 12.5 12.503906zm0 0" fill="#e6e7e8"/><path d="m281.050781 368.75h-25c6.90625 0 12.503907 5.597656 12.503907 12.503906 0 6.902344-5.597657 12.5-12.503907 12.5h25c6.90625 0 12.503907-5.597656 12.503907-12.5 0-6.90625-5.597657-12.503906-12.503907-12.503906zm0 0" fill="#bcbec0"/><path d="m156.054688 393.753906h25c-6.90625 0-12.503907-5.597656-12.503907-12.503906s5.597657-12.503906 12.503907-12.503906h-25c-6.90625 0-12.503907 5.601562-12.503907 12.503906s5.597657 12.503906 12.503907 12.503906zm0 0" fill="#fff"/><g fill="#402943"><path d="m218.550781 62.503906c10.339844 0 18.75-8.410156 18.75-18.75v-25c0-10.34375-8.410156-18.753906-18.75-18.753906-10.339843 0-18.75 8.410156-18.75 18.753906v25c0 10.339844 8.410157 18.75 18.75 18.75zm-6.25-43.75c0-3.449218 2.804688-6.253906 6.25-6.253906 3.445313 0 6.25 2.804688 6.25 6.253906v25c0 3.445313-2.804687 6.25-6.25 6.25-3.445312 0-6.25-2.804687-6.25-6.25zm0 0"/><path d="m114.910156 76.546875c3.472656 6.007813 9.785156 9.375 16.273438 9.375 3.179687 0 6.398437-.808594 9.34375-2.511719 8.953125-5.167968 12.035156-16.660156 6.863281-25.613281l-12.5-21.652344c-5.167969-8.953125-16.65625-12.03125-25.613281-6.863281-8.953125 5.171875-12.035156 16.664062-6.863282 25.617188zm.617188-36.441406c2.984375-1.71875 6.816406-.699219 8.539062 2.289062l12.5 21.648438c1.722656 2.984375.699219 6.816406-2.289062 8.542969-2.984375 1.71875-6.816406.695312-8.539063-2.289063l-12.5-21.652344c-1.722656-2.984375-.699219-6.816406 2.289063-8.539062zm0 0"/><path d="m36.140625 134.894531 21.652344 12.5c2.890625 1.667969 6.09375 2.519531 9.34375 2.519531 1.628906 0 3.269531-.214843 4.886719-.644531 4.835937-1.296875 8.878906-4.398437 11.382812-8.738281 2.503906-4.335938 3.171875-9.390625 1.875-14.226562-1.296875-4.839844-4.398438-8.882813-8.738281-11.386719l-21.648438-12.5c-8.957031-5.175781-20.445312-2.089844-25.617187 6.863281-2.503906 4.339844-3.167969 9.390625-1.871094 14.230469 1.296875 4.835937 4.398438 8.878906 8.734375 11.382812zm3.964844-19.363281c1.15625-2.003906 3.261719-3.128906 5.421875-3.128906 1.0625 0 2.132812.273437 3.117187.835937l21.652344 12.5c1.445313.835938 2.480469 2.1875 2.910156 3.796875.433594 1.613282.210938 3.300782-.621093 4.746094-.839844 1.445312-2.1875 2.480469-3.796876 2.910156-1.613281.433594-3.296874.210938-4.742187-.625l-21.652344-12.5c-1.445312-.832031-2.480469-2.183594-2.914062-3.792968-.433594-1.613282-.210938-3.300782.625-4.742188zm0 0"/><path d="m62.503906 218.558594c0-10.339844-8.414062-18.753906-18.75-18.753906h-25c-10.34375 0-18.753906 8.414062-18.753906 18.753906s8.410156 18.75 18.753906 18.75h25c10.335938 0 18.75-8.410156 18.75-18.75zm-50.007812 0c0-3.445313 2.804687-6.253906 6.253906-6.253906h25c3.445312 0 6.25 2.804687 6.25 6.253906 0 3.449218-2.804688 6.25-6.25 6.25h-25c-3.445312 0-6.253906-2.804688-6.253906-6.25zm0 0"/><path d="m72.023438 287.847656c-4.835938-1.296875-9.890626-.632812-14.230469 1.871094l-21.648438 12.5c-4.339843 2.503906-7.441406 6.550781-8.738281 11.386719-1.292969 4.835937-.628906 9.886719 1.875 14.226562 3.46875 6.011719 9.78125 9.371094 16.269531 9.371094 3.179688 0 6.398438-.808594 9.34375-2.507813l21.652344-12.5c4.335937-2.503906 7.4375-6.546874 8.738281-11.382812 1.292969-4.839844.628906-9.890625-1.875-14.230469-2.507812-4.339843-6.550781-7.441406-11.386718-8.734375zm1.183593 19.726563c-.429687 1.613281-1.464843 2.964843-2.914062 3.796875l-21.648438 12.5c-2.984375 1.722656-6.816406.699218-8.539062-2.285156-.832031-1.449219-1.054688-3.132813-.625-4.742188.433593-1.617188 1.46875-2.964844 2.914062-3.796875l21.652344-12.5c.960937-.558594 2.03125-.839844 3.113281-.839844.542969 0 1.089844.070313 1.628906.214844 1.609376.433594 2.957032 1.464844 3.796876 2.914063.835937 1.445312 1.054687 3.128906.621093 4.738281zm0 0"/><path d="m400.964844 302.21875-21.648438-12.5c-4.339844-2.507812-9.386718-3.167969-14.230468-1.875-4.839844 1.296875-8.882813 4.398438-11.382813 8.734375-2.507813 4.339844-3.171875 9.394531-1.875 14.230469 1.296875 4.839844 4.398437 8.882812 8.734375 11.386718l21.652344 12.5c2.890625 1.667969 6.097656 2.519532 9.347656 2.519532 1.628906 0 3.265625-.214844 4.882812-.648438 4.835938-1.296875 8.878907-4.402344 11.382813-8.738281 2.507813-4.339844 3.171875-9.390625 1.875-14.230469-1.296875-4.832031-4.398437-8.878906-8.738281-11.378906zm-3.960938 19.363281c-1.722656 2.984375-5.554687 4.011719-8.539062 2.289063l-21.652344-12.5c-1.445312-.835938-2.476562-2.183594-2.910156-3.796875s-.210938-3.296875.625-4.742188c.832031-1.445312 2.183594-2.480469 3.792968-2.910156.539063-.144531 1.085938-.214844 1.628907-.214844 1.082031 0 2.152343.28125 3.113281.839844l21.652344 12.5c1.445312.832031 2.480468 2.183594 2.914062 3.796875.429688 1.609375.210938 3.289062-.625 4.738281zm0 0"/><path d="m418.359375 199.800781h-25c-10.339844 0-18.753906 8.414063-18.753906 18.753907 0 10.339843 8.414062 18.75 18.753906 18.75h25c10.339844 0 18.75-8.410157 18.75-18.75 0-10.339844-8.414063-18.753907-18.75-18.753907zm0 25.003907h-25c-3.449219 0-6.253906-2.804688-6.253906-6.25 0-3.445313 2.804687-6.253907 6.253906-6.253907h25c3.445313 0 6.25 2.804688 6.25 6.253907 0 3.449218-2.804687 6.25-6.25 6.25zm0 0"/><path d="m365.085938 149.265625c1.613281.433594 3.253906.644531 4.882812.644531 3.25 0 6.457031-.851562 9.34375-2.519531l21.648438-12.5c8.953124-5.167969 12.035156-16.660156 6.863281-25.613281-5.167969-8.953125-16.660157-12.035156-25.613281-6.867188l-21.648438 12.5s0 0-.003906 0c-8.949219 5.175782-12.027344 16.664063-6.859375 25.617188 2.503906 4.335937 6.546875 7.441406 11.386719 8.738281zm1.726562-23.527344 21.652344-12.5c2.984375-1.722656 6.816406-.695312 8.539062 2.289063s.695313 6.816406-2.289062 8.539062l-21.648438 12.5c-1.445312.832032-3.128906 1.054688-4.742187.625-1.613281-.433594-2.960938-1.46875-3.796875-2.914062-1.726563-2.984375-.703125-6.816406 2.285156-8.539063zm0 0"/><path d="m296.578125 83.410156c2.890625 1.667969 6.097656 2.519532 9.347656 2.519532 1.625 0 3.265625-.214844 4.882813-.648438 4.835937-1.296875 8.878906-4.398438 11.382812-8.734375l12.5-21.652344c2.507813-4.335937 3.171875-9.390625 1.875-14.226562-1.296875-4.839844-4.402344-8.882813-8.738281-11.386719-4.339844-2.503906-9.386719-3.167969-14.230469-1.875-4.835937 1.296875-8.882812 4.402344-11.382812 8.738281l-12.5 21.652344c-2.507813 4.339844-3.171875 9.394531-1.875 14.230469 1.296875 4.835937 4.402344 8.878906 8.738281 11.382812zm3.960937-19.367187 12.5-21.648438c.835938-1.445312 2.183594-2.484375 3.796876-2.914062.539062-.144531 1.085937-.214844 1.628906-.214844 1.082031 0 2.152344.28125 3.113281.839844 2.984375 1.722656 4.011719 5.554687 2.289063 8.539062l-12.5 21.652344c-1.722657 2.984375-5.554688 4.011719-8.539063 2.289063-2.984375-1.726563-4.011719-5.554688-2.289063-8.542969zm0 0"/><path d="m362.109375 218.554688c0-79.15625-64.398437-143.554688-143.554687-143.554688-79.160157 0-143.558594 64.398438-143.558594 143.554688 0 52.851562 28.558594 100.789062 74.804687 126.023437v19.015625c-7.269531 2.585938-12.5 9.511719-12.5 17.65625s5.230469 15.074219 12.503907 17.65625v13.597656h-1.347657c-3.449219 0-6.25 2.796875-6.25 6.25s2.800781 6.25 6.25 6.25h1.347657v12.5h-1.34375c-3.453126 0-6.25 2.796875-6.25 6.25s2.796874 6.25 6.25 6.25h1.34375v6.25c0 10.339844 8.410156 18.75 18.75 18.75v6.246094c0 10.339844 8.410156 18.75 18.75 18.75h62.503906c10.339844 0 18.75-8.410156 18.75-18.753906v-6.242188c10.339844 0 18.75-8.410156 18.75-18.75v-6.25h1.34375c3.453125 0 6.25-2.796875 6.25-6.25s-2.796875-6.25-6.25-6.25h-1.34375v-12.5h1.34375c3.453125 0 6.25-2.796875 6.25-6.25s-2.796875-6.25-6.25-6.25h-1.34375v-13.59375c7.269531-2.582031 12.5-9.511718 12.5-17.65625 0-8.148437-5.230469-15.078125-12.5-17.660156v-19.011719c46.234375-25.238281 74.800781-73.175781 74.800781-126.027343zm-274.613281 0c0-72.261719 58.792968-131.054688 131.058594-131.054688 72.265624 0 131.054687 58.792969 131.054687 131.054688 0 49.421874-27.359375 94.136718-71.40625 116.699218-2.085937 1.070313-3.402344 3.21875-3.402344 5.5625v21.683594h-37.496093v-99.992188h18.75c10.339843 0 18.75-8.414062 18.75-18.753906s-8.410157-18.75-18.75-18.75c-10.339844 0-18.753907 8.410156-18.753907 18.75 0 2.195313.398438 4.292969 1.09375 6.253906h-39.683593c.695312-1.960937 1.09375-4.058593 1.09375-6.253906 0-10.339844-8.414063-18.75-18.753907-18.75-10.339843 0-18.75 8.410156-18.75 18.75s8.414063 18.753906 18.75 18.753906h18.75v99.992188h-37.5v-21.683594c0-2.347656-1.316406-4.496094-3.402343-5.5625-44.039063-22.5625-71.402344-67.277344-71.402344-116.699218zm124.808594 143.945312v-99.992188h12.5v99.992188zm37.5-118.746094c0-3.449218 2.804687-6.25 6.25-6.25 3.449218 0 6.253906 2.800782 6.253906 6.25 0 3.445313-2.804688 6.253906-6.253906 6.253906-3.445313-.003906-6.25-2.808593-6.25-6.253906zm-75.003907 0c0-3.449218 2.804688-6.25 6.25-6.25 3.445313 0 6.253907 2.800782 6.253907 6.25 0 3.445313-2.804688 6.253906-6.253907 6.253906-3.445312-.003906-6.25-2.808593-6.25-6.253906zm75.003907 243.746094h-62.503907c-3.445312 0-6.25-2.804688-6.25-6.25v-6.246094h75.003907v6.246094c0 3.445312-2.800782 6.25-6.25 6.25zm25-31.246094c0 3.445313-2.804688 6.25-6.25 6.25h-6.234376c-.003906 0-.007812 0-.015624 0h-87.503907c-.003906 0-.007812 0-.015625 0h-6.234375c-3.445312 0-6.25-2.804687-6.25-6.25v-6.25h112.5v6.25zm0-18.75h-112.503907v-12.5h112.503907zm-112.503907-25v-12.5h112.5v12.5zm118.753907-25h-125c-3.449219 0-6.253907-2.804687-6.253907-6.253906s2.804688-6.253906 6.253907-6.253906h49.957031c.015625 0 .03125.007812.042969.007812.015624 0 .03125-.007812.046874-.007812h24.910157c.015625 0 .027343.007812.042969.007812.011718 0 .03125-.007812.042968-.007812h49.953125c3.445313 0 6.25 2.804687 6.25 6.253906s-2.800781 6.253906-6.246093 6.253906zm0 0"/></g></svg>