<?xml version="1.0"?>
<svg xmlns="http://www.w3.org/2000/svg" xmlns:xlink="http://www.w3.org/1999/xlink" xmlns:svgjs="http://svgjs.com/svgjs" version="1.1" width="512" height="512" x="0" y="0" viewBox="0 0 480 480" style="enable-background:new 0 0 512 512" xml:space="preserve" className=""><g>
<path xmlns="http://www.w3.org/2000/svg" style="" d="M264,408l-32-32l-32-32l-32-32l-32-32l-16-16l-16-16l-32-32L8,152v320h320L264,408z M72,408V306.504  L173.496,408H72z" fill="#63c9b5" data-original="#63c9b5" className=""/>
<path xmlns="http://www.w3.org/2000/svg" style="" d="M392,88V8H120v40h144l56,32l-56,32H120v152l16,16l32,32l32,32l32,32l32,32l64,64h144V88H392z   M384.568,346.512l-19.6-19.6c-4.128,2.16-8.448,4-12.968,5.416V360h-48v-27.672c-4.512-1.416-8.832-3.264-12.968-5.416l-19.6,19.6  l-33.944-33.944l19.6-19.6c-2.16-4.128-4-8.448-5.416-12.968H224v-48h27.672c1.416-4.512,3.264-8.832,5.416-12.968l-19.6-19.6  l33.944-33.944l19.6,19.6c4.128-2.16,8.448-4,12.968-5.416V152h48v27.672c4.512,1.416,8.832,3.264,12.968,5.416l19.6-19.6  l33.944,33.944l-19.6,19.6c2.16,4.128,4,8.448,5.416,12.968H432v48h-27.672c-1.416,4.512-3.264,8.832-5.416,12.968l19.6,19.6  L384.568,346.512z" fill="#f9f1ed" data-original="#f9f1ed" className=""/>
<polygon xmlns="http://www.w3.org/2000/svg" style="" points="264,48 120,48 64,48 64,112 120,112 264,112 " fill="#6accef" data-original="#6accef"/>
<g xmlns="http://www.w3.org/2000/svg">
	<rect x="8" y="48" style="" width="56" height="64" fill="#e05346" data-original="#e05346"/>
	<polygon style="" points="320,80 264,48 264,112  " fill="#e05346" data-original="#e05346"/>
</g>
<path xmlns="http://www.w3.org/2000/svg" style="" d="M364.968,185.096c-4.128-2.16-8.448-4-12.968-5.416V152h-48v27.672  c-4.512,1.416-8.832,3.264-12.968,5.416l-19.6-19.6l-33.944,33.944l19.6,19.6c-2.16,4.128-4,8.448-5.416,12.968H224v48h27.672  c1.416,4.512,3.264,8.832,5.416,12.968l-19.6,19.6l33.944,33.944l19.6-19.6c4.128,2.16,8.448,4,12.968,5.416V360h48v-27.672  c4.512-1.416,8.832-3.264,12.968-5.416l19.6,19.6l33.944-33.944l-19.6-19.6c2.16-4.128,4-8.448,5.416-12.968H432v-48h-27.672  c-1.416-4.512-3.264-8.832-5.416-12.968l19.6-19.6l-33.944-33.944L364.968,185.096z M328,296c-22.088,0-40-17.912-40-40  s17.912-40,40-40s40,17.912,40,40S350.088,296,328,296z" fill="#fcac37" data-original="#fcac37"/>
<circle xmlns="http://www.w3.org/2000/svg" style="" cx="328" cy="256" r="40" fill="#f9f1ed" data-original="#f9f1ed" className=""/>
<polygon xmlns="http://www.w3.org/2000/svg" style="" points="392,88 472,88 392,8 " fill="#5db2d1" data-original="#5db2d1"/>
<polygon xmlns="http://www.w3.org/2000/svg" style="" points="120,354.504 120,408 173.496,408 " fill="#f9f1ed" data-original="#f9f1ed" className=""/>
<g xmlns="http://www.w3.org/2000/svg">
	<path style="" d="M77.656,300.848c-2.296-2.296-5.736-2.992-8.72-1.736c-2.984,1.24-4.936,4.16-4.936,7.392V408   c0,4.424,3.584,8,8,8h101.496c3.232,0,6.152-1.944,7.392-4.936s0.552-6.432-1.736-8.72L77.656,300.848z M80,400v-74.176   L154.176,400H80z" fill="#31324d" data-original="#31324d" className=""/>
	<path style="" d="M378.912,159.832l-15.592,15.584c-1.104-0.496-2.216-0.952-3.328-1.392V152c0-4.424-3.584-8-8-8h-48   c-4.416,0-8,3.576-8,8v22.032c-1.112,0.44-2.216,0.896-3.328,1.392l-15.592-15.584c-3.128-3.128-8.184-3.128-11.312,0   l-33.936,33.936c-3.128,3.128-3.128,8.184,0,11.312l15.584,15.584c-0.488,1.112-0.952,2.216-1.392,3.328H224c-4.416,0-8,3.576-8,8   v48c0,4.424,3.584,8,8,8h22.024c0.44,1.112,0.904,2.216,1.392,3.328l-15.584,15.584c-3.128,3.128-3.128,8.184,0,11.312   l33.936,33.936c3.128,3.128,8.184,3.128,11.312,0l15.592-15.584c1.104,0.496,2.216,0.952,3.328,1.392V360c0,4.424,3.584,8,8,8h48   c4.416,0,8-3.576,8-8v-22.032c1.112-0.44,2.216-0.896,3.328-1.392l15.592,15.584c3.128,3.128,8.184,3.128,11.312,0l33.936-33.936   c3.128-3.128,3.128-8.184,0-11.312l-15.584-15.584c0.488-1.112,0.952-2.216,1.392-3.328H432c4.416,0,8-3.576,8-8v-48   c0-4.424-3.584-8-8-8h-22.024c-0.44-1.112-0.904-2.216-1.392-3.328l15.584-15.584c3.128-3.128,3.128-8.184,0-11.312l-33.936-33.936   C387.104,156.712,382.04,156.712,378.912,159.832z M391.816,222.736c2.016,3.856,3.656,7.784,4.88,11.672   c1.048,3.328,4.136,5.592,7.632,5.592H424v32h-19.672c-3.496,0-6.584,2.264-7.632,5.592c-1.224,3.888-2.864,7.816-4.88,11.672   c-1.624,3.096-1.04,6.888,1.432,9.36l13.944,13.944l-22.624,22.624l-13.952-13.944c-2.472-2.472-6.256-3.048-9.36-1.44   c-3.872,2.024-7.8,3.664-11.664,4.88c-3.336,1.056-5.6,4.144-5.6,7.632V352h-32v-19.672c0-3.496-2.264-6.576-5.6-7.632   c-3.864-1.216-7.792-2.856-11.664-4.88c-3.096-1.608-6.888-1.032-9.36,1.44L271.416,335.2l-22.624-22.624l13.944-13.944   c2.472-2.472,3.056-6.264,1.432-9.36c-2.016-3.856-3.656-7.784-4.88-11.672c-1.032-3.336-4.12-5.6-7.616-5.6H232v-32h19.672   c3.496,0,6.584-2.264,7.632-5.592c1.224-3.888,2.864-7.816,4.88-11.672c1.624-3.096,1.04-6.888-1.432-9.36l-13.944-13.944   l22.624-22.624l13.952,13.944c2.472,2.48,6.264,3.056,9.36,1.44c3.872-2.024,7.8-3.664,11.664-4.88   c3.336-1.056,5.6-4.144,5.6-7.632V160h32v19.672c0,3.496,2.264,6.576,5.6,7.632c3.864,1.216,7.792,2.856,11.664,4.88   c3.104,1.616,6.888,1.04,9.36-1.44l13.952-13.944l22.624,22.624l-13.944,13.944C390.776,215.84,390.192,219.64,391.816,222.736z" fill="#31324d" data-original="#31324d" className=""/>
	<path style="" d="M328,208c-26.472,0-48,21.528-48,48s21.528,48,48,48s48-21.528,48-48S354.472,208,328,208z M328,288   c-17.648,0-32-14.352-32-32s14.352-32,32-32s32,14.352,32,32S345.648,288,328,288z" fill="#31324d" data-original="#31324d" className=""/>
	<path style="" d="M479.472,85.392c-0.088-0.256-0.152-0.512-0.272-0.76c-0.384-0.824-0.864-1.6-1.528-2.264   c-0.008-0.008-0.016-0.024-0.024-0.032L397.664,2.352c-0.008-0.008-0.024-0.016-0.04-0.032c-0.672-0.664-1.456-1.152-2.28-1.536   c-0.224-0.104-0.456-0.16-0.688-0.248c-0.72-0.256-1.456-0.408-2.224-0.448C392.28,0.08,392.152,0,392,0H120c-4.416,0-8,3.576-8,8   v32H8c-4.416,0-8,3.576-8,8v64c0,4.424,3.584,8,8,8h104v124.688l-98.344-98.344c-2.296-2.296-5.736-2.992-8.72-1.736   C1.952,145.84,0,148.768,0,152v320c0,4.424,3.584,8,8,8h320h144c4.416,0,8-3.576,8-8V88c0-0.176-0.088-0.32-0.096-0.496   C479.856,86.776,479.712,86.08,479.472,85.392z M452.688,80H400V27.312L452.688,80z M272,61.784L303.872,80L272,98.216V61.784z    M256,104H120H72V56h48h136V104z M16,56h40v48H16V56z M16,464V171.312L60.688,216l-18.344,18.344l11.312,11.312L72,227.312   L92.688,248l-18.344,18.344l11.312,11.312L104,259.312l10.344,10.344L124.688,280l-18.344,18.344l11.312,11.312L136,291.312   L156.688,312l-18.344,18.344l11.312,11.312L168,323.312L188.688,344l-18.344,18.344l11.312,11.312L200,355.312L220.688,376   l-18.344,18.344l11.312,11.312L232,387.312L252.688,408l-18.344,18.344l11.312,11.312L264,419.312L308.688,464H16z M464,464   H331.312L128,260.688V120h136c1.392,0,2.76-0.368,3.968-1.056l56-32C326.464,85.52,328,82.864,328,80s-1.536-5.52-4.032-6.944   l-56-32C266.76,40.368,265.392,40,264,40H128V16h256v72c0,4.424,3.584,8,8,8h72V464z" fill="#31324d" data-original="#31324d" className=""/>
	<rect x="432" y="432" style="" width="16" height="16" fill="#31324d" data-original="#31324d" className=""/>
	<rect x="400" y="432" style="" width="16" height="16" fill="#31324d" data-original="#31324d" className=""/>
	<rect x="368" y="432" style="" width="16" height="16" fill="#31324d" data-original="#31324d" className=""/>
</g>
<g xmlns="http://www.w3.org/2000/svg">
</g>
<g xmlns="http://www.w3.org/2000/svg">
</g>
<g xmlns="http://www.w3.org/2000/svg">
</g>
<g xmlns="http://www.w3.org/2000/svg">
</g>
<g xmlns="http://www.w3.org/2000/svg">
</g>
<g xmlns="http://www.w3.org/2000/svg">
</g>
<g xmlns="http://www.w3.org/2000/svg">
</g>
<g xmlns="http://www.w3.org/2000/svg">
</g>
<g xmlns="http://www.w3.org/2000/svg">
</g>
<g xmlns="http://www.w3.org/2000/svg">
</g>
<g xmlns="http://www.w3.org/2000/svg">
</g>
<g xmlns="http://www.w3.org/2000/svg">
</g>
<g xmlns="http://www.w3.org/2000/svg">
</g>
<g xmlns="http://www.w3.org/2000/svg">
</g>
<g xmlns="http://www.w3.org/2000/svg">
</g>
</g></svg>
