<?xml version="1.0"?>
<svg xmlns="http://www.w3.org/2000/svg" id="Out_line" data-name="Out line" viewBox="0 0 512 512" width="512px" height="512px"><g><path d="M104,232V368a8.00008,8.00008,0,0,0,8,8H456V360H120V232Z" data-original="#000000" className="active-path" data-old_color="#000000" fill="#2453b6"/><path d="M136,296v40a8.00008,8.00008,0,0,0,8,8h32a8.00008,8.00008,0,0,0,8-8V296a8.00008,8.00008,0,0,0-8-8H144A8.00008,8.00008,0,0,0,136,296Zm16,8h16v24H152Z" data-original="#000000" className="active-path" data-old_color="#000000" fill="#2453b6"/><path d="M208,256a8.00008,8.00008,0,0,0-8,8v72a8.00008,8.00008,0,0,0,8,8h32a8.00008,8.00008,0,0,0,8-8V264a8.00008,8.00008,0,0,0-8-8Zm24,72H216V272h16Z" data-original="#000000" className="active-path" data-old_color="#000000" fill="#2453b6"/><path d="M272,288a8.00008,8.00008,0,0,0-8,8v40a8.00008,8.00008,0,0,0,8,8h32a8.00008,8.00008,0,0,0,8-8V296a8.00008,8.00008,0,0,0-8-8Zm24,40H280V304h16Z" data-original="#000000" className="active-path" data-old_color="#000000" fill="#2453b6"/><path d="M336,256a8.00008,8.00008,0,0,0-8,8v72a8.00008,8.00008,0,0,0,8,8h32a8.00008,8.00008,0,0,0,8-8V264a8.00008,8.00008,0,0,0-8-8Zm24,72H344V272h16Z" data-original="#000000" className="active-path" data-old_color="#000000" fill="#2453b6"/><path d="M392,224V336a8.00008,8.00008,0,0,0,8,8h32a8.00008,8.00008,0,0,0,8-8V224a8.00008,8.00008,0,0,0-8-8H400A8.00008,8.00008,0,0,0,392,224Zm16,8h16v96H408Z" data-original="#000000" className="active-path" data-old_color="#000000" fill="#2453b6"/><path d="M229.65674,194.34277a8.00182,8.00182,0,0,0-11.31348,0l-64,64,11.31348,11.31446L224,211.31348l58.34326,58.34375a8.00063,8.00063,0,0,0,11.31348,0L400,163.314V184h16V144a8.00008,8.00008,0,0,0-8-8H368v16h20.6861L288,252.68652Z" data-original="#000000" className="active-path" data-old_color="#000000" fill="#2453b6"/><path d="M480,104H80v16H472V392H80v16H480a8.00008,8.00008,0,0,0,8-8V112A8.00008,8.00008,0,0,0,480,104Z" data-original="#000000" className="active-path" data-old_color="#000000" fill="#2453b6"/><path d="M280,472a8.00917,8.00917,0,0,1-8,8H48a8.00917,8.00917,0,0,1-8-8V40a8.00917,8.00917,0,0,1,8-8H272a8.00917,8.00917,0,0,1,8,8V88h16V40a24.0275,24.0275,0,0,0-24-24H48A24.0275,24.0275,0,0,0,24,40V472a24.0275,24.0275,0,0,0,24,24H272a24.0275,24.0275,0,0,0,24-24V424H280Z" data-original="#000000" className="active-path" data-old_color="#000000" fill="#2453b6"/><path d="M272,88V48a8.00008,8.00008,0,0,0-8-8H184a8.00008,8.00008,0,0,0-8,8,16,16,0,0,1-32,0,8.00008,8.00008,0,0,0-8-8H56a8.00008,8.00008,0,0,0-8,8V464a8.00008,8.00008,0,0,0,8,8H264a8.00008,8.00008,0,0,0,8-8V424H256v32H64V56h65.01221a32.00507,32.00507,0,0,0,61.97558,0H256V88Z" data-original="#000000" className="active-path" data-old_color="#000000" fill="#2453b6"/><circle cx="160" cy="48" r="8" data-original="#000000" className="active-path" data-old_color="#000000" fill="#2453b6"/></g> </svg>
