<?xml version="1.0"?>
<svg xmlns="http://www.w3.org/2000/svg" id="Layer_5" enable-background="new 0 0 64 64" height="512px" viewBox="0 0 64 64" width="512px"><g><g><path d="m56 19c-3.859 0-7 3.141-7 7v26.236l4.658 9.317c.447.892 1.345 1.447 2.342 1.447s1.895-.555 2.342-1.447l4.658-9.317v-26.236c0-3.859-3.141-7-7-7zm0 2c2.757 0 5 2.243 5 5v1h-10v-1c0-2.757 2.243-5 5-5zm3 30v-22h2v22zm-8 0v-22h2v22zm4-22h2v22h-2zm1.553 31.657c-.211.424-.895.423-1.105.001l-3.83-7.658h8.764z" data-original="#000000" className="active-path" data-old_color="#000000" fill="#2353B8"/><path d="m55 15c1.654 0 3-1.346 3-3v-8c0-1.654-1.346-3-3-3h-18c-1.654 0-3 1.346-3 3v3.147c-2.484-1.253-5.204-1.973-8-2.112v-4.035h-1c-13.233 0-24 10.767-24 24 0 12.038 9.156 22.296 21 23.786v2.383c-3.537.401-7 1.58-7 3.83v4c0 2.748 5.184 4 10 4s10-1.252 10-4v-4c0-2.251-3.463-3.43-7-3.83v-6.42c9.606-1.455 17-9.744 17-19.75 0-3.549-.929-6.969-2.687-10h12.687zm-19-11c0-.552.448-1 1-1h18c.552 0 1 .448 1 1v8c0 .552-.448 1-1 1h-16.618l-1.934 3.868c-.099.198-.448.115-.448-.104zm-10.879 11.535 2.344 2.344c.34.34.535.811.535 1.293v2c0 2.11 1.718 3.828 3.828 3.828h1.57c.639 0 1.239.34 1.568.888l1.842 3.07c.126.209.192.448.192.692 0 .744-.605 1.35-1.35 1.35h-4.65c-1.654 0-3 1.346-3 3s1.346 3 3 3h1.718c.39 0 .746.229.908.583l1.152 2.508c-2.555 1.661-5.554 2.679-8.778 2.858v-1.713c0-1.144-.636-2.172-1.658-2.684l-1.789-.895c-.341-.169-.553-.511-.553-.893v-.764c0-1.654-1.346-3-3-3h-2c-.552 0-1-.448-1-1s.448-1 1-1h2c1.654 0 3-1.346 3-3s-1.346-3-3-3h-12c0-.677.045-1.342.118-2h11.054c2.11 0 3.828-1.718 3.828-3.828 0-1.022-.398-1.984-1.121-2.707l-1.344-1.344c-.34-.34-.535-.811-.535-1.293v-.656c0-1.022-.398-1.984-1.121-2.707l-1.342-1.342c2.525-1.351 5.405-2.123 8.463-2.123 2.884 0 5.704.692 8.242 2h-5.414c-2.11 0-3.828 1.718-3.828 3.828 0 1.023.398 1.985 1.121 2.707zm-10.337-5.337 1.681 1.681c.34.34.535.811.535 1.293v.656c0 1.022.398 1.984 1.121 2.707l1.344 1.344c.34.34.535.811.535 1.293 0 1.008-.82 1.828-1.828 1.828h-10.708c1.015-4.452 3.677-8.28 7.32-10.802zm2.216 24.802h2c.552 0 1 .448 1 1v.764c0 1.144.636 2.172 1.658 2.684l1.789.895c.341.169.553.511.553.893v1.713c-8.791-.486-15.919-7.291-16.882-15.949h11.882c.552 0 1 .448 1 1s-.448 1-1 1h-2c-1.654 0-3 1.346-3 3s1.346 3 3 3zm-14-10c0-11.796 9.332-21.452 21-21.978v2.028c-10.562.527-19 9.259-19 19.95 0 10.006 7.394 18.295 17 19.75v2.021c-10.736-1.478-19-10.82-19-21.771zm22 36c-5.249 0-8-1.486-8-2v-1.476c1.949 1.001 5.041 1.476 8 1.476s6.051-.475 8-1.476v1.476c0 .514-2.751 2-8 2zm8-6c0 .514-2.751 2-8 2s-8-1.486-8-2c0-.366 1.563-1.386 5-1.81v1.81h6v-1.81c3.437.424 5 1.444 5 1.81zm-7-2h-2v-8.051c.333.017.662.051 1 .051s.667-.034 1-.051zm17-28c0 5.589-2.561 10.59-6.571 13.895l-.985-2.146c-.487-1.062-1.557-1.749-2.726-1.749h-1.718c-.552 0-1-.448-1-1s.448-1 1-1h4.65c1.847 0 3.35-1.503 3.35-3.35 0-.607-.165-1.204-.478-1.723l-1.841-3.069c-.688-1.146-1.947-1.858-3.283-1.858h-1.57c-1.008 0-1.828-.82-1.828-1.828v-2c0-1.022-.398-1.984-1.121-2.707l-2.344-2.344c-.34-.34-.535-.811-.535-1.293 0-1.008.82-1.828 1.828-1.828h6.172v5.764c0 1.233 1.003 2.236 2.236 2.236.852 0 1.617-.474 2-1.236l1.382-2.764h.337c1.987 2.964 3.045 6.407 3.045 10z" data-original="#000000" className="active-path" data-old_color="#000000" fill="#2353B8"/><path d="m38 5h2v2h-2z" data-original="#000000" className="active-path" data-old_color="#000000" fill="#2353B8"/><path d="m42 5h12v2h-12z" data-original="#000000" className="active-path" data-old_color="#000000" fill="#2353B8"/><path d="m38 9h16v2h-16z" data-original="#000000" className="active-path" data-old_color="#000000" fill="#2353B8"/></g></g> </svg>
