<?xml version="1.0"?>
<svg xmlns="http://www.w3.org/2000/svg" id="Capa_1" enable-background="new 0 0 512 512" height="512px" viewBox="0 0 512 512" width="512px"><g><g><path d="m396.389 301.482c4.748-14.667 7.156-29.969 7.156-45.482 0-81.356-66.188-147.544-147.545-147.544s-147.545 66.188-147.545 147.544c0 15.513 2.408 30.815 7.156 45.482 1.002 3.094 3.884 5.189 7.136 5.189h47.211c4.143 0 7.5-3.358 7.5-7.5v-87.491l72.938 72.938c2.93 2.929 7.678 2.929 10.607 0l72.938-72.938v87.491c0 4.142 3.357 7.5 7.5 7.5h47.813c3.251 0 6.133-2.095 7.135-5.189zm-12.708-9.811h-34.74v-98.097c0-3.034-1.827-5.768-4.63-6.929-2.804-1.161-6.028-.519-8.174 1.626l-80.438 80.438-80.438-80.438c-2.146-2.146-5.371-2.787-8.174-1.626s-4.63 3.896-4.63 6.929v98.097h-34.139c-3.229-11.576-4.864-23.55-4.864-35.671 0-73.085 59.459-132.544 132.545-132.544s132.546 59.459 132.546 132.544c0 12.121-1.635 24.095-4.864 35.671z" data-original="#000000" className="active-path" data-old_color="#000000" fill="#FFFFFF"/><path d="m308.32 273.637c-2.745-1.189-5.932-.634-8.111 1.41l-43.181 40.482-46.482-40.656c-2.187-1.913-5.28-2.389-7.943-1.226-2.661 1.165-4.411 3.761-4.491 6.666l-1.305 47.46h-56.259c-2.785 0-5.342 1.544-6.639 4.009-1.296 2.466-1.119 5.447.46 7.742 27.578 40.087 73.048 64.02 121.631 64.02s94.053-23.933 121.631-64.02c1.579-2.295 1.756-5.276.46-7.742-1.297-2.465-3.854-4.009-6.639-4.009h-58.613v-47.254c0-2.99-1.776-5.693-4.519-6.882zm47.865 69.136c-25.048 28.895-61.519 45.771-100.185 45.771s-75.137-16.876-100.185-45.771h48.288c4.062 0 7.386-3.233 7.497-7.294l1.067-38.822 39.598 34.634c2.902 2.538 7.254 2.462 10.067-.174l35.506-33.287v37.443c0 4.142 3.357 7.5 7.5 7.5z" data-original="#000000" className="active-path" data-old_color="#000000" fill="#FFFFFF"/><path d="m437.02 74.98c-48.352-48.351-112.64-74.98-181.02-74.98s-132.668 26.629-181.02 74.98c-48.351 48.353-74.98 112.64-74.98 181.02s26.629 132.667 74.98 181.02c48.352 48.351 112.64 74.98 181.02 74.98 43.221 0 85.944-10.974 123.553-31.736 3.626-2.002 4.942-6.564 2.941-10.19-2.003-3.627-6.565-4.944-10.191-2.941-35.394 19.539-75.611 29.867-116.303 29.867-64.374 0-124.894-25.068-170.413-70.587s-70.587-106.039-70.587-170.413 25.068-124.894 70.587-170.413 106.039-70.587 170.413-70.587 124.894 25.068 170.413 70.587 70.587 106.039 70.587 170.413c0 38.823-8.945 75.884-26.589 110.154-16.835 32.701-41.392 61.597-71.014 83.562-3.327 2.467-4.024 7.165-1.558 10.492 2.468 3.328 7.165 4.024 10.491 1.557 31.458-23.326 57.536-54.013 75.417-88.745 18.748-36.414 28.253-75.786 28.253-117.02 0-68.38-26.629-132.667-74.98-181.02z" data-original="#000000" className="active-path" data-old_color="#000000" fill="#FFFFFF"/><path d="m157.7 54.795c-37.095 18.155-68.449 46.2-90.676 81.101-22.837 35.862-34.909 77.393-34.909 120.104 0 59.802 23.288 116.024 65.574 158.311 42.286 42.286 98.509 65.574 158.311 65.574s116.024-23.288 158.311-65.574c42.286-42.287 65.574-98.509 65.574-158.311s-23.288-116.024-65.574-158.311c-42.287-42.286-98.509-65.574-158.311-65.574-22.675 0-45.052 3.38-66.51 10.047-3.955 1.229-6.166 5.432-4.937 9.387s5.424 6.167 9.388 4.937c20.015-6.218 40.895-9.371 62.059-9.371 115.18 0 208.885 93.706 208.885 208.885s-93.705 208.885-208.885 208.885-208.885-93.706-208.885-208.885c0-39.852 11.26-78.597 32.562-112.046 20.743-32.573 50.003-58.744 84.617-75.686 3.721-1.821 5.261-6.313 3.439-10.033s-6.314-5.262-10.033-3.44z" data-original="#000000" className="active-path" data-old_color="#000000" fill="#FFFFFF"/></g></g> </svg>
