<?xml version="1.0"?>
<svg xmlns="http://www.w3.org/2000/svg" height="512px" viewBox="0 0 64 64" width="512px"><g><g id="Ecommerce-transfer_money-buy-smartphone-hands" data-name="Ecommerce-transfer money-buy-smartphone-hands"><path d="m42 54h3v6h-3z" data-original="#000000" className="active-path" data-old_color="#000000" fill="#2453b6"/><path d="m37 54h3v6h-3z" data-original="#000000" className="active-path" data-old_color="#000000" fill="#2453b6"/><path d="m23 8a8 8 0 1 0 8 8 8.011 8.011 0 0 0 -8-8zm0 7a3 3 0 0 1 1 5.82v1.18h-2v-1.18a3.01 3.01 0 0 1 -2-2.82h2a1 1 0 1 0 1-1 3 3 0 0 1 -1-5.82v-1.18h2v1.18a3.01 3.01 0 0 1 2 2.82h-2a1 1 0 1 0 -1 1z" data-original="#000000" className="active-path" data-old_color="#000000" fill="#2453b6"/><path d="m8 47v-13a1 1 0 0 1 1-1h5a3 3 0 0 0 0-6h-7a3.009 3.009 0 0 0 -3 3v4l1.91 20h20.57l2.8-4h-18.28a3.009 3.009 0 0 1 -3-3z" data-original="#000000" className="active-path" data-old_color="#000000" fill="#2453b6"/><path d="m6 56h20v4h-20z" data-original="#000000" className="active-path" data-old_color="#000000" fill="#2453b6"/><path d="m30 37.96v-8.97a4 4 0 0 1 3.99-3.99 3.927 3.927 0 0 1 2.01.56v-20.56a1 1 0 0 0 -1-1h-24a1 1 0 0 0 -1 1v20h4a5 5 0 0 1 0 10h-4v7h18v2h-18v3a1 1 0 0 0 1 1h22.15l-2.74-7.68a7.1 7.1 0 0 1 -.41-2.36zm-7-11.96a10 10 0 1 1 10-10 10.016 10.016 0 0 1 -10 10z" data-original="#000000" className="active-path" data-old_color="#000000" fill="#2453b6"/><path d="m47 54h3v6h-3z" data-original="#000000" className="active-path" data-old_color="#000000" fill="#2453b6"/><path d="m58 32a2.006 2.006 0 0 0 -2 2v4h-2v-5a2.006 2.006 0 0 0 -2-2 1.868 1.868 0 0 0 -.64.11 1.8 1.8 0 0 0 -.77.48 1.983 1.983 0 0 0 -.59 1.41v4h-2v-5a2.006 2.006 0 0 0 -2-2 2.015 2.015 0 0 0 -2 2v5h-2v-25a2.006 2.006 0 0 0 -2-2 2.015 2.015 0 0 0 -2 2v25h-2v-8a1.983 1.983 0 0 0 -.59-1.41 1.994 1.994 0 0 0 -3.41 1.4v8.97a5.176 5.176 0 0 0 .29 1.69l4.41 12.35h18.6l4.41-12.36a5.073 5.073 0 0 0 .29-1.68v-3.96a2.015 2.015 0 0 0 -2-2z" data-original="#000000" className="active-path" data-old_color="#000000" fill="#2453b6"/><path d="m52 54h3v6h-3z" data-original="#000000" className="active-path" data-old_color="#000000" fill="#2453b6"/><path d="m61.707 10.293-4-4-1.414 1.414 2.293 2.293h-11.586v2h11.586l-2.293 2.293 1.414 1.414 4-4a1 1 0 0 0 0-1.414z" data-original="#000000" className="active-path" data-old_color="#000000" fill="#2453b6"/><path d="m51.707 15.707-1.414-1.414-4 4a1 1 0 0 0 0 1.414l4 4 1.414-1.414-2.293-2.293h11.586v-2h-11.586z" data-original="#000000" className="active-path" data-old_color="#000000" fill="#2453b6"/></g></g> </svg>
