<svg id="Capa_1" enable-background="new 0 0 512 512" height="512" viewBox="0 0 512 512" width="512" xmlns="http://www.w3.org/2000/svg"><g><path d="m221.921 229.503-2.125 2.388c-38.756 43.535-64.796 109.197-64.796 163.391 0 44.177 17.273 76.201 51.34 95.182 26.372 14.693 62.17 21.536 112.66 21.536l28-157-28-165.522z" fill="#fd5"/><path d="m413.379 226.651-94.379-37.173v322.522c50.49 0 86.288-6.843 112.66-21.537 34.067-18.981 51.34-51.004 51.34-95.182 0-57.169-27.979-124.936-69.621-168.63z" fill="#edbe00"/><path d="m272 0v40l-15 25 15 36 47 17.078 26-61.078-26-57z" fill="#fd5"/><path d="m319 0v118.078l82-12.078 44-58v-48z" fill="#edbe00"/><path d="m303.425 105c-17.355 0-31.425-14.07-31.425-31.425v-34.167h-120v149.592c36.496 36.496 85.996 57 137.61 57h29.39l25-70-25-71z" fill="#ffccbd"/><path d="m418.29 105h-99.29v141h57.5c38.936 0 70.5-31.564 70.5-70.5v-41.79c0-15.856-12.854-28.71-28.71-28.71z" fill="#f9a58d"/><path d="m300.703 402.941-12.477-8.162-16.324 24.953 12.476 8.162c7.838 5.128 14.053 7.68 20.838 8.885v16.221h13.784l7-24-7-21.062c-8.96.027-11.383-.474-18.297-4.997z" fill="#a30f59"/><path d="m311.206 344.662c-.365-.285-.754-1.514-.481-3.352.457-3.774 3.676-7.582 8.275-8.521l5-20.789-5-23h-13.783v17.044c-24.381 9.386-33.888 45.32-12.413 62.081 7.087 5.559 16.482 9.842 26.196 13.543l5-14.668-5-17.696c-3.055-1.488-5.751-3.039-7.794-4.642z" fill="#a30f59"/><path d="m320.118 332.616h6.13c6.042.792 11.465 3.521 12.903 4.296l13.124 7.074 14.149-26.248c-10.635-5.448-17.53-10.714-31.389-13.846v-14.892h-16.035v43.789c.365-.074.736-.136 1.118-.173z" fill="#840c48"/><path d="m336.554 356.342c-5.955-2.105-12.291-4.476-17.554-7.038v32.364c2.529.964 5.079 1.891 7.617 2.788 5.816 2.056 8.281 5.977 7.326 11.655-.733 4.362-4.489 11.761-13.916 11.824-.359.002-.688.003-1.027.004v45.061h16.035v-17.906c35.967-12.784 40.106-65.494 1.519-78.752z" fill="#840c48"/><path d="m29 0h139v214h-139z" fill="#00c6cd"/></g></svg>