<svg xmlns="http://www.w3.org/2000/svg" width="109.68" height="110.412" viewBox="0 0 109.68 110.412">
  <g id="multifactor-auth" transform="translate(-1 -0.586)">
    <rect id="Rectangle_496" data-name="Rectangle 496" width="10.614" height="3.538" transform="translate(89.451 100.384)" fill="#2453b6"/>
    <rect id="Rectangle_497" data-name="Rectangle 497" width="3.538" height="3.538" transform="translate(82.375 100.384)" fill="#2453b6"/>
    <path id="Path_1351" data-name="Path 1351" d="M51.307,21a5.307,5.307,0,1,0,5.307,5.307A5.314,5.314,0,0,0,51.307,21Zm0,7.076a1.769,1.769,0,1,1,1.769-1.769A1.77,1.77,0,0,1,51.307,28.076Z" transform="translate(34.606 15.699)" fill="#2453b6"/>
    <path id="Path_1352" data-name="Path 1352" d="M44.051,20.628l2.5,2.5a8.841,8.841,0,0,1,12.507,0l2.5-2.5a12.377,12.377,0,0,0-17.51,0Z" transform="translate(33.107 12.623)" fill="#2453b6"/>
    <path id="Path_1353" data-name="Path 1353" d="M66.24,21.2l2.5-2.5a19.482,19.482,0,0,0-27.521,0l2.5,2.5A15.939,15.939,0,0,1,66.24,21.2Z" transform="translate(30.931 9.551)" fill="#2453b6"/>
    <path id="Path_1354" data-name="Path 1354" d="M73.417,19.275l2.5-2.5a26.53,26.53,0,0,0-37.525,0l2.5,2.5a22.994,22.994,0,0,1,32.522,0Z" transform="translate(28.757 6.471)" fill="#2453b6"/>
    <path id="Path_1355" data-name="Path 1355" d="M14.538,66.995H49.919a3.542,3.542,0,0,0,3.538-3.538V24.538A3.542,3.542,0,0,0,49.919,21H14.538A3.542,3.542,0,0,0,11,24.538V63.457A3.542,3.542,0,0,0,14.538,66.995ZM26.921,36.921a5.307,5.307,0,1,1,5.307,5.307A5.314,5.314,0,0,1,26.921,36.921Zm5.307,8.845a10.693,10.693,0,0,1,1.76.157c-.051,2.066-1.056,3.381-1.76,3.381s-1.709-1.314-1.76-3.381A10.693,10.693,0,0,1,32.228,45.766Zm-5.206,1.375c.467,3.287,2.585,5.7,5.206,5.7s4.739-2.415,5.206-5.7a10.617,10.617,0,0,1,5.408,9.24v7.076H21.614V56.381A10.617,10.617,0,0,1,27.022,47.141Zm-12.484-22.6H49.919V63.457H46.381V56.381a14.161,14.161,0,0,0-8.306-12.873,8.845,8.845,0,1,0-11.693,0,14.161,14.161,0,0,0-8.306,12.873v7.076H14.538Z" transform="translate(7.69 15.699)" fill="#2453b6"/>
    <rect id="Rectangle_498" data-name="Rectangle 498" width="3.538" height="3.538" transform="translate(64.685 65.003)" fill="#2453b6"/>
    <rect id="Rectangle_499" data-name="Rectangle 499" width="21.228" height="3.538" transform="translate(71.761 65.003)" fill="#2453b6"/>
    <rect id="Rectangle_500" data-name="Rectangle 500" width="28.304" height="3.538" transform="translate(64.685 72.079)" fill="#2453b6"/>
    <rect id="Rectangle_501" data-name="Rectangle 501" width="28.304" height="3.538" transform="translate(64.685 79.156)" fill="#2453b6"/>
    <path id="Path_1356" data-name="Path 1356" d="M110.68,27.118V8.394H103A22.239,22.239,0,0,1,87.164,1.837L85.913.586,84.663,1.837A22.242,22.242,0,0,1,68.83,8.394H61.147V22.547H13.383a8.855,8.855,0,0,0-8.845,8.845V93.308H1v1.769A15.938,15.938,0,0,0,16.921,111H94.758A15.938,15.938,0,0,0,110.68,95.077V93.308h-3.538v-50.3A37.338,37.338,0,0,0,110.68,27.118ZM64.685,11.933H68.83A25.733,25.733,0,0,0,85.913,5.511,25.733,25.733,0,0,0,103,11.933h4.145V27.118a33.59,33.59,0,0,1-18.669,30.2,5.825,5.825,0,0,1-5.121,0,33.591,33.591,0,0,1-18.667-30.2ZM81.77,60.487a9.262,9.262,0,0,0,8.286,0,37.718,37.718,0,0,0,6.471-4.108V86.232H15.152V33.161h46.5A37.062,37.062,0,0,0,81.77,60.487ZM94.758,107.46H16.921A12.4,12.4,0,0,1,4.664,96.846H40.1a8.86,8.86,0,0,0,8.666,7.076H62.916a8.862,8.862,0,0,0,8.666-7.076h35.434A12.4,12.4,0,0,1,94.758,107.46ZM43.782,96.846H67.9a5.3,5.3,0,0,1-4.982,3.538H48.762A5.3,5.3,0,0,1,43.782,96.846ZM103.6,93.308H8.076V31.392a5.314,5.314,0,0,1,5.307-5.307H61.147v1.033c0,.84.032,1.675.087,2.5H15.152a3.542,3.542,0,0,0-3.538,3.538V86.232a3.542,3.542,0,0,0,3.538,3.538H96.527a3.542,3.542,0,0,0,3.538-3.538V53.2a36.859,36.859,0,0,0,3.538-4.17Z" transform="translate(0 0)" fill="#2453b6"/>
  </g>
</svg>
