<svg xmlns="http://www.w3.org/2000/svg" width="91.651" height="91.58" viewBox="0 0 91.651 91.58">
  <path id="multiple-crypto" d="M150.111,30.77H65.6a3.572,3.572,0,0,0-3.572,3.572v84.436A3.572,3.572,0,0,0,65.6,122.35h84.508a3.572,3.572,0,0,0,3.572-3.572V34.342A3.572,3.572,0,0,0,150.111,30.77Zm-3.548,84.436H69.247V37.914h77.316ZM93.011,92.323a23.264,23.264,0,0,1,0-32.979,23.645,23.645,0,0,1,7.882-5.143V48.367a3.572,3.572,0,0,1,7.144,0v4.238h2V48.367a3.572,3.572,0,0,1,7.144,0v5.524a22.978,22.978,0,0,1,8.786,5.477,3.548,3.548,0,0,1,0,5.048,3.6,3.6,0,0,1-5.048,0,16,16,0,0,0-8.025-4.334h0a15.549,15.549,0,0,0-7.477.119,16.169,16.169,0,0,0-.048,31.265,15.1,15.1,0,0,0,7.429.143,15.906,15.906,0,0,0,8.12-4.334,3.572,3.572,0,0,1,5.048,5.048,22.954,22.954,0,0,1-8.786,5.453v5.548a3.572,3.572,0,1,1-7.143,0V99.109h-2v4.262a3.572,3.572,0,0,1-7.144,0V97.49a23.336,23.336,0,0,1-7.882-5.167Z" transform="translate(-62.032 -30.77)" fill="#2453b6"/>
</svg>
