<?xml version="1.0"?>
<svg xmlns="http://www.w3.org/2000/svg" xmlns:xlink="http://www.w3.org/1999/xlink" xmlns:svgjs="http://svgjs.com/svgjs" version="1.1" width="512" height="512" x="0" y="0" viewBox="0 0 512 512" style="enable-background:new 0 0 512 512" xml:space="preserve" className=""><g><g xmlns="http://www.w3.org/2000/svg"><path d="m196 512c36.219 0 66.522-25.808 73.491-60h121.509v-23.787c0-17.687-6.888-34.314-19.394-46.82-6.84-6.84-10.606-15.933-10.606-25.606v-86.643c4.967.565 9.97.856 15 .856 74.99 0 136-60.561 136-135s-61.01-135-136-135c-41.641 0-78.935 18.955-103.719 48.686-19.043-9.942-39.83-16.04-61.281-17.983v-30.703h-30v30.681c-84.529 7.562-151 78.364-151 164.319v160.787c0 9.673-3.767 18.767-10.606 25.606-12.506 12.506-19.394 29.134-19.394 46.82v23.787h122.509c6.969 34.192 37.272 60 73.491 60zm0-30c-19.555 0-36.228-12.541-42.42-30.01h84.839c-6.191 17.469-22.864 30.01-42.419 30.01zm180-452c58.448 0 106 47.103 106 105s-47.552 105-106 105c-26.356 0-44.062-10.143-47.103-11.186l-27.897 6.974v-27.806c-1.595-2.535-30-28.262-30-72.982 0-57.897 47.103-105 105-105zm-335.394 372.607c12.506-12.506 19.394-29.134 19.394-46.82v-160.787c0-74.439 61.009-135 136-135 20.831 0 41.196 4.762 59.656 13.864-9.367 18.366-14.656 39.144-14.656 61.136 0 30.318 10.615 59.952 30 84.066v55.146l55.327-13.832c1.551.619 3.11 1.199 4.673 1.758v93.649c0 17.687 6.888 34.314 19.394 46.82 5.352 5.352 8.822 12.084 10.079 19.393h-329.945c1.256-7.31 4.727-14.042 10.078-19.393z" fill="#2453b6" data-original="#000000" style=""/><path d="m301 120h30v30h-30z" fill="#2453b6" data-original="#000000" style=""/><path d="m361 120h30v30h-30z" fill="#2453b6" data-original="#000000" style=""/><path d="m421 120h30v30h-30z" fill="#2453b6" data-original="#000000" style=""/></g></g></svg>
