<?xml version="1.0" encoding="iso-8859-1"?>
<!-- Generator: Adobe Illustrator 19.0.0, SVG Export Plug-In . SVG Version: 6.00 Build 0)  -->
<svg xmlns="http://www.w3.org/2000/svg" xmlns:xlink="http://www.w3.org/1999/xlink" version="1.1" id="Layer_1" x="0px" y="0px" viewBox="0 0 512 512" style="enable-background:new 0 0 512 512;" xml:space="preserve" width="512px" height="512px">
<g>
	<g>
		<path d="M471.149,87.149h-99.448c-2.466-6.952-7.983-12.469-14.935-14.935V40.851C356.766,18.325,338.441,0,315.915,0h-119.83    c-22.526,0-40.851,18.325-40.851,40.851v31.363c-6.952,2.465-12.469,7.983-14.935,14.935H40.851C18.325,87.149,0,105.474,0,128    v343.149C0,493.675,18.325,512,40.851,512h430.298C493.675,512,512,493.675,512,471.149V128    C512,105.474,493.675,87.149,471.149,87.149z M196.085,16.34h119.83c10.651,0,19.733,6.831,23.105,16.34H172.98    C176.352,23.172,185.434,16.34,196.085,16.34z M171.574,49.021h168.851v38.128H171.574V49.021z M40.851,495.66    c-13.515,0-24.511-10.995-24.511-24.511v-56.804c43.046,3.9,77.414,38.268,81.314,81.314H40.851z M495.66,471.149    c0,13.516-10.996,24.511-24.511,24.511h-56.804c3.9-43.046,38.268-77.414,81.314-81.314V471.149z M495.66,217.872    c0,13.516-10.996,24.511-24.511,24.511H329.067c-4.079-36.714-35.284-65.362-73.067-65.362c-40.546,0-73.532,32.986-73.532,73.532    c0,31.416,19.858,59.077,49.021,69.349v20.524h-24.511c-4.513,0-8.17,3.658-8.17,8.17v32.681c0,4.512,3.657,8.17,8.17,8.17h24.511    v24.511c0,4.512,3.657,8.17,8.17,8.17h32.681c4.513,0,8.17-3.658,8.17-8.17v-24.511h24.511c4.513,0,8.17-3.658,8.17-8.17v-32.681    c0-4.512-3.657-8.17-8.17-8.17h-24.511v-20.524c26.604-9.371,45.457-33.215,48.562-61.179h142.077    c9.19,0,17.678-3.051,24.511-8.192v147.397c-52.066,3.979-93.752,45.665-97.731,97.731H114.071    c-3.979-52.066-45.665-93.752-97.731-97.731V250.531c6.832,5.141,15.321,8.192,24.511,8.192h117.106c4.513,0,8.17-3.658,8.17-8.17    c0-4.512-3.657-8.17-8.17-8.17H40.851c-13.515,0-24.511-10.995-24.511-24.511V128c0-13.516,10.996-24.511,24.511-24.511h430.298    c13.515,0,24.511,10.995,24.511,24.511V217.872z M272.34,356.766h24.511v16.34H272.34c-4.513,0-8.17,3.658-8.17,8.17v24.511    h-16.34v-24.511c0-4.512-3.657-8.17-8.17-8.17h-24.511v-16.34h24.511c4.513,0,8.17-3.658,8.17-8.17v-34.741    c0-3.728-2.523-6.983-6.134-7.912c-25.251-6.499-42.887-29.277-42.887-55.39c0-31.536,25.657-57.192,57.191-57.192    s57.191,25.656,57.191,57.192c0,26.113-17.636,48.891-42.887,55.39c-3.61,0.929-6.134,4.184-6.134,7.912v34.741    C264.17,353.108,267.827,356.766,272.34,356.766z" fill="#2453b6"/>
	</g>
</g>
<g>
	<g>
		<circle cx="49.021" cy="136.17" r="8.17" fill="#2453b6"/>
	</g>
</g>
<g>
	<g>
		<circle cx="81.702" cy="168.851" r="8.17" fill="#2453b6"/>
	</g>
</g>
<g>
	<g>
		<circle cx="430.298" cy="381.277" r="8.17" fill="#2453b6"/>
	</g>
</g>
<g>
	<g>
		<path d="M256,226.043c-4.513,0-8.17,3.658-8.17,8.17v32.681c0,4.512,3.657,8.17,8.17,8.17c4.513,0,8.17-3.658,8.17-8.17v-32.681    C264.17,229.701,260.513,226.043,256,226.043z" fill="#2453b6"/>
	</g>
</g>
<g>
</g>
<g>
</g>
<g>
</g>
<g>
</g>
<g>
</g>
<g>
</g>
<g>
</g>
<g>
</g>
<g>
</g>
<g>
</g>
<g>
</g>
<g>
</g>
<g>
</g>
<g>
</g>
<g>
</g>
</svg>
