<svg xmlns="http://www.w3.org/2000/svg" width="105.471" height="105.472" viewBox="0 0 105.471 105.472">
  <g id="optimization" transform="translate(-2 -2)">
    <rect id="Rectangle_564" data-name="Rectangle 564" width="7" height="23" transform="translate(65 42)" fill="#2453b6"/>
    <rect id="Rectangle_565" data-name="Rectangle 565" width="7" height="17" transform="translate(51 48)" fill="#2453b6"/>
    <rect id="Rectangle_566" data-name="Rectangle 566" width="7" height="10" transform="translate(37 55)" fill="#2453b6"/>
    <path id="Path_1751" data-name="Path 1751" d="M16.5,39.742a5.377,5.377,0,0,1-3.468,3.669L8.325,44.941a42.481,42.481,0,0,0,0,10.493l4.711,1.531A5.381,5.381,0,0,1,16.5,60.634q.245.849.527,1.679a5.663,5.663,0,0,1-.726,5.108L13.5,71.348a42.965,42.965,0,0,0,6.251,8.519l4.247-1.492a5.108,5.108,0,0,1,4.894.856q.662.527,1.348,1.021A5.546,5.546,0,0,1,32.52,84.82l-.049,4.291a41.4,41.4,0,0,0,10.146,3.263l2.273-3.336a5.2,5.2,0,0,1,4.435-2.3c.287.011.575.014.863.014s.575,0,.861-.011a5.2,5.2,0,0,1,4.435,2.3l2.273,3.336A41.358,41.358,0,0,0,67.9,89.115l-.049-4.291a5.546,5.546,0,0,1,2.283-4.569q.686-.493,1.348-1.021a5.1,5.1,0,0,1,4.894-.856l4.247,1.492a42.965,42.965,0,0,0,6.251-8.519l-2.809-3.927a5.663,5.663,0,0,1-.726-5.108q.282-.831.527-1.679a5.377,5.377,0,0,1,3.468-3.669l4.711-1.531a43.492,43.492,0,0,0,.329-5.249,44.17,44.17,0,0,0-.325-5.247L87.341,43.41a5.381,5.381,0,0,1-3.468-3.669q-.245-.849-.527-1.679a5.663,5.663,0,0,1,.726-5.108l2.809-3.927a42.965,42.965,0,0,0-6.251-8.519L76.383,22a5.108,5.108,0,0,1-4.894-.856q-.662-.527-1.348-1.021a5.546,5.546,0,0,1-2.283-4.569l.049-4.291A41.362,41.362,0,0,0,57.758,8l-2.273,3.336a5.2,5.2,0,0,1-4.435,2.3c-.285-.007-.573-.011-.861-.011s-.575,0-.861.011a5.2,5.2,0,0,1-4.435-2.3L42.619,8a41.358,41.358,0,0,0-10.145,3.263l.049,4.291a5.546,5.546,0,0,1-2.283,4.569q-.686.5-1.348,1.021A5.1,5.1,0,0,1,24,22l-4.247-1.492A42.965,42.965,0,0,0,13.5,29.026l2.809,3.927a5.663,5.663,0,0,1,.726,5.108Q16.748,38.894,16.5,39.742ZM50.189,22.063A28.126,28.126,0,1,1,22.063,50.189,28.125,28.125,0,0,1,50.189,22.063Z" transform="translate(4.547 4.547)" fill="#2453b6"/>
    <path id="Path_1752" data-name="Path 1752" d="M5.516,37,2,47.547l3.459-.577a52.738,52.738,0,0,0,98.79-.575l-3.3-1.211A49.214,49.214,0,0,1,9.014,46.378l3.533-.589Z" transform="translate(0 26.525)" fill="#2453b6"/>
    <path id="Path_1753" data-name="Path 1753" d="M53.347,2A52.932,52.932,0,0,0,3.833,36.551l3.3,1.211A49.211,49.211,0,0,1,98.856,36.05l-3.321,1.107,8.789,7.031,1.758-10.547-3.887,1.3A52.92,52.92,0,0,0,53.347,2Z" transform="translate(1.389)" fill="#2453b6"/>
  </g>
</svg>
