<?xml version="1.0"?>
<svg xmlns="http://www.w3.org/2000/svg" xmlns:xlink="http://www.w3.org/1999/xlink" xmlns:svgjs="http://svgjs.com/svgjs" version="1.1" width="512" height="512" x="0" y="0" viewBox="0 0 512 512" style="enable-background:new 0 0 512 512" xml:space="preserve" className=""><g><g xmlns="http://www.w3.org/2000/svg"><path d="m124.633 428.835h262.733c5.522 0 10-4.477 10-10v-227.584c0-5.523-4.478-10-10-10h-262.733c-5.523 0-10 4.477-10 10v227.584c0 5.522 4.477 10 10 10zm10-227.584h242.733v207.584h-242.733z" fill="#2453b6" data-original="#000000" style="" className=""/><path d="m481.478 61.488h-31.278v-17.396c0-5.523-4.478-10-10-10h-58.339c-5.522 0-10 4.477-10 10v17.396h-76.691v-17.396c0-5.523-4.477-10-10-10h-58.339c-5.523 0-10 4.477-10 10v17.396h-66.691v-17.396c0-5.523-4.477-10-10-10h-58.34c-5.523 0-10 4.477-10 10v17.396h-41.278c-16.83 0-30.522 13.692-30.522 30.522v351.773c0 18.816 15.331 34.125 34.175 34.125h437.095c22.459 0 40.73-18.272 40.73-40.73v-345.168c0-16.83-13.692-30.522-30.522-30.522zm-89.617-7.396h38.339v35.531h-38.339zm-155.03 0h38.339v35.531h-38.339zm-145.031 0h38.339v35.531h-38.339zm-71.8 37.918c0-5.802 4.72-10.522 10.522-10.522h41.278v18.134c0 5.523 4.477 10 10 10h58.339c5.523 0 10-4.477 10-10v-18.134h66.691v18.134c0 5.523 4.477 10 10 10h58.339c5.523 0 10-4.477 10-10v-18.134h76.691v18.134c0 5.523 4.478 10 10 10h58.34c5.522 0 10-4.477 10-10v-18.134h31.278c5.802 0 10.522 4.72 10.522 10.522v42.093h-472zm472 345.168c0 11.431-9.3 20.73-20.73 20.73h-437.095c-7.816 0-14.175-6.336-14.175-14.125v-289.68h472z" fill="#2453b6" data-original="#000000" style="" className=""/><path d="m332.25 272.04-42.785-12.613-25.216-36.794c-1.865-2.72-4.951-4.347-8.249-4.347s-6.384 1.626-8.249 4.347l-25.217 36.794-42.786 12.613c-3.164.933-5.664 3.365-6.683 6.501-1.019 3.137-.426 6.574 1.586 9.188l27.201 35.352-1.226 44.589c-.091 3.297 1.45 6.427 4.118 8.365 1.732 1.258 3.794 1.91 5.879 1.91 1.126 0 2.259-.19 3.35-.578l42.027-14.945 42.027 14.945c3.107 1.104 6.559.607 9.229-1.332 2.668-1.939 4.209-5.068 4.118-8.365l-1.227-44.589 27.201-35.352c2.011-2.614 2.603-6.052 1.585-9.188-1.019-3.136-3.519-5.568-6.683-6.501zm-40.122 41.664c-1.402 1.823-2.134 4.074-2.07 6.373l.923 33.558-31.63-11.248c-2.167-.77-4.533-.771-6.701 0l-31.63 11.248.922-33.558c.063-2.299-.668-4.55-2.071-6.373l-20.471-26.606 32.201-9.493c2.206-.65 4.121-2.041 5.421-3.939l18.978-27.69 18.977 27.691c1.301 1.897 3.215 3.288 5.422 3.939l32.2 9.493z" fill="#2453b6" data-original="#000000" style="" className=""/><path d="m447.707 302.661h10.515c5.522 0 10-4.477 10-10s-4.478-10-10-10h-10.515c-5.522 0-10 4.477-10 10s4.478 10 10 10z" fill="#2453b6" data-original="#000000" style="" className=""/><path d="m422.453 246.016c2.56 0 5.118-.976 7.071-2.929l7.436-7.436c3.905-3.905 3.905-10.237 0-14.143-3.906-3.905-10.236-3.905-14.143 0l-7.436 7.435c-3.905 3.905-3.905 10.237 0 14.143 1.954 1.954 4.513 2.93 7.072 2.93z" fill="#2453b6" data-original="#000000" style="" className=""/><path d="m422.817 363.811c1.953 1.953 4.512 2.929 7.071 2.929 2.56 0 5.119-.977 7.071-2.929 3.905-3.905 3.905-10.237 0-14.142l-7.436-7.435c-3.906-3.905-10.238-3.905-14.143.001-3.905 3.905-3.905 10.237 0 14.142z" fill="#2453b6" data-original="#000000" style="" className=""/><path d="m53.778 302.661h10.515c5.523 0 10-4.477 10-10s-4.477-10-10-10h-10.515c-5.523 0-10 4.477-10 10s4.477 10 10 10z" fill="#2453b6" data-original="#000000" style="" className=""/><path d="m82.476 342.234-7.436 7.435c-3.905 3.905-3.906 10.237 0 14.142 1.953 1.953 4.512 2.929 7.071 2.929s5.118-.977 7.071-2.929l7.436-7.435c3.905-3.905 3.906-10.237 0-14.142-3.904-3.905-10.236-3.904-14.142 0z" fill="#2453b6" data-original="#000000" style="" className=""/><path d="m82.476 243.087c1.953 1.953 4.512 2.929 7.071 2.929s5.119-.976 7.071-2.929c3.905-3.905 3.905-10.237 0-14.143l-7.436-7.435c-3.905-3.905-10.237-3.905-14.143 0-3.905 3.905-3.905 10.237 0 14.143z" fill="#2453b6" data-original="#000000" style="" className=""/></g></g></svg>
