<?xml version="1.0"?>
<svg xmlns="http://www.w3.org/2000/svg" xmlns:xlink="http://www.w3.org/1999/xlink" xmlns:svgjs="http://svgjs.com/svgjs" version="1.1" width="512" height="512" x="0" y="0" viewBox="0 0 512 512" style="enable-background:new 0 0 512 512" xml:space="preserve"><g>
<g xmlns="http://www.w3.org/2000/svg">
	<g>
		<path d="M480,0H224c-17.673,0-32,14.327-32,32v32h21.333V32c0-5.891,4.776-10.667,10.667-10.667h256    c5.891,0,10.667,4.776,10.667,10.667v448c0,5.891-4.776,10.667-10.667,10.667H224c-5.891,0-10.667-4.776-10.667-10.667v-32H192v32    c0,17.673,14.327,32,32,32h256c17.673,0,32-14.327,32-32V32C512,14.327,497.673,0,480,0z" fill="#2453b6" data-original="#000000" style=""/>
	</g>
</g>
<g xmlns="http://www.w3.org/2000/svg">
	<g>
		<rect x="288" y="85.333" width="181.333" height="21.333" fill="#2453b6" data-original="#000000" style=""/>
	</g>
</g>
<g xmlns="http://www.w3.org/2000/svg">
	<g>
		<rect x="288" y="405.333" width="181.333" height="21.333" fill="#2453b6" data-original="#000000" style=""/>
	</g>
</g>
<g xmlns="http://www.w3.org/2000/svg">
	<g>
		<rect x="266.667" y="42.667" width="128" height="21.333" fill="#2453b6" data-original="#000000" style=""/>
	</g>
</g>
<g xmlns="http://www.w3.org/2000/svg">
	<g>
		<rect x="416" y="42.667" width="21.333" height="21.333" fill="#2453b6" data-original="#000000" style=""/>
	</g>
</g>
<g xmlns="http://www.w3.org/2000/svg">
	<g>
		<rect x="341.333" y="448" width="21.333" height="21.333" fill="#2453b6" data-original="#000000" style=""/>
	</g>
</g>
<g xmlns="http://www.w3.org/2000/svg">
	<g>
		<path d="M352,266.667c-0.634,0.062-1.273,0.062-1.907,0c-5.365-0.527-9.287-5.302-8.76-10.667    c0-94.257-76.41-170.667-170.667-170.667S0,161.743,0,256s76.41,170.667,170.667,170.667h96v-21.333h-96    c-82.475,0-149.333-66.859-149.333-149.333s66.859-149.333,149.333-149.333S320,173.525,320,256c-0.018,0.606-0.018,1.213,0,1.819    c0.502,17.171,14.829,30.684,32,30.181h117.333v-21.333H352z" fill="#2453b6" data-original="#000000" style=""/>
	</g>
</g>
<g xmlns="http://www.w3.org/2000/svg">
	<g>
		<path d="M213.333,234.667V224c0-11.782-9.551-21.333-21.333-21.333h-42.667C137.551,202.667,128,212.218,128,224v21.333    c0,11.782,9.551,21.333,21.333,21.333H192V288h-42.667v-10.667H128V288c0,11.782,9.551,21.333,21.333,21.333H192    c11.782,0,21.333-9.551,21.333-21.333v-21.333c0-11.782-9.551-21.333-21.333-21.333h-42.667V224H192v10.667H213.333z" fill="#2453b6" data-original="#000000" style=""/>
	</g>
</g>
<g xmlns="http://www.w3.org/2000/svg">
	<g>
		<rect x="160" y="181.333" width="21.333" height="32" fill="#2453b6" data-original="#000000" style=""/>
	</g>
</g>
<g xmlns="http://www.w3.org/2000/svg">
	<g>
		<rect x="160" y="298.667" width="21.333" height="32" fill="#2453b6" data-original="#000000" style=""/>
	</g>
</g>
<g xmlns="http://www.w3.org/2000/svg">
	<g>
		<rect x="256" y="320" width="149.333" height="21.333" fill="#2453b6" data-original="#000000" style=""/>
	</g>
</g>
<g xmlns="http://www.w3.org/2000/svg">
	<g>
		<rect x="426.667" y="320" width="21.333" height="21.333" fill="#2453b6" data-original="#000000" style=""/>
	</g>
</g>
<g xmlns="http://www.w3.org/2000/svg">
	<g>
		<rect x="277.333" y="362.667" width="21.333" height="21.333" fill="#2453b6" data-original="#000000" style=""/>
	</g>
</g>
<g xmlns="http://www.w3.org/2000/svg">
	<g>
		<rect x="320" y="362.667" width="149.333" height="21.333" fill="#2453b6" data-original="#000000" style=""/>
	</g>
</g>
<g xmlns="http://www.w3.org/2000/svg">
</g>
<g xmlns="http://www.w3.org/2000/svg">
</g>
<g xmlns="http://www.w3.org/2000/svg">
</g>
<g xmlns="http://www.w3.org/2000/svg">
</g>
<g xmlns="http://www.w3.org/2000/svg">
</g>
<g xmlns="http://www.w3.org/2000/svg">
</g>
<g xmlns="http://www.w3.org/2000/svg">
</g>
<g xmlns="http://www.w3.org/2000/svg">
</g>
<g xmlns="http://www.w3.org/2000/svg">
</g>
<g xmlns="http://www.w3.org/2000/svg">
</g>
<g xmlns="http://www.w3.org/2000/svg">
</g>
<g xmlns="http://www.w3.org/2000/svg">
</g>
<g xmlns="http://www.w3.org/2000/svg">
</g>
<g xmlns="http://www.w3.org/2000/svg">
</g>
<g xmlns="http://www.w3.org/2000/svg">
</g>
</g></svg>
