<svg height="512" viewBox="0 0 58 58" width="512" xmlns="http://www.w3.org/2000/svg"><g id="Page-1" fill="none" fill-rule="evenodd"><g id="013---Secure-Payment" fill-rule="nonzero"><path id="Shape" d="m22 33h-16c-3.3137085 0-6-2.6862915-6-6v-21c0-3.3137085 2.6862915-6 6-6h38c3.3137085 0 6 2.6862915 6 6v14.14z" fill="#f0c419"/><path id="Shape" d="m15 7v2h-6v-4h4c1.1032019.0032948 1.9967052.89679813 2 2z" fill="#e57e25"/><path id="Shape" d="m9 5v4h-4v-2c.0032948-1.10320187.89679813-1.9967052 2-2z" fill="#f29c1f"/><path id="Shape" d="m9 9v4h-2c-1.10320187-.0032948-1.9967052-.8967981-2-2v-2z" fill="#e57e25"/><path id="Shape" d="m15 9v2c-.0032948 1.1032019-.8967981 1.9967052-2 2h-4v-4z" fill="#f29c1f"/><g fill="#3f5c6c"><path id="Shape" d="m13 22h-6c-.55228475 0-1-.4477153-1-1s.44771525-1 1-1h6c.5522847 0 1 .4477153 1 1s-.4477153 1-1 1z"/><path id="Shape" d="m18 22h-1c-.5522847 0-1-.4477153-1-1s.4477153-1 1-1h1c.5522847 0 1 .4477153 1 1s-.4477153 1-1 1z"/><path id="Shape" d="m9 28h-2c-.55228475 0-1-.4477153-1-1s.44771525-1 1-1h2c.55228475 0 1 .4477153 1 1s-.44771525 1-1 1z"/><path id="Shape" d="m18 28h-4c-.5522847 0-1-.4477153-1-1s.4477153-1 1-1h4c.5522847 0 1 .4477153 1 1s-.4477153 1-1 1z"/></g><circle id="Oval" cx="42" cy="9" fill="#e64c3c" r="3"/><circle id="Oval" cx="36" cy="9" fill="#ecf0f1" r="3"/><path id="Shape" d="m41.271 16.138c4.854 3.9 11.586 4.7 14.831 4.852 1.0684235.0545393 1.9047402.9402066 1.898 2.01v12.915c.0000463.0967162-.0069723.1933065-.021.289-.241 1.682-2.794 16.724-17.332 21.69-.419809.1410083-.874191.1410083-1.294 0-14.538-4.966-17.091-20.008-17.332-21.694-.0138347-.0943725-.0208529-.189619-.021-.285v-12.915c-.0061534-1.0701433.8311766-1.9555096 1.9-2.009 3.245-.151 9.977-.954 14.831-4.852.7401161-.6003341 1.7994114-.6007511 2.54-.001z" fill="#2980ba"/><path id="Shape" d="m40 53.772c-11.493-4.322-13.727-16.254-14-18.048v-10.891c3.76-.367 9.338-1.47 14-4.665 4.662 3.2 10.24 4.3 14 4.665v10.894c-.264 1.742-2.483 13.714-14 18.045z" fill="#67b9cc"/><path id="Shape" d="m38 42c-.2651948-.0000566-.5195073-.1054506-.707-.293l-4-4c-.3789722-.3923789-.3735524-1.0160848.0121814-1.4018186s1.0094397-.3911536 1.4018186-.0121814l3.219 3.219 8.3-10.145c.3522954-.4175401.974478-.4750776 1.3973695-.1292244.4228916.3458532.4899602.9670807.1506305 1.3952244l-9 11c-.1785998.2191825-.4416366.3525174-.724.367z" fill="#ecf0f1"/></g></g></svg>