<svg id="Layer_3" enable-background="new 0 0 64 64" height="512" viewBox="0 0 64 64" width="512" xmlns="http://www.w3.org/2000/svg"><g><path d="m47.754 31.017c-4.412-.206-8.612 1.363-11.804 4.411-3.192 3.049-4.95 7.159-4.95 11.572v10h2v-10c0-3.862 1.538-7.458 4.332-10.126 2.791-2.667 6.446-4.04 10.33-3.859 7.142.329 12.993 6.181 13.322 13.322.179 3.87-1.191 7.538-3.858 10.33-.04.042-.085.078-.126.119v-4.169c0-2.545-2.071-4.617-4.618-4.617h-.146c-.794 0-1.513-.361-2.003-.954 1.662-1.068 2.767-2.928 2.767-5.046v-2c0-3.309-2.691-6-6-6s-6 2.691-6 6v2c0 2.118 1.105 3.978 2.767 5.046-.491.593-1.21.954-2.003.954h-.146c-2.547 0-4.618 2.072-4.618 4.618v4.382c0 .552.447 1 1 1h17.638c-2.453 1.937-5.45 3-8.638 3h-8c-9.59 0-17.452-7.538-17.973-17h2.973c.404 0 .77-.244.924-.617.155-.374.069-.804-.217-1.09l-7-7c-.391-.391-1.023-.391-1.414 0l-7 7c-.286.286-.372.716-.217 1.09.154.373.52.617.924.617h3.024c.523 10.565 9.284 19 19.976 19h14c4.414 0 8.523-1.758 11.572-4.951 3.048-3.191 4.613-7.383 4.41-11.803-.376-8.164-7.064-14.853-15.228-15.229zm-4.754 8.983c0-2.206 1.794-4 4-4s4 1.794 4 4v2c0 2.206-1.794 4-4 4s-4-1.794-4-4zm4 8c.461 0 .908-.057 1.34-.156.304.483.687.896 1.13 1.229-.688.583-1.565.927-2.47.927s-1.782-.344-2.47-.927c.443-.333.826-.746 1.13-1.229.432.099.879.156 1.34.156zm8 8h-2v-2h-2v2h-8v-2h-2v2h-2v-3.382c0-1.444 1.175-2.618 2.618-2.618h.146c.257 0 .508-.027.755-.067l.36.36c1.085 1.085 2.587 1.707 4.121 1.707s3.036-.622 4.121-1.707l.36-.36c.248.04.499.067.755.067h.146c1.443 0 2.618 1.174 2.618 2.618zm-40-13c0-.552-.447-1-1-1h-1.586l4.586-4.586 4.586 4.586h-1.586c-.553 0-1 .448-1 1 0 7.665 4.334 14.337 10.682 17.693-8.346-1.561-14.682-8.901-14.682-17.693z"/><path d="m17.009 33c4.139 0 8.034-1.557 11.041-4.428 3.192-3.049 4.95-7.159 4.95-11.572v-10h-2v10c0 3.7-1.425 7.146-4 9.776v-4.157c0-2.547-2.071-4.619-4.618-4.619h-.146c-.794 0-1.513-.361-2.003-.954 1.662-1.068 2.767-2.928 2.767-5.046v-2c0-3.309-2.691-6-6-6s-6 2.691-6 6v2c0 2.118 1.105 3.978 2.767 5.046-.491.593-1.21.954-2.003.954h-.146c-2.547 0-4.618 2.072-4.618 4.618v4.127c-2.324-2.384-3.823-5.575-3.984-9.083-.179-3.87 1.191-7.538 3.858-10.33 2.668-2.793 6.264-4.332 10.126-4.332h8c9.59 0 17.452 7.538 17.973 17h-2.973c-.404 0-.77.244-.924.617-.155.374-.069.804.217 1.09l7 7c.391.391 1.023.391 1.414 0l7-7c.286-.286.372-.716.217-1.09-.154-.373-.52-.617-.924-.617h-3.024c-.523-10.565-9.284-19-19.976-19h-14c-4.414 0-8.523 1.758-11.572 4.951-3.048 3.191-4.613 7.383-4.41 11.803.376 8.164 7.064 14.853 15.229 15.229.254.012.508.017.762.017zm31.991-12c0 .552.447 1 1 1h1.586l-4.586 4.586-4.586-4.586h1.586c.553 0 1-.448 1-1 0-7.665-4.334-14.337-10.682-17.693 8.346 1.561 14.682 8.901 14.682 17.693zm-23.344 7c-2.639 2.085-5.898 3.138-9.318 2.985-2.972-.137-5.713-1.24-7.933-2.985zm-12.656-18c0-2.206 1.794-4 4-4s4 1.794 4 4v2c0 2.206-1.794 4-4 4s-4-1.794-4-4zm4 8c.461 0 .908-.057 1.34-.156.304.483.687.896 1.13 1.229-.688.583-1.565.927-2.47.927s-1.782-.344-2.47-.927c.443-.333.826-.746 1.13-1.229.432.099.879.156 1.34.156zm-8 4.618c0-1.444 1.175-2.618 2.618-2.618h.146c.257 0 .508-.027.755-.067l.36.36c1.085 1.085 2.587 1.707 4.121 1.707s3.036-.622 4.121-1.707l.36-.36c.248.04.499.067.755.067h.146c1.443 0 2.618 1.174 2.618 2.618v3.382h-2v-2h-2v2h-8v-2h-2v2h-2z"/></g></svg>