<?xml version="1.0"?>
<svg xmlns="http://www.w3.org/2000/svg" id="Layer_5" enable-background="new 0 0 64 64" height="512px" viewBox="0 0 64 64" width="512px"><g><path d="m19 40h2v2h-2z" data-original="#000000" className="active-path" data-old_color="#000000" fill="#2453B6"/><path d="m19 44h2v2h-2z" data-original="#000000" className="active-path" data-old_color="#000000" fill="#2453B6"/><path d="m60 1h-24c-1.654 0-3 1.346-3 3v2.539c-.596-.344-1.279-.539-2-.539-.616 0-1.234.146-1.789.422-1.973.987-2.774 3.395-1.789 5.367l5.105 10.211h-8.883c2.044-1.651 3.356-4.174 3.356-7 0-4.962-4.037-9-9-9s-9 4.038-9 9c0 2.883 1.368 5.448 3.484 7.096-6.455.755-11.484 6.25-11.484 12.904v15h28v-19c0-.551.448-1 1-1h9.001c.617 0 1.236-.146 1.788-.422 1.973-.987 2.774-3.395 1.789-5.367l-.606-1.211h5.028v3.046c0 1.629 1.325 2.954 2.954 2.954.99 0 1.909-.492 2.458-1.315l3.123-4.685h4.465c1.654 0 3-1.346 3-3v-16c0-1.654-1.346-3-3-3zm-41.992 34.054c-.593-.556-1.151-1.14-1.663-1.76l1.163-9.294h.985l1.161 9.288c-.511.621-1.057 1.212-1.646 1.766zm-5.759-10.901c.572-.092 1.154-.153 1.751-.153h1.492l-.856 6.843c-1.203-2.044-2.015-4.305-2.387-6.69zm9.112 6.673-.853-6.826h3.262c-.361 2.423-1.183 4.737-2.409 6.826zm-10.361-15.826c0-3.86 3.141-7 7-7s7 3.14 7 7-3.141 7-7 7-7-3.14-7-7zm-8 20c0-4.768 3.055-8.825 7.305-10.348.74 4.481 2.894 8.564 6.176 11.707l-1.481 1.152v10.489h-6v-13h-2v13h-4zm36.895-7.21c-.276.138-.585.21-.894.21h-9.001c-1.654 0-3 1.346-3 3v17h-10v-9.51l.894-.695c4.338-3.375 7.164-8.366 7.894-13.794h7.74l1.253 2.505 1.789-.895-7.358-14.716c-.493-.987-.092-2.191.894-2.684.963-.482 2.204-.064 2.683.891l8.002 16.002c.491.988.09 2.192-.896 2.686zm1.105-10.79h-2v-4h2zm20 3c0 .551-.448 1-1 1h-5.535l-3.717 5.575c-.178.266-.475.425-.794.425-.526 0-.954-.428-.954-.954v-5.046h-8.028l-1-2h19.028v-12h-6v10h-2v-12h-6v12h-2v-6h-6v2.056l-2-4v-5.056c0-.551.448-1 1-1h24c.552 0 1 .449 1 1zm-12-3h-2v-10h2zm6 0v-8h2v8z" data-original="#000000" className="active-path" data-old_color="#000000" fill="#2453B6"/><path d="m47 31c-8.822 0-16 7.178-16 16 0 3.494 1.112 6.814 3.217 9.603l.528.7 7.135-4.045-.83-.925c-1.321-1.475-2.05-3.369-2.05-5.333 0-4.411 3.589-8 8-8s8 3.589 8 8c0 1.964-.729 3.858-2.05 5.333l-.833.929 7.156 4.019.525-.699c2.096-2.784 3.202-6.098 3.202-9.582 0-8.822-7.178-16-16-16zm-11.692 23.684c-1.329-2.005-2.103-4.286-2.272-6.684h4.021c.171 1.69.766 3.308 1.741 4.705zm1.743-8.684h-4c.221-3.108 1.455-5.934 3.381-8.154l2.83 2.83c-1.214 1.482-2.011 3.316-2.211 5.324zm3.625-6.738-2.83-2.83c2.22-1.926 5.047-3.16 8.154-3.381v4c-2.008.2-3.843.998-5.324 2.211zm7.324-2.211v-4c3.108.221 5.934 1.455 8.154 3.381l-2.83 2.83c-1.481-1.213-3.316-2.011-5.324-2.211zm6.738 3.625 2.83-2.83c1.926 2.22 3.16 5.047 3.381 8.154h-4c-.2-2.008-.997-3.842-2.211-5.324zm3.965 13.991-3.499-1.965c.974-1.396 1.568-3.013 1.739-4.701h4.021c-.168 2.39-.938 4.664-2.261 6.666z" data-original="#000000" className="active-path" data-old_color="#000000" fill="#2453B6"/><path d="m49.126 42.854c-.146-1.057-1.06-1.854-2.126-1.854s-1.98.797-2.127 1.855l-1.621 11.871c-.77.88-1.252 2.017-1.252 3.274 0 2.757 2.243 5 5 5s5-2.243 5-5c0-1.257-.482-2.394-1.252-3.274zm-2.272.273c.021-.145.271-.144.29-.001l1.385 10.138c-.485-.157-.992-.264-1.529-.264s-1.044.107-1.529.265zm.146 17.873c-1.654 0-3-1.346-3-3s1.346-3 3-3 3 1.346 3 3-1.346 3-3 3z" data-original="#000000" className="active-path" data-old_color="#000000" fill="#2453B6"/></g> </svg>
