<?xml version="1.0" encoding="iso-8859-1"?>
<!-- Generator: Adobe Illustrator 19.0.0, SVG Export Plug-In . SVG Version: 6.00 Build 0)  -->
<svg xmlns="http://www.w3.org/2000/svg" xmlns:xlink="http://www.w3.org/1999/xlink" version="1.1" id="Layer_1" x="0px" y="0px" viewBox="0 0 498 498" style="enable-background:new 0 0 498 498;" xml:space="preserve" width="512px" height="512px">
<g>
	<g>
		<g>
			<path d="M377,442c0-48.328-27.512-92.16-69.856-113.816C334.792,309.472,353,277.824,353,242v-8h-96v-96h-8     c-57.344,0-104,46.656-104,104c0,35.824,18.208,67.472,45.856,86.184C148.512,349.84,121,393.672,121,442v40H49v-16H33v16H1v16     h464v-16h-88V442z M161,242c0-45.832,35.208-83.584,80-87.64V250h95.64c-4.056,44.792-41.808,80-87.64,80     C200.48,330,161,290.52,161,242z M249,375.104l-27.408-32.888C230.344,344.608,239.504,346,249,346     c9.496,0,18.656-1.392,27.408-3.784L249,375.104z M263.264,395.584L260.056,402h-22.112l-3.208-6.416L249,381.32L263.264,395.584     z M217.76,482H137v-40c0-32.904,14.592-63.44,38.52-84.312l40.464,56.648l6.832-6.832l2,4L217.76,482z M218.016,389.664     l-29.736-41.632c3.776-2.44,7.752-4.6,11.84-6.592l30.056,36.064L218.016,389.664z M233.84,482l6.4-64h17.52l6.4,64H233.84z      M297.872,341.44c4.096,1.992,8.072,4.152,11.84,6.592l-29.736,41.632l-12.16-12.16L297.872,341.44z M361,482h-80.76     l-7.048-70.496l2-4l6.832,6.832l40.464-56.648C346.408,378.56,361,409.096,361,442V482z" fill="#2453b6"/>
			<rect x="481" y="482" width="16" height="16" fill="#2453b6"/>
			<path d="M385,210c0-57.344-46.656-104-104-104h-8v112h112V210z M289,202v-79.64c42.16,3.816,75.824,37.488,79.64,79.64H289z" fill="#2453b6"/>
			<polygon points="33,26 33,450 49,450 49,26 68.2,40.4 77.8,27.6 41,0 4.2,27.6 13.8,40.4    " fill="#2453b6"/>
			<polygon points="177,34 177,138 193,138 193,34 212.2,48.4 221.8,35.6 185,8 148.2,35.6 157.8,48.4    " fill="#2453b6"/>
			<polygon points="321,58 321,98 337,98 337,58 356.2,72.4 365.8,59.6 329,32 292.2,59.6 301.8,72.4    " fill="#2453b6"/>
			<polygon points="69.8,120.4 89,106 89,402 105,402 105,106 124.2,120.4 133.8,107.6 97,80 60.2,107.6    " fill="#2453b6"/>
			<rect x="89" y="450" width="16" height="16" fill="#2453b6"/>
			<rect x="89" y="418" width="16" height="16" fill="#2453b6"/>
			<polygon points="493.8,27.6 457,0 420.2,27.6 429.8,40.4 449,26 449,402 465,402 465,26 484.2,40.4    " fill="#2453b6"/>
			<rect x="449" y="450" width="16" height="16" fill="#2453b6"/>
			<rect x="449" y="418" width="16" height="16" fill="#2453b6"/>
			<polygon points="409,282 428.2,296.4 437.8,283.6 401,256 364.2,283.6 373.8,296.4 393,282 393,386 409,386    " fill="#2453b6"/>
			<rect x="393" y="402" width="16" height="16" fill="#2453b6"/>
			<rect x="393" y="434" width="16" height="16" fill="#2453b6"/>
		</g>
	</g>
</g>
<g>
</g>
<g>
</g>
<g>
</g>
<g>
</g>
<g>
</g>
<g>
</g>
<g>
</g>
<g>
</g>
<g>
</g>
<g>
</g>
<g>
</g>
<g>
</g>
<g>
</g>
<g>
</g>
<g>
</g>
</svg>
