<?xml version="1.0"?>
<svg xmlns="http://www.w3.org/2000/svg" xmlns:xlink="http://www.w3.org/1999/xlink" xmlns:svgjs="http://svgjs.com/svgjs" version="1.1" width="512" height="512" x="0" y="0" viewBox="0 0 480 480" style="enable-background:new 0 0 512 512" xml:space="preserve" className=""><g><path xmlns="http://www.w3.org/2000/svg" d="m280 320h-81.359375c-3.390625-9.59375-12.464844-16.003906-22.640625-16h-16v-88c0-4.417969 3.582031-8 8-8h108.71875l76.160156 76.160156c3.175782 2.71875 7.90625 2.535156 10.863282-.417968 2.953124-2.957032 3.136718-7.6875.417968-10.863282l-64.878906-64.878906h76.71875c4.417969 0 8 3.582031 8 8v76.640625c0 4.417969 3.582031 8 8 8s8-3.582031 8-8v-76.640625c0-13.253906-10.746094-24-24-24h-208c-13.253906 0-24 10.746094-24 24v88h-96c-13.253906 0-24 10.746094-24 24v88h-16c-4.417969 0-8 3.582031-8 8v8c0 17.671875 14.328125 32 32 32h160c17.671875 0 32-14.328125 32-32v-8c0-4.417969-3.582031-8-8-8h-16v-48h32l-14.398438 19.199219c-1.820312 2.425781-2.113281 5.667969-.757812 8.378906s4.125 4.421875 7.15625 4.421875h48c4.417969 0 8-3.582031 8-8s-3.582031-8-8-8h-32l12-16h20c4.417969 0 8-3.582031 8-8s-3.582031-8-8-8h-72v-16h80c4.417969 0 8-3.582031 8-8s-3.582031-8-8-8zm-88 128h-160c-8.835938 0-16-7.164062-16-16h192c0 8.835938-7.164062 16-16 16zm-152-32v-88c0-4.417969 3.582031-8 8-8h60.71875l45.601562 45.679688c1.5 1.515624 3.546876 2.367187 5.679688 2.367187s4.179688-.851563 5.679688-2.367187c1.515624-1.5 2.367187-3.546876 2.367187-5.679688s-.851563-4.179688-2.367187-5.679688l-34.398438-34.320312h44.71875c4.417969 0 8 3.582031 8 8v88zm0 0" fill="#ffffff" data-original="#000000" style="" className=""/><path xmlns="http://www.w3.org/2000/svg" d="m272 416h-24c-4.417969 0-8 3.582031-8 8s3.582031 8 8 8h24c4.417969 0 8-3.582031 8-8s-3.582031-8-8-8zm0 0" fill="#ffffff" data-original="#000000" style="" className=""/><path xmlns="http://www.w3.org/2000/svg" d="m448 376h-48v-32c0-13.253906-10.746094-24-24-24h-56c-13.253906 0-24 10.746094-24 24v96c0 13.253906 10.746094 24 24 24h56c2.722656.003906 5.429688-.457031 8-1.359375v9.359375c0 4.417969 3.582031 8 8 8s8-3.582031 8-8v-76.71875l48 48v28.71875c0 4.417969 3.582031 8 8 8s8-3.582031 8-8v-80c0-8.835938-7.164062-16-16-16zm-64-32v72h-72v-72c-.015625-1.316406.316406-2.613281.960938-3.761719l41.359374 41.441407c1.5 1.515624 3.546876 2.367187 5.679688 2.367187s4.179688-.851563 5.679688-2.367187c1.515624-1.5 2.367187-3.546876 2.367187-5.679688s-.851563-4.179688-2.367187-5.679688l-34.398438-34.320312h44.71875c4.417969 0 8 3.582031 8 8zm-8 104h-56c-4.417969 0-8-3.582031-8-8v-8h72v8c0 4.417969-3.582031 8-8 8zm43.28125-56h28.71875v28.71875zm0 0" fill="#ffffff" data-original="#000000" style="" className=""/><path xmlns="http://www.w3.org/2000/svg" d="m168.878906 88c-.550781 2.050781-.261718 4.238281.800782 6.078125l16 27.683594c1.042968 1.835937 2.765624 3.1875 4.800781 3.757812 2.054687.507813 4.226562.222657 6.078125-.800781l11.441406-6.640625c2.53125 1.722656 5.207031 3.222656 8 4.480469v13.441406c0 4.417969 3.582031 8 8 8h32c4.417969 0 8-3.582031 8-8v-13.441406c2.792969-1.257813 5.46875-2.757813 8-4.480469l11.679688 6.722656c1.855468 1.023438 4.023437 1.308594 6.082031.800781 2.03125-.570312 3.757812-1.921874 4.796875-3.761718l16-27.679688c1.066406-1.839844 1.351562-4.027344.800781-6.082031-.53125-2.046875-1.855469-3.800781-3.679687-4.878906l-11.679688-6.71875c0-1.519531 0-2.960938 0-4.480469s0-2.960938 0-4.480469l11.601562-6.71875c1.746094-1.089843 3.007813-2.808593 3.519532-4.800781.550781-2.050781.261718-4.238281-.800782-6.078125l-16-27.683594c-2.195312-3.808593-7.054687-5.128906-10.878906-2.957031l-11.441406 6.640625c-2.53125-1.722656-5.207031-3.222656-8-4.480469v-13.441406c0-4.417969-3.582031-8-8-8h-32c-4.417969 0-8 3.582031-8 8v13.441406c-2.792969 1.257813-5.46875 2.757813-8 4.480469l-11.441406-6.722656c-3.824219-2.171875-8.683594-.847657-10.878906 2.960937l-16 27.679688c-1.0625 1.839844-1.351563 4.027344-.800782 6.082031.535156 2.046875 1.855469 3.800781 3.679688 4.878906l11.601562 6.71875v4.480469 4.480469l-11.601562 6.71875c-1.804688 1.058593-3.128906 2.78125-3.679688 4.800781zm32-8.800781c-.957031-4.804688-.957031-9.753907 0-14.558594.699219-3.464844-.960937-6.976563-4.078125-8.640625l-9.28125-5.359375 8-13.921875 9.28125 5.441406c2.941407 1.6875 6.628907 1.335938 9.199219-.878906 3.742188-3.167969 8.023438-5.636719 12.640625-7.28125 3.089844-1.078125 5.214844-3.929688 5.359375-7.199219v-10.800781h16v10.800781c.011719 3.386719 2.160156 6.402344 5.359375 7.519531 4.617187 1.644532 8.898437 4.113282 12.640625 7.28125 2.570312 2.210938 6.257812 2.566407 9.199219.878907l9.28125-5.441407 8 13.921876-9.28125 5.039062c-2.960938 1.679688-4.53125 5.050781-3.917969 8.398438.957031 4.808593.957031 9.753906 0 14.5625-.925781 3.554687.691406 7.285156 3.917969 9.039062l9.28125 5.359375-8 13.921875-9.28125-5.441406c-2.941407-1.6875-6.628907-1.335938-9.199219.878906-3.742188 3.167969-8.023438 5.636719-12.640625 7.28125-3.199219 1.117188-5.347656 4.132812-5.359375 7.519531v10.480469h-16v-10.800781c-.011719-3.386719-2.160156-6.402344-5.359375-7.519531-4.617187-1.644532-8.898437-4.113282-12.640625-7.28125-2.570312-2.210938-6.257812-2.566407-9.199219-.878907l-9.28125 5.441407-8-13.921876 9.28125-5.039062c3.089844-1.71875 4.683594-5.265625 3.917969-8.71875zm0 0" fill="#ffffff" data-original="#000000" style="" className=""/><path xmlns="http://www.w3.org/2000/svg" d="m240 96c13.253906 0 24-10.746094 24-24s-10.746094-24-24-24-24 10.746094-24 24 10.746094 24 24 24zm0-32c4.417969 0 8 3.582031 8 8s-3.582031 8-8 8-8-3.582031-8-8 3.582031-8 8-8zm0 0" fill="#ffffff" data-original="#000000" style="" className=""/><path xmlns="http://www.w3.org/2000/svg" d="m86.640625 169.359375c2.125.011719 4.167969-.820313 5.679687-2.320313 1.515626-1.5 2.367188-3.546874 2.367188-5.679687s-.851562-4.175781-2.367188-5.679687c-7.503906-7.523438-17.695312-11.75-28.320312-11.75s-20.816406 4.226562-28.320312 11.75c-3.136719 3.136718-3.136719 8.222656 0 11.359374 3.136718 3.136719 8.222656 3.136719 11.359374 0 9.507813-9.019531 24.414063-9.019531 33.921876 0 1.507812 1.5 3.550781 2.332032 5.679687 2.320313zm0 0" fill="#ffffff" data-original="#000000" style="" className=""/><path xmlns="http://www.w3.org/2000/svg" d="m24.398438 144.398438c21.871093-21.871094 57.332031-21.871094 79.203124 0 3.117188 3.101562 8.15625 3.101562 11.277344 0 3.101563-3.117188 3.101563-8.15625 0-11.277344-28.109375-28.078125-73.648437-28.078125-101.757812 0-2.71875 3.171875-2.535156 7.90625.417968 10.859375 2.957032 2.953125 7.6875 3.136719 10.859376.417969zm0 0" fill="#ffffff" data-original="#000000" style="" className=""/><path xmlns="http://www.w3.org/2000/svg" d="m72 184c0 4.417969-3.582031 8-8 8s-8-3.582031-8-8 3.582031-8 8-8 8 3.582031 8 8zm0 0" fill="#ffffff" data-original="#000000" style="" className=""/><path xmlns="http://www.w3.org/2000/svg" d="m64 264c4.417969 0 8-3.582031 8-8v-40c0-4.417969-3.582031-8-8-8s-8 3.582031-8 8v40c0 4.417969 3.582031 8 8 8zm0 0" fill="#ffffff" data-original="#000000" style="" className=""/><path xmlns="http://www.w3.org/2000/svg" d="m328 80h72c13.253906 0 24 10.746094 24 24v240c0 4.417969 3.582031 8 8 8s8-3.582031 8-8v-240c0-22.089844-17.910156-40-40-40h-72c-4.417969 0-8 3.582031-8 8s3.582031 8 8 8zm0 0" fill="#ffffff" data-original="#000000" style="" className=""/><path xmlns="http://www.w3.org/2000/svg" d="m324.398438 127.121094 7.203124 3.597656c2.714844 1.371094 4.417969 4.160156 4.398438 7.203125v30.078125c0 4.417969 3.582031 8 8 8s8-3.582031 8-8v-30.078125c.019531-9.113281-5.125-17.453125-13.28125-21.523437l-7.117188-3.519532c-2.570312-1.546875-5.789062-1.523437-8.339843.054688-2.546875 1.578125-4 4.453125-3.761719 7.441406.242188 2.988281 2.132812 5.59375 4.898438 6.746094zm0 0" fill="#ffffff" data-original="#000000" style="" className=""/><path xmlns="http://www.w3.org/2000/svg" d="m64 88c4.417969 0 8-3.582031 8-8v-24c0-4.417969 3.582031-8 8-8h56c4.417969 0 8-3.582031 8-8s-3.582031-8-8-8h-56c-13.253906 0-24 10.746094-24 24v24c0 4.417969 3.582031 8 8 8zm0 0" fill="#ffffff" data-original="#000000" style="" className=""/></g></svg>
