<svg id="poweful-matching" xmlns="http://www.w3.org/2000/svg" width="128" height="128" viewBox="0 0 128 128">
  <path id="Path_1357" data-name="Path 1357" d="M128,16a16,16,0,1,0-28.628,9.8L89.86,35.311a38.969,38.969,0,0,0-51.179.542L28.628,25.8A16.038,16.038,0,1,0,25.8,28.628L35.844,38.672a37.5,37.5,0,0,0,0,50.655L25.8,99.372a16.037,16.037,0,1,0,2.828,2.828L38.681,92.147a38.856,38.856,0,0,0,51.14.5l9.55,9.55a16.037,16.037,0,1,0,2.828-2.828L92.724,89.9a37.568,37.568,0,0,0,8.863-15.279,2,2,0,0,0-3.837-1.131A34.647,34.647,0,0,1,64.557,98C45.5,98,30,82.748,30,64S45.5,30,64.557,30A34.413,34.413,0,0,1,98.063,55.643a2,2,0,0,0,3.874-1,37.712,37.712,0,0,0-9.174-16.583l9.437-9.437A15.982,15.982,0,0,0,128,16ZM16,28a11.923,11.923,0,0,1-6.987-2.264A5.9,5.9,0,0,1,15.075,20h1.847a5.9,5.9,0,0,1,6.065,5.736A11.923,11.923,0,0,1,16,28ZM14,13a2,2,0,1,1,2,2A2,2,0,0,1,14,13Zm12.262,9.188a9.843,9.843,0,0,0-5.557-5.477,6,6,0,1,0-9.411,0,9.843,9.843,0,0,0-5.557,5.477A11.993,11.993,0,1,1,28,16,11.912,11.912,0,0,1,26.262,22.188ZM16,124a11.923,11.923,0,0,1-6.987-2.264A5.9,5.9,0,0,1,15.075,116h1.847a5.9,5.9,0,0,1,6.065,5.736A11.925,11.925,0,0,1,16,124Zm-2-15a2,2,0,1,1,2,2A2,2,0,0,1,14,109Zm12.262,9.188a9.843,9.843,0,0,0-5.557-5.477,6,6,0,1,0-9.411,0,9.842,9.842,0,0,0-5.557,5.477A11.993,11.993,0,1,1,28,112,11.913,11.913,0,0,1,26.262,118.188ZM112,124a11.923,11.923,0,0,1-6.987-2.264A5.9,5.9,0,0,1,111.078,116h1.847a5.9,5.9,0,0,1,6.063,5.736A11.923,11.923,0,0,1,112,124Zm-2-15a2,2,0,1,1,2,2A2,2,0,0,1,110,109Zm2-9a11.975,11.975,0,0,1,10.262,18.188,9.843,9.843,0,0,0-5.557-5.477,6,6,0,1,0-9.411,0,9.843,9.843,0,0,0-5.557,5.477A11.975,11.975,0,0,1,112,100ZM101.738,22.188a12,12,0,1,1,20.524,0,9.842,9.842,0,0,0-5.557-5.477,6,6,0,1,0-9.411,0A9.842,9.842,0,0,0,101.738,22.188ZM114,13a2,2,0,1,1-2-2A2,2,0,0,1,114,13Zm-2.922,7h1.847a5.9,5.9,0,0,1,6.063,5.736,11.915,11.915,0,0,1-13.975,0A5.9,5.9,0,0,1,111.078,20Z" fill="#2453b6"/>
  <path id="Path_1358" data-name="Path 1358" d="M76.128,89.114a2,2,0,0,0,1.982,2.018h.018a2,2,0,0,0,2-1.982A24.754,24.754,0,0,0,77.9,79.005a34.469,34.469,0,0,0-6.325-9.544c-1.511-1.637-3.175-3.225-4.848-4.773,7-6.461,14.272-13.912,13.311-25.233a2,2,0,1,0-3.985.339c.815,9.6-5.369,15.822-12.282,22.179-6.913-6.357-13.1-12.583-12.282-22.179a2,2,0,1,0-3.985-.339c-.962,11.321,6.308,18.772,13.311,25.233-1.673,1.548-3.337,3.136-4.848,4.772a34.471,34.471,0,0,0-6.326,9.544A24.757,24.757,0,0,0,47.421,89.15a2,2,0,0,0,2,1.982h.019a2,2,0,0,0,1.982-2.018,20.859,20.859,0,0,1,1.9-8.525,30.863,30.863,0,0,1,5.592-8.415c1.5-1.622,3.138-3.178,4.865-4.771C65.5,69,67.142,70.552,68.64,72.175a30.861,30.861,0,0,1,5.591,8.415A20.858,20.858,0,0,1,76.128,89.114Z" fill="#2453b6"/>
  <path id="Path_1359" data-name="Path 1359" d="M72,40a2,2,0,0,0-2-2H58a2,2,0,0,0,0,4H70A2,2,0,0,0,72,40Z" fill="#2453b6"/>
  <path id="Path_1360" data-name="Path 1360" d="M70,46a2,2,0,0,0-2-2H60a2,2,0,0,0,0,4h8A2,2,0,0,0,70,46Z" fill="#2453b6"/>
  <path id="Path_1361" data-name="Path 1361" d="M62,50a2,2,0,0,0,0,4h4a2,2,0,0,0,0-4Z" fill="#2453b6"/>
  <path id="Path_1362" data-name="Path 1362" d="M56,89a2,2,0,0,0,2,2H70a2,2,0,0,0,0-4H58A2,2,0,0,0,56,89Z" fill="#2453b6"/>
  <path id="Path_1363" data-name="Path 1363" d="M58,83a2,2,0,0,0,2,2h8a2,2,0,0,0,0-4H60A2,2,0,0,0,58,83Z" fill="#2453b6"/>
  <path id="Path_1364" data-name="Path 1364" d="M66,79a2,2,0,0,0,0-4H62a2,2,0,0,0,0,4Z" fill="#2453b6"/>
  <circle id="Ellipse_26" data-name="Ellipse 26" cx="2" cy="2" r="2" transform="translate(99 63)" fill="#2453b6"/>
</svg>
