<svg xmlns="http://www.w3.org/2000/svg" width="96.257" height="106.052" viewBox="0 0 96.257 106.052">
  <g id="preffered-trade" transform="translate(-10 -958.328)">
    <path id="Path_1365" data-name="Path 1365" d="M65.837,5.969a2.407,2.407,0,0,0-1.429,4.211l2.9,2.594h-54.9A2.407,2.407,0,0,0,10,15.181V67.9A2.407,2.407,0,0,0,12.406,70.3H25.98a6.846,6.846,0,0,0,1.654,2.82l.038.038a2.135,2.135,0,0,0,.564.451c.193.148.449.339.752.564.606.45,1.436,1.06,2.406,1.767,1.942,1.414,4.442,3.264,6.956,5.076,5.015,3.615,9.939,7.126,9.964,7.144h.038a6.605,6.605,0,0,0,4.7,1.241,5.765,5.765,0,0,0,2.519-.94,8.3,8.3,0,0,0,3.685.9c3.512,0,8.381-1.6,13.611-3.61A71.8,71.8,0,0,0,86.4,79.177c.022-.014.053-.023.075-.038V79.1a5.942,5.942,0,0,0,2.294-8.084,7.447,7.447,0,0,0-.451-.714h6.956a2.407,2.407,0,1,0,0-4.813H84.223L63.242,41.878a2.407,2.407,0,0,0-2.9-.564A34.791,34.791,0,0,1,49.18,44.585a10.592,10.592,0,0,1-4.7-.489,2.636,2.636,0,0,1-1.692-1.842,1.3,1.3,0,0,1,.564-.94L61.512,32.44l18.086,8.5a2.407,2.407,0,0,0,1.015.226h20.831v59.108H48.954l2.9-2.594a2.411,2.411,0,1,0-3.2-3.61l-7.633,6.806a2.407,2.407,0,0,0,0,3.61l7.633,6.768a2.407,2.407,0,1,0,3.2-3.572l-2.9-2.594h54.9a2.407,2.407,0,0,0,2.406-2.406V38.757a2.407,2.407,0,0,0-2.406-2.406H81.14L62.49,27.59a2.261,2.261,0,0,0-2.068.038L42.562,36.35H20.491q-.113-.005-.226,0a2.409,2.409,0,1,0,.226,4.813H38.012a5.951,5.951,0,0,0-.15,1.278,2.407,2.407,0,0,0,.075.564A7.956,7.956,0,0,0,42.6,48.533a14.679,14.679,0,0,0,6.994.827,35.854,35.854,0,0,0,11.13-3.046L83.471,71.883c.01.012-.01.027,0,.038a10.738,10.738,0,0,1,1.09,1.391,1.082,1.082,0,0,1,.15.714c0,.585.181.425-.9,1.128l-.075.038a71.2,71.2,0,0,1-12.6,6.091c-4.993,1.922-10.2,3.271-11.882,3.271-.663,0-.816.033-1.2-.188a16.889,16.889,0,0,0-.6-11.017,23.135,23.135,0,0,0-7.783-9.739,22.507,22.507,0,0,0-11.017-4.55,15.2,15.2,0,0,0-2.9,0,11.593,11.593,0,0,0-7.633,3.685l-.038.038a10.744,10.744,0,0,0-1.73,2.707H14.813v-47.9H67.3l-2.9,2.594a2.411,2.411,0,1,0,3.2,3.61l7.633-6.806a2.407,2.407,0,0,0,0-3.61L67.6,6.609a2.407,2.407,0,0,0-1.767-.639ZM37.147,63.836c.325,0,.672,0,1.015.038a18.121,18.121,0,0,1,8.648,3.572,18.62,18.62,0,0,1,6.166,7.708,11.579,11.579,0,0,1-.038,9.287c-.045.1-.064.143-.451.188a2.206,2.206,0,0,1-1.316-.338q0-.019,0-.038s-4.981-3.525-10-7.144c-2.51-1.81-5.027-3.633-6.956-5.038-.964-.7-1.786-1.3-2.369-1.73-.292-.217-.52-.406-.677-.526-.032-.024-.042-.012-.038,0l-.038-.038a1.649,1.649,0,0,1-.564-1.542A4.9,4.9,0,0,1,31.7,65.98,6.785,6.785,0,0,1,37.147,63.836Z" transform="translate(0 952.362)" fill="#2453b6"/>
  </g>
</svg>
