<?xml version="1.0"?>
<svg xmlns="http://www.w3.org/2000/svg" xmlns:xlink="http://www.w3.org/1999/xlink" xmlns:svgjs="http://svgjs.com/svgjs" version="1.1" width="512" height="512" x="0" y="0" viewBox="0 0 511.973 511.973" style="enable-background:new 0 0 512 512" xml:space="preserve" className=""><g><g xmlns="http://www.w3.org/2000/svg"><path d="m182.743 211.951c3.481 2.248 8.121 1.25 10.37-2.229.732-1.134 1.971-1.811 3.313-1.811s2.581.677 3.313 1.811c1.436 2.221 3.846 3.431 6.307 3.431 1.395 0 2.806-.389 4.063-1.202 3.479-2.248 4.478-6.891 2.229-10.37-3.508-5.429-9.457-8.67-15.913-8.67s-12.405 3.241-15.913 8.67c-2.247 3.479-1.249 8.122 2.231 10.37z" fill="#ffffff" data-original="#000000" style=""/><path d="m46.788 433.611c-4.091-.691-7.956 2.058-8.648 6.141-3.203 18.893-4.827 40.668-4.827 64.721 0 4.143 3.357 7.5 7.5 7.5s7.5-3.357 7.5-7.5c0-23.215 1.553-44.146 4.616-62.214.692-4.084-2.057-7.956-6.141-8.648z" fill="#ffffff" data-original="#000000" style=""/><path d="m322.26 362.515c-28.291-31.726-66.498-31.911-92.185-31.78-.961-6.212-.456-14.056.509-18.808 2.649-1.582 5.188-3.352 7.592-5.304.129-.104.256-.208.384-.312h103.72c2.472 0 4.784-1.217 6.183-3.254 1.399-2.038 1.704-4.633.817-6.939-3.934-10.22-7.298-23.669-10-39.975-.678-4.086-4.539-6.852-8.626-6.173-4.086.677-6.85 4.539-6.173 8.625 2.062 12.437 4.518 23.392 7.332 32.716h-75.944c27.236-25.423 41.014-48.589 41.014-69.036 0-2.559-.105-5.126-.313-7.63-.004-.039-.007-.077-.011-.115-.27-2.738-.437-8.616-.537-16.234h9.191c4.604 0 8.971-1.03 12.883-2.872.374 7.716 1.013 17.978 2.097 29.456.367 3.884 3.634 6.795 7.458 6.795.236 0 .474-.011.714-.034 4.124-.389 7.151-4.048 6.762-8.172-2.076-21.989-2.488-39.853-2.538-42.428 1.902-3.963 2.969-8.4 2.969-13.081 0-8.176-3.253-15.607-8.533-21.068 18.387-35.599 5.1-72.812-12.714-94.637-18.038-22.101-41.765-31.952-60.442-25.094-2.956 1.085-6.02 2.656-9.015 4.902-8.01-9.975-22.233-18.904-40.172-24.914-24.2-8.107-50.887-9.383-73.213-3.5-24.848 6.547-44.231 21.668-56.056 43.729-13.417 25.032-17.278 58.747-11.489 100.256-4.87 5.383-7.84 12.515-7.84 20.328 0 5.419 1.429 10.51 3.93 14.918-.337 12.575-2.72 77.052-16.646 113.239-.887 2.306-.581 4.902.817 6.939s3.711 3.254 6.183 3.254h103.927c.124.1.247.201.372.301 2.415 1.96 4.959 3.738 7.608 5.325.963 4.753 1.466 12.59.506 18.797-34.267-.177-90.639.212-116.156 74.745-1.342 3.919.748 8.183 4.666 9.525.806.275 1.625.406 2.431.406 3.117 0 6.028-1.958 7.095-5.073 15.819-46.205 43.912-59.452 71.046-63.186 5.167 31.146 32.21 54.579 64.565 54.579 32.336 0 59.36-23.397 64.554-54.511 17.375 2.456 35.43 8.845 50.083 25.277 1.481 1.662 3.536 2.508 5.601 2.508 1.775 0 3.559-.627 4.988-1.902 3.091-2.756 3.362-7.496.606-10.588zm-17.047-179.219h-9.306c-.037-9.753-.023-20.536-.005-30.67h9.311c8.461 0 15.345 6.879 15.345 15.335s-6.884 15.335-15.345 15.335zm-46.176-142.053c12.395-4.549 29.935 3.689 43.653 20.497 14.677 17.983 25.77 48.332 11.517 77.246-2.843-.884-5.864-1.36-8.994-1.36h-9.283c.002-1.504.004-2.977.005-4.414.283-12.499-6.777-24.118-18.013-29.62-.083-.041-.168-.081-.253-.118-10.362-4.605-23.878-8.133-39.315-10.384.467-28.4 7.881-47.148 20.683-51.847zm-170.404 13.221c9.946-18.557 25.645-30.773 46.657-36.31 19.572-5.158 43.128-3.984 64.626 3.219 16.388 5.49 29.429 13.867 34.722 22.062-6.176 9.932-10.74 25.043-11.261 47.926-8.52-.74-17.449-1.124-26.618-1.124h-.324c-7.172-.01-14.325.229-21.299.7-4.133.279-7.257 3.856-6.978 7.989.28 4.133 3.863 7.255 7.989 6.977 6.537-.442 13.256-.666 19.989-.666h.597c29.959 0 57.853 4.437 74.708 11.884 5.944 2.969 9.668 9.157 9.496 15.805-.002.063-.003.154-.003.217-.003 4.581-.013 9.567-.022 14.75-.055 27.888-.116 59.488.713 68.047.171 2.076.258 4.208.258 6.335 0 19.452-18.375 44.584-53.15 72.692-8.885 7.214-20.67 11.344-32.395 11.344h-.262c-11.598 0-22.942-4.026-31.968-11.354-34.763-28.097-53.138-53.23-53.138-72.682 0-2.128.087-4.259.258-6.335.829-8.551.768-40.119.714-67.979-.01-5.207-.02-10.217-.022-14.841 0-.065-.001-.13-.003-.195-.173-6.646 3.551-12.835 9.495-15.804 5.848-2.584 13.005-4.819 21.277-6.646 4.044-.893 6.6-4.896 5.706-8.94-.893-4.045-4.893-6.601-8.94-5.707-9.314 2.057-17.48 4.629-24.271 7.646-.085.038-.169.078-.253.119-11.236 5.503-18.298 17.123-18.012 29.622.001 1.433.002 2.906.005 4.412h-10.497c-2.952 0-5.806.424-8.506 1.214-4.064-35.165-.471-63.515 10.712-84.377zm8.313 128.832h-10.52c-8.461 0-15.344-6.879-15.344-15.335s6.883-15.335 15.344-15.335h10.524c.02 10.131.033 20.915-.004 30.67zm-36.109 108.015c9.43-31.21 12.634-73.312 13.703-95.441 3.652 1.56 7.67 2.425 11.886 2.425h10.405c-.1 7.618-.266 13.497-.536 16.234-.004.038-.007.077-.011.115-.208 2.504-.313 5.071-.313 7.63 0 20.449 13.78 43.616 41.013 69.036h-76.147zm135.201 30h.346c6.242 0 12.41-.87 18.318-2.545-.383 6.968.109 14.662 2.05 20.672-.613 10.676-9.495 19.173-20.325 19.173s-19.711-8.497-20.324-19.173c1.937-5.996 2.431-13.671 2.052-20.628 5.792 1.646 11.813 2.501 17.883 2.501zm.389 65.421c-24.516 0-45.075-17.444-49.55-40.829 5.161-.196 10.19-.194 14.987-.172 3.439 15.917 17.63 27.88 34.563 27.88s31.125-11.963 34.564-27.88c4.725-.022 9.762-.021 14.983.191-4.483 23.376-25.034 40.81-49.547 40.81z" fill="#ffffff" data-original="#000000" style=""/><path d="m471.161 425.049c4.143 0 7.5-3.358 7.5-7.5v-12.057c0-12.826-10.435-23.261-23.261-23.261h-9.225v-42.009c0-25.64-20.859-46.5-46.5-46.5s-46.5 20.86-46.5 46.5v42.009h-9.224c-12.826 0-23.261 10.435-23.261 23.261v83.22c0 12.827 10.435 23.261 23.261 23.261h111.449c12.826 0 23.261-10.435 23.261-23.261v-36.129c0-4.142-3.357-7.5-7.5-7.5s-7.5 3.358-7.5 7.5v36.129c0 4.555-3.706 8.261-8.261 8.261h-111.448c-4.555 0-8.261-3.706-8.261-8.261v-83.22c0-4.555 3.706-8.261 8.261-8.261h111.448c4.555 0 8.261 3.706 8.261 8.261v12.057c0 4.142 3.357 7.5 7.5 7.5zm-102.985-42.817v-42.009c0-17.369 14.131-31.5 31.5-31.5s31.5 14.131 31.5 31.5v42.009z" fill="#ffffff" data-original="#000000" style=""/><path d="m175.519 253.084h41.415c4.143 0 7.5-3.358 7.5-7.5s-3.357-7.5-7.5-7.5h-41.415c-4.143 0-7.5 3.358-7.5 7.5s3.358 7.5 7.5 7.5z" fill="#ffffff" data-original="#000000" style=""/><path d="m392.176 430.783v32.638c0 4.142 3.357 7.5 7.5 7.5s7.5-3.358 7.5-7.5v-32.638c0-4.142-3.357-7.5-7.5-7.5s-7.5 3.358-7.5 7.5z" fill="#ffffff" data-original="#000000" style=""/><path d="m119.658 470.952c-1.367-.021-4.146.323-6.818 2.947-2.942 2.89-6.854 9.203-6.854 30.574 0 4.143 3.357 7.5 7.5 7.5s7.5-3.357 7.5-7.5c0-13.048 1.568-17.979 2.247-19.502 2.223-1.268 3.739-3.641 3.789-6.384.074-4.142-3.222-7.56-7.364-7.635z" fill="#ffffff" data-original="#000000" style=""/><path d="m280.014 473.9c-2.673-2.624-5.46-2.958-6.818-2.948-4.142.075-7.438 3.493-7.364 7.634.05 2.775 1.601 5.17 3.864 6.427.563 1.371 2.173 6.453 2.173 19.46 0 4.143 3.357 7.5 7.5 7.5s7.5-3.357 7.5-7.5c0-21.37-3.912-27.683-6.855-30.573z" fill="#ffffff" data-original="#000000" style=""/></g></g></svg>
