<?xml version="1.0" encoding="iso-8859-1"?>
<!-- Generator: Adobe Illustrator 18.0.0, SVG Export Plug-In . SVG Version: 6.00 Build 0)  -->
<!DOCTYPE svg PUBLIC "-//W3C//DTD SVG 1.1//EN" "http://www.w3.org/Graphics/SVG/1.1/DTD/svg11.dtd">
<svg xmlns="http://www.w3.org/2000/svg" xmlns:xlink="http://www.w3.org/1999/xlink" version="1.1" id="Capa_1" x="0px" y="0px" viewBox="0 0 486.477 486.477" style="enable-background:new 0 0 486.477 486.477;" xml:space="preserve" width="512px" height="512px">
<g>
	<path d="M346.628,172.707c-2.049-54.6-47.097-98.388-102.188-98.388s-100.14,43.788-102.189,98.388   c-18.015,1.578-32.196,16.737-32.196,35.154v136.984c0,19.464,15.835,35.299,35.3,35.299l198.17,0.002   c19.464,0,35.299-15.836,35.299-35.301V207.861C378.824,189.443,364.644,174.284,346.628,172.707z M244.44,82.819   c50.355,0,91.56,39.899,93.677,89.743h-24.105c-2.094-36.564-32.493-65.671-69.573-65.671c-37.08,0-67.479,29.106-69.573,65.671   h-24.105C152.879,122.719,194.085,82.819,244.44,82.819z M305.491,172.563H183.389c2.082-31.873,28.66-57.171,61.051-57.171   C276.831,115.392,303.408,140.689,305.491,172.563z M370.324,213.234h-30.251c-2.347,0-4.25,1.902-4.25,4.25   c0,2.348,1.903,4.25,4.25,4.25h30.251v113.058h-49.481c-2.347,0-4.25,1.902-4.25,4.25c0,2.348,1.903,4.25,4.25,4.25h49.481v1.554   c0,14.778-12.022,26.801-26.799,26.801l-198.17-0.002c-14.777,0-26.8-12.021-26.8-26.799v-94.267h14.8   c2.347,0,4.25-1.902,4.25-4.25c0-2.348-1.903-4.25-4.25-4.25h-14.8v-20.346h56.006c2.347,0,4.25-1.902,4.25-4.25   c0-2.348-1.903-4.25-4.25-4.25h-56.006v-5.372c0-14.777,12.022-26.799,26.8-26.799h198.17c14.777,0,26.799,12.021,26.799,26.799   V213.234z" fill="#2453b6"/>
	<path d="M244.44,216.702c-18.457,0-33.473,15.016-33.473,33.473c0,11.065,5.54,21.441,14.611,27.646v47.848   c0,7.379,6.004,13.383,13.383,13.383h10.958c7.379,0,13.383-6.004,13.383-13.383V277.82c9.071-6.203,14.611-16.579,14.611-27.646   C277.913,231.718,262.897,216.702,244.44,216.702z M256.923,271.8c-1.313,0.76-2.122,2.162-2.122,3.679v50.19   c0,2.692-2.191,4.883-4.883,4.883h-10.958c-2.692,0-4.883-2.19-4.883-4.883v-50.19c0-1.517-0.809-2.919-2.121-3.679   c-7.704-4.458-12.49-12.744-12.49-21.625c0-13.77,11.203-24.973,24.973-24.973c13.77,0,24.973,11.203,24.973,24.973   C269.413,259.056,264.628,267.342,256.923,271.8z" fill="#2453b6"/>
	<path d="M462.998,219.416c-2.47,0-4.851,0.386-7.089,1.096L373.957,57.453c4.179-4.241,6.763-10.057,6.763-16.467   c0-12.946-10.533-23.479-23.479-23.479c-11.337,0-20.822,8.077-23.006,18.778H149.494c-2.184-10.702-11.669-18.779-23.006-18.779   c-12.946,0-23.479,10.533-23.479,23.48c0,6.512,2.666,12.41,6.962,16.668L28.749,220.019c-1.695-0.391-3.458-0.604-5.27-0.604   C10.533,219.415,0,229.948,0,242.895c0,12.946,10.533,23.479,23.479,23.479c1.896,0,3.739-0.231,5.506-0.658l82.161,162.025   c-4.979,4.309-8.137,10.665-8.137,17.75c0,12.947,10.533,23.48,23.479,23.48c11.817,0,21.618-8.777,23.239-20.154h184.274   c1.621,11.377,11.422,20.154,23.239,20.154c12.947,0,23.479-10.533,23.479-23.48c0-6.683-2.811-12.717-7.307-16.996l82.422-163.24   c2.259,0.726,4.664,1.121,7.162,1.121c12.946,0,23.479-10.533,23.479-23.48C486.477,229.948,475.944,219.416,462.998,219.416z    M357.241,26.007c8.26,0,14.979,6.72,14.979,14.979c0,8.26-6.72,14.979-14.979,14.979c-8.259,0-14.979-6.72-14.979-14.979   C342.262,32.727,348.982,26.007,357.241,26.007z M126.488,26.006c8.259,0,14.979,6.72,14.979,14.98   c0,8.259-6.72,14.979-14.979,14.979s-14.979-6.72-14.979-14.979C111.509,32.726,118.229,26.006,126.488,26.006z M8.5,242.895   c0-8.26,6.72-14.979,14.979-14.979c8.259,0,14.979,6.72,14.979,14.979c0,8.26-6.72,14.979-14.979,14.979   C15.22,257.874,8.5,251.154,8.5,242.895z M126.488,460.471c-8.259,0-14.979-6.72-14.979-14.98c0-8.259,6.72-14.979,14.979-14.979   s14.979,6.72,14.979,14.979C141.467,453.751,134.748,460.471,126.488,460.471z M357.241,460.471c-8.259,0-14.979-6.72-14.979-14.98   c0-8.259,6.72-14.979,14.979-14.979c8.26,0,14.979,6.72,14.979,14.979C372.221,453.751,365.501,460.471,357.241,460.471z    M366.254,423.814c-2.777-1.159-5.821-1.802-9.013-1.802c-11.168,0-20.534,7.84-22.897,18.305H149.386   c-2.364-10.465-11.729-18.305-22.898-18.305c-2.809,0-5.504,0.497-8.003,1.406L36.756,262.246   c6.156-4.238,10.202-11.33,10.202-19.352c0-8.108-4.132-15.269-10.4-19.489L117.06,62.482c2.888,1.271,6.076,1.982,9.428,1.982   c11.653,0,21.346-8.534,23.167-19.68h184.419c1.821,11.146,11.514,19.681,23.167,19.681c3.449,0,6.723-0.753,9.675-2.095   l81.493,162.148c-5.412,4.305-8.891,10.939-8.891,18.376c0,7.409,3.453,14.023,8.83,18.33L366.254,423.814z M462.998,257.875   c-8.26,0-14.979-6.72-14.979-14.98c0-8.259,6.72-14.979,14.979-14.979c8.259,0,14.979,6.72,14.979,14.979   C477.977,251.155,471.257,257.875,462.998,257.875z" fill="#2453b6"/>
</g>
<g>
</g>
<g>
</g>
<g>
</g>
<g>
</g>
<g>
</g>
<g>
</g>
<g>
</g>
<g>
</g>
<g>
</g>
<g>
</g>
<g>
</g>
<g>
</g>
<g>
</g>
<g>
</g>
<g>
</g>
</svg>
