<svg xmlns="http://www.w3.org/2000/svg" width="100.109" height="108.507" viewBox="0 0 100.109 108.507">
  <g id="privacy-sustain" transform="translate(-5.99 -2.4)">
    <g id="Group_600" data-name="Group 600" transform="translate(5.991 2.4)">
      <circle id="Ellipse_27" data-name="Ellipse 27" cx="12.323" cy="12.323" r="12.323" transform="translate(6.628 47.351)" fill="#2453b6"/>
      <path id="Path_1370" data-name="Path 1370" d="M39.774,73.406A12.931,12.931,0,0,0,29.505,68.5H20.264A13.075,13.075,0,0,0,7.256,80.024L6,90.635A2.672,2.672,0,0,0,8.055,93.6a80.4,80.4,0,0,0,16.772,1.711,69.345,69.345,0,0,0,6.96-.342l1.141-9.47A19.591,19.591,0,0,1,39.774,73.406Z" transform="translate(-5.991 6.919)" fill="#2453b6"/>
      <circle id="Ellipse_28" data-name="Ellipse 28" cx="12.323" cy="12.323" r="12.323" transform="translate(69.154 47.351)" fill="#2453b6"/>
      <path id="Path_1371" data-name="Path 1371" d="M96.818,80.024A13.075,13.075,0,0,0,83.811,68.5H74.569A13.281,13.281,0,0,0,64.3,73.406,18.115,18.115,0,0,1,70.918,85.5l1.141,9.47c2.282.228,4.678.342,6.96.342A79.611,79.611,0,0,0,95.791,93.6a2.642,2.642,0,0,0,2.054-2.967Z" transform="translate(2.23 6.919)" fill="#2453b6"/>
      <path id="Path_1372" data-name="Path 1372" d="M56.891,73.9H47.764A13.075,13.075,0,0,0,34.756,85.424L33.5,96.149a2.672,2.672,0,0,0,2.054,2.967,79.611,79.611,0,0,0,16.772,1.711A79.611,79.611,0,0,0,69.1,99.116a2.642,2.642,0,0,0,2.054-2.967L69.9,85.424A13.075,13.075,0,0,0,56.891,73.9Z" transform="translate(-2.114 7.68)" fill="#2453b6"/>
      <circle id="Ellipse_29" data-name="Ellipse 29" cx="12.323" cy="12.323" r="12.323" transform="translate(37.891 53.512)" fill="#2453b6"/>
      <path id="Path_1373" data-name="Path 1373" d="M38.664,47.7H65.82A4.7,4.7,0,0,0,70.5,43.019V23.736a4.7,4.7,0,0,0-4.678-4.678H64.565V12.783A10.421,10.421,0,0,0,54.182,2.4H50.417A10.421,10.421,0,0,0,40.034,12.783v6.275H38.779A4.7,4.7,0,0,0,34.1,23.736V43.019A4.532,4.532,0,0,0,38.664,47.7Zm16.658-8.215a.841.841,0,0,1-.8,1.027H49.96a.8.8,0,0,1-.8-1.027l1.483-5.933a3.655,3.655,0,0,1-2.168-3.309,3.651,3.651,0,1,1,7.3,0,3.655,3.655,0,0,1-2.168,3.309ZM46.195,12.9A4.09,4.09,0,0,1,50.3,8.789h3.765A4.09,4.09,0,0,1,58.175,12.9v6.275H46.195Z" transform="translate(-2.028 -2.4)" fill="#2453b6"/>
    </g>
  </g>
</svg>
