<svg xmlns="http://www.w3.org/2000/svg" width="107.571" height="89.025" viewBox="0 0 107.571 89.025">
  <g id="promotion" transform="translate(-3 -8)">
    <path id="Path_1754" data-name="Path 1754" d="M15,54.569A51.417,51.417,0,0,1,40.965,66.452V19.284A51.417,51.417,0,0,1,15,31.167Z" transform="translate(10.256 9.644)" fill="#2453b6"/>
    <path id="Path_1755" data-name="Path 1755" d="M14.855,44H13v3.709h1.855a1.855,1.855,0,0,0,0-3.709Z" transform="translate(8.547 30.768)" fill="#2453b6"/>
    <rect id="Rectangle_567" data-name="Rectangle 567" width="4" height="51" transform="translate(55 27)" fill="#2453b6"/>
    <path id="Path_1756" data-name="Path 1756" d="M14.128,26H4.855A1.857,1.857,0,0,0,3,27.855V46.4a1.857,1.857,0,0,0,1.855,1.855h9.273Z" transform="translate(0 15.384)" fill="#2453b6"/>
    <path id="Path_1757" data-name="Path 1757" d="M35,29.184V39.628a5.53,5.53,0,0,0,0-10.444Z" transform="translate(27.35 18.105)" fill="#2453b6"/>
    <path id="Path_1758" data-name="Path 1758" d="M7,40V56.692a1.857,1.857,0,0,0,1.855,1.855h3.709a1.857,1.857,0,0,0,1.855-1.855V40.007c-.113,0-.226-.007-.341-.007H7Z" transform="translate(3.419 27.35)" fill="#2453b6"/>
    <path id="Path_1759" data-name="Path 1759" d="M14.709,25.908c-1.23.095-2.465.154-3.709.161V48.342c1.244.007,2.48.067,3.709.161Z" transform="translate(6.837 15.306)" fill="#2453b6"/>
    <path id="Path_1760" data-name="Path 1760" d="M77.948,8H40.855A1.857,1.857,0,0,0,39,9.855V32.111a1.857,1.857,0,0,0,1.855,1.855h3.709a1.854,1.854,0,0,1,1.855,1.855v1.855l4.451-3.338a1.854,1.854,0,0,1,1.113-.371H77.948A1.857,1.857,0,0,0,79.8,32.111V9.855A1.857,1.857,0,0,0,77.948,8ZM53.837,13.564h3.709v3.709H53.837ZM68.675,28.4H64.965V24.692h3.709ZM53.294,31.567l-2.623-2.623L69.218,10.4l2.623,2.623Z" transform="translate(30.768)" fill="#2453b6"/>
    <path id="Path_1761" data-name="Path 1761" d="M77.948,43.709H51.983a1.854,1.854,0,0,1-1.113-.371L46.419,40v1.855a1.854,1.854,0,0,1-1.855,1.855H40.855A1.857,1.857,0,0,0,39,45.564V67.82a1.857,1.857,0,0,0,1.855,1.855H77.948A1.857,1.857,0,0,0,79.8,67.82V45.564A1.857,1.857,0,0,0,77.948,43.709ZM53.837,49.273h3.709v3.709H53.837ZM68.675,64.111H64.965V60.4h3.709ZM53.294,67.277l-2.623-2.623L69.218,46.107l2.623,2.623Z" transform="translate(30.768 27.35)" fill="#2453b6"/>
  </g>
</svg>
