<?xml version="1.0"?>
<svg xmlns="http://www.w3.org/2000/svg" xmlns:xlink="http://www.w3.org/1999/xlink" xmlns:svgjs="http://svgjs.com/svgjs" version="1.1" width="512" height="512" x="0" y="0" viewBox="0 0 512 512" style="enable-background:new 0 0 512 512" xml:space="preserve" className=""><g><title xmlns="http://www.w3.org/2000/svg">Public relation </title><path xmlns="http://www.w3.org/2000/svg" d="M85.305,316.478c5.39,57.9-18.944,150.133-19.19,151.058a6,6,0,0,0,5.8,7.545h146.72a6,6,0,0,0,5.819-4.536l13.185-52.425a16.612,16.612,0,0,1,15.7-12.537l2.663-.011,2.761.011a16.564,16.564,0,0,1,15.6,12.537l13.185,52.425a6,6,0,0,0,5.819,4.536h146.72a6,6,0,0,0,5.8-7.545c-.246-.925-24.58-93.154-19.19-151.057,1.473-15.817,16.566-53.747,17.978-57.268a152.165,152.165,0,0,0-3.605-147.441c-26.139-44.946-72.545-72.886-124.134-74.742q-2.1-.075-4.213-.1a163.567,163.567,0,0,0-56.728,9.415,163.777,163.777,0,0,0-56.716-9.415q-2.113.024-4.21.1c-51.59,1.856-98,29.8-124.135,74.742a152.165,152.165,0,0,0-3.605,147.441C68.739,262.732,83.832,300.662,85.305,316.478Zm90.8-9.335H129.674a1,1,0,0,1-.935-1.359l30.222-79.165a5.984,5.984,0,0,0,.395-2.126c.027-11.469.114-30.394.236-32.4A151.766,151.766,0,0,1,256,59.13,151.761,151.761,0,0,1,352.41,192.136c.12,1.962.207,20.888.234,32.357a5.984,5.984,0,0,0,.395,2.126l30.222,79.166a1,1,0,0,1-.935,1.358H335.892a6,6,0,0,0-6,6v51.7a29.01,29.01,0,0,1-29.842,29c-2.289-.071-22.719-.174-41.3-.254-.165,0-.326-.021-.492-.021h-.12l-2.142.01-2.142-.01h-.12c-.166,0-.327.018-.492.021-18.577.08-39.007.183-41.3.254a29.01,29.01,0,0,1-29.842-29v-51.7A6,6,0,0,0,176.108,307.143ZM312.585,48.929q1.965.021,3.916.092C363.95,50.727,406.639,76.439,430.7,117.8a140.229,140.229,0,0,1,3.2,136.119c-.089.171-.17.347-.243.525-.7,1.734-17.207,42.66-18.907,60.918-2.354,25.287.226,59.125,7.669,100.574,3.666,20.415,7.676,37.745,9.972,47.142H298.046L286,415.192a28.623,28.623,0,0,0-4.372-9.5c10.721.057,16.95.105,18.046.139a41.01,41.01,0,0,0,42.216-40.989v-45.7h40.434a13,13,0,0,0,12.146-17.638l-29.831-78.139c-.015-5.954-.086-29.224-.251-31.92A163.74,163.74,0,0,0,273.216,53.614,151.822,151.822,0,0,1,312.585,48.929ZM81.305,117.8c24.056-41.364,66.745-67.076,114.2-68.782q1.95-.071,3.912-.092a151.908,151.908,0,0,1,39.366,4.685A163.757,163.757,0,0,0,147.612,191.4c-.167,2.736-.238,26.009-.253,31.963L117.528,301.5a13,13,0,0,0,12.146,17.639h40.434v45.7a41.01,41.01,0,0,0,42.215,40.989c1.1-.034,7.326-.082,18.047-.139a28.623,28.623,0,0,0-4.372,9.5l-12.044,47.889H79.612c2.3-9.4,6.306-26.727,9.972-47.142,7.443-41.449,10.023-75.287,7.669-100.574-1.7-18.258-18.206-59.184-18.907-60.918-.073-.178-.154-.354-.243-.525A140.229,140.229,0,0,1,81.305,117.8Z" fill="#2453b6" data-original="#000000" style="" className=""/><path xmlns="http://www.w3.org/2000/svg" d="M209.7,283.8c3.361,0,6.978-1.5,6.978-4.777V249.33h14.656c18.056,0,28-9.77,28-27.512v-.977c0-17.662-9.684-27.389-27.267-27.389H208.235c-3.141,0-5.51,2-5.51,4.655V279.02C202.725,282.156,206.235,283.8,209.7,283.8Zm35.678-61.123c0,10.068-4.856,15.389-14.044,15.389H216.68V205.94h14.656c9.188,0,14.044,5.28,14.044,15.268Z" fill="#2453b6" data-original="#000000" style="" className=""/><path xmlns="http://www.w3.org/2000/svg" d="M276.191,283.8c3.36,0,6.977-1.5,6.977-4.777v-33.6h11.539l17.709,34.688c1.4,2.654,3.324,4.056,5.575,4.056,4.045,0,8.322-3.649,8.322-7.1a4.256,4.256,0,0,0-.547-2.068l-16.814-31.586c7.9-2.156,17-8.188,17-24.523,0-16.639-9.894-25.434-28.612-25.434H274.113a4.668,4.668,0,0,0-4.778,4.655V279.02C269.335,282.156,272.784,283.8,276.191,283.8Zm6.977-49.767V205.94h14.167c9.862,0,14.656,4.594,14.656,14.045S307.2,234.03,297.335,234.03Z" fill="#2453b6" data-original="#000000" style="" className=""/></g></svg>
