<svg xmlns="http://www.w3.org/2000/svg" width="85.328" height="102.395" viewBox="0 0 85.328 102.395">
  <g id="quick-time" transform="translate(-12.5 -5)">
    <path id="Path_1374" data-name="Path 1374" d="M12.5,64.73A42.664,42.664,0,1,0,63.7,22.976V19.221h2.844a2.817,2.817,0,0,0,2.844-2.844V7.844A2.817,2.817,0,0,0,66.542,5H43.787a2.817,2.817,0,0,0-2.844,2.844v8.533a2.817,2.817,0,0,0,2.844,2.844h2.844v3.754A42.606,42.606,0,0,0,12.5,64.73ZM46.632,10.689H63.7v2.844H46.632Zm11.377,8.533V22.18a23.781,23.781,0,0,0-2.844-.114,23.781,23.781,0,0,0-2.844.114V19.221Zm-2.844,8.533A36.976,36.976,0,1,1,18.189,64.73,37.048,37.048,0,0,1,55.164,27.754Z" fill="#2453b6"/>
    <path id="Path_1375" data-name="Path 1375" d="M26.157,56.3a2.854,2.854,0,0,0,3.527-2.048,24.636,24.636,0,0,1,9.1-13.425l1.593,2.617a21.547,21.547,0,0,0-7.736,11.6,2.854,2.854,0,0,0,2.048,3.527,2.806,2.806,0,0,0,3.527-2.048,15.965,15.965,0,0,1,5.12-8.078l1.251,2.162A13.293,13.293,0,0,0,40.606,57.1a2.884,2.884,0,0,0,5.575,1.479,8.476,8.476,0,0,1,1.479-2.844L51.3,62.1a2.965,2.965,0,0,0,2.5,1.479,2.7,2.7,0,0,0,1.365-.341,2.807,2.807,0,0,0,1.024-3.868L42.2,35.479a2.907,2.907,0,0,0-1.707-1.365,2.491,2.491,0,0,0-2.162.341A30.45,30.45,0,0,0,24.109,52.886,2.863,2.863,0,0,0,26.157,56.3Z" transform="translate(1.589 3.994)" fill="#2453b6"/>
  </g>
</svg>
