<?xml version="1.0"?>
<svg xmlns="http://www.w3.org/2000/svg" id="outline" viewBox="0 0 512 512" width="512px" height="512px" className=""><g><path d="M355.70508,222.749a7.99582,7.99582,0,0,0,5.9707,1.07325l112-24A7.9989,7.9989,0,0,0,480,192V168a8.00039,8.00039,0,0,0-8-8H384V142.627a62.1588,62.1588,0,0,0-12.37012-37.38232A31.95645,31.95645,0,0,0,384,80V42.42188A26.42195,26.42195,0,0,0,342.92188,20.4375L323.5625,33.34375A7.99943,7.99943,0,0,0,320,40V74.72461l-15.28955,6.55273L221.8584,104.292a7.99761,7.99761,0,0,0-4.17285,2.79688l-54.17212,69.6499-31.44068,6.28809-22.647-20.90479a7.99871,7.99871,0,0,0-11.40527.56348l-64,72a7.99834,7.99834,0,0,0,.55371,11.19238l104,96A7.993,7.993,0,0,0,144,344c.13086,0,.2627-.00293.39453-.00977a8.00154,8.00154,0,0,0,5.585-2.67578l40.55518-45.62451-20.45752,49.68213L61.80273,376.30762a8.00044,8.00044,0,0,0-5.39257,10.22265l8,24a8.00224,8.00224,0,0,0,8.47363,5.4209l144-16a8.001,8.001,0,0,0,6.04-3.94336l42.05176-72.635,46.55273,39.90259-15.4668,123.73242A8.00149,8.00149,0,0,0,304,496h24a8.00026,8.00026,0,0,0,7.58984-5.46973l48-144a8.00115,8.00115,0,0,0-1.01269-7.084l-67.75049-97.86206,31.22363-24.979ZM464,185.53223l-24,5.14282V176h24ZM368,142.627v9.37281l-19.2002-14.40015-9.5996,12.80078,32,24A8.0033,8.0033,0,0,0,376,176h48v18.10352l-62.4707,13.38671-63.77149-40.58105a38.34446,38.34446,0,0,1,5.48242-67.59375l18.8086-8.061a31.92357,31.92357,0,0,0,34.21435,20.45313A46.27993,46.27993,0,0,1,368,142.627ZM352,96a16.01833,16.01833,0,0,1-16-16V64h32V80A16.01833,16.01833,0,0,1,352,96ZM336,44.28125,351.79785,33.749A10.42284,10.42284,0,0,1,368,42.42188V48H336ZM228.69043,119l42.73682-11.87158a54.23143,54.23143,0,0,0-6.53955,17.63867l-.1709-.07764L255.93921,144H240a8,8,0,0,0-5.20605,1.92578l-20.22144,17.33228-11.42163-11.42163Zm-3.97363,93.68945c-.04.08789-.06861.1792-.10523.26831l-.009-.00366L208.04785,253.158,192,238.34448v-34.665L242.959,160h5.70752ZM112,186.27173l78.20483,72.189-35.37671,5.054L112,220.68652Zm81.25073-21.70654,9.137,9.137L184.418,189.10449l-5.76758-5.76758Zm-27.88061,28.11938L176,203.31445V223.5752l-29.39844-27.137Zm-21.9336,131.9082-92.24121-85.1455L96,189.04126V224a8.00235,8.00235,0,0,0,2.34277,5.65723l48,48a8.00719,8.00719,0,0,0,6.78907,2.26269l34.3789-4.91113Zm67.66407,59.90235L77.544,399.335l-3.3125-9.93848,103.96582-29.7041a7.99988,7.99988,0,0,0,5.20019-4.64648L236.5542,225.95117l55.60449,18.53491ZM322.23438,480H313.0625l14.876-119.00781a8.00037,8.00037,0,0,0-2.73243-7.06641l-52.07666-44.637L304.603,254.92529l62.54248,90.33936Zm-19.833-248.96582L242.96,211.2207l25.27442-55.60351a54.14263,54.14263,0,0,0,20.93359,24.79l42.6167,27.11963Z" data-original="#000000" className="active-path" data-old_color="#000000" fill="#2453b6"/></g> </svg>
