<?xml version="1.0"?>
<svg xmlns="http://www.w3.org/2000/svg" id="Layer_5" enable-background="new 0 0 64 64" height="512px" viewBox="0 0 64 64" width="512px"><g><g><path d="m58 1h-46c-2.757 0-5 2.243-5 5v23h-1c-2.757 0-5 2.243-5 5v18c0 2.757 2.243 5 5 5h12.63l6.104 5.231c.578.497 1.315.769 2.077.769 1.758 0 3.189-1.431 3.189-3.189v-2.811h2c2.757 0 5-2.243 5-5v-17h5.63l6.104 5.231c.578.497 1.315.769 2.077.769 1.758 0 3.189-1.431 3.189-3.189v-2.811h4c2.757 0 5-2.243 5-5v-24c0-2.757-2.243-5-5-5zm-23 51c0 1.654-1.346 3-3 3h-4v4.811c0 .656-.533 1.189-1.189 1.189-.284 0-.56-.102-.775-.286l-6.666-5.714h-13.37c-1.654 0-3-1.346-3-3v-18c0-1.654 1.346-3 3-3h25 1c1.654 0 3 1.346 3 3zm-18-41c0-2.206 1.794-4 4-4s4 1.794 4 4-1.794 4-4 4-4-1.794-4-4zm4 6c.675 0 1.336.092 1.974.254-.126.982-.958 1.746-1.974 1.746-1.015 0-1.846-.763-1.974-1.743.633-.162 1.292-.257 1.974-.257zm-3.859.997c.446 1.722 1.999 3.003 3.859 3.003 1.858 0 3.41-1.279 3.858-2.998.678.374 1.304.843 1.856 1.407-1.082 1.597-1.714 3.522-1.714 5.591v4h-12v-4c0-3.012 1.675-5.639 4.141-7.003zm13.859-6.997c0-2.206 1.794-4 4-4s4 1.794 4 4-1.794 4-4 4-4-1.794-4-4zm4.958 13.628-.958.958-.958-.958.762-7.618c.066-.002.13-.01.196-.01s.13.008.196.01zm-.958 3.786 3.042-3.042-.805-8.048c3.325.972 5.763 4.042 5.763 7.676v4h-11-1-4v-4c0-3.634 2.438-6.704 5.763-7.675l-.805 8.048zm10-17.414c0-2.206 1.794-4 4-4s4 1.794 4 4-1.794 4-4 4-4-1.794-4-4zm4 6c.682 0 1.341.095 1.974.257-.128.98-.959 1.743-1.974 1.743-1.016 0-1.848-.764-1.974-1.746.638-.162 1.299-.254 1.974-.254zm-3.857 1.002c.447 1.719 1.999 2.998 3.857 2.998 1.86 0 3.413-1.281 3.859-3.003 2.466 1.364 4.141 3.991 4.141 7.003v4h-12v-4c0-2.069-.632-3.994-1.713-5.591.551-.564 1.178-1.033 1.856-1.407zm15.857 11.998c0 1.654-1.346 3-3 3h-6v4.811c0 .656-.533 1.189-1.189 1.189-.284 0-.56-.102-.775-.286l-6.666-5.714h-6.471c-.152-.743-.482-1.416-.924-2h23.025v-6c0-4.207-2.616-7.809-6.304-9.283 1.4-1.1 2.304-2.803 2.304-4.717 0-3.309-2.691-6-6-6s-6 2.691-6 6c0 1.915.905 3.619 2.306 4.719-1.226.487-2.356 1.205-3.313 2.147-.938-.92-2.057-1.653-3.297-2.148 1.4-1.101 2.304-2.804 2.304-4.718 0-3.309-2.691-6-6-6s-6 2.691-6 6c0 1.914.904 3.617 2.304 4.717-1.24.496-2.359 1.229-3.297 2.148-.957-.942-2.086-1.659-3.313-2.147 1.401-1.099 2.306-2.803 2.306-4.718 0-3.309-2.691-6-6-6s-6 2.691-6 6c0 1.914.904 3.617 2.304 4.717-3.688 1.474-6.304 5.076-6.304 9.283v4h-2v-23c0-1.654 1.346-3 3-3h46c1.654 0 3 1.346 3 3z" data-original="#000000" className="active-path" data-old_color="#000000" fill="#2453b6"/><path d="m31 41c0-2.414-1.721-4.434-4-4.899v-3.101h-5.333l-.267.2c-2.408 1.806-5.391 2.8-8.4 2.8h-3c-1.654 0-3 1.346-3 3v4c0 1.654 1.346 3 3 3h1v4c0 1.654 1.346 3 3 3s3-1.346 3-3v-3.4c1.579.472 3.078 1.209 4.4 2.2l.267.2h5.333v-3.101c2.279-.465 4-2.485 4-4.899zm-22 2v-4c0-.552.448-1 1-1h3c2.801 0 5.578-.762 8-2.157v10.314c-2.422-1.395-5.199-2.157-8-2.157h-3c-.552 0-1-.448-1-1zm6 7c0 .552-.448 1-1 1s-1-.448-1-1v-4c.67 0 1.338.057 2 .154zm10-3h-2v-12h2zm2-3.184v-5.631c1.161.414 2 1.514 2 2.816s-.839 2.401-2 2.815z" data-original="#000000" className="active-path" data-old_color="#000000" fill="#2453b6"/><path d="m11 15h2v2h-2z" data-original="#000000" className="active-path" data-old_color="#000000" fill="#2453b6"/><path d="m11 7v6h2v-6h2v-2h-2c-1.103 0-2 .897-2 2z" data-original="#000000" className="active-path" data-old_color="#000000" fill="#2453b6"/><path d="m57 9h2v2h-2z" data-original="#000000" className="active-path" data-old_color="#000000" fill="#2453b6"/><path d="m57 5h2v2h-2z" data-original="#000000" className="active-path" data-old_color="#000000" fill="#2453b6"/><path d="m57 13h2v2h-2z" data-original="#000000" className="active-path" data-old_color="#000000" fill="#2453b6"/><path d="m31 51h-2v2h2c1.103 0 2-.897 2-2v-6h-2z" data-original="#000000" className="active-path" data-old_color="#000000" fill="#2453b6"/></g></g> </svg>
