<svg height="512" viewBox="0 0 128 128" width="512" xmlns="http://www.w3.org/2000/svg"><g><g><path d="m1.75 118.25v-76.872l52.5 38.436z" fill="#50c5ff"/><path d="m126.25 118.25v-76.872l-52.5 38.436z" fill="#50c5ff"/><g fill="#d5e8fe"><path d="m64 43.628a1.749 1.749 0 0 1 -1.75-1.75v-5a1.75 1.75 0 0 1 3.5 0v5a1.749 1.749 0 0 1 -1.75 1.75z"/><path d="m64 104.805a1.749 1.749 0 0 1 -1.75-1.75v-10.2a1.75 1.75 0 0 1 3.5 0v10.2a1.749 1.749 0 0 1 -1.75 1.75zm0-20.393a1.749 1.749 0 0 1 -1.75-1.75v-10.2a1.75 1.75 0 0 1 3.5 0v10.2a1.749 1.749 0 0 1 -1.75 1.75zm0-20.391a1.75 1.75 0 0 1 -1.75-1.75v-10.2a1.75 1.75 0 0 1 3.5 0v10.2a1.75 1.75 0 0 1 -1.75 1.75z"/><path d="m64 120a1.749 1.749 0 0 1 -1.75-1.75v-5a1.75 1.75 0 0 1 3.5 0v5a1.749 1.749 0 0 1 -1.75 1.75z"/></g><path d="m97.7 24.348a46.234 46.234 0 0 0 -71.242 4.63l6.488 4.679a38.227 38.227 0 0 1 58.178-4.6l-5.499 3.943 17.75 7.5v-20.216z" fill="#ffda2d"/></g><g><path d="m55.284 78.4-52.5-38.434a1.75 1.75 0 0 0 -2.784 1.412v76.872a1.75 1.75 0 0 0 2.784 1.412l52.5-38.435a1.751 1.751 0 0 0 0-2.825zm-51.784 36.4v-69.972l47.787 34.987z"/><path d="m98.67 59.4-4.04 2.958a1.751 1.751 0 0 0 2.07 2.825l4.04-2.958a1.751 1.751 0 0 0 -2.07-2.825z"/><path d="m127.042 39.817a1.757 1.757 0 0 0 -1.826.149l-18.911 13.845a1.751 1.751 0 0 0 2.068 2.825l16.127-11.808v69.972l-47.787-34.986 12.351-9.042a1.751 1.751 0 0 0 -2.064-2.825l-14.284 10.453a1.751 1.751 0 0 0 0 2.825l52.5 38.436a1.75 1.75 0 0 0 2.784-1.411v-76.872a1.75 1.75 0 0 0 -.958-1.561z"/><path d="m64 35.128a1.749 1.749 0 0 0 -1.75 1.75v5a1.75 1.75 0 0 0 3.5 0v-5a1.749 1.749 0 0 0 -1.75-1.75z"/><path d="m64 50.324a1.749 1.749 0 0 0 -1.75 1.75v10.2a1.75 1.75 0 0 0 3.5 0v-10.2a1.749 1.749 0 0 0 -1.75-1.75z"/><path d="m64 70.716a1.749 1.749 0 0 0 -1.75 1.75v10.2a1.75 1.75 0 0 0 3.5 0v-10.2a1.749 1.749 0 0 0 -1.75-1.75z"/><path d="m64 91.108a1.75 1.75 0 0 0 -1.75 1.75v10.2a1.75 1.75 0 0 0 3.5 0v-10.2a1.75 1.75 0 0 0 -1.75-1.75z"/><path d="m64 111.5a1.749 1.749 0 0 0 -1.75 1.75v5a1.75 1.75 0 0 0 3.5 0v-5a1.749 1.749 0 0 0 -1.75-1.75z"/><path d="m25.437 30.4 6.489 4.679a1.747 1.747 0 0 0 2.442-.4 36.51 36.51 0 0 1 6.087-6.561 1.75 1.75 0 0 0 -2.255-2.676 40.107 40.107 0 0 0 -5.616 5.794l-3.652-2.636a44.481 44.481 0 0 1 67.5-3.054 1.752 1.752 0 0 0 2.294.224l2.9-2.081v14.174l-12.443-5.257 2.963-2.123a1.75 1.75 0 0 0 .221-2.658 40.331 40.331 0 0 0 -28.367-11.825 39.7 39.7 0 0 0 -15.5 3.142 1.749 1.749 0 1 0 1.359 3.224 36.258 36.258 0 0 1 14.141-2.866 36.812 36.812 0 0 1 24.386 9.372l-3.781 2.708a1.751 1.751 0 0 0 .339 3.035l17.75 7.5a1.749 1.749 0 0 0 2.431-1.612v-20.219a1.751 1.751 0 0 0 -2.77-1.423l-4.447 3.188a47.98 47.98 0 0 0 -72.867 5.905 1.751 1.751 0 0 0 .396 2.446z"/></g></g></svg>