<?xml version="1.0"?>
<svg xmlns="http://www.w3.org/2000/svg" xmlns:xlink="http://www.w3.org/1999/xlink" xmlns:svgjs="http://svgjs.com/svgjs" version="1.1" width="512" height="512" x="0" y="0" viewBox="0 0 24 24" style="enable-background:new 0 0 512 512" xml:space="preserve" className=""><g><circle xmlns="http://www.w3.org/2000/svg" cx="12" cy="9.5" r="1.5" fill="#2453b6" data-original="#000000" style="" className=""/><path xmlns="http://www.w3.org/2000/svg" d="m14.25 15c-.414 0-.75-.336-.75-.75s-.337-.75-.75-.75h-1.5c-.413 0-.75.336-.75.75s-.336.75-.75.75-.75-.336-.75-.75c0-1.241 1.01-2.25 2.25-2.25h1.5c1.24 0 2.25 1.009 2.25 2.25 0 .414-.336.75-.75.75z" fill="#2453b6" data-original="#000000" style="" className=""/><path xmlns="http://www.w3.org/2000/svg" d="m12 19c-3.859 0-7-3.14-7-7s3.141-7 7-7 7 3.14 7 7-3.141 7-7 7zm0-12.5c-3.032 0-5.5 2.467-5.5 5.5s2.468 5.5 5.5 5.5 5.5-2.467 5.5-5.5-2.468-5.5-5.5-5.5z" fill="#2453b6" data-original="#000000" style="" className=""/><path xmlns="http://www.w3.org/2000/svg" d="m20.09 20.84c-.192 0-.384-.073-.53-.22l-3.49-3.49c-.293-.293-.293-.768 0-1.061s.768-.293 1.061 0l3.49 3.49c.293.293.293.768 0 1.061-.147.147-.339.22-.531.22z" fill="#2453b6" data-original="#000000" style="" className=""/><path xmlns="http://www.w3.org/2000/svg" d="m7.4 8.15c-.192 0-.384-.073-.53-.22l-3.49-3.49c-.293-.293-.293-.768 0-1.061s.768-.293 1.061 0l3.49 3.49c.293.293.293.768 0 1.061-.147.147-.338.22-.531.22z" fill="#2453b6" data-original="#000000" style="" className=""/><path xmlns="http://www.w3.org/2000/svg" d="m16.6 8.15c-.192 0-.384-.073-.53-.22-.293-.293-.293-.768 0-1.061l3.49-3.49c.293-.293.768-.293 1.061 0s.293.768 0 1.061l-3.49 3.49c-.148.147-.339.22-.531.22z" fill="#2453b6" data-original="#000000" style="" className=""/><path xmlns="http://www.w3.org/2000/svg" d="m3.91 20.84c-.192 0-.384-.073-.53-.22-.293-.293-.293-.768 0-1.061l3.49-3.49c.293-.293.768-.293 1.061 0s.293.768 0 1.061l-3.49 3.49c-.147.147-.338.22-.531.22z" fill="#2453b6" data-original="#000000" style="" className=""/><path xmlns="http://www.w3.org/2000/svg" d="m2.5 24c-1.379 0-2.5-1.122-2.5-2.5s1.121-2.5 2.5-2.5 2.5 1.122 2.5 2.5-1.121 2.5-2.5 2.5zm0-3.5c-.552 0-1 .449-1 1s.448 1 1 1 1-.449 1-1-.448-1-1-1z" fill="#2453b6" data-original="#000000" style="" className=""/><path xmlns="http://www.w3.org/2000/svg" d="m2.5 5c-1.379 0-2.5-1.122-2.5-2.5s1.121-2.5 2.5-2.5 2.5 1.122 2.5 2.5-1.121 2.5-2.5 2.5zm0-3.5c-.552 0-1 .449-1 1s.448 1 1 1 1-.449 1-1-.448-1-1-1z" fill="#2453b6" data-original="#000000" style="" className=""/><path xmlns="http://www.w3.org/2000/svg" d="m21.5 5c-1.379 0-2.5-1.122-2.5-2.5s1.121-2.5 2.5-2.5 2.5 1.122 2.5 2.5-1.121 2.5-2.5 2.5zm0-3.5c-.552 0-1 .449-1 1s.448 1 1 1 1-.449 1-1-.448-1-1-1z" fill="#2453b6" data-original="#000000" style="" className=""/><path xmlns="http://www.w3.org/2000/svg" d="m21.5 24c-1.379 0-2.5-1.122-2.5-2.5s1.121-2.5 2.5-2.5 2.5 1.122 2.5 2.5-1.121 2.5-2.5 2.5zm0-3.5c-.552 0-1 .449-1 1s.448 1 1 1 1-.449 1-1-.448-1-1-1z" fill="#2453b6" data-original="#000000" style="" className=""/></g></svg>
