<svg xmlns="http://www.w3.org/2000/svg" width="106.53" height="113.632" viewBox="0 0 106.53 113.632">
  <g id="reliable" transform="translate(-4)">
    <path id="Path_1762" data-name="Path 1762" d="M47.835,24.72a1.776,1.776,0,0,0-2.483-.371c-5.323,3.94-13.652,8.634-23.1,8.634h-.061a4.2,4.2,0,0,0-2.921,1.17A4.053,4.053,0,0,0,18,37.071a93.472,93.472,0,0,0,4.46,26.757A63.568,63.568,0,0,0,35.588,87.339a1.776,1.776,0,0,0,2.624-2.393A60.045,60.045,0,0,1,25.839,62.734,89.487,89.487,0,0,1,21.551,37.1a.539.539,0,0,1,.173-.38.677.677,0,0,1,.475-.184h.039c10.429,0,19.473-5.073,25.226-9.331A1.775,1.775,0,0,0,47.835,24.72Z" transform="translate(-1.571 -2.694)" fill="#2453b6"/>
    <path id="Path_1763" data-name="Path 1763" d="M57.212,1.14A3.48,3.48,0,0,0,54.7,0c-.037,0-.074,0-.111,0a3.473,3.473,0,0,0-2.445,1.035c-.19.192-19.13,19.24-42.679,19.24-.609,0-1.217-.013-1.832-.039-.057,0-.114,0-.17,0a3.383,3.383,0,0,0-3.4,3.164A130.263,130.263,0,0,0,8.673,60.834c7.3,26.4,22.473,44.584,43.867,52.578a3.524,3.524,0,0,0,1.23.221,3.432,3.432,0,0,0,.875-.111c.492-.126,11.64-3.085,23.393-14.363a31.669,31.669,0,0,1-4.306-.856c-10.4,9.245-19.861,11.751-19.95,11.782-20.283-7.578-34.7-24.937-41.688-50.2a127.708,127.708,0,0,1-4.5-36.1c.619.024,1.248.037,1.87.037C34,23.826,53.23,4.978,54.627,3.575,69.8,20.362,99.5,25.105,101.648,25.428a152.173,152.173,0,0,1-1.141,15.9,32.229,32.229,0,0,1,3.229,2.6A153.632,153.632,0,0,0,105.2,25.284a3.363,3.363,0,0,0-2.936-3.354C101.965,21.888,71.923,17.485,57.212,1.14Z" fill="#2453b6"/>
    <path id="Path_1764" data-name="Path 1764" d="M116.816,72.409A28.408,28.408,0,0,0,88.411,44h0a28.408,28.408,0,1,0,28.408,28.409Zm-10.04,15.855-3.424-3.422a1.776,1.776,0,1,0-2.51,2.512l3.424,3.422a1.76,1.76,0,0,0,.486.336A24.745,24.745,0,0,1,90.074,97.2a1.758,1.758,0,0,0,.11-.595V91.769a1.776,1.776,0,0,0-3.551,0v4.839a1.757,1.757,0,0,0,.11.595,24.745,24.745,0,0,1-14.678-6.09,1.744,1.744,0,0,0,.487-.337l3.422-3.424a1.776,1.776,0,0,0-2.512-2.511L70.04,88.265a1.752,1.752,0,0,0-.337.486,24.745,24.745,0,0,1-6.09-14.677,1.767,1.767,0,0,0,.6.11h4.839a1.776,1.776,0,0,0,0-3.551H64.209a1.765,1.765,0,0,0-.6.11A24.631,24.631,0,0,1,69.7,56.053a1.756,1.756,0,0,0,.344.5l3.423,3.421a1.776,1.776,0,0,0,2.51-2.512L72.55,54.04a1.757,1.757,0,0,0-.5-.342,24.629,24.629,0,0,1,14.69-6.085,1.756,1.756,0,0,0-.11.6v4.84a1.776,1.776,0,0,0,3.551,0v-4.84a1.752,1.752,0,0,0-.11-.6A24.64,24.64,0,0,1,105.2,54.081L88.9,68.975,81.159,62.22A1.776,1.776,0,1,0,78.823,64.9l8.933,7.8a1.776,1.776,0,0,0,2.366-.027l17.52-16.009A24.625,24.625,0,0,1,113.2,70.743a1.771,1.771,0,0,0-.6-.11h-4.84a1.776,1.776,0,1,0,0,3.551h4.84a1.767,1.767,0,0,0,.6-.11,24.747,24.747,0,0,1-6.09,14.678A1.776,1.776,0,0,0,106.776,88.264Z" transform="translate(-6.286 -4.939)" fill="#2453b6"/>
    <ellipse id="Ellipse_56" data-name="Ellipse 56" cx="1.5" cy="2" rx="1.5" ry="2" transform="translate(39 87)" fill="#2453b6"/>
  </g>
</svg>
