<?xml version="1.0" encoding="iso-8859-1"?>
<!-- Generator: Adobe Illustrator 19.0.0, SVG Export Plug-In . SVG Version: 6.00 Build 0)  -->
<svg version="1.1" id="Capa_1" xmlns="http://www.w3.org/2000/svg" xmlns:xlink="http://www.w3.org/1999/xlink" x="0px" y="0px"
	 viewBox="0 0 480 480" style="enable-background:new 0 0 480 480;" xml:space="preserve">
<g>
	<g>
		<path d="M462.773,187.742c-12.538-20.062-27.62-38.417-44.87-54.608l45.346-47.618l-11.594-11.031l-45.776,48.07
			c-18.672-15.367-39.476-27.943-61.761-37.332l23.311-58.25l-14.859-5.945l-23.381,58.425
			c-26.155-9.07-53.522-14.163-81.189-15.109V0h-16v64.115c-28.295,0.148-56.381,4.867-83.171,13.975l-21.337-56.898l-14.984,5.617
			L133.9,83.854c-20.297,8.673-39.251,20.199-56.291,34.227l-49.741-44.07L17.258,85.988l48.215,42.718
			c-18.571,17.506-34.789,37.35-48.246,59.036c-1.633,2.604-1.633,5.912,0,8.516C58.532,264.17,128.998,309.085,208,317.856V352h-16
			c-4.417-0.001-7.999,3.579-8,7.996c0,0.001,0,0.003,0,0.004v112c-0.001,4.417,3.579,7.999,7.996,8c0.001,0,0.003,0,0.004,0h96
			c4.417,0.001,7.999-3.579,8-7.996c0-0.001,0-0.003,0-0.004V360c0.001-4.417-3.579-7.999-7.996-8c-0.001,0-0.003,0-0.004,0h-16
			v-33.42c80.344-7.641,144.462-48.619,190.773-122.322C464.406,193.654,464.406,190.346,462.773,187.742z M33.5,191.992
			c34.194-52.686,76.939-86.384,129.406-101.927c-56.324,42.362-67.642,122.362-25.281,178.685
			c5.892,7.834,12.668,14.964,20.193,21.247C106.509,272.289,62.696,237.75,33.5,191.992z M280,368v96h-80v-96H280z M224,352
			v-32.698c3.577,0.233,7.204,0.33,10.828,0.436L256,319.66V352H224z M241.405,303.929c-2.129-0.019-4.23-0.114-6.342-0.179
			c-61.74-2.669-109.627-54.884-106.958-116.624c2.566-59.36,51.078-106.364,110.49-107.055c2.129,0.019,4.23,0.114,6.342,0.179
			c61.74,2.669,109.627,54.884,106.958,116.624C349.328,256.234,300.816,303.238,241.405,303.929z M317.094,293.935
			c56.324-42.362,67.642-122.362,25.281-178.685c-5.892-7.834-12.668-14.964-20.193-21.247
			c51.309,17.708,95.121,52.248,124.318,98.006C412.306,244.694,369.561,278.393,317.094,293.935z"/>
	</g>
</g>
<g>
	<g>
		<path d="M248,104v16c35.329,0.04,63.96,28.671,64,64h16C327.949,139.838,292.162,104.051,248,104z"/>
	</g>
</g>
<g>
</g>
<g>
</g>
<g>
</g>
<g>
</g>
<g>
</g>
<g>
</g>
<g>
</g>
<g>
</g>
<g>
</g>
<g>
</g>
<g>
</g>
<g>
</g>
<g>
</g>
<g>
</g>
<g>
</g>
</svg>
