<?xml version="1.0"?>
<svg xmlns="http://www.w3.org/2000/svg" id="Layer_5" enable-background="new 0 0 64 64" height="512px" viewBox="0 0 64 64" width="512px"><g><g><path d="m15 23v-2.117c1.716-.411 3-1.948 3-3.789 0-1.684-1.073-3.173-2.671-3.705l-2.025-.676c-.781-.26-1.304-.986-1.304-1.808 0-1.051.854-1.905 1.905-1.905h.189c1.052 0 1.906.854 1.906 1.905v.095l2-.095c0-1.84-1.284-3.378-3-3.789v-2.116h-2v2.117c-1.716.411-3 1.948-3 3.789 0 1.684 1.073 3.173 2.671 3.705l2.025.676c.781.26 1.304.986 1.304 1.808 0 1.051-.854 1.905-1.905 1.905h-.189c-1.052 0-1.906-.854-1.906-1.905v-1.095h-2v1.095c0 1.84 1.284 3.378 3 3.789v2.116z" data-original="#000000" className="active-path" data-old_color="#000000" fill="#2453b6"/><path d="m50 41c-2.757 0-5 2.243-5 5v1h-2v2h2v2h-2v2h2v1c0 2.757 2.243 5 5 5s5-2.243 5-5v-1h-2v1c0 1.654-1.346 3-3 3s-3-1.346-3-3v-1h2v-2h-2v-2h2v-2h-2v-1c0-1.654 1.346-3 3-3s3 1.346 3 3v1h2v-1c0-2.757-2.243-5-5-5z" data-original="#000000" className="active-path" data-old_color="#000000" fill="#2453b6"/><path d="m24 36h-4c-1.654 0-3 1.346-3 3s1.346 3 3 3h4c1.654 0 3-1.346 3-3s-1.346-3-3-3zm0 4h-4c-.552 0-1-.448-1-1s.448-1 1-1h4c.552 0 1 .448 1 1s-.448 1-1 1z" data-original="#000000" className="active-path" data-old_color="#000000" fill="#2453b6"/><path d="m51 37.051v-16.051c0-1.654-1.346-3-3-3h-21.636c.409-1.261.636-2.604.636-4 0-7.168-5.832-13-13-13s-13 5.832-13 13c0 6.83 5.299 12.435 12 12.949v16.051c0 1.654 1.346 3 3 3h21.636c-.409 1.261-.636 2.604-.636 4 0 7.168 5.832 13 13 13s13-5.832 13-13c0-6.83-5.299-12.435-12-12.949zm-28.705-13.051h26.705v4h-34v-1.051c2.76-.211 5.283-1.278 7.295-2.949zm25.705-4c.552 0 1 .448 1 1v1h-24.775c.49-.624.925-1.292 1.295-2zm-45-6c0-6.065 4.935-11 11-11s11 4.935 11 11-4.935 11-11 11-11-4.935-11-11zm13 30c-.552 0-1-.448-1-1v-13h34v7.051c-4.578.351-8.495 3.076-10.521 6.949zm34 17c-6.065 0-11-4.935-11-11s4.935-11 11-11 11 4.935 11 11-4.935 11-11 11z" data-original="#000000" className="active-path" data-old_color="#000000" fill="#2453b6"/><path d="m56.908 29.931-2.308-1.731-1.2 1.6 4.6 3.45 4.6-3.45-1.2-1.6-2.478 1.858c-.999-13.984-12.688-25.058-26.922-25.058v2c13.088 0 23.851 10.111 24.908 22.931z" data-original="#000000" className="active-path" data-old_color="#000000" fill="#2453b6"/><path d="m7.092 34.069 2.308 1.731 1.199-1.6-4.599-3.45-4.6 3.45 1.2 1.6 2.478-1.858c.999 13.984 12.688 25.058 26.922 25.058v-2c-13.088 0-23.851-10.111-24.908-22.931z" data-original="#000000" className="active-path" data-old_color="#000000" fill="#2453b6"/></g></g> </svg>
