<svg xmlns="http://www.w3.org/2000/svg" width="128.168" height="102.728" viewBox="0 0 128.168 102.728">
  <g id="self-exp-interface" transform="translate(-14.729 -21.729)">
    <path id="Path_1383" data-name="Path 1383" d="M137.364,89.855H20.178a5.457,5.457,0,0,1-5.45-5.45V27.179a5.457,5.457,0,0,1,5.45-5.45H137.364a5.457,5.457,0,0,1,5.45,5.45V84.4A5.457,5.457,0,0,1,137.364,89.855ZM20.178,27.179V84.4H137.367l0-57.225H20.178Z" transform="translate(0 0)" fill="#2453b6"/>
    <path id="Path_1384" data-name="Path 1384" d="M93.089,90.688H74.674a4.608,4.608,0,0,1-4.606-4.6V67.671a4.61,4.61,0,0,1,4.606-4.6H93.091a4.609,4.609,0,0,1,4.6,4.6V86.088A4.608,4.608,0,0,1,93.089,90.688ZM74.674,67.671V86.088l18.419,0,0-18.415Z" transform="translate(45.203 33.768)" fill="#2453b6"/>
    <path id="Path_1385" data-name="Path 1385" d="M74.645,90.688H56.228a4.608,4.608,0,0,1-4.6-4.6V67.671a4.609,4.609,0,0,1,4.6-4.6H74.645a4.609,4.609,0,0,1,4.6,4.6V86.088A4.606,4.606,0,0,1,74.645,90.688Zm-18.417-4.6,18.421,0-.005-18.415H56.228" transform="translate(30.139 33.768)" fill="#2453b6"/>
    <path id="Path_1386" data-name="Path 1386" d="M56.2,90.688H37.786a4.608,4.608,0,0,1-4.6-4.6V67.671a4.609,4.609,0,0,1,4.6-4.6H56.2a4.61,4.61,0,0,1,4.606,4.6V86.088A4.607,4.607,0,0,1,56.2,90.688ZM37.786,67.671l0,18.417,18.417,0,0-18.415Z" transform="translate(15.075 33.768)" fill="#2453b6"/>
    <path id="Path_1387" data-name="Path 1387" d="M37.761,90.688H19.344a4.608,4.608,0,0,1-4.6-4.6V67.671a4.609,4.609,0,0,1,4.6-4.6H37.761a4.609,4.609,0,0,1,4.6,4.6V86.088A4.607,4.607,0,0,1,37.761,90.688ZM19.344,67.671l0,18.417,18.419,0,0-18.415Z" transform="translate(0.011 33.768)" fill="#2453b6"/>
  </g>
</svg>
