<?xml version="1.0"?>
<svg xmlns="http://www.w3.org/2000/svg" xmlns:xlink="http://www.w3.org/1999/xlink" xmlns:svgjs="http://svgjs.com/svgjs" version="1.1" width="512" height="512" x="0" y="0" viewBox="0 0 512 512" style="enable-background:new 0 0 512 512" xml:space="preserve" className=""><g><g xmlns="http://www.w3.org/2000/svg"><g><path d="m460.776 388.98h-287.426c-4.266 0-7.724-3.459-7.724-7.726s3.458-7.726 7.724-7.726h287.427c4.266 0 7.724 3.459 7.724 7.726s-3.458 7.726-7.725 7.726zm-362.299 0h-47.253c-4.266 0-7.724-3.459-7.724-7.726s3.458-7.726 7.724-7.726h47.254c4.266 0 7.724 3.459 7.724 7.726s-3.459 7.726-7.725 7.726z" fill="#737a93" data-original="#737a93" style="" className=""/></g><g><path d="m460.776 445.022h-70.969c-4.266 0-7.724-3.459-7.724-7.726s3.458-7.726 7.724-7.726h70.969c4.266 0 7.724 3.459 7.724 7.726s-3.457 7.726-7.724 7.726zm-145.841 0h-263.711c-4.266 0-7.724-3.459-7.724-7.726s3.458-7.726 7.724-7.726h263.712c4.266 0 7.724 3.459 7.724 7.726s-3.459 7.726-7.725 7.726z" fill="#737a93" data-original="#737a93" style="" className=""/></g><g><path d="m460.776 501.065h-227.17c-4.266 0-7.724-3.459-7.724-7.726 0-4.268 3.458-7.726 7.724-7.726h227.171c4.266 0 7.724 3.459 7.724 7.726-.001 4.268-3.458 7.726-7.725 7.726zm-302.043 0h-107.509c-4.266 0-7.724-3.459-7.724-7.726 0-4.268 3.458-7.726 7.724-7.726h107.51c4.266 0 7.724 3.459 7.724 7.726-.001 4.268-3.459 7.726-7.725 7.726z" fill="#737a93" data-original="#737a93" style="" className=""/></g><g><path clip-rule="evenodd" d="m292.101 29.032c13.589 3.457 26.415 8.847 38.185 15.82l11.036-11.015c5.254-5.244 13.853-5.244 19.107 0l31.961 31.873c5.254 5.244 5.254 13.828 0 19.071l-11.036 11.015c6.985 11.748 12.356 24.55 15.82 38.114h15.585c7.426 0 13.53 6.064 13.53 13.505v45.086c0 7.412-6.105 13.476-13.53 13.476h-15.585c-3.463 13.564-8.834 26.366-15.82 38.114l11.036 11.015c5.254 5.244 5.254 13.828 0 19.071l-31.962 31.903c-5.254 5.244-13.853 5.244-19.107 0l-11.036-11.015c-11.769 6.972-24.595 12.333-38.185 15.79v15.556c0 7.441-6.075 13.505-13.501 13.505h-45.199c-7.426 0-13.501-6.064-13.501-13.505v-15.556c-13.589-3.457-26.415-8.818-38.185-15.79l-11.036 11.015c-5.254 5.244-13.853 5.244-19.107 0l-31.962-31.903c-5.254-5.244-5.254-13.828 0-19.071l11.036-11.015c-6.985-11.748-12.356-24.55-15.82-38.114h-15.584c-7.426 0-13.53-6.064-13.53-13.476v-45.086c0-7.441 6.105-13.505 13.53-13.505h15.585c3.463-13.564 8.834-26.366 15.82-38.114l-11.036-11.014c-5.254-5.244-5.254-13.828 0-19.071l31.962-31.874c5.254-5.244 13.853-5.244 19.107 0l11.036 11.015c11.769-6.972 24.595-12.363 38.185-15.82v-15.556c-.001-7.412 6.075-13.476 13.5-13.476h45.2c7.426 0 13.501 6.064 13.501 13.476z" fill="#737a93" fill-rule="evenodd" data-original="#737a93" style="" className=""/></g><g><path clip-rule="evenodd" d="m256 279.568c60.491 0 109.829-49.246 109.829-109.624s-49.338-109.595-109.829-109.595-109.828 49.217-109.828 109.595 49.337 109.624 109.828 109.624z" fill="#fe636e" fill-rule="evenodd" data-original="#fe636e" style=""/></g><g><path clip-rule="evenodd" d="m279.891 224.727c24.038-8.906 41.266-32.079 41.266-59.06 0-21.532-10.977-40.633-27.648-52-17.463-11.923-14.088 6.943-14.088 10.078v37.821c0 13.212-10.39 24.11-23.421 24.989-13.031-.879-23.421-11.777-23.421-24.989v-37.821c0-3.135 3.375-22.001-14.088-10.078-16.671 11.367-27.648 30.467-27.648 52 0 26.981 17.229 50.154 41.266 59.06v52.234c7.69 1.699 15.702 2.607 23.891 2.607s16.201-.908 23.891-2.607z" fill="#c1eaf4" fill-rule="evenodd" data-original="#c1eaf4" style=""/></g><g><path clip-rule="evenodd" d="m279.891 276.961v-52.234c24.038-8.906 41.266-32.079 41.266-59.06 0-21.532-10.977-40.633-27.648-52-3.727-2.519-6.486-3.691-8.57-3.867 12.826 11.542 20.897 28.212 20.897 46.668 0 25.985-15.996 48.426-38.654 58.005-3.727 1.582-2.642 6.006-2.642 10.517v54.256c5.225-.41 10.362-1.172 15.351-2.285z" fill="#99cfe0" fill-rule="evenodd" data-original="#99cfe0" style=""/></g><g><path clip-rule="evenodd" d="m365.828 169.944c0-60.525-49.191-109.595-109.829-109.595-4.285 0-8.512.234-12.65.703 53.447 7.412 94.566 53.201 94.566 108.57 0 41.863-23.48 78.219-58.025 96.705v10.634c49.163-10.869 85.938-54.666 85.938-107.017z" fill="#f93e55" fill-rule="evenodd" data-original="#f93e55" style=""/></g><g><path clip-rule="evenodd" d="m392.39 65.71-31.962-31.874c-5.254-5.244-13.853-5.244-19.107 0l-11.036 11.015c-11.769-6.972-24.595-12.363-38.185-15.82v-15.555c.001-7.412-6.075-13.476-13.5-13.476h-30.583c8.981 18.603 16.612 39.168 22.629 61.316 53.711 7.148 95.183 53.054 95.183 108.628 0 52.351-36.776 96.148-85.937 107.017-1.321.293-2.612.557-3.933.791-4.725 22.148-11.036 42.977-18.667 62.165h21.308c7.426 0 13.501-6.064 13.501-13.505v-15.556c13.589-3.457 26.415-8.818 38.185-15.79l11.036 11.015c5.254 5.244 13.853 5.244 19.107 0l31.962-31.903c5.254-5.244 5.254-13.828 0-19.071l-11.036-11.015c6.985-11.748 12.356-24.55 15.82-38.114h15.585c7.426 0 13.53-6.064 13.53-13.476v-45.086c0-7.441-6.105-13.505-13.53-13.505h-15.585c-3.463-13.564-8.834-26.366-15.82-38.114l11.036-11.015c5.253-5.244 5.253-13.828-.001-19.072z" fill="#606b82" fill-rule="evenodd" data-original="#606b82" style=""/></g><g><path clip-rule="evenodd" d="m173.35 381.254c0-10.283-8.424-18.691-18.725-18.691h-37.422c-10.302 0-18.725 8.408-18.725 18.691s8.424 18.691 18.725 18.691h37.422c10.301-.001 18.725-8.409 18.725-18.691z" fill="#ade194" fill-rule="evenodd" data-original="#ade194" style=""/></g><g><path clip-rule="evenodd" d="m389.808 437.296c0-10.283-8.423-18.691-18.725-18.691h-37.422c-10.302 0-18.725 8.408-18.725 18.691 0 10.253 8.423 18.661 18.725 18.661h37.422c10.301 0 18.725-8.407 18.725-18.661z" fill="#ade194" fill-rule="evenodd" data-original="#ade194" style=""/></g><g><path clip-rule="evenodd" d="m233.606 493.339c0-10.283-8.424-18.691-18.725-18.691h-37.422c-10.302 0-18.725 8.408-18.725 18.691 0 10.254 8.424 18.661 18.725 18.661h37.422c10.301 0 18.725-8.408 18.725-18.661z" fill="#ade194" fill-rule="evenodd" data-original="#ade194" style=""/></g><g><path clip-rule="evenodd" d="m173.35 381.254c0-10.283-8.424-18.691-18.725-18.691h-23.598c10.302 0 18.725 8.408 18.725 18.691s-8.424 18.691-18.725 18.691h23.598c10.301-.001 18.725-8.409 18.725-18.691z" fill="#80d261" fill-rule="evenodd" data-original="#80d261" style="" className=""/></g><g><path clip-rule="evenodd" d="m233.606 493.339c0-10.283-8.424-18.691-18.725-18.691h-23.598c10.302 0 18.725 8.408 18.725 18.691 0 10.254-8.424 18.661-18.725 18.661h23.598c10.301 0 18.725-8.408 18.725-18.661z" fill="#80d261" fill-rule="evenodd" data-original="#80d261" style="" className=""/></g><g><path clip-rule="evenodd" d="m389.808 437.296c0-10.283-8.423-18.691-18.725-18.691h-23.598c10.302 0 18.725 8.408 18.725 18.691 0 10.253-8.423 18.661-18.725 18.661h23.598c10.301 0 18.725-8.407 18.725-18.661z" fill="#80d261" fill-rule="evenodd" data-original="#80d261" style="" className=""/></g></g></g></svg>
