<?xml version="1.0" encoding="iso-8859-1"?>
<!-- Generator: Adobe Illustrator 19.0.0, SVG Export Plug-In . SVG Version: 6.00 Build 0)  -->
<svg xmlns="http://www.w3.org/2000/svg" xmlns:xlink="http://www.w3.org/1999/xlink" version="1.1" id="Capa_1" x="0px" y="0px" viewBox="0 0 512 512" style="enable-background:new 0 0 512 512;" xml:space="preserve" width="512px" height="512px">
    <g>
        <g>
            <path d="M391.531,173.803c-4.16-4.16-10.923-4.16-15.083,0L234.667,315.584l-77.803-77.781c-4.16-4.16-10.923-4.16-15.083,0    c-4.16,4.16-4.16,10.923,0,15.083l85.333,85.333c2.091,2.069,4.821,3.115,7.552,3.115c2.731,0,5.461-1.045,7.531-3.115    l149.333-149.333C395.691,184.725,395.691,177.963,391.531,173.803z" fill="#2453b6" />
        </g>
    </g>
    <g>
        <g>
            <path d="M472.384,64.448l-213.333-64c-2.005-0.597-4.117-0.597-6.123,0l-213.333,64C35.093,65.792,32,69.952,32,74.667v234.667    c0,94.336,143.829,178.24,220.843,202.197c1.024,0.32,2.091,0.469,3.157,0.469s2.133-0.149,3.157-0.469    C336.171,487.552,480,403.669,480,309.333V74.667C480,69.952,476.907,65.813,472.384,64.448z M458.667,309.333    c0,74.901-118.677,153.664-202.667,180.821c-83.989-27.157-202.667-105.92-202.667-180.821V82.603L256,21.803l202.667,60.8    V309.333z" fill="#2453b6" />
        </g>
    </g>
    <g>
    </g>
    <g>
    </g>
    <g>
    </g>
    <g>
    </g>
    <g>
    </g>
    <g>
    </g>
    <g>
    </g>
    <g>
    </g>
    <g>
    </g>
    <g>
    </g>
    <g>
    </g>
    <g>
    </g>
    <g>
    </g>
    <g>
    </g>
    <g>
    </g>
</svg>