<?xml version="1.0"?>
<svg xmlns="http://www.w3.org/2000/svg" xmlns:xlink="http://www.w3.org/1999/xlink" xmlns:svgjs="http://svgjs.com/svgjs" version="1.1" width="512" height="512" x="0" y="0" viewBox="0 0 512 512" style="enable-background:new 0 0 512 512" xml:space="preserve" className=""><g><g xmlns="http://www.w3.org/2000/svg"><path d="m509.627 119.361c-1.9-2.241-4.689-3.533-7.627-3.533h-397.859l-13.564-67.16c-.942-4.665-5.042-8.02-9.802-8.02h-70.775c-5.523 0-10 4.477-10 10s4.477 10 10 10h62.592l66.145 327.495c-10.199 8.666-16.683 21.59-16.683 36.001 0 26.03 21.151 47.208 47.15 47.208s47.151-21.177 47.151-47.208c0-10.124-3.2-19.513-8.639-27.208h153.571c-5.439 7.695-8.639 17.084-8.639 27.208 0 26.03 21.151 47.208 47.15 47.208s47.151-21.177 47.151-47.208c0-10.16-3.223-19.581-8.698-27.292 4.908-.638 8.698-4.834 8.698-9.916 0-5.523-4.477-10-10-10h-280.072l-4.258-21.08h276.045c26.268 0 48.451-18.809 52.748-44.722l30.453-183.67c.481-2.899-.338-5.862-2.238-8.103zm-313.272 304.783c0 15.002-12.18 27.208-27.151 27.208s-27.15-12.205-27.15-27.208 12.18-27.208 27.15-27.208c14.972 0 27.151 12.206 27.151 27.208zm203.444 27.208c-14.971 0-27.15-12.205-27.15-27.208s12.18-27.208 27.15-27.208c14.971 0 27.151 12.206 27.151 27.208s-12.18 27.208-27.151 27.208zm61.883-143.489c-2.689 16.221-16.576 27.994-33.018 27.994h-280.083l-40.4-200.028h382.025z" fill="#2453b6" data-original="#000000" style=""/><path d="m273.918 303.274c.706 4.925 4.924 8.582 9.899 8.582h36.908c4.975 0 9.193-3.657 9.899-8.582l18.913-132.028c.411-2.87-.444-5.778-2.343-7.969-1.899-2.19-4.656-3.449-7.556-3.449h-74.733c-2.899 0-5.656 1.259-7.556 3.449-1.899 2.191-2.754 5.099-2.343 7.969zm54.185-123.446-16.048 112.028h-19.569l-16.047-112.028z" fill="#2453b6" data-original="#000000" style=""/><path d="m371.233 311.856h48.852c4.678 0 8.73-3.242 9.756-7.806l29.691-132.028c.667-2.963-.05-6.069-1.948-8.441-1.897-2.372-4.771-3.752-7.808-3.752h-59.63c-4.975 0-9.193 3.657-9.899 8.582l-18.913 132.028c-.411 2.87.444 5.778 2.343 7.969 1.9 2.19 4.657 3.448 7.556 3.448zm27.583-132.028h38.462l-25.194 112.028h-29.316z" fill="#2453b6" data-original="#000000" style=""/><path d="m144.963 171.808 26.666 132.028c.942 4.665 5.042 8.02 9.802 8.02h51.877c2.899 0 5.656-1.259 7.556-3.449 1.899-2.191 2.754-5.099 2.343-7.969l-18.913-132.028c-.706-4.925-4.924-8.582-9.899-8.582h-59.63c-2.999 0-5.84 1.346-7.739 3.667-1.9 2.322-2.657 5.373-2.063 8.313zm60.763 8.02 16.048 112.028h-32.16l-22.626-112.028z" fill="#2453b6" data-original="#000000" style=""/></g></g></svg>
