<?xml version="1.0"?>
<svg xmlns="http://www.w3.org/2000/svg" id="Layer_5" enable-background="new 0 0 64 64" height="512px" viewBox="0 0 64 64" width="512px"><g><g><path d="m22 19h-2c0 .551-.449 1-1 1s-1-.449-1-1h-2c0 1.654 1.346 3 3 3s3-1.346 3-3z" data-original="#000000" className="active-path" data-old_color="#000000" fill="#2453b6"/><path d="m27 22c1.654 0 3-1.346 3-3h-2c0 .551-.449 1-1 1s-1-.449-1-1h-2c0 1.654 1.346 3 3 3z" data-original="#000000" className="active-path" data-old_color="#000000" fill="#2453b6"/><path d="m28.943 35.162-1.954-.109c-.01-.261-.042-.518-.094-.768.869-.329 1.679-.763 2.421-1.285h4.021c3.674 0 6.663-2.989 6.663-6.663 0-1.029-.243-2.059-.703-2.98l-1.297-2.593v-4.764c0-8.271-6.729-15-15-15s-15 6.729-15 15v4.764l-1.297 2.594c-.46.92-.703 1.95-.703 2.979 0 3.674 2.989 6.663 6.663 6.663h4.012c.424.298.871.569 1.341.807l-.164 1.31-.795.044c-9.004.501-16.057 7.957-16.057 16.975 0 5.99 4.874 10.864 10.864 10.864h33.136v-10.864c0-9.018-7.053-16.474-16.057-16.974zm4.394-4.162h-1.867c1.176-1.426 1.996-3.14 2.341-5h.189c1.45 0 2.71-.783 3.412-1.941l.096.192c.322.645.492 1.366.492 2.086 0 2.571-2.092 4.663-4.663 4.663zm.663-11c1.103 0 2 .897 2 2s-.897 2-2 2zm-11-17c7.168 0 13 5.832 13 13v2.556c-.591-.344-1.268-.556-2-.556v-4h-3c-2.086 0-3.961-1.159-4.895-3.024l-.211-.422-1.789.894.211.423c.41.82.964 1.526 1.607 2.125-2.055-.028-3.896-1.177-4.818-3.019l-.211-.422-1.789.894.211.423c.41.82.964 1.526 1.607 2.125-2.055-.028-3.896-1.177-4.818-3.019l-.211-.422-1.789.894.211.423c.16.32.341.625.54.913-1.702.813-2.856 2.539-2.856 4.493v.721c-.732 0-1.409.212-2 .556v-2.556c0-7.168 5.832-13 13-13zm-13 19c0-1.103.897-2 2-2v4c-1.103 0-2-.897-2-2zm-2 4.337c0-.72.17-1.441.492-2.085l.096-.193c.702 1.158 1.962 1.941 3.412 1.941h.189c.341 1.857 1.15 3.572 2.328 5h-1.854c-2.571 0-4.663-2.092-4.663-4.663zm6-2.337v-6.721c0-1.397.977-2.607 2.331-2.918 1.298 1.042 2.928 1.639 4.669 1.639v-1.932c1.346 1.219 3.105 1.932 5 1.932v-1.932c1.346 1.219 3.105 1.932 5 1.932h1v8c0 3.804-2.404 7.184-5.93 8.462-.297-.394-.653-.746-1.07-1.032v-3.306c0-1.722-1.402-3.124-3.125-3.124-1.572 0-2.905 1.177-3.1 2.737l-.491 3.93c-2.639-1.621-4.284-4.502-4.284-7.667zm9.586 14h-4.078l1.252-10.015c.07-.562.55-.985 1.115-.985.621 0 1.125.504 1.125 1.125v4.494l.553.276c.892.446 1.447 1.343 1.447 2.341v.266c0 .689-.279 1.364-.767 1.851zm-20.586 14.136c0-7.957 6.224-14.536 14.168-14.977l.432-.024-.638 5.104c-.503 4.025-2.172 7.848-4.74 10.97l-2.328-4.656-1.789.895 2.678 5.355-1.49 1.49 1.414 1.414 1.558-1.558c3.666-3.666 6.039-8.518 6.682-13.662l.311-2.487h3.742v4.929c0 4.42-1.339 8.669-3.874 12.29-1.657 2.367-4.372 3.781-7.262 3.781-4.887 0-8.864-3.977-8.864-8.864zm40 8.864h-6v-15h-2v15h-16.872c1.01-.713 1.909-1.595 2.636-2.634 2.771-3.958 4.236-8.605 4.236-13.437v-5.515l.647-.647c.494-.494.846-1.086 1.072-1.725l2.112.117c7.946.441 14.169 7.02 14.169 14.977z" data-original="#000000" className="active-path" data-old_color="#000000" fill="#2453b6"/><path d="m27 46h6v2h-6z" data-original="#000000" className="active-path" data-old_color="#000000" fill="#2453b6"/><path d="m58.36 7h-12.72c-2.558 0-4.64 2.082-4.64 4.64 0 .306.03.613.09.91l1.344 6.72c.432 2.161 2.345 3.73 4.549 3.73h1.017v1.586c0 1.331 1.083 2.414 2.414 2.414.645 0 1.251-.251 1.707-.707l3.293-3.293h1.602c2.205 0 4.118-1.569 4.549-3.729l1.344-6.72c.061-.299.091-.605.091-.911 0-2.558-2.082-4.64-4.64-4.64zm2.589 5.157-1.344 6.721c-.246 1.23-1.335 2.122-2.589 2.122h-2.43l-3.879 3.879c-.238.238-.707.045-.707-.293v-3.586h-3.016c-1.254 0-2.343-.892-2.588-2.122l-1.344-6.722c-.035-.168-.052-.342-.052-.516 0-1.456 1.184-2.64 2.64-2.64h12.72c1.456 0 2.64 1.184 2.64 2.64 0 .174-.017.348-.051.517z" data-original="#000000" className="active-path" data-old_color="#000000" fill="#2453b6"/><path d="m46 11h12v2h-12z" data-original="#000000" className="active-path" data-old_color="#000000" fill="#2453b6"/><path d="m46 15h12v2h-12z" data-original="#000000" className="active-path" data-old_color="#000000" fill="#2453b6"/></g></g> </svg>
