<?xml version="1.0"?>
<svg xmlns="http://www.w3.org/2000/svg" xmlns:xlink="http://www.w3.org/1999/xlink" xmlns:svgjs="http://svgjs.com/svgjs" version="1.1" width="512" height="512" x="0" y="0" viewBox="0 0 64 64" style="enable-background:new 0 0 512 512" xml:space="preserve" className=""><g><g xmlns="http://www.w3.org/2000/svg"><path d="m60 39c-.395 0-.77.081-1.116.22-.345-1.275-1.501-2.22-2.884-2.22-.771 0-1.468.301-2 .78-.532-.48-1.229-.78-2-.78-.352 0-.686.072-1 .184v-5.039c6.63-3.275 10-6.016 10-8.145 0-3.042-1.93-15.618-2.012-16.152l-.13-.848h-1.201c-3.381 0-6.56-1.316-8.95-3.707l-.707-.707-.707.707c-1.244 1.244-2.704 2.19-4.293 2.818v-.111c0-2.757-2.243-5-5-5h-32c-2.757 0-5 2.243-5 5v52c0 2.757 2.243 5 5 5h37.839v-.04l16.161.043v-3.67l1.6-2.133c.903-1.203 1.4-2.694 1.4-4.2v-11c0-1.654-1.346-3-3-3zm-12-33.63c2.544 2.234 5.741 3.504 9.139 3.621.439 2.915 1.861 12.553 1.861 15.009 0 .763-2.167 2.921-8 5.908v-1.908c0-1.654-1.346-3-3-3s-3 1.346-3 3v1.908c-5.833-2.99-8-5.146-8-5.908 0-2.456 1.422-12.094 1.861-15.009 3.398-.117 6.595-1.387 9.139-3.621zm-10.724 37.377 1.166 2.331c.365.731.558 1.548.558 2.364v1.558h-32v-38h29.541c-.171 1.168-.37 2.557-.568 4h-24.973v10h24.236c.298.683.882 1.418 1.764 2.205v13.795h.069c-.042.186-.069.378-.069.576 0 .404.096.81.276 1.171zm-18.276-36.747v-3h6v3c0 1.654-1.346 3-3 3s-3-1.346-3-3zm16.042 17h-22.042v-6h22.705c-.303 2.314-.565 4.547-.663 6zm3.958 5.741c.601.41 1.265.831 2 1.264v9.084c-.447-.083-.908-.131-1.381-.131-.214 0-.419.033-.619.082zm4 2.381c.628.335 1.299.676 2 1.023v9.112c-.573-.603-1.247-1.108-2-1.491zm-2-25.122v.715c-.864.184-1.752.285-2.657.285h-1.201l-.13.848c-.014.088-.078.507-.175 1.152h-10.863c.635-.838 1.026-1.87 1.026-3v-3h11c1.654 0 3 1.346 3 3zm-38 52v-52c0-1.654 1.346-3 3-3h11v3c0 1.13.391 2.162 1.026 3h-11.026c-1.103 0-2 .897-2 2v38c0 1.103.897 2 2 2h32v.551c0 1.074.252 2.15.73 3.112l2.27 4.571v1.766h-36c-1.654 0-3-1.346-3-3zm58-5c0 1.075-.355 2.141-1 3l-2 2.667v2.33l-14-.036v-2.195l-2.479-4.991c-.341-.688-.521-1.458-.521-2.224v-4.108c0-1.126-.266-2.252-.769-3.259l-1.166-2.331c-.043-.085-.065-.181-.065-.276 0-.342.278-.619.714-.619 2.915.001 5.286 2.373 5.286 5.287v1.713 2h2v-2-1.713-18.245c0-.552.449-1 1-1s1 .448 1 1v12 4h2v-4c0-.552.449-1 1-1s1 .448 1 1v4h2v-4c0-.552.449-1 1-1s1 .448 1 1v2 2h2v-2c0-.552.449-1 1-1s1 .448 1 1z" fill="#3964bd" data-original="#000000" style="" className=""/><path d="m11.586 53h-.586c-1.103 0-2 .897-2 2v2c0 1.103.897 2 2 2h.586c.534 0 1.036-.208 1.414-.586l2.414-2.414-2.414-2.414c-.378-.378-.88-.586-1.414-.586zm0 4h-.586v-2h.586l1 1z" fill="#3964bd" data-original="#000000" style="" className=""/><path d="m23 53h-2c-1.103 0-2 .897-2 2v2c0 1.103.897 2 2 2h2c1.103 0 2-.897 2-2v-2c0-1.103-.897-2-2-2zm-2 4v-2h2l.001 2z" fill="#3964bd" data-original="#000000" style="" className=""/><path d="m33 53h-.586c-.534 0-1.036.208-1.414.586l-2.414 2.414 2.414 2.414c.378.378.88.586 1.414.586h.586c1.103 0 2-.897 2-2v-2c0-1.103-.897-2-2-2zm-.586 4-1-1 1-1h.586l.001 2z" fill="#3964bd" data-original="#000000" style="" className=""/><circle cx="22" cy="6" r="1" fill="#3964bd" data-original="#000000" style="" className=""/><path d="m55.707 12.707-1.414-1.414-9.293 9.293-3.293-3.293-1.414 1.414 4.707 4.707z" fill="#3964bd" data-original="#000000" style="" className=""/><path d="m15 19h2v2h-2z" fill="#3964bd" data-original="#000000" style="" className=""/><path d="m23 19h2v2h-2z" fill="#3964bd" data-original="#000000" style="" className=""/><path d="m19 19h2v2h-2z" fill="#3964bd" data-original="#000000" style="" className=""/><path d="m27 19h2v2h-2z" fill="#3964bd" data-original="#000000" style="" className=""/><path d="m31 19h2v2h-2z" fill="#3964bd" data-original="#000000" style="" className=""/><path d="m27 35.184v-3.184c0-2.757-2.243-5-5-5s-5 2.243-5 5v3.184c-1.161.414-2 1.514-2 2.816v6c0 1.654 1.346 3 3 3h8c1.654 0 3-1.346 3-3v-6c0-1.302-.839-2.402-2-2.816zm-5-6.184c1.654 0 3 1.346 3 3v3h-6v-3c0-1.654 1.346-3 3-3zm5 15c0 .552-.449 1-1 1h-8c-.551 0-1-.448-1-1v-6c0-.552.449-1 1-1h8c.551 0 1 .448 1 1z" fill="#3964bd" data-original="#000000" style="" className=""/></g></g></svg>
