<?xml version="1.0"?>
<svg xmlns="http://www.w3.org/2000/svg" xmlns:xlink="http://www.w3.org/1999/xlink" xmlns:svgjs="http://svgjs.com/svgjs" version="1.1" width="512" height="512" x="0" y="0" viewBox="0 0 512 512" style="enable-background:new 0 0 512 512" xml:space="preserve" className=""><g><path xmlns="http://www.w3.org/2000/svg" d="m209.599 479h92.803c4.143 0 7.5-3.357 7.5-7.5s-3.357-7.5-7.5-7.5h-92.803c-4.142 0-7.5 3.357-7.5 7.5s3.358 7.5 7.5 7.5z" fill="#2453b6" data-original="#000000" style="" className=""/><path xmlns="http://www.w3.org/2000/svg" d="m439 68.5h-33.5v-31c0-20.678-16.822-37.5-37.5-37.5h-224c-20.678 0-37.5 16.822-37.5 37.5v31h-33.5c-12.407 0-22.5 10.094-22.5 22.5v44.491c0 4.143 3.358 7.5 7.5 7.5s7.5-3.357 7.5-7.5v-4.991h381v172h-381v-134.45c0-4.143-3.358-7.5-7.5-7.5s-7.5 3.357-7.5 7.5v224.95c0 12.406 10.093 22.5 22.5 22.5h33.5v59c0 20.678 16.822 37.5 37.5 37.5h224c20.678 0 37.5-16.822 37.5-37.5v-59h33.5c12.406 0 22.5-10.094 22.5-22.5v-302c0-12.406-10.094-22.5-22.5-22.5zm-114.648-53.5v22.5c0 1.379-1.121 2.5-2.5 2.5h-132c-1.378 0-2.5-1.121-2.5-2.5v-22.5zm-258.852 100.5v-24.5c0-4.136 3.364-7.5 7.5-7.5h278.96c4.143 0 7.5-3.357 7.5-7.5s-3.357-7.5-7.5-7.5h-230.46v-31c0-12.406 10.093-22.5 22.5-22.5h28.352v22.5c0 9.649 7.851 17.5 17.5 17.5h132c9.649 0 17.5-7.851 17.5-17.5v-22.5h28.648c12.406 0 22.5 10.094 22.5 22.5v31h-7.749c-4.143 0-7.5 3.357-7.5 7.5s3.357 7.5 7.5 7.5h56.249c4.136 0 7.5 3.364 7.5 7.5v24.5zm325 317h-230.633c-4.142 0-7.5 3.357-7.5 7.5s3.358 7.5 7.5 7.5h230.633v27c0 12.406-10.094 22.5-22.5 22.5h-224c-12.407 0-22.5-10.094-22.5-22.5v-27h6.46c4.142 0 7.5-3.357 7.5-7.5s-3.358-7.5-7.5-7.5h-6.46v-17h269zm48.5-32h-366c-4.136 0-7.5-3.364-7.5-7.5v-75.5h381v75.5c0 4.136-3.364 7.5-7.5 7.5z" fill="#2453b6" data-original="#000000" style="" className=""/><path xmlns="http://www.w3.org/2000/svg" d="m134 326.888c-6.489 0-11.499 2.36-15 4.885-3.502-2.525-8.512-4.885-15-4.885-12.617 0-22.5 10.935-22.5 24.893 0 8.838 4.337 25.93 33.383 41.1 1.289.672 2.702 1.009 4.116 1.009s2.829-.337 4.119-1.01c29.044-15.169 33.381-32.261 33.381-41.099.001-13.959-9.882-24.893-22.499-24.893zm-15 51.162c-14.345-8.086-22.5-17.563-22.5-26.27 0-4.796 2.628-9.893 7.5-9.893 4.943 0 7.874 3.325 8.654 4.345.001.002.002.003.004.005 1.503 1.96 3.874 3.13 6.342 3.13s4.838-1.17 6.346-3.135c.78-1.02 3.711-4.345 8.654-4.345 4.872 0 7.5 5.097 7.5 9.893 0 8.708-8.155 18.184-22.5 26.27z" fill="#2453b6" data-original="#000000" style="" className=""/><path xmlns="http://www.w3.org/2000/svg" d="m235.434 331.5h-42.867c-8.308 0-15.066 6.759-15.066 15.066v27.867c0 8.308 6.759 15.066 15.066 15.066h42.867c8.308 0 15.066-6.759 15.066-15.066v-27.867c0-8.307-6.759-15.066-15.066-15.066zm.066 42.934c0 .036-.03.066-.066.066l-42.934-.066.066-27.934 42.934.066z" fill="#2453b6" data-original="#000000" style="" className=""/><path xmlns="http://www.w3.org/2000/svg" d="m386.25 352.5h29.474c4.143 0 7.5-3.357 7.5-7.5s-3.357-7.5-7.5-7.5h-29.474c-4.143 0-7.5 3.357-7.5 7.5s3.357 7.5 7.5 7.5z" fill="#2453b6" data-original="#000000" style="" className=""/><path xmlns="http://www.w3.org/2000/svg" d="m416.25 367.5h-29.474c-4.143 0-7.5 3.357-7.5 7.5s3.357 7.5 7.5 7.5h29.474c4.143 0 7.5-3.357 7.5-7.5s-3.357-7.5-7.5-7.5z" fill="#2453b6" data-original="#000000" style="" className=""/><path xmlns="http://www.w3.org/2000/svg" d="m224.5 152.5c-15.715 0-28.5 12.785-28.5 28.5s12.785 28.5 28.5 28.5 28.5-12.785 28.5-28.5-12.785-28.5-28.5-28.5zm0 42c-7.444 0-13.5-6.056-13.5-13.5s6.056-13.5 13.5-13.5 13.5 6.056 13.5 13.5-6.056 13.5-13.5 13.5z" fill="#2453b6" data-original="#000000" style="" className=""/><path xmlns="http://www.w3.org/2000/svg" d="m259 247c0 15.715 12.785 28.5 28.5 28.5s28.5-12.785 28.5-28.5-12.785-28.5-28.5-28.5-28.5 12.785-28.5 28.5zm42 0c0 7.444-6.056 13.5-13.5 13.5s-13.5-6.056-13.5-13.5 6.056-13.5 13.5-13.5 13.5 6.056 13.5 13.5z" fill="#2453b6" data-original="#000000" style="" className=""/><path xmlns="http://www.w3.org/2000/svg" d="m296.208 163.242-90 90c-2.929 2.93-2.929 7.678 0 10.607 1.464 1.464 3.384 2.196 5.303 2.196s3.839-.732 5.303-2.196l90-90c2.929-2.93 2.929-7.678 0-10.607-2.928-2.928-7.676-2.928-10.606 0z" fill="#2453b6" data-original="#000000" style="" className=""/></g></svg>
