<?xml version="1.0"?>
<svg xmlns="http://www.w3.org/2000/svg" xmlns:xlink="http://www.w3.org/1999/xlink" xmlns:svgjs="http://svgjs.com/svgjs" version="1.1" width="512" height="512" x="0" y="0" viewBox="0 0 510 510" style="enable-background:new 0 0 512 512" xml:space="preserve" className=""><g><g xmlns="http://www.w3.org/2000/svg"><path d="m0 0v510h510v-510zm480 480h-450v-386h450zm0-416h-450v-34h450z" fill="#2453b6" data-original="#000000" style="" className=""/><path d="m230 128h-166v190h166zm-30 160h-106v-130h106z" fill="#2453b6" data-original="#000000" style="" className=""/><path d="m63 352h168v30h-168z" fill="#2453b6" data-original="#000000" style="" className=""/><path d="m63 416h168v30h-168z" fill="#2453b6" data-original="#000000" style="" className=""/><path d="m287 128h96v30h-96z" fill="#2453b6" data-original="#000000" style="" className=""/><path d="m287 192h160v30h-160z" fill="#2453b6" data-original="#000000" style="" className=""/><path d="m287 256h160v30h-160z" fill="#2453b6" data-original="#000000" style="" className=""/><path d="m288 446h158v-94h-158zm30-64h98v34h-98z" fill="#2453b6" data-original="#000000" style="" className=""/></g></g></svg>
