<?xml version="1.0"?>
<svg xmlns="http://www.w3.org/2000/svg" xmlns:xlink="http://www.w3.org/1999/xlink" xmlns:svgjs="http://svgjs.com/svgjs" version="1.1" width="512" height="512" x="0" y="0" viewBox="0 0 64 64" style="enable-background:new 0 0 512 512" xml:space="preserve" className=""><g>
<g xmlns="http://www.w3.org/2000/svg">
	<path d="M62,3H24c-0.553,0-1,0.448-1,1v5h-3c-0.553,0-1,0.448-1,1v4c0,0.552,0.447,1,1,1h3v2h-3c-0.553,0-1,0.448-1,1v4   c0,0.552,0.447,1,1,1h3v2h-3c-0.553,0-1,0.448-1,1v4c0,0.552,0.447,1,1,1h3v2h-3c-0.553,0-1,0.447-1,1v4c0,0.553,0.447,1,1,1h3v2   h-3c-0.553,0-1,0.447-1,1v4c0,0.553,0.447,1,1,1h3v2h-3c-0.553,0-1,0.447-1,1v4c0,0.553,0.447,1,1,1h3v5c0,0.553,0.447,1,1,1h38   c0.553,0,1-0.447,1-1V4C63,3.448,62.553,3,62,3z M21,13v-2h2v2H21z M21,21v-2h2v2H21z M21,29v-2h2v2H21z M21,37v-2h2v2H21z M21,45   v-2h2v2H21z M21,53v-2h2v2H21z M61,59H25v-5v-4v-4v-4v-4v-4v-4v-4v-4v-4v-4v-4V5h36V59z" fill="#2453b6" data-original="#000000" style="" className=""/>
	<path d="M28,15h30c0.553,0,1-0.448,1-1V8c0-0.552-0.447-1-1-1H28c-0.553,0-1,0.448-1,1v6C27,14.552,27.447,15,28,15z M29,9h28v4H29   V9z" fill="#2453b6" data-original="#000000" style="" className=""/>
	<rect x="27" y="17" width="32" height="2" fill="#2453b6" data-original="#000000" style="" className=""/>
	<rect x="27" y="55" width="32" height="2" fill="#2453b6" data-original="#000000" style="" className=""/>
	<rect x="27" y="51" width="32" height="2" fill="#2453b6" data-original="#000000" style="" className=""/>
	<rect x="27" y="47" width="32" height="2" fill="#2453b6" data-original="#000000" style="" className=""/>
	<rect x="46" y="25" width="13" height="2" fill="#2453b6" data-original="#000000" style="" className=""/>
	<rect x="46" y="29" width="13" height="2" fill="#2453b6" data-original="#000000" style="" className=""/>
	<rect x="46" y="33" width="13" height="2" fill="#2453b6" data-original="#000000" style="" className=""/>
	<path d="M32,35c2.757,0,5-2.243,5-5s-2.243-5-5-5s-5,2.243-5,5S29.243,35,32,35z M32,27c1.654,0,3,1.346,3,3s-1.346,3-3,3   s-3-1.346-3-3S30.346,27,32,27z" fill="#2453b6" data-original="#000000" style="" className=""/>
	<path d="M4.848,11h6.305l1.906,5.336l1.883-0.673l-5-14C9.8,1.266,9.423,1,9,1H7C6.577,1,6.2,1.266,6.059,1.664l-5,14l1.883,0.673   L4.848,11z M7.705,3h0.59l2.143,6H5.562L7.705,3z" fill="#2453b6" data-original="#000000" style="" className=""/>
	<path d="M14,47H2v2h9.826L1.241,61.35c-0.255,0.296-0.312,0.714-0.149,1.068S1.609,63,2,63h12v-2H4.174l10.585-12.35   c0.255-0.296,0.312-0.714,0.149-1.068S14.391,47,14,47z" fill="#2453b6" data-original="#000000" style="" className=""/>
	<path d="M14,32h-3v-7c0-0.552-0.447-1-1-1H6c-0.553,0-1,0.448-1,1v7H2c-0.404,0-0.77,0.244-0.924,0.617   c-0.155,0.374-0.069,0.804,0.217,1.09l6,6C7.488,39.902,7.744,40,8,40s0.512-0.098,0.707-0.293l6-6   c0.286-0.286,0.372-0.716,0.217-1.09C14.77,32.244,14.404,32,14,32z M8,37.586L4.414,34H6c0.553,0,1-0.447,1-1v-7h2v7   c0,0.553,0.447,1,1,1h1.586L8,37.586z" fill="#2453b6" data-original="#000000" style="" className=""/>
</g>
</g></svg>
