<?xml version="1.0"?>
<svg xmlns="http://www.w3.org/2000/svg" height="512px" viewBox="0 0 64 64" width="512px"><g><g id="Security"><path d="m53 32a9 9 0 0 0 0-18h-2.06a9.016 9.016 0 0 0 -8.94-8 8.912 8.912 0 0 0 -5.24 1.7 14.982 14.982 0 0 0 -26.45 6.34 8.993 8.993 0 0 0 .69 17.96h3.38a8.271 8.271 0 0 0 -.38 2.5 3.507 3.507 0 0 0 .4 1.53 6 6 0 0 0 .6 11.97h5v11a3.009 3.009 0 0 0 3 3h18a3.009 3.009 0 0 0 3-3v-11h5a6 6 0 0 0 0-12h-.21a10.962 10.962 0 0 0 1.15-4zm-42-2a7 7 0 0 1 0-14h.12a7.042 7.042 0 0 1 6.88 7h2a9.049 9.049 0 0 0 -7.67-8.89 12.989 12.989 0 0 1 23.41-4.42 12.929 12.929 0 0 1 2.26 7.31h2a14.907 14.907 0 0 0 -2.11-7.65 6.987 6.987 0 1 1 6.64 12.16 10.968 10.968 0 0 0 -16.2 6.82 8.518 8.518 0 0 0 -5.83-2.33h-11.5a3 3 0 0 1 0-6v-2a5 5 0 0 0 0 10h6.03a8.715 8.715 0 0 0 -1.73 2zm31 29a1 1 0 0 1 -1 1h-18a1 1 0 0 1 -1-1v-14a1 1 0 0 1 1-1h18a1 1 0 0 1 1 1zm-15-17v-5a1 1 0 0 1 1-1h8a1 1 0 0 1 1 1v5zm22-4a4 4 0 0 1 0 8h-5v-1a3.009 3.009 0 0 0 -3-3h-2v-5a3.009 3.009 0 0 0 -3-3h-8a3.009 3.009 0 0 0 -3 3v5h-2a3.009 3.009 0 0 0 -3 3v1h-5a4 4 0 0 1 0-8h1a1.014 1.014 0 0 0 .82-.42 1.035 1.035 0 0 0 .12-.92 6.909 6.909 0 0 0 -.47-.99 3.068 3.068 0 0 1 -.47-1.17 6.492 6.492 0 0 1 12.14-3.21 1 1 0 0 0 1.87-.48 9 9 0 1 1 16.18 5.59 1 1 0 0 0 .8 1.6zm-2.62-15.14a8.936 8.936 0 0 0 4.56-6.86h2.06a7 7 0 1 1 0 14h-3.05a11.045 11.045 0 0 0 -3.57-7.14z" data-original="#000000" className="active-path" data-old_color="#000000" fill="#2453B6"/><path d="m32 48a3.992 3.992 0 0 0 -1 7.858v2.142h2v-2.142a3.992 3.992 0 0 0 -1-7.858zm0 6a2 2 0 1 1 2-2 2 2 0 0 1 -2 2z" data-original="#000000" className="active-path" data-old_color="#000000" fill="#2453B6"/><path d="m38 46h2v2h-2z" data-original="#000000" className="active-path" data-old_color="#000000" fill="#2453B6"/><path d="m38 56h2v2h-2z" data-original="#000000" className="active-path" data-old_color="#000000" fill="#2453B6"/><path d="m24 46h2v2h-2z" data-original="#000000" className="active-path" data-old_color="#000000" fill="#2453B6"/><path d="m24 56h2v2h-2z" data-original="#000000" className="active-path" data-old_color="#000000" fill="#2453B6"/><path d="m16 50h2v2h-2z" data-original="#000000" className="active-path" data-old_color="#000000" fill="#2453B6"/><path d="m16 57a1 1 0 0 1 -1 1h-13v2h13a3 3 0 0 0 3-3v-3h-2z" data-original="#000000" className="active-path" data-old_color="#000000" fill="#2453B6"/><path d="m46 50h2v2h-2z" data-original="#000000" className="active-path" data-old_color="#000000" fill="#2453B6"/><path d="m48 57v-3h-2v3a3 3 0 0 0 3 3h13v-2h-13a1 1 0 0 1 -1-1z" data-original="#000000" className="active-path" data-old_color="#000000" fill="#2453B6"/></g></g> </svg>
