<?xml version="1.0"?>
<svg xmlns="http://www.w3.org/2000/svg" xmlns:xlink="http://www.w3.org/1999/xlink" xmlns:svgjs="http://svgjs.com/svgjs" version="1.1" width="512" height="512" x="0" y="0" viewBox="0 0 512 512" style="enable-background:new 0 0 512 512" xml:space="preserve" className=""><g><g xmlns="http://www.w3.org/2000/svg"><path d="m496 50h-15v-35c0-8.284-6.716-15-15-15s-15 6.716-15 15v5h-390v-5c0-8.284-6.716-15-15-15s-15 6.716-15 15v35h-15c-8.284 0-15 6.716-15 15s6.716 15 15 15h15v35c0 8.284 6.716 15 15 15s15-6.716 15-15v-5h20v387c0 5.198 2.691 10.026 7.114 12.76 4.422 2.733 9.942 2.982 14.594.656l153.292-76.645 153.292 76.646c2.117 1.059 4.415 1.584 6.707 1.584 2.743 0 5.479-.752 7.887-2.24 4.423-2.733 7.114-7.562 7.114-12.76v-387.001h20v5c0 8.284 6.716 15 15 15s15-6.716 15-15v-35h15c8.284 0 15-6.716 15-15s-6.716-15-15-15zm-95 422.729-138.292-69.146c-2.111-1.055-4.409-1.583-6.708-1.583s-4.597.528-6.708 1.584l-138.292 69.145v-362.729h290zm-340-392.729v-30h390v30z" fill="#3964bd" data-original="#000000" style=""/><path d="m256 371c63.411 0 115-51.589 115-115s-51.589-115-115-115-115 51.589-115 115 51.589 115 115 115zm0-200c46.869 0 85 38.131 85 85s-38.131 85-85 85-85-38.131-85-85 38.131-85 85-85z" fill="#3964bd" data-original="#000000" style=""/><path d="m210.315 298.57c-.965 5.627 1.349 11.314 5.968 14.671 4.618 3.355 10.74 3.798 15.797 1.142l23.92-12.577 23.921 12.577c2.195 1.153 4.591 1.723 6.979 1.723 3.11 0 6.206-.966 8.818-2.864 4.619-3.356 6.933-9.044 5.968-14.671l-4.568-26.638 19.353-18.864c4.089-3.985 5.561-9.946 3.796-15.376-1.764-5.431-6.458-9.389-12.108-10.209l-26.745-3.887-11.961-24.235c-2.529-5.121-7.743-8.362-13.453-8.362s-10.924 3.241-13.451 8.361l-11.961 24.235-26.745 3.887c-5.65.82-10.345 4.778-12.108 10.209-1.765 5.43-.293 11.391 3.796 15.376l19.353 18.864zm32.391-46.42c4.886-.71 9.108-3.778 11.294-8.205l2-4.053 2 4.053c2.186 4.427 6.408 7.495 11.294 8.205l4.472.65-3.235 3.154c-3.536 3.446-5.148 8.411-4.314 13.276l.764 4.454-3.999-2.104c-2.186-1.148-4.583-1.723-6.98-1.723s-4.795.574-6.98 1.723l-3.999 2.104.764-4.454c.834-4.865-.778-9.83-4.314-13.276l-3.235-3.154z" fill="#3964bd" data-original="#000000" style=""/></g></g></svg>
