<?xml version="1.0" encoding="iso-8859-1"?>
<!-- Generator: Adobe Illustrator 19.0.0, SVG Export Plug-In . SVG Version: 6.00 Build 0)  -->
<svg xmlns="http://www.w3.org/2000/svg" xmlns:xlink="http://www.w3.org/1999/xlink" version="1.1" id="Capa_1" x="0px" y="0px" viewBox="0 0 480 480" style="enable-background:new 0 0 480 480;" xml:space="preserve" width="512px" height="512px">
<g>
	<g>
		<path d="M459.921,311.496c-0.04-0.701-0.177-1.393-0.408-2.056c-0.088-0.256-0.152-0.504-0.264-0.752    c-0.389-0.87-0.931-1.664-1.6-2.344l-48-48c-0.682-0.67-1.479-1.211-2.352-1.6c-0.24-0.104-0.48-0.168-0.72-0.256    c-0.679-0.233-1.387-0.373-2.104-0.416c-0.168,0-0.312-0.096-0.48-0.096h-63.968V120h48c4.418,0,8-3.582,8-8    c0-2.57-1.235-4.984-3.32-6.488l-144-104c-2.794-2.016-6.566-2.016-9.36,0l-144,104c-3.583,2.585-4.393,7.585-1.808,11.168    c1.504,2.084,3.917,3.32,6.488,3.32h48v137.192c-5.299-0.774-10.645-1.172-16-1.192c-61.856-0.028-112.022,50.094-112.05,111.95    C19.947,429.806,70.069,479.972,131.925,480c25.15,0.011,49.571-8.443,69.332-24h90.768v16c0,4.418,3.582,8,8,8h152    c4.418,0,8-3.582,8-8V312C460.025,311.824,459.937,311.672,459.921,311.496z M412.025,283.312L432.713,304h-20.688V283.312z     M132.025,272c39.098-0.138,74.336,23.556,88.96,59.816L135.969,358.4l-41.904-78.552C106.055,274.683,118.97,272.013,132.025,272    z M225.737,347.096c1.524,6.863,2.291,13.873,2.288,20.904c0.013,12.202-2.337,24.291-6.92,35.6l-67.752-33.88l10.856-3.4    L225.737,347.096z M82.125,450.003C53.491,432.596,36.015,401.51,36.025,368l0,0c-0.017-32.598,16.53-62.971,43.928-80.632    l45.016,84.4l0.056,0.08c0.128,0.232,0.312,0.416,0.456,0.632c0.262,0.411,0.559,0.799,0.888,1.16l0.104,0.112    c0.179,0.147,0.365,0.283,0.56,0.408c0.372,0.303,0.771,0.571,1.192,0.8c0.08,0.04,0.136,0.112,0.224,0.16l85.488,42.744    C186.413,463.138,127.399,477.527,82.125,450.003z M292.025,264v176h-74.344c5.633-6.727,10.465-14.086,14.4-21.928    c7.855-15.522,11.947-32.675,11.944-50.072c0.05-49.543-32.506-93.213-80-107.312V112c0-4.418-3.582-8-8-8h-31.256l119.256-86.136    L363.281,104h-31.256c-4.418,0-8,3.582-8,8v144h-24C295.607,256,292.025,259.581,292.025,264z M444.025,464h-136V272h88v40    c0,4.418,3.582,8,8,8h40V464z" fill="#FFFFFF"/>
	</g>
</g>
<g>
	<g>
		<rect x="324.025" y="288" width="56" height="16" fill="#FFFFFF"/>
	</g>
</g>
<g>
	<g>
		<rect x="324.025" y="320" width="56" height="16" fill="#FFFFFF"/>
	</g>
</g>
<g>
	<g>
		<path d="M423.177,328.648L423.177,328.648c-4.06-1.74-8.763,0.14-10.504,4.2l-20.8,48.552l-33.088-14.712    c-3.978-1.766-8.638-0.028-10.488,3.912l-23.472,50c-1.877,3.999-0.158,8.762,3.84,10.64c1.05,0.497,2.198,0.757,3.36,0.76    c3.101-0.001,5.922-1.793,7.24-4.6l20.168-42.904l33.344,14.816c4.038,1.793,8.765-0.027,10.558-4.065    c0.014-0.032,0.028-0.064,0.042-0.095l24-56C429.117,335.091,427.237,330.389,423.177,328.648z" fill="#FFFFFF"/>
	</g>
</g>
<g>
	<g>
		<rect x="380.025" y="432" width="48" height="16" fill="#FFFFFF"/>
	</g>
</g>
<g>
	<g>
		<rect x="20.025" y="136" width="56" height="16" fill="#FFFFFF"/>
	</g>
</g>
<g>
	<g>
		<rect x="20.025" y="168" width="56" height="16" fill="#FFFFFF"/>
	</g>
</g>
<g>
	<g>
		<rect x="20.025" y="200" width="56" height="16" fill="#FFFFFF"/>
	</g>
</g>
<g>
	<g>
		<rect x="404.025" y="24" width="56" height="16" fill="#FFFFFF"/>
	</g>
</g>
<g>
	<g>
		<rect x="404.025" y="56" width="56" height="16" fill="#FFFFFF"/>
	</g>
</g>
<g>
</g>
<g>
</g>
<g>
</g>
<g>
</g>
<g>
</g>
<g>
</g>
<g>
</g>
<g>
</g>
<g>
</g>
<g>
</g>
<g>
</g>
<g>
</g>
<g>
</g>
<g>
</g>
<g>
</g>
</svg>
