<svg id="Capa_1" enable-background="new 0 0 512 512" height="512" viewBox="0 0 512 512" width="512" xmlns="http://www.w3.org/2000/svg"><g><g><path d="m512 256c0 141.387-114.613 256-256 256s-256-114.613-256-256 114.613-256 256-256 256 114.613 256 256zm0 0" fill="#abecfe"/><path d="m512 256c0 26.051-3.891 51.191-11.129 74.871-5.031 16.469-11.672 32.231-19.75 47.109-8.25 15.2-18 29.461-29.051 42.61-.582.691-1.16 1.379-1.75 2.058-46.941 54.704-116.59 89.352-194.32 89.352s-147.379-34.648-194.309-89.352c-.589-.687-1.179-1.378-1.75-2.07-11.062-13.137-20.812-27.398-29.05-42.598-3.289-6.031-6.332-12.21-9.121-18.531-14-31.629-21.77-66.629-21.77-103.449 0-46.219 12.25-89.57 33.68-127 44.121 77.07 127.16 129 222.32 129s178.211-51.93 222.32-129c21.43 37.43 33.68 80.781 33.68 127zm0 0" fill="#70c5e9"/><path d="m481.262 377.699c-7.16 13.223-15.434 25.742-24.723 37.43-8.437 10.633-17.719 20.57-27.719 29.723-45.539 41.699-106.211 67.148-172.82 67.148s-127.281-25.449-172.82-67.148c-10-9.153-19.282-19.09-27.719-29.723-9.289-11.688-17.563-24.207-24.723-37.43zm0 0" fill="#5899e4"/></g><g><path d="m255.999 43.436c-84.287 0-149.08 67.631-151.002 148.623-.824 45.025 17.846 87.581 52.438 117.506 18.944 16.474 29.927 35.966 29.927 64.245l27.455 13.727h41.182 54.91l13.728-13.727c0-26.632 12.355-47.498 34.868-68.637 30.749-28.827 47.496-67.815 47.496-109.82 0-82.914-66.715-151.642-151.002-151.917z" fill="#f7e398"/><path d="m256.416 43.443c-.091-.001-.182-.006-.273-.007-55.299 0-97.809 67.631-99.07 148.623-.541 45.025 11.709 87.581 34.404 117.506 12.429 16.474 19.634 35.966 19.634 64.245l18.013 13.728h27.293v-344.095z" fill="#f3d37a"/><path d="m324.636 373.81c0-26.632 12.355-47.498 34.868-68.637 30.749-28.827 47.496-67.815 47.496-109.82 0-82.914-66.715-151.642-151.002-151.917v344.102h54.91z" fill="#efc142"/><path d="m324.636 373.81h-68.637-68.637v55.825l27.455 13.728-26.069 13.727c6.366 31.316 34.066 54.91 67.251 54.91s60.885-23.594 67.252-54.91l-26.069-13.727 27.455-13.728v-55.825z" fill="#fbf5eb"/><path d="m323.25 457.09-26.069-13.727 27.455-13.728v-55.825h-68.637v138.19c33.186 0 60.885-23.594 67.251-54.91z" fill="#dce0ef"/><path d="m324.636 429.635h-54.91v27.455h53.524c.901-4.437 1.386-9.025 1.386-13.727z" fill="#cad0e7"/><path d="m242.271 429.635h-54.91v13.728c0 4.702.484 9.29 1.386 13.727h53.524z" fill="#dce0ef"/><g><path d="m269.726 195.353h-13.727-13.727c-7.574 0-13.727-6.153-13.727-13.727s6.153-13.728 13.727-13.728h13.727 13.727c7.574 0 13.727 6.153 13.727 13.728h27.455c0-22.709-18.473-41.182-41.182-41.182v-27.455h-13.727-13.727v27.455c-22.709 0-41.182 18.473-41.182 41.182s18.473 41.182 41.182 41.182h13.727 13.727c7.574 0 13.727 6.153 13.727 13.727s-6.153 13.727-13.727 13.727h-13.727-13.727c-7.574 0-13.727-6.153-13.727-13.727h-27.455c0 22.709 18.473 41.182 41.182 41.182v27.455h13.727 13.727v-27.455c22.709 0 41.182-18.473 41.182-41.182.001-22.709-18.472-41.182-41.182-41.182z" fill="#efc142"/><g fill="#e38d22"><path d="m269.726 277.718c22.709 0 41.182-18.473 41.182-41.182s-18.473-41.182-41.182-41.182h-13.727v27.455h13.727c7.574 0 13.727 6.153 13.727 13.727s-6.153 13.727-13.727 13.727h-13.727v54.91h13.727z"/><path d="m269.726 167.898c7.574 0 13.727 6.153 13.727 13.728h27.455c0-22.709-18.473-41.182-41.182-41.182v-27.455h-13.727v54.91h13.727z"/></g></g></g><g fill="#fff"><path d="m451.572 321.831h-2.188c-9.697 0-17.553-7.864-17.553-17.555v-2.187h-12.513v2.187c0 9.691-7.864 17.555-17.555 17.555h-2.192v12.513h2.192c9.691 0 17.555 7.856 17.555 17.554v2.194h12.513v-2.194c0-9.697 7.857-17.554 17.553-17.554h2.188zm0 0"/><path d="m82.74 256.681h-2.188c-9.697 0-17.553-7.864-17.553-17.555v-2.187h-12.513v2.187c0 9.691-7.864 17.555-17.555 17.555h-2.192v12.513h2.192c9.691 0 17.555 7.857 17.555 17.554v2.194h12.513v-2.194c0-9.697 7.856-17.554 17.553-17.554h2.188zm0 0"/><path d="m130.971 375.019h-2.188c-9.697 0-17.554-7.864-17.554-17.555v-2.187h-12.512v2.187c0 9.691-7.864 17.555-17.555 17.555h-2.192v12.513h2.192c9.691 0 17.555 7.857 17.555 17.554v2.194h12.513v-2.194c0-9.697 7.856-17.554 17.554-17.554h2.188v-12.513zm0 0"/></g></g></svg>