<svg xmlns="http://www.w3.org/2000/svg" width="102.037" height="102.038" viewBox="0 0 102.037 102.038">
  <g id="strategizing" transform="translate(-2 -2)">
    <path id="Path_1765" data-name="Path 1765" d="M71.72,10.957a1.7,1.7,0,0,0-1.355-1.141l-6.153-.942-2.767-5.9a1.7,1.7,0,0,0-3.08,0L55.6,8.874l-6.153.942a1.7,1.7,0,0,0-.961,2.869l4.5,4.614-1.065,6.537a1.7,1.7,0,0,0,2.5,1.764L59.9,22.566,65.386,25.6a1.7,1.7,0,0,0,2.5-1.764L66.823,17.3l4.5-4.614A1.693,1.693,0,0,0,71.72,10.957Zm-7.932,4.58A1.7,1.7,0,0,0,63.327,17l.639,3.928-3.241-1.792a1.7,1.7,0,0,0-1.646,0l-3.241,1.792L56.477,17a1.7,1.7,0,0,0-.461-1.461l-2.791-2.86L57,12.1a1.7,1.7,0,0,0,1.282-.957L59.9,7.7l1.614,3.437A1.693,1.693,0,0,0,62.8,12.1l3.779.578Z" transform="translate(32.23 0)" fill="#2453b6"/>
    <path id="Path_1766" data-name="Path 1766" d="M3.7,61.917H7.823a34.313,34.313,0,0,0,1.053,3.954L5.311,67.93a1.7,1.7,0,0,0-.622,2.323l5.1,8.835a1.7,1.7,0,0,0,2.323.622l3.549-2.049a33.867,33.867,0,0,0,2.9,2.9l-2.051,3.551a1.711,1.711,0,0,0-.17,1.291,1.692,1.692,0,0,0,.792,1.032l8.836,5.1a1.736,1.736,0,0,0,1.291.17,1.692,1.692,0,0,0,1.032-.792l2.058-3.566A33.841,33.841,0,0,0,34.31,88.4v4.126a1.7,1.7,0,0,0,1.7,1.7h10.2a1.7,1.7,0,0,0,1.7-1.7V88.4a33.931,33.931,0,0,0,3.956-1.053l2.058,3.566a1.709,1.709,0,0,0,1.032.792,1.736,1.736,0,0,0,1.291-.17l8.836-5.1a1.714,1.714,0,0,0,.792-1.032,1.7,1.7,0,0,0-.17-1.291L63.66,80.564a33.866,33.866,0,0,0,2.9-2.9l3.549,2.049a1.7,1.7,0,0,0,2.323-.622l5.1-8.835a1.7,1.7,0,0,0-.622-2.323L73.35,65.873A34.314,34.314,0,0,0,74.4,61.919h4.126a1.7,1.7,0,0,0,1.7-1.7v-10.2a1.7,1.7,0,0,0-1.7-1.7H74.406a34.313,34.313,0,0,0-1.053-3.954L76.918,42.3a1.7,1.7,0,0,0,.622-2.323l-5.1-8.835a1.7,1.7,0,0,0-2.323-.622l-3.549,2.049a33.865,33.865,0,0,0-2.9-2.9l2.051-3.551a1.711,1.711,0,0,0,.17-1.291,1.692,1.692,0,0,0-.792-1.032l-8.836-5.1a1.7,1.7,0,0,0-2.323.622l-2.058,3.566a33.841,33.841,0,0,0-3.956-1.053V17.7a1.7,1.7,0,0,0-1.7-1.7h-10.2a1.7,1.7,0,0,0-1.7,1.7v4.124a33.931,33.931,0,0,0-3.956,1.053L28.3,19.311a1.7,1.7,0,0,0-2.323-.622l-8.836,5.1a1.714,1.714,0,0,0-.792,1.032,1.7,1.7,0,0,0,.17,1.291l2.051,3.551a33.867,33.867,0,0,0-2.9,2.9l-3.549-2.049a1.7,1.7,0,0,0-2.323.622l-5.1,8.835A1.7,1.7,0,0,0,5.315,42.3l3.565,2.059a33.762,33.762,0,0,0-1.056,3.956H3.7a1.7,1.7,0,0,0-1.7,1.7v10.2A1.7,1.7,0,0,0,3.7,61.917Zm1.7-10.2H9.243a1.7,1.7,0,0,0,1.679-1.434A30.424,30.424,0,0,1,12.542,44.2,1.7,1.7,0,0,0,11.8,42.12L8.485,40.2l3.4-5.889,3.3,1.906a1.7,1.7,0,0,0,2.17-.4,30.871,30.871,0,0,1,4.459-4.459,1.7,1.7,0,0,0,.4-2.168l-1.908-3.3,5.891-3.4,1.917,3.32a1.705,1.705,0,0,0,2.08.74,30.358,30.358,0,0,1,6.081-1.621,1.7,1.7,0,0,0,1.434-1.68V19.4h6.8v3.843a1.7,1.7,0,0,0,1.434,1.679,30.472,30.472,0,0,1,6.081,1.621,1.7,1.7,0,0,0,2.08-.74l1.917-3.32,5.891,3.4-1.908,3.3a1.7,1.7,0,0,0,.4,2.168,30.872,30.872,0,0,1,4.459,4.459,1.7,1.7,0,0,0,2.17.4l3.3-1.906,3.4,5.889-3.32,1.918a1.7,1.7,0,0,0-.738,2.082,30.454,30.454,0,0,1,1.621,6.078,1.7,1.7,0,0,0,1.679,1.435h3.842v6.8H72.986a1.7,1.7,0,0,0-1.679,1.434,30.424,30.424,0,0,1-1.621,6.078,1.7,1.7,0,0,0,.738,2.082l3.32,1.918-3.4,5.889-3.3-1.906a1.7,1.7,0,0,0-2.17.4,30.871,30.871,0,0,1-4.459,4.459,1.7,1.7,0,0,0-.4,2.168l1.908,3.3-5.891,3.4-1.917-3.32a1.71,1.71,0,0,0-2.08-.74A30.358,30.358,0,0,1,45.949,85.3a1.7,1.7,0,0,0-1.434,1.68v3.843h-6.8V86.984a1.7,1.7,0,0,0-1.434-1.679A30.471,30.471,0,0,1,30.2,83.685a1.71,1.71,0,0,0-2.08.74L26.2,87.745l-5.891-3.4,1.908-3.3a1.7,1.7,0,0,0-.4-2.168,30.871,30.871,0,0,1-4.459-4.459,1.7,1.7,0,0,0-2.17-.4l-3.3,1.906-3.4-5.889,3.32-1.918a1.7,1.7,0,0,0,.738-2.082,30.455,30.455,0,0,1-1.621-6.078,1.7,1.7,0,0,0-1.679-1.435H5.4Z" transform="translate(0 9.809)" fill="#2453b6"/>
    <path id="Path_1767" data-name="Path 1767" d="M35.509,75.019A25.509,25.509,0,1,0,10,49.509,25.538,25.538,0,0,0,35.509,75.019Zm0-47.618A22.108,22.108,0,1,1,13.4,49.509,22.134,22.134,0,0,1,35.509,27.4Z" transform="translate(5.605 15.414)" fill="#2453b6"/>
    <path id="Path_1768" data-name="Path 1768" d="M17.7,44.318,21.3,40.711l3.609,3.607,2.4-2.4-3.609-3.607L27.318,34.7l-2.4-2.4L21.3,35.9,17.7,32.293l-2.4,2.4L18.9,38.306l-3.607,3.607Z" transform="translate(9.313 21.224)" fill="#2453b6"/>
    <path id="Path_1769" data-name="Path 1769" d="M35.256,41.293,31.649,44.9l-3.609-3.607-2.4,2.4,3.609,3.609-3.609,3.607,2.4,2.4,3.609-3.607,3.607,3.607,2.4-2.4-3.607-3.607L37.661,43.7Z" transform="translate(16.56 27.53)" fill="#2453b6"/>
    <path id="Path_1770" data-name="Path 1770" d="M32.8,43.605A6.8,6.8,0,1,0,26,36.8,6.809,6.809,0,0,0,32.8,43.605Zm0-10.2a3.4,3.4,0,1,1-3.4,3.4A3.4,3.4,0,0,1,32.8,33.4Z" transform="translate(16.815 19.618)" fill="#2453b6"/>
    <path id="Path_1771" data-name="Path 1771" d="M17.892,51.922A36.515,36.515,0,0,0,32.813,40.853L33.895,39.5l-2.656-2.126-1.082,1.352A33.089,33.089,0,0,1,16.628,48.762Z" transform="translate(10.249 24.785)" fill="#2453b6"/>
    <rect id="Rectangle_568" data-name="Rectangle 568" width="3" height="4" transform="translate(84 63)" fill="#2453b6"/>
    <rect id="Rectangle_569" data-name="Rectangle 569" width="4" height="4" transform="translate(90 63)" fill="#2453b6"/>
    <rect id="Rectangle_570" data-name="Rectangle 570" width="4" height="4" transform="translate(90 56)" fill="#2453b6"/>
    <rect id="Rectangle_571" data-name="Rectangle 571" width="4" height="3" transform="translate(90 50)" fill="#2453b6"/>
    <rect id="Rectangle_572" data-name="Rectangle 572" width="4" height="3" transform="translate(90 43)" fill="#2453b6"/>
    <rect id="Rectangle_573" data-name="Rectangle 573" width="4" height="3" transform="translate(90 36)" fill="#2453b6"/>
    <rect id="Rectangle_574" data-name="Rectangle 574" width="4" height="4" transform="translate(90 29)" fill="#2453b6"/>
  </g>
</svg>
