<?xml version="1.0"?>
<svg xmlns="http://www.w3.org/2000/svg" xmlns:xlink="http://www.w3.org/1999/xlink" xmlns:svgjs="http://svgjs.com/svgjs" version="1.1" width="512" height="512" x="0" y="0" viewBox="0 0 512 512" style="enable-background:new 0 0 512 512" xml:space="preserve" className=""><g><g xmlns="http://www.w3.org/2000/svg"><path d="m210.745 111.614c6.868-9.377 13.257-14.4 13.547-14.624 6.595-4.956 7.952-14.315 3.022-20.942-4.944-6.647-14.341-8.027-20.988-3.083-1.467 1.091-35.753 27.127-41.776 75.852-.359 2.266-.551 4.587-.551 6.953.001 24.388 19.843 44.23 44.232 44.23s44.231-19.842 44.231-44.231c0-23.545-18.493-42.846-41.717-44.155zm-2.514 58.386c-7.847 0-14.231-6.384-14.231-14.231s6.384-14.231 14.231-14.231 14.231 6.384 14.231 14.231-6.384 14.231-14.231 14.231z" fill="#2453b6" data-original="#000000" style="" className=""/><path d="m387.824 83.992c-.011-.059-.023-.119-.035-.178-1.563-7.676-8.118-13.346-15.939-13.787-7.83-.434-14.973 4.455-17.389 11.907-.056.171-.108.343-.157.516l-15.55 54.548-16.137-54.697c-.052-.178-.108-.354-.167-.53-2.494-7.428-9.682-12.256-17.515-11.727-7.818.523-14.313 6.263-15.794 13.958-.011.057-.021.114-.032.171l-17.576 97.381c-1.471 8.152 3.945 15.954 12.098 17.426 8.15 1.469 15.954-3.945 17.426-12.098l8.023-44.451 13.357 45.273c.052.178.108.356.167.532 2.367 7.045 8.934 11.763 16.359 11.763h.089c7.462-.038 14.023-4.832 16.328-11.929.056-.172.109-.346.159-.52l12.892-45.224 8.544 44.708c1.555 8.137 9.411 13.476 17.549 11.917 8.137-1.555 13.473-9.412 11.917-17.549z" fill="#2453b6" data-original="#000000" style="" className=""/><path d="m446 0h-322c-24.813 0-45 20.187-45 45v180c0 24.813 20.187 45 45 45h116v45c0 5.858 3.41 11.18 8.732 13.627 2.005.922 4.142 1.373 6.266 1.373 3.515 0 6.992-1.235 9.764-3.611l65.787-56.389h115.451c24.813 0 45-20.187 45-45v-180c0-24.813-20.187-45-45-45zm15 225c0 8.271-6.729 15-15 15h-121c-3.581 0-7.043 1.281-9.762 3.611l-45.238 38.776v-27.387c0-8.284-6.716-15-15-15h-131c-8.271 0-15-6.729-15-15v-180c0-8.271 6.729-15 15-15h322c8.271 0 15 6.729 15 15z" fill="#2453b6" data-original="#000000" style="" className=""/><path d="m154.516 403.243c10.204-10.761 16.484-25.278 16.484-41.243 0-33.084-26.916-60-60-60s-60 26.916-60 60c0 15.965 6.28 30.482 16.484 41.243-27.694 15.364-46.484 44.905-46.484 78.757v15c0 8.284 6.716 15 15 15h150c8.284 0 15-6.716 15-15v-15c0-33.852-18.79-63.393-46.484-78.757zm-73.516-41.243c0-16.542 13.458-30 30-30s30 13.458 30 30-13.458 30-30 30-30-13.458-30-30zm-30 120c0-33.084 26.916-60 60-60s60 26.916 60 60z" fill="#2453b6" data-original="#000000" style="" className=""/></g></g></svg>
