<?xml version="1.0"?>
<svg xmlns="http://www.w3.org/2000/svg" xmlns:xlink="http://www.w3.org/1999/xlink" xmlns:svgjs="http://svgjs.com/svgjs" version="1.1" width="512" height="512" x="0" y="0" viewBox="0 0 496 496" style="enable-background:new 0 0 512 512" xml:space="preserve" className=""><g><path xmlns="http://www.w3.org/2000/svg" d="m389.402344 360.503906c-3.464844-41.535156-36.015625-75.214844-77.414063-80.089844l-68.5625-8.0625-2.132812-10.6875c15.855469-8.464843 28.78125-21.65625 36.992187-37.664062h33.71875c4.414063 0 8-3.585938 8-8v-25.472656c9.289063-3.3125 16-12.113282 16-22.527344v-32c0-10.535156-6.871094-19.414062-16.335937-22.632812-3.472657-63.078126-55.738281-113.367188-119.664063-113.367188-63.929687 0-116.191406 50.289062-119.664062 113.367188-9.464844 3.21875-16.335938 12.097656-16.335938 22.632812v32c0 13.230469 10.765625 24 24 24h24.40625c2.738282 30.199219 20.777344 56.03125 46.304688 69.664062l-2.136719 10.6875-68.558594 8.0625c-41.390625 4.875-73.953125 38.554688-77.417969 80.089844l-10.5742182 126.832032c-.1835938 2.230468.5664062 4.433593 2.0898442 6.078124 1.519531 1.648438 3.644531 2.585938 5.886718 2.585938h384c2.238282 0 4.367188-.9375 5.886719-2.585938 1.511719-1.644531 2.273437-3.847656 2.089844-6.078124zm-128.277344-69.96875-17.058594 68.242188-25.238281-30.289063 26.832031-26.832031c1.886719-1.886719 2.710938-4.601562 2.183594-7.222656l-1.121094-5.585938zm23.46875-82.535156c1.464844-5.160156 2.503906-10.496094 3.007812-16h16.402344v16zm-116.589844-96h-39.527344c4-35.945312 34.535157-64 71.527344-64 8.421875 0 16.480469 1.527344 24 4.199219v3.800781c0 30.878906-25.121094 56-56 56zm71.792969-51.953125c17.285156 11.511719 29.328125 30.296875 31.734375 51.953125h-39.527344c-5.472656 0-10.871094-.878906-16.066406-2.433594 13.785156-12.34375 22.761719-29.871094 23.859375-49.519531zm80.207031 107.953125c0 4.40625-3.59375 8-8 8h-24v-48h24c4.40625 0 8 3.59375 8 8zm-120-152c54.648438 0 99.488282 42.390625 103.589844 96h-16c-4.054688-44.785156-41.765625-80-87.589844-80-45.824218 0-83.535156 35.214844-87.59375 80h-16c4.105469-53.609375 48.945313-96 103.59375-96zm-120 152v-32c0-4.40625 3.589844-8 8-8h24v48h-24c-4.410156 0-8-3.59375-8-8zm48 16v-56h40c11.527344 0 22.390625-2.792969 32.0625-7.632812 9.898438 4.914062 20.808594 7.632812 31.9375 7.632812h40v56c0 8.425781-1.527344 16.480469-4.199218 24h-37.273438c-3.3125-9.289062-12.113281-16-22.527344-16h-16c-13.234375 0-24 10.769531-24 24s10.765625 24 24 24h16c10.414063 0 19.214844-6.710938 22.527344-16h29.296875c-12.9375 19.28125-34.921875 32-59.824219 32-39.695312 0-72-32.304688-72-72zm88 32c0 4.40625-3.59375 8-8 8h-16c-4.410156 0-8-3.59375-8-8s3.589844-8 8-8h16c4.40625 0 8 3.59375 8 8zm-16 56c9.136719 0 17.953125-1.40625 26.238282-4l5.074218 25.367188-31.3125 31.320312-31.320312-31.320312 5.078125-25.367188c8.289062 2.59375 17.105469 4 26.242187 4zm-45.65625 29.65625 26.832032 26.832031-25.242188 30.289063-17.054688-68.242188 14.390626-1.695312-1.117188 5.585937c-.519531 2.628907.304688 5.34375 2.191406 7.230469zm165.65625 178.34375v-96h-16v96h-208v-96h-16v96h-63.304687l9.847656-118.167969c2.832031-33.984375 29.472656-61.542969 63.335937-65.527343l32.976563-3.878907 21.375 85.519531c.730469 2.917969 3.039063 5.183594 5.976563 5.855469.601562.136719 1.199218.199219 1.792968.199219 2.34375 0 4.605469-1.03125 6.144532-2.878906l34.390624-41.273438 1.808594 1.808594c1.558594 1.558594 3.609375 2.34375 5.65625 2.34375s4.09375-.785156 5.65625-2.34375l1.808594-1.808594 34.390625 41.273438c1.535156 1.847656 3.800781 2.878906 6.144531 2.878906.589844 0 1.191406-.0625 1.785156-.199219 2.933594-.671875 5.246094-2.9375 5.972657-5.855469l21.378906-85.519531 32.976563 3.878907c33.863281 3.984374 60.503906 31.542968 63.335937 65.527343l9.855469 118.167969zm0 0" fill="#2453b6" data-original="#000000" style="" className=""/><path xmlns="http://www.w3.org/2000/svg" d="m192.003906 448h16v16h-16zm0 0" fill="#2453b6" data-original="#000000" style="" className=""/><path xmlns="http://www.w3.org/2000/svg" d="m192.003906 416h16v16h-16zm0 0" fill="#2453b6" data-original="#000000" style="" className=""/><path xmlns="http://www.w3.org/2000/svg" d="m192.003906 384h16v16h-16zm0 0" fill="#2453b6" data-original="#000000" style="" className=""/><path xmlns="http://www.w3.org/2000/svg" d="m176.003906 160c0 8.835938-7.164062 16-16 16-8.835937 0-16-7.164062-16-16s7.164063-16 16-16c8.835938 0 16 7.164062 16 16zm0 0" fill="#2453b6" data-original="#000000" style="" className=""/><path xmlns="http://www.w3.org/2000/svg" d="m256.003906 160c0 8.835938-7.164062 16-16 16-8.835937 0-16-7.164062-16-16s7.164063-16 16-16c8.835938 0 16 7.164062 16 16zm0 0" fill="#2453b6" data-original="#000000" style="" className=""/></g></svg>
