<?xml version="1.0"?>
<svg xmlns="http://www.w3.org/2000/svg" xmlns:xlink="http://www.w3.org/1999/xlink" xmlns:svgjs="http://svgjs.com/svgjs" version="1.1" width="512" height="512" x="0" y="0" viewBox="0 0 300 300" style="enable-background:new 0 0 512 512" xml:space="preserve" className=""><g><path xmlns="http://www.w3.org/2000/svg" d="m236.71 108.001c-2.852 0-5.524.769-7.838 2.094v-5.932c0-8.912-7.25-16.162-16.162-16.162-2.979 0-5.763.824-8.162 2.236v-10.236c0-8.822-7.178-16-16-16s-16 7.178-16 16v6.165c-2.357-1.368-5.084-2.165-8-2.165-8.822 0-16 7.178-16 16v78.993l-15.754-19.701c-2.898-3.624-7.036-5.883-11.651-6.359-4.618-.479-9.128.89-12.705 3.845-6.88 5.685-8.28 15.533-3.256 22.911l51.78 76.033c5.236 7.688 13.916 12.278 23.218 12.278h44.278c15.489 0 28.091-12.602 28.091-28.091v-116.072c-.001-8.733-7.106-15.837-15.839-15.837zm7.838 131.909c0 11.078-9.013 20.091-20.091 20.091h-44.278c-6.653 0-12.861-3.283-16.606-8.782l-51.78-76.033c-2.684-3.94-1.936-9.203 1.74-12.24 1.912-1.579 4.325-2.306 6.788-2.054 2.466.255 4.676 1.461 6.225 3.397l22.878 28.61c1.061 1.326 2.844 1.841 4.448 1.276 1.603-.562 2.676-2.075 2.676-3.774v-90.4c0-4.411 3.589-8 8-8s8 3.589 8 8v72.4c0 2.209 1.791 4 4 4s4-1.791 4-4v-92.4c0-4.411 3.589-8 8-8s8 3.589 8 8v92.4c0 2.209 1.791 4 4 4s4-1.791 4-4v-68.238c0-4.501 3.662-8.162 8.162-8.162s8.162 3.661 8.162 8.162v72.238c0 2.209 1.791 4 4 4s4-1.791 4-4v-52.563c0-4.322 3.516-7.838 7.838-7.838s7.838 3.516 7.838 7.838z" fill="#2453b6" data-original="#000000" style=""/><path xmlns="http://www.w3.org/2000/svg" d="m66.635 72.587-.961-.587h50.874c2.209 0 4-1.791 4-4s-1.791-4-4-4h-50.874l.961-.587c1.885-1.151 2.48-3.613 1.329-5.498s-3.613-2.482-5.499-1.328l-13.098 8.001c-1.189.727-1.915 2.02-1.915 3.413s.726 2.688 1.915 3.414l13.098 8c.651.397 1.371.587 2.081.587 1.348 0 2.664-.682 3.417-1.916 1.152-1.885.557-4.346-1.328-5.499z" fill="#2453b6" data-original="#000000" style=""/><path xmlns="http://www.w3.org/2000/svg" d="m87.452 48.002h50.873l-.959.586c-1.885 1.152-2.48 3.613-1.329 5.499.754 1.234 2.069 1.916 3.417 1.916.71 0 1.43-.189 2.081-.587l13.098-8c1.189-.727 1.915-2.021 1.915-3.414s-.726-2.687-1.915-3.413l-13.098-8.001c-1.885-1.153-4.347-.558-5.499 1.328-1.151 1.885-.557 4.347 1.329 5.498l.962.588h-50.875c-2.209 0-4 1.791-4 4s1.791 4 4 4z" fill="#2453b6" data-original="#000000" style=""/></g></svg>
