<svg id="Layer_1" enable-background="new 0 0 512 512" height="512" viewBox="0 0 512 512" width="512" xmlns="http://www.w3.org/2000/svg"><g><g><ellipse cx="322.946" cy="174.494" fill="#ff5781" rx="174.047" ry="174.494"/><path d="m322.946 0c-6.972 0-13.845.423-20.604 1.223 86.411 10.219 153.444 83.891 153.444 173.271s-67.033 163.052-153.444 173.271c6.758.799 13.631 1.223 20.604 1.223 96.124 0 174.048-78.124 174.048-174.494s-77.924-174.494-174.048-174.494z" fill="#ff4170"/><g fill="#fff"><path d="m374.291 99.717c-3.529-2.395-8.335-1.478-10.731 2.054l-92.835 136.769c-2.397 3.53-1.478 8.336 2.053 10.732 1.329.902 2.838 1.335 4.332 1.335 2.474 0 4.905-1.187 6.399-3.388l92.835-136.769c2.398-3.531 1.479-8.337-2.053-10.733z"/><path d="m373.815 178.921c-16.079 0-29.161 16.078-29.161 35.842s13.082 35.842 29.161 35.842c16.078 0 29.16-16.078 29.16-35.842s-13.081-35.842-29.16-35.842zm0 56.231c-7.431 0-13.708-9.337-13.708-20.389s6.278-20.389 13.708-20.389 13.707 9.337 13.707 20.389c.001 11.052-6.276 20.389-13.707 20.389z"/><path d="m301.238 134.225c0-19.764-13.082-35.842-29.16-35.842-16.079 0-29.161 16.078-29.161 35.842s13.081 35.842 29.161 35.842c16.078 0 29.16-16.078 29.16-35.842zm-42.868 0c0-11.052 6.278-20.389 13.708-20.389s13.707 9.337 13.707 20.389-6.277 20.389-13.707 20.389-13.708-9.336-13.708-20.389z"/></g></g><g><path d="m137.683 490.103c0 12.093-27.462 21.897-61.338 21.897s-61.338-9.804-61.338-21.897c0-6.533 0-34.92 0-34.92h122.677c-.001 0-.001 22.827-.001 34.92z" fill="#ffe563"/><path d="m96.476 455.183v34.92c0 9.512-16.996 17.605-40.735 20.627 6.441.82 13.374 1.27 20.604 1.27 33.876 0 61.338-9.804 61.338-21.897s0-34.92 0-34.92z" fill="#ffdc2e"/><path d="m137.683 455.183c0 12.093-27.462 21.897-61.338 21.897s-61.338-9.804-61.338-21.897c0-6.533 0-34.92 0-34.92h122.677c-.001-.001-.001 22.826-.001 34.92z" fill="#ffb700"/><path d="m96.476 420.262v34.92c0 9.512-16.996 17.605-40.735 20.627 6.441.82 13.374 1.27 20.604 1.27 33.876 0 61.338-9.804 61.338-21.897s0-34.92 0-34.92z" fill="#f5b000"/><path d="m137.683 420.262c0 12.093-27.462 21.897-61.338 21.897s-61.338-9.804-61.338-21.897c0-6.533 0-34.92 0-34.92h122.677c-.001 0-.001 22.827-.001 34.92z" fill="#ffe563"/><path d="m96.476 385.342v34.92c0 9.512-16.996 17.605-40.735 20.627 6.441.82 13.374 1.27 20.604 1.27 33.876 0 61.338-9.804 61.338-21.897s0-34.92 0-34.92z" fill="#ffdc2e"/><g><path d="m137.683 385.342c0 12.093-27.462 21.897-61.338 21.897s-61.338-9.804-61.338-21.897c0-6.533 0-34.92 0-34.92h122.677c-.001-.001-.001 22.826-.001 34.92z" fill="#ffb700"/><path d="m96.476 350.421v34.92c0 9.513-16.996 17.605-40.735 20.627 6.441.82 13.374 1.27 20.604 1.27 33.876 0 61.338-9.804 61.338-21.897s0-34.92 0-34.92z" fill="#f5b000"/><ellipse cx="76.345" cy="350.421" fill="#ffe563" rx="61.338" ry="21.897"/></g><path d="m260.36 490.103c0 12.093-27.462 21.897-61.338 21.897s-61.338-9.804-61.338-21.897c0-6.533 0-34.92 0-34.92h122.676z" fill="#ffb700"/><path d="m219.152 455.183v34.92c0 9.512-16.996 17.605-40.735 20.627 6.441.82 13.374 1.27 20.604 1.27 33.876 0 61.338-9.804 61.338-21.897s0-34.92 0-34.92z" fill="#f5b000"/><path d="m260.36 455.183c0 12.093-27.462 21.897-61.338 21.897s-61.338-9.804-61.338-21.897c0-6.533 0-34.92 0-34.92h122.676c0-.001 0 22.826 0 34.92z" fill="#ffe563"/><path d="m219.152 420.262v34.92c0 9.512-16.996 17.605-40.735 20.627 6.441.82 13.374 1.27 20.604 1.27 33.876 0 61.338-9.804 61.338-21.897s0-34.92 0-34.92z" fill="#ffdc2e"/><path d="m260.36 420.262c0 12.093-27.462 21.897-61.338 21.897s-61.338-9.804-61.338-21.897c0-6.533 0-34.92 0-34.92h122.676z" fill="#ffb700"/><path d="m219.152 385.342v34.92c0 9.512-16.996 17.605-40.735 20.627 6.441.82 13.374 1.27 20.604 1.27 33.876 0 61.338-9.804 61.338-21.897s0-34.92 0-34.92z" fill="#f5b000"/><path d="m260.36 385.342c0 12.093-27.462 21.897-61.338 21.897s-61.338-9.804-61.338-21.897c0-6.533 0-34.92 0-34.92h122.676c0-.001 0 22.826 0 34.92z" fill="#ffe563"/><path d="m219.152 350.421v34.92c0 9.513-16.996 17.605-40.735 20.627 6.441.82 13.374 1.27 20.604 1.27 33.876 0 61.338-9.804 61.338-21.897s0-34.92 0-34.92z" fill="#ffdc2e"/><path d="m260.36 349.867c0 12.093-27.462 21.897-61.338 21.897s-61.338-9.804-61.338-21.897c0-6.533 0-34.92 0-34.92h122.676c0-.001 0 22.826 0 34.92z" fill="#ffb700"/><path d="m219.152 314.946v34.92c0 9.512-16.996 17.605-40.735 20.627 6.441.82 13.374 1.27 20.604 1.27 33.876 0 61.338-9.804 61.338-21.897s0-34.92 0-34.92z" fill="#f5b000"/><g><path d="m260.36 314.392c0 12.093-27.462 21.897-61.338 21.897s-61.338-9.804-61.338-21.897c0-6.533 0-34.92 0-34.92h122.676c0-.001 0 22.826 0 34.92z" fill="#ffe563"/><path d="m219.152 279.471v34.92c0 9.512-16.996 17.605-40.735 20.627 6.441.82 13.374 1.27 20.604 1.27 33.876 0 61.338-9.804 61.338-21.897s0-34.92 0-34.92z" fill="#ffdc2e"/><ellipse cx="199.021" cy="279.471" fill="#ffb700" rx="61.338" ry="21.897"/></g><path d="m383.036 455.183v34.92s-27.462 21.897-61.338 21.897-61.338-9.804-61.338-21.897c0-6.533 0-34.92 0-34.92z" fill="#ffe563"/><path d="m341.829 455.183v34.92c0 9.512-16.996 17.605-40.735 20.627 6.441.82 13.374 1.27 20.604 1.27 33.876 0 61.338-9.804 61.338-21.897s0-34.92 0-34.92z" fill="#ffdc2e"/><g><path d="m383.036 455.183c0 12.093-27.462 21.897-61.338 21.897s-61.338-9.804-61.338-21.897c0-6.533 0-34.92 0-34.92h122.677c-.001-.001-.001 22.826-.001 34.92z" fill="#ffb700"/><path d="m341.829 420.262v34.92c0 9.512-16.996 17.605-40.735 20.627 6.441.82 13.374 1.27 20.604 1.27 33.876 0 61.338-9.804 61.338-21.897s0-34.92 0-34.92z" fill="#f5b000"/><ellipse cx="321.698" cy="420.262" fill="#ffe563" rx="61.338" ry="21.897"/></g></g></g></svg>