<?xml version="1.0"?>
<svg xmlns="http://www.w3.org/2000/svg" xmlns:xlink="http://www.w3.org/1999/xlink" xmlns:svgjs="http://svgjs.com/svgjs" version="1.1" width="512" height="512" x="0" y="0" viewBox="0 0 64 64" style="enable-background:new 0 0 512 512" xml:space="preserve" className=""><g><g xmlns="http://www.w3.org/2000/svg"><path d="m32 45c7.168 0 13-5.832 13-13s-5.832-13-13-13-13 5.832-13 13 5.832 13 13 13zm0-24c1.075 0 2.22 1.527 3.009 4h-6.018c.789-2.473 1.934-4 3.009-4zm3.519 6c.244 1.209.408 2.553.46 4h-7.958c.052-1.447.217-2.791.46-4zm7.43 4h-4.971c-.046-1.419-.184-2.763-.409-4h4.217c.626 1.221 1.034 2.57 1.163 4zm-10.949 12c-1.075 0-2.22-1.527-3.009-4h6.018c-.789 2.473-1.934 4-3.009 4zm-3.519-6c-.244-1.209-.408-2.553-.46-4h7.958c-.052 1.447-.217 2.791-.46 4zm9.497-4h4.971c-.13 1.43-.537 2.779-1.164 4h-4.217c.226-1.237.365-2.581.41-4zm-11.956-2h-4.971c.13-1.43.537-2.779 1.164-4h4.217c-.226 1.237-.365 2.581-.41 4zm0 2c.046 1.419.184 2.763.409 4h-4.217c-.626-1.221-1.034-2.57-1.164-4zm-2.501 6h3.374c.368 1.295.838 2.422 1.391 3.341-1.874-.675-3.518-1.834-4.765-3.341zm12.193 3.341c.553-.919 1.023-2.046 1.391-3.341h3.374c-1.247 1.507-2.891 2.666-4.765 3.341zm4.765-17.341h-3.374c-.368-1.295-.838-2.422-1.391-3.341 1.874.675 3.518 1.834 4.765 3.341zm-12.193-3.341c-.553.919-1.023 2.046-1.391 3.341h-3.374c1.247-1.507 2.891-2.666 4.765-3.341z" fill="#2453b6" data-original="#000000" style="" className=""/><path d="m53 15h-2c-.551 0-1-.448-1-1h-2c0 1.654 1.346 3 3 3v2h2v-2c1.654 0 3-1.346 3-3s-1.346-3-3-3h-2c-.551 0-1-.448-1-1s.449-1 1-1h2c.551 0 1 .448 1 1h2c0-1.654-1.346-3-3-3v-2h-2v2c-1.654 0-3 1.346-3 3s1.346 3 3 3h2c.551 0 1 .448 1 1s-.449 1-1 1z" fill="#2453b6" data-original="#000000" style="" className=""/><path d="m52 23c6.065 0 11-4.935 11-11s-4.935-11-11-11-11 4.935-11 11 4.935 11 11 11zm0-20c4.962 0 9 4.037 9 9s-4.038 9-9 9-9-4.037-9-9 4.038-9 9-9z" fill="#2453b6" data-original="#000000" style="" className=""/><path d="m55.907 51.73c.673-.716 1.093-1.672 1.093-2.73v-.697l1.059-1.588c.615-.924.941-1.999.941-3.11 0-3.09-2.515-5.605-5.605-5.605h-2.789c-3.091 0-5.606 2.515-5.606 5.605 0 1.11.326 2.186.941 3.109l1.059 1.589v.697c0 1.058.42 2.014 1.093 2.73-4.14 1.581-7.093 5.582-7.093 10.27v1h22v-1c0-4.688-2.953-8.689-7.093-10.27zm-5.302-11.73h2.789c1.989 0 3.606 1.617 3.606 3.605 0 .474-.101.936-.279 1.369-.279-.604-.756-1.109-1.379-1.421l-3.342-1.671-3.342 1.671c-.623.312-1.1.817-1.379 1.421-.178-.433-.279-.894-.279-1.369 0-1.988 1.617-3.605 3.605-3.605zm.395 11c-1.103 0-2-.897-2-2v-2.764c0-.381.212-.724.553-.895l2.447-1.223 2.447 1.224c.341.171.553.513.553.894v2.764c0 1.103-.897 2-2 2zm-7.945 10c.499-4.494 4.32-8 8.945-8s8.446 3.506 8.945 8z" fill="#2453b6" data-original="#000000" style="" className=""/><path d="m21.702 46.146-3.848-3.848-2.314 1.157-.819-2.455h-5.442l-.819 2.455-2.314-1.157-3.848 3.848 1.158 2.315-2.456.818v5.441l2.456.818-1.158 2.315 3.848 3.848 2.314-1.157.819 2.456h5.441l.819-2.455 2.314 1.157 3.848-3.848-1.158-2.315 2.457-.818v-5.441l-2.456-.818zm-.702 4.575v2.559l-2.298.766-.168.445c-.048.127-.098.252-.153.375l-.194.433 1.081 2.162-1.809 1.809-2.162-1.081-.433.194c-.125.056-.251.105-.379.155l-.441.169-.765 2.293h-2.559l-.765-2.294-.441-.169c-.128-.05-.255-.1-.379-.155l-.433-.194-2.162 1.081-1.809-1.809 1.081-2.162-.194-.433c-.055-.123-.105-.248-.153-.375l-.168-.445-2.297-.766v-2.559l2.298-.766.168-.445c.048-.127.098-.252.153-.375l.194-.433-1.082-2.161 1.809-1.809 2.162 1.081.433-.194c.125-.056.251-.105.379-.155l.441-.169.766-2.294h2.559l.765 2.294.441.169c.128.05.255.1.379.155l.433.194 2.162-1.081 1.809 1.809-1.081 2.162.194.433c.055.123.105.248.153.375l.168.445z" fill="#2453b6" data-original="#000000" style="" className=""/><path d="m12 47c-2.757 0-5 2.243-5 5s2.243 5 5 5 5-2.243 5-5-2.243-5-5-5zm0 8c-1.654 0-3-1.346-3-3s1.346-3 3-3 3 1.346 3 3-1.346 3-3 3z" fill="#2453b6" data-original="#000000" style="" className=""/><path d="m21 1h-20v18h20zm-12 2h4v2h-4zm10 14h-16v-14h4v4h8v-4h4z" fill="#2453b6" data-original="#000000" style="" className=""/><path d="m51 25h2v11h-2z" fill="#2453b6" data-original="#000000" style="" className=""/><path d="m23 11h16v2h-16z" fill="#2453b6" data-original="#000000" style="" className=""/><path d="m11 21h2v18h-2z" fill="#2453b6" data-original="#000000" style="" className=""/><path d="m25 51h18v2h-18z" fill="#2453b6" data-original="#000000" style="" className=""/></g></g></svg>
