<?xml version="1.0" encoding="iso-8859-1"?>
<!-- Generator: Adobe Illustrator 19.0.0, SVG Export Plug-In . SVG Version: 6.00 Build 0)  -->
<svg xmlns="http://www.w3.org/2000/svg" xmlns:xlink="http://www.w3.org/1999/xlink" version="1.1" id="Capa_1" x="0px" y="0px" viewBox="0 0 440.023 440.023" style="enable-background:new 0 0 440.023 440.023;" xml:space="preserve" width="512px" height="512px">
<g>
	<g>
		<path d="M439.158,201.57C428.973,91.584,331.555,10.679,221.569,20.864C174.98,25.178,131.378,45.69,98.35,78.829    c-3.065,3.182-2.97,8.247,0.212,11.312c3.104,2.99,8.02,2.983,11.116-0.016c71.733-71.979,188.236-72.179,260.215-0.445    s72.179,188.236,0.445,260.215s-188.236,72.179-260.215,0.445c-29.635-29.533-48.319-68.284-52.973-109.863l25.2,25.176    c3.07,3.178,8.134,3.266,11.312,0.196c3.178-3.07,3.266-8.134,0.196-11.312c-0.064-0.067-0.13-0.132-0.196-0.196l-40-40    c-0.745-0.747-1.632-1.337-2.608-1.736c-1.957-0.809-4.155-0.809-6.112,0c-0.976,0.399-1.863,0.989-2.608,1.736l-40,40    c-3.119,3.128-3.112,8.192,0.016,11.312c3.124,3.123,8.188,3.123,11.312,0l27.2-27.2    C51.047,348.44,148.465,429.345,258.452,419.16S449.343,311.556,439.158,201.57z" fill="#2453b6"/>
	</g>
</g>
<g>
	<g>
		<path d="M254.006,131.997h-6.056v-31.64c0.304,0.056,0.624,0,0.928,0.12l29.136,7.28l3.872-15.52l-29.136-7.28    c-1.577-0.389-3.182-0.657-4.8-0.8v-16.16h-16v16h-6.064c-17.673,0-32,14.327-32,32s14.327,32,32,32h6.064v31.64    c-0.312-0.056-0.624,0-0.928-0.12l-29.136-7.28l-3.872,15.52l29.128,7.28c1.577,0.389,3.182,0.657,4.8,0.8v16.16h16v-16h6.064    c17.673,0,32-14.327,32-32S271.679,131.997,254.006,131.997z M231.95,131.997h-6.064c-8.837,0-16-7.163-16-16s7.163-16,16-16    h6.064V131.997z M254.014,179.997h-6.064v-32h6.064c8.837,0,16,7.163,16,16S262.851,179.997,254.014,179.997z" fill="#2453b6"/>
	</g>
</g>
<g>
	<g>
		<path d="M63.95,107.997c-22.091,0-40,17.909-40,40s17.909,40,40,40c22.08-0.026,39.974-17.92,40-40    C103.95,125.906,86.042,107.997,63.95,107.997z M63.95,171.997c-13.255,0-24-10.745-24-24s10.745-24,24-24s24,10.745,24,24    S77.205,171.997,63.95,171.997z" fill="#2453b6"/>
	</g>
</g>
<g>
	<g>
		<path d="M343.95,231.997c0-18.016-16.584-33.816-45.496-43.344c-4.197-1.385-8.723,0.895-10.108,5.092    c-1.385,4.197,0.895,8.723,5.092,10.108c21.328,7.008,34.512,17.8,34.512,28.144c0,17.032-36.144,36-88,36    c-51.856,0-88-18.968-88-36c0-10.344,13.216-21.136,34.504-28.144c4.197-1.385,6.477-5.911,5.092-10.108    c-1.385-4.197-5.911-6.477-10.108-5.092c-28.872,9.528-45.488,25.328-45.488,43.344c0.033,1.34,0.158,2.677,0.376,4h-0.376v32v64    h0.376c3.84,27.624,47.048,48,103.624,48s99.784-20.376,103.624-48h0.376v-96h-0.376    C343.792,234.674,343.918,233.338,343.95,231.997z M327.95,327.997c0,17.032-36.112,36-88,36c-51.856,0-88-18.968-88-36v-3.592    c18.128,14.392,50.048,23.592,88,23.592c37.952,0,69.904-9.2,88-23.592V327.997z M327.95,295.997c0,17.032-36.144,36-88,36    c-51.856,0-88-18.968-88-36v-3.592c18.128,14.392,50.048,23.592,88,23.592c37.952,0,69.904-9.2,88-23.592V295.997z     M327.95,263.997c0,17.032-36.144,36-88,36c-51.856,0-88-18.968-88-36v-3.592c18.128,14.392,50.048,23.592,88,23.592    c37.984,0,69.904-9.2,88-23.592V263.997z" fill="#2453b6"/>
	</g>
</g>
<g>
</g>
<g>
</g>
<g>
</g>
<g>
</g>
<g>
</g>
<g>
</g>
<g>
</g>
<g>
</g>
<g>
</g>
<g>
</g>
<g>
</g>
<g>
</g>
<g>
</g>
<g>
</g>
<g>
</g>
</svg>
