<?xml version="1.0"?>
<svg xmlns="http://www.w3.org/2000/svg" xmlns:xlink="http://www.w3.org/1999/xlink" xmlns:svgjs="http://svgjs.com/svgjs" version="1.1" width="512" height="512" x="0" y="0" viewBox="0 0 496 496" style="enable-background:new 0 0 512 512" xml:space="preserve" className=""><g>
<g xmlns="http://www.w3.org/2000/svg">
	<g>
		<g>
			<path d="M403.72,304h-2.52c-7.72,0-15.096,2.4-21.336,6.936l-10.936,7.952C362.16,309.712,351.328,304,339.72,304h-2.52     c-7.72,0-15.096,2.4-21.336,6.936L237.4,368H216v16h90.6l82.664-60.128c3.496-2.528,7.616-3.872,11.928-3.872h2.52     c11.184,0,20.288,9.104,20.288,20.28c0,5.424-2.112,10.512-5.936,14.344L341.088,431.6c-10.576,10.576-24.64,16.4-39.592,16.4     H141.192l-40,32H16v-83.832L90.52,344H164c11.032,0,20,8.968,20,20c0,11.032-8.968,20-20,20h-60v16h60c19.848,0,36-16.152,36-36     c0-19.848-16.152-36-36-36H85.48L0,387.832V496h106.808l40-32h154.688c19.232,0,37.312-7.488,50.904-21.088l76.976-76.976     c6.848-6.848,10.624-15.96,10.624-25.656C440,320.272,423.728,304,403.72,304z M301.4,368h-36.8l60.672-44.128     c3.488-2.528,7.608-3.872,11.92-3.872h2.52c6.472,0,12.4,3.264,16.184,8.36L301.4,368z" fill="#2453b6" data-original="#000000" style=""/>
			<path d="M389.192,0l-40,32H194.504c-19.232,0-37.312,7.488-50.904,21.088l-76.976,76.968C59.776,136.912,56,146.016,56,155.712     C56,175.72,72.272,192,92.28,192h2.52c7.712,0,15.096-2.4,21.336-6.944l10.936-7.952c6.768,9.184,17.6,14.896,29.208,14.896h2.52     c7.712,0,15.096-2.4,21.336-6.944L258.6,128H280v-16h-90.6l-82.664,60.12c-3.496,2.536-7.616,3.88-11.928,3.88h-2.52     C81.104,176,72,166.896,72,155.712c0-5.424,2.112-10.512,5.936-14.344L154.912,64.4C165.496,53.824,179.544,48,194.504,48H354.8     l40-32H480v83.832L405.48,152H332c-11.032,0-20-8.976-20-20s8.968-20,20-20h60V96h-60c-19.848,0-36,16.152-36,36     c0,19.848,16.152,36,36,36h78.52L496,108.168V0H389.192z M194.6,128h36.8l-60.664,44.12c-3.496,2.536-7.616,3.88-11.928,3.88     h-2.52c-6.472,0-12.4-3.264-16.184-8.368L194.6,128z" fill="#2453b6" data-original="#000000" style=""/>
			<path d="M208,232h16v80h48V184h-64V232z M224,200h32v96h-16v-80h-16V200z" fill="#2453b6" data-original="#000000" style=""/>
			<path d="M342.456,291.344C348.792,277.56,352,262.984,352,248c0-57.344-46.656-104-104-104v16c48.52,0,88,39.48,88,88     c0,12.656-2.72,24.992-8.08,36.656L342.456,291.344z" fill="#2453b6" data-original="#000000" style=""/>
			<path d="M153.544,204.664C147.208,218.44,144,233.016,144,248c0,57.344,46.656,104,104,104v-16c-48.52,0-88-39.48-88-88     c0-12.656,2.72-24.992,8.08-36.664L153.544,204.664z" fill="#2453b6" data-original="#000000" style=""/>
		</g>
	</g>
</g>
<g xmlns="http://www.w3.org/2000/svg">
</g>
<g xmlns="http://www.w3.org/2000/svg">
</g>
<g xmlns="http://www.w3.org/2000/svg">
</g>
<g xmlns="http://www.w3.org/2000/svg">
</g>
<g xmlns="http://www.w3.org/2000/svg">
</g>
<g xmlns="http://www.w3.org/2000/svg">
</g>
<g xmlns="http://www.w3.org/2000/svg">
</g>
<g xmlns="http://www.w3.org/2000/svg">
</g>
<g xmlns="http://www.w3.org/2000/svg">
</g>
<g xmlns="http://www.w3.org/2000/svg">
</g>
<g xmlns="http://www.w3.org/2000/svg">
</g>
<g xmlns="http://www.w3.org/2000/svg">
</g>
<g xmlns="http://www.w3.org/2000/svg">
</g>
<g xmlns="http://www.w3.org/2000/svg">
</g>
<g xmlns="http://www.w3.org/2000/svg">
</g>
</g></svg>
