<?xml version="1.0"?>
<svg xmlns="http://www.w3.org/2000/svg" xmlns:xlink="http://www.w3.org/1999/xlink" xmlns:svgjs="http://svgjs.com/svgjs" version="1.1" width="512" height="512" x="0" y="0" viewBox="0 0 512 512" style="enable-background:new 0 0 512 512" xml:space="preserve" className=""><g><g xmlns="http://www.w3.org/2000/svg"><g><path d="m71.934 225.125c-3.131.979-5.263 3.878-5.263 7.159v47.434c0 3.28 2.132 6.18 5.263 7.159l45.317 14.162c2.366 7.294 5.312 14.405 8.794 21.225l-22.032 42.06c-1.522 2.906-.979 6.464 1.34 8.783l33.541 33.541c2.319 2.319 5.878 2.862 8.783 1.34l42.06-22.032c6.82 3.482 13.931 6.428 21.225 8.794l14.162 45.317c.979 3.131 3.878 5.263 7.159 5.263h47.434c3.28 0 6.18-2.132 7.159-5.263l14.162-45.317c7.294-2.366 14.405-5.312 21.225-8.794l42.06 22.032c2.906 1.522 6.463.979 8.783-1.34l33.541-33.541c2.32-2.319 2.863-5.877 1.34-8.783l-22.032-42.06c3.482-6.82 6.428-13.931 8.794-21.225l45.317-14.162c3.131-.979 5.263-3.878 5.263-7.159v-47.434c0-3.28-2.132-6.18-5.263-7.159l-45.317-14.162c-2.366-7.294-5.312-14.405-8.794-21.225l22.032-42.06c1.522-2.906.979-6.464-1.34-8.783l-33.541-33.541c-2.32-2.32-5.878-2.863-8.783-1.34l-42.06 22.032c-6.82-3.482-13.931-6.428-21.225-8.794l-14.162-45.317c-.979-3.131-3.878-5.263-7.159-5.263h-47.434c-3.28 0-6.18 2.132-7.159 5.263l-14.162 45.317c-7.294 2.366-14.405 5.312-21.225 8.794l-42.06-22.032c-2.907-1.523-6.464-.979-8.783 1.34l-33.541 33.541c-2.32 2.319-2.863 5.877-1.34 8.783l22.032 42.06c-3.482 6.82-6.428 13.931-8.794 21.225zm58.513-6.066c2.621-8.92 6.205-17.57 10.653-25.71 1.203-2.2 1.226-4.855.062-7.077l-21.304-40.67 25.743-25.743 40.67 21.304c2.22 1.163 4.877 1.141 7.077-.062 8.14-4.448 16.79-8.033 25.71-10.653 2.404-.706 4.297-2.567 5.045-4.958l13.693-43.817h36.405l13.693 43.817c.748 2.392 2.641 4.252 5.045 4.958 8.92 2.621 17.57 6.205 25.71 10.653 2.2 1.202 4.855 1.226 7.077.062l40.67-21.304 25.743 25.743-21.304 40.67c-1.164 2.221-1.14 4.876.062 7.077 4.448 8.14 8.033 16.79 10.653 25.71.706 2.404 2.567 4.297 4.958 5.045l43.817 13.693v36.405l-43.817 13.693c-2.392.748-4.252 2.641-4.958 5.045-2.621 8.92-6.205 17.57-10.653 25.71-1.203 2.2-1.226 4.855-.062 7.077l21.304 40.67-25.743 25.743-40.67-21.304c-2.22-1.163-4.877-1.141-7.077.062-8.14 4.448-16.79 8.033-25.71 10.653-2.404.706-4.297 2.567-5.045 4.958l-13.693 43.817h-36.405l-13.693-43.817c-.748-2.392-2.641-4.252-5.045-4.958-8.92-2.621-17.57-6.205-25.71-10.653-2.201-1.203-4.856-1.227-7.077-.062l-40.67 21.304-25.743-25.743 21.304-40.67c1.164-2.221 1.14-4.876-.062-7.077-4.448-8.14-8.033-16.79-10.653-25.71-.706-2.404-2.567-4.297-4.958-5.045l-43.817-13.693v-36.405l43.817-13.693c2.391-.748 4.252-2.641 4.958-5.045z" fill="#2453b6" data-original="#000000" style=""/><path d="m214.931 282.869c3.771-1.713 5.44-6.159 3.728-9.93-2.422-5.333-3.649-11.032-3.649-16.939 0-22.602 18.388-40.99 40.99-40.99s40.99 18.388 40.99 40.99-18.388 40.99-40.99 40.99c-5.813 0-11.43-1.191-16.694-3.54-3.785-1.688-8.218.011-9.905 3.793-1.688 3.783.01 8.217 3.793 9.905 7.2 3.212 14.873 4.841 22.806 4.841 30.873 0 55.99-25.117 55.99-55.99s-25.117-55.99-55.99-55.99-55.99 25.117-55.99 55.99c0 8.062 1.679 15.847 4.991 23.141 1.713 3.773 6.16 5.441 9.93 3.729z" fill="#2453b6" data-original="#000000" style=""/><path d="m256 354.415c54.266 0 98.415-44.148 98.415-98.415s-44.149-98.415-98.415-98.415-98.415 44.149-98.415 98.415 44.149 98.415 98.415 98.415zm0-181.83c45.995 0 83.415 37.419 83.415 83.415s-37.42 83.415-83.415 83.415-83.415-37.42-83.415-83.415 37.42-83.415 83.415-83.415z" fill="#2453b6" data-original="#000000" style=""/><path d="m467.142 111.193c-2.346-3.414-7.016-4.281-10.429-1.936-3.414 2.345-4.281 7.015-1.936 10.429 26.03 37.894 40.583 82.248 42.086 128.271.002.055.007.201-.145.357-.119.123-.267.185-.439.185h-16.17c-.315 0-.562-.265-.575-.626-2.014-56.605-25.23-109.885-65.372-150.026-20.871-20.876-45.286-37.191-72.567-48.493-27.271-11.297-56.055-17.024-85.556-17.024-.013 0-.028 0-.041 0-59.75 0-115.92 23.264-158.163 65.507-.649.649-1.154 1.387-1.516 2.175l-34.455 34.445c-1.068 1.069-2.233.812-2.833.563-.598-.248-1.603-.889-1.603-2.4v-58.31c0-1.511 1.004-2.152 1.603-2.4.6-.249 1.765-.505 2.833.563l13.11 13.11c2.929 2.929 7.678 2.929 10.606 0 45.52-45.516 106.042-70.583 170.42-70.583 34.375 0 67.572 7.084 98.667 21.057 30.047 13.501 56.622 32.71 78.985 57.093 2.801 3.052 7.544 3.256 10.597.458 3.052-2.8 3.257-7.544.458-10.597-23.75-25.893-51.975-46.293-83.892-60.635-33.042-14.848-68.306-22.376-104.815-22.376-65.881 0-127.956 24.709-175.645 69.749l-7.882-7.882c-5.051-5.051-12.58-6.549-19.18-3.815-6.599 2.733-10.863 9.115-10.863 16.258v58.31c0 7.143 4.264 13.525 10.863 16.258 6.602 2.734 14.13 1.235 19.18-3.814l36.3-36.29c.624-.625 1.127-1.347 1.494-2.132 39.195-38.27 90.843-59.312 145.734-59.312h.038c27.521 0 54.376 5.344 79.816 15.882 25.452 10.543 48.229 25.765 67.701 45.241 37.45 37.45 59.109 87.153 60.988 139.944.291 8.469 7.127 15.103 15.565 15.103h16.17c4.207 0 8.296-1.733 11.219-4.755 2.949-3.048 4.496-7.055 4.357-11.28-1.596-48.889-17.058-96.011-44.713-136.272z" fill="#2453b6" data-original="#000000" style=""/><path d="m458.707 363.122c-6.601-2.734-14.13-1.235-19.18 3.814l-36.3 36.29c-.624.625-1.127 1.347-1.494 2.132-39.195 38.271-90.844 59.312-145.735 59.312-.013 0-.024 0-.038 0-27.521 0-54.376-5.344-79.816-15.882-25.452-10.543-48.229-25.765-67.701-45.241-37.45-37.45-59.109-87.153-60.988-139.944-.291-8.469-7.127-15.103-15.565-15.103h-16.17c-4.207 0-8.296 1.733-11.219 4.755-2.949 3.048-4.496 7.055-4.357 11.281 1.813 55.321 20.986 107.455 55.447 150.764 2.579 3.24 7.296 3.778 10.539 1.199 3.241-2.579 3.778-7.297 1.199-10.539-32.438-40.767-50.486-89.841-52.192-141.917-.002-.055-.007-.201.145-.357.119-.123.267-.185.439-.185h16.17c.315 0 .562.265.575.626 2.014 56.605 25.23 109.885 65.372 150.026 20.871 20.876 45.286 37.191 72.567 48.493 27.271 11.297 56.055 17.025 85.556 17.024h.041c59.75 0 115.92-23.264 158.163-65.507.649-.649 1.154-1.387 1.516-2.175l34.455-34.445c1.068-1.069 2.233-.812 2.833-.563.598.248 1.603.889 1.603 2.4v58.31c0 1.511-1.004 2.152-1.603 2.4-.6.249-1.765.505-2.833-.563l-13.11-13.11c-2.929-2.929-7.678-2.929-10.606 0-45.52 45.516-106.042 70.583-170.42 70.583-61.939 0-120.801-23.455-165.741-66.044-3.007-2.849-7.754-2.722-10.603.285s-2.722 7.754.285 10.603c47.739 45.24 110.264 70.156 176.059 70.156 65.881 0 127.956-24.709 175.645-69.749l7.882 7.882c5.051 5.051 12.58 6.55 19.18 3.815 6.599-2.733 10.863-9.115 10.863-16.258v-58.31c0-7.143-4.264-13.525-10.863-16.258z" fill="#2453b6" data-original="#000000" style=""/></g></g></g></svg>
