<?xml version="1.0"?>
<svg xmlns="http://www.w3.org/2000/svg" xmlns:xlink="http://www.w3.org/1999/xlink" xmlns:svgjs="http://svgjs.com/svgjs" version="1.1" width="512" height="512" x="0" y="0" viewBox="0 0 496.941 496.941" style="enable-background:new 0 0 512 512" xml:space="preserve"><g>
<g xmlns="http://www.w3.org/2000/svg">
	<g>
		<g>
			<path d="M79.812,341.835c27.859,0,51.2-23.341,51.2-51.2s-22.588-51.2-51.2-51.2s-51.2,23.341-51.2,51.2     S51.2,341.835,79.812,341.835z M79.812,253.741c19.576,0,36.141,16.565,36.141,36.141c0,19.576-15.812,36.141-36.141,36.141     s-36.141-16.565-36.141-36.141C43.671,270.306,59.482,253.741,79.812,253.741z" fill="#2453b6" data-original="#000000" style=""/>
			<path d="M7.529,455.529h143.812c4.518,0,7.529-3.012,7.529-7.529v-51.2c0-27.859-22.588-49.694-49.694-49.694H49.694     C22.588,346.353,0,368.941,0,396.8V448C0,451.765,3.012,455.529,7.529,455.529z M15.059,396.8     c0-19.576,15.812-35.388,34.635-35.388h58.729c19.576,0,34.635,15.812,34.635,34.635v43.671h-128V396.8z" fill="#2453b6" data-original="#000000" style=""/>
			<path d="M299.671,289.882c0-28.612-22.588-51.2-51.2-51.2s-51.2,23.341-51.2,51.2s22.588,51.2,51.2,51.2     S299.671,318.494,299.671,289.882z M212.329,289.882c0-20.329,15.812-36.141,36.141-36.141s36.141,16.565,36.141,36.141     c0,19.576-15.812,36.141-36.141,36.141S212.329,310.212,212.329,289.882z" fill="#2453b6" data-original="#000000" style=""/>
			<path d="M168.659,396.8V448c0,4.518,3.012,7.529,7.529,7.529H320c4.518,0,7.529-3.012,7.529-7.529v-51.2     c0-27.859-22.588-49.694-49.694-49.694h-58.729C191.247,346.353,168.659,368.941,168.659,396.8z M183.718,396.8     c0-19.576,15.812-34.635,34.635-34.635h58.729c19.576,0,34.635,15.812,34.635,34.635v43.671h-128V396.8z" fill="#2453b6" data-original="#000000" style=""/>
			<path d="M366.682,289.882c0,28.612,22.588,51.2,51.2,51.2c27.859,0,51.2-23.341,51.2-51.2s-22.588-51.2-51.2-51.2     S366.682,261.271,366.682,289.882z M453.271,289.882c0,20.329-15.812,36.141-36.141,36.141     c-20.329,0-36.141-16.565-36.141-36.141c0-19.576,15.812-36.141,36.141-36.141C437.459,253.741,453.271,270.306,453.271,289.882z     " fill="#2453b6" data-original="#000000" style=""/>
			<path d="M447.247,346.353h-58.729c-27.859,0-49.694,22.588-49.694,49.694v51.2c0,4.518,3.012,7.529,7.529,7.529h143.059     c4.518,0,7.529-3.012,7.529-7.529v-51.2C496.941,368.941,474.353,346.353,447.247,346.353z M353.129,440.471V396.8     c0-19.576,15.812-34.635,34.635-34.635h58.729c19.576,0,34.635,15.812,34.635,34.635v43.671H353.129z" fill="#2453b6" data-original="#000000" style=""/>
			<path d="M139.294,109.176c0,4.518,3.012,7.529,7.529,7.529h22.588v64c0,4.518,3.012,7.529,7.529,7.529h64v22.588     c0,4.518,3.012,7.529,7.529,7.529s7.529-3.012,7.529-7.529v-22.588h64c4.518,0,7.529-3.012,7.529-7.529v-64h22.588     c4.518,0,7.529-3.012,7.529-7.529s-3.012-7.529-7.529-7.529h-22.588v-64c0-4.518-3.012-7.529-7.529-7.529h-64V7.529     C256,3.012,252.988,0,248.471,0s-7.529,3.012-7.529,7.529v22.588h-64c-4.518,0-7.529,3.012-7.529,7.529v64h-22.588     C142.306,101.647,139.294,104.659,139.294,109.176z M184.471,116.706h22.588c4.518,0,7.529-3.012,7.529-7.529     s-3.012-7.529-7.529-7.529h-22.588V45.176h56.471v22.588c0,4.518,3.012,7.529,7.529,7.529S256,72.282,256,67.765V45.176h56.471     v56.471h-22.588c-4.518,0-7.529,3.012-7.529,7.529s3.012,7.529,7.529,7.529h22.588v56.471H256v-22.588     c0-4.518-3.012-7.529-7.529-7.529s-7.529,3.012-7.529,7.529v22.588h-56.471V116.706z" fill="#2453b6" data-original="#000000" style=""/>
			<path d="M350.118,75.294H409.6v118.212c0,4.518,3.012,7.529,7.529,7.529s7.529-3.012,7.529-7.529V67.765     c0-4.518-3.012-7.529-7.529-7.529h-67.012c-4.518,0-7.529,3.012-7.529,7.529S346.353,75.294,350.118,75.294z" fill="#2453b6" data-original="#000000" style=""/>
			<path d="M79.059,201.035c4.518,0,7.529-3.012,7.529-7.529V75.294h59.482c4.518,0,7.529-3.012,7.529-7.529     s-3.012-7.529-7.529-7.529H79.059c-4.518,0-7.529,3.012-7.529,7.529v125.741C71.529,198.023,75.294,201.035,79.059,201.035z" fill="#2453b6" data-original="#000000" style=""/>
			<path d="M489.412,481.882H7.529c-4.518,0-7.529,3.012-7.529,7.529s3.012,7.529,7.529,7.529h481.882     c4.518,0,7.529-3.012,7.529-7.529S493.929,481.882,489.412,481.882z" fill="#2453b6" data-original="#000000" style=""/>
		</g>
	</g>
</g>
<g xmlns="http://www.w3.org/2000/svg">
</g>
<g xmlns="http://www.w3.org/2000/svg">
</g>
<g xmlns="http://www.w3.org/2000/svg">
</g>
<g xmlns="http://www.w3.org/2000/svg">
</g>
<g xmlns="http://www.w3.org/2000/svg">
</g>
<g xmlns="http://www.w3.org/2000/svg">
</g>
<g xmlns="http://www.w3.org/2000/svg">
</g>
<g xmlns="http://www.w3.org/2000/svg">
</g>
<g xmlns="http://www.w3.org/2000/svg">
</g>
<g xmlns="http://www.w3.org/2000/svg">
</g>
<g xmlns="http://www.w3.org/2000/svg">
</g>
<g xmlns="http://www.w3.org/2000/svg">
</g>
<g xmlns="http://www.w3.org/2000/svg">
</g>
<g xmlns="http://www.w3.org/2000/svg">
</g>
<g xmlns="http://www.w3.org/2000/svg">
</g>
</g></svg>
