<svg height="512" viewBox="0 0 256 256" width="512" xmlns="http://www.w3.org/2000/svg"><path d="m250.407 192.88a55.463 55.463 0 1 1 -8.12-28.889 55.462 55.462 0 0 1 8.12 28.889z" fill="#72c1e8"/><path d="m226.91 194.17a7.819 7.819 0 0 1 -7.82 7.82h-1.77a22.46 22.46 0 0 1 -44.76 0h-1.76a7.825 7.825 0 1 1 0-15.65h1.68v6.34a10.9 10.9 0 0 1 1.97-6.34c2.25-3.93 9.93-7.21 15.79-2.81a8 8 0 0 0 9.41 0 11.306 11.306 0 0 1 15.8 2.81 11 11 0 0 1 1.95 6.34v-6.34h1.69a7.821 7.821 0 0 1 7.82 7.83z" fill="#ffb69f"/><path d="m250.4 63.109a55.425 55.425 0 1 1 -6.858-26.724 55.462 55.462 0 0 1 6.858 26.724z" fill="#fc5d3d"/><circle cx="61.059" cy="127.999" fill="#13bf6d" r="55.466" transform="matrix(.997 -.071 .071 .997 -8.92 4.65)"/><path d="m87.05 115.69-2.89 2.94h-46.21v-6.69a10.494 10.494 0 0 1 10.49-10.49h24.93a7.938 7.938 0 0 0 7.79-6.45l4.18 2.86a11.678 11.678 0 0 1 1.71 17.83z" fill="#afafaf"/><path d="m86.494 128.625h-2.334v-10h-46.21v10h-2.326a6.65 6.65 0 1 0 0 13.3h2.685a23.1 23.1 0 0 0 45.49 0h2.693a6.65 6.65 0 0 0 0-13.3z" fill="#ffb69f"/><path d="m199.65 165.29a8.03 8.03 0 0 1 -9.43 0 11.265 11.265 0 0 0 -17.74 9.55v17.84a10.9 10.9 0 0 1 1.97-6.34c2.25-3.93 9.93-7.21 15.79-2.81a8 8 0 0 0 9.41 0 11.306 11.306 0 0 1 15.8 2.81 11 11 0 0 1 1.95 6.34v-17.84c0-9.23-10.04-14.97-17.75-9.55z" fill="#afafaf"/><path d="m224.883 62.425v17.811h-12.283a18 18 0 0 0 .634-4.762v-14.548l-29.579-3.971a6.211 6.211 0 0 0 -7.01 6.158v12.361a18.47 18.47 0 0 0 .633 4.762h-12.289v-17.136c0-16.493 13.045-30.383 29.511-30.628a29.935 29.935 0 0 1 30.383 29.953z" fill="#afafaf"/><path d="m183.655 56.955a6.211 6.211 0 0 0 -7.01 6.158v12.361a18.294 18.294 0 0 0 35.955 4.762 18 18 0 0 0 .634-4.762v-14.548z" fill="#ffb69f"/><path d="m195 238.72a45.848 45.848 0 0 1 -32.5-78.249 2.5 2.5 0 1 1 3.535 3.536 40.865 40.865 0 0 0 47.114 65.451 2.5 2.5 0 0 1 2.23 4.475 45.917 45.917 0 0 1 -20.379 4.787zm25.7-10.879a2.5 2.5 0 0 1 .32-3.521c.964-.8 1.9-1.659 2.786-2.544a2.5 2.5 0 1 1 3.535 3.535c-.991.991-2.041 1.95-3.12 2.85a2.5 2.5 0 0 1 -3.521-.32z" fill="#c5e5ff"/><path d="m61.034 173.836a45.849 45.849 0 0 1 -32.419-78.25 2.5 2.5 0 1 1 3.535 3.536 40.849 40.849 0 0 0 28.884 69.714 41.118 41.118 0 0 0 18.225-4.268 2.5 2.5 0 1 1 2.227 4.476 46.135 46.135 0 0 1 -20.452 4.792zm25.774-10.882a2.5 2.5 0 0 1 .323-3.521c.96-.8 1.9-1.654 2.786-2.542a2.5 2.5 0 0 1 3.535 3.535c-1 1-2.047 1.955-3.124 2.851a2.5 2.5 0 0 1 -3.52-.323z" fill="#76ffba"/><path d="m194.908 108.949a45.849 45.849 0 0 1 -32.419-78.249 2.5 2.5 0 1 1 3.535 3.535 40.85 40.85 0 0 0 28.884 69.714 41.129 41.129 0 0 0 18.229-4.268 2.5 2.5 0 0 1 2.226 4.477 46.157 46.157 0 0 1 -20.455 4.791zm25.778-10.882a2.5 2.5 0 0 1 .323-3.52c.961-.8 1.9-1.654 2.784-2.542a2.5 2.5 0 0 1 3.537 3.535c-1 .995-2.046 1.954-3.124 2.851a2.5 2.5 0 0 1 -3.52-.324z" fill="#ffcbc2"/><path d="m234.185 164.21a2.5 2.5 0 0 0 2.5-2.5v-5.567h5.567a2.5 2.5 0 0 0 0-5h-5.567v-5.568a2.5 2.5 0 0 0 -5 0v5.568h-5.569a2.5 2.5 0 0 0 0 5h5.569v5.567a2.5 2.5 0 0 0 2.5 2.5z"/><path d="m3.27 132.51a2.5 2.5 0 1 0 4.98-.38c-.1-1.38-.16-2.77-.16-4.13a52.939 52.939 0 1 1 5 22.48 2.558 2.558 0 0 0 -3.33-1.19 2.492 2.492 0 0 0 -1.2 3.32 57.976 57.976 0 0 0 101.73 5.99l30.6 13.377a57.958 57.958 0 1 0 103.525-9.294 2.5 2.5 0 0 0 -4.262 2.615 52.962 52.962 0 1 1 -17.625-17.626 2.5 2.5 0 1 0 2.612-4.263 57.95 57.95 0 0 0 -82.24 23.991l-30.147-13.18a58.033 58.033 0 0 0 2.8-46.034l29.429-15.662a57.971 57.971 0 0 0 100.748-57.348 2.5 2.5 0 1 0 -4.376 2.418 52.985 52.985 0 1 1 -18.83-19.694 2.5 2.5 0 1 0 2.612-4.263 57.981 57.981 0 0 0 -82.513 74.475l-29.006 15.438a57.967 57.967 0 0 0 -110.527 24.45c0 1.48.06 3 .18 4.51z"/><path d="m9.84 141.53a2.533 2.533 0 0 0 -3.06-1.78 2.5 2.5 0 1 0 3.06 1.78z"/><path d="m51.99 146.19a9.687 9.687 0 0 0 18.14.01 2.5 2.5 0 0 0 -1.46-3.22 2.552 2.552 0 0 0 -3.22 1.46 4.688 4.688 0 0 1 -8.77.01 2.549 2.549 0 0 0 -3.22-1.47 2.5 2.5 0 0 0 -1.47 3.21z"/><path d="m88.828 117.452a14.181 14.181 0 0 0 -2.081-21.658l-4.18-2.861a2.5 2.5 0 0 0 -3.868 1.6 5.432 5.432 0 0 1 -5.331 4.417h-24.924a13 13 0 0 0 -12.987 12.988v14.2a9.146 9.146 0 0 0 .17 18.291h.7a25.587 25.587 0 0 0 49.482 0h.69a9.146 9.146 0 0 0 .17-18.291v-6.49zm-57.354 17.823a4.156 4.156 0 0 1 3.98-4.147v6.777c0 .51.015 1.017.044 1.518a4.154 4.154 0 0 1 -4.024-4.148zm50.19 2.63a20.605 20.605 0 0 1 -41.21 0v-16.78h41.21zm8.98-2.63a4.155 4.155 0 0 1 -4.026 4.148c.03-.5.046-1.01.046-1.518v-6.777a4.156 4.156 0 0 1 3.98 4.147zm-5.373-21.338-2.156 2.185h-42.658v-4.186a8 8 0 0 1 7.987-7.988h24.924a10.435 10.435 0 0 0 8.969-5.113l1.589 1.087a9.18 9.18 0 0 1 1.345 14.015z"/><path d="m50.308 134.3a2.5 2.5 0 0 0 2.5-2.5v-1.36a2.5 2.5 0 0 0 -5 0v1.36a2.5 2.5 0 0 0 2.5 2.5z"/><path d="m71.809 134.3a2.5 2.5 0 0 0 2.5-2.5v-1.36a2.5 2.5 0 0 0 -5 0v1.36a2.5 2.5 0 0 0 2.5 2.5z"/><path d="m61.059 140.5a2.5 2.5 0 0 0 2.5-2.5v-6.2a2.5 2.5 0 0 0 -5 0v6.2a2.5 2.5 0 0 0 2.5 2.5z"/><path d="m202.55 205.17a2.561 2.561 0 0 0 -3.22 1.47 4.7 4.7 0 0 1 -4.38 3.03 4.642 4.642 0 0 1 -4.39-3.03 2.551 2.551 0 0 0 -3.21-1.47 2.5 2.5 0 0 0 -1.48 3.21 9.687 9.687 0 0 0 18.14.01 2.491 2.491 0 0 0 -1.46-3.22z"/><path d="m186.691 195.526v-1.36a2.5 2.5 0 0 0 -5 0v1.36a2.5 2.5 0 0 0 5 0z"/><path d="m205.692 191.666a2.5 2.5 0 0 0 -2.5 2.5v1.36a2.5 2.5 0 0 0 5 0v-1.36a2.5 2.5 0 0 0 -2.5-2.5z"/><path d="m194.942 204.232a2.5 2.5 0 0 0 2.5-2.5v-6.206a2.5 2.5 0 0 0 -5 0v6.206a2.5 2.5 0 0 0 2.5 2.5z"/><path d="m198.193 163.262a5.53 5.53 0 0 1 -6.523-.008 13.759 13.759 0 0 0 -21.685 11.584v9.044a10.313 10.313 0 0 0 .384 20.587 24.958 24.958 0 0 0 49.146 0 10.313 10.313 0 0 0 .389-20.587v-9.044c-.004-11.179-12.213-18.26-21.711-11.576zm-28.212 29.419v6.748a5.326 5.326 0 0 1 0-10.526zm44.919 7.419a19.961 19.961 0 0 1 -39.921 0v-7.38c0-.013 0-.026 0-.039 0-7.285 8.438-11.135 13.8-7.108a10.6 10.6 0 0 0 12.313 0 8.751 8.751 0 0 1 13.8 7.106zm0-18.02a13.791 13.791 0 0 0 -16.7-.587l-.012.008a5.516 5.516 0 0 1 -6.45.031 13.629 13.629 0 0 0 -16.758.592v-7.289c0-7.443 7.93-11.659 13.787-7.509a10.592 10.592 0 0 0 12.317.009c6.081-4.281 13.815.3 13.815 7.5zm9.51 12.083a5.333 5.333 0 0 1 -4.512 5.263v-6.726-.02-3.78a5.334 5.334 0 0 1 4.516 5.266z"/><path d="m194.463 29.971c-17.631.262-31.975 15.124-31.975 33.128v17.137a2.5 2.5 0 0 0 2.5 2.5h10.469a20.793 20.793 0 0 0 38.962 0h10.464a2.5 2.5 0 0 0 2.5-2.5v-17.812a32.417 32.417 0 0 0 -32.92-32.453zm16.271 45.5a15.795 15.795 0 0 1 -31.589 0v-12.358a3.71 3.71 0 0 1 4.162-3.681h.02l27.407 3.679zm11.649 2.262h-6.771a19.364 19.364 0 0 0 .122-2.262v-14.545a2.5 2.5 0 0 0 -2.167-2.477l-29.589-3.973a8.715 8.715 0 0 0 -9.833 8.637v12.361a21.918 21.918 0 0 0 .125 2.262h-6.782v-14.636c0-15.288 12.134-27.907 27.045-28.128a27.422 27.422 0 0 1 27.85 27.453z"/><path d="m186.345 82.12a9.181 9.181 0 0 0 17.192.006 2.5 2.5 0 1 0 -4.682-1.753 4.187 4.187 0 0 1 -7.823.006 2.5 2.5 0 1 0 -4.687 1.741z"/><path d="m182.447 67.416v1.264a2.5 2.5 0 0 0 5 0v-1.264a2.5 2.5 0 0 0 -5 0z"/><path d="m204.932 71.18a2.5 2.5 0 0 0 2.5-2.5v-1.264a2.5 2.5 0 1 0 -5 0v1.264a2.5 2.5 0 0 0 2.5 2.5z"/><path d="m194.939 76.949a2.5 2.5 0 0 0 2.5-2.5v-5.769a2.5 2.5 0 0 0 -5 0v5.769a2.5 2.5 0 0 0 2.5 2.5z"/><path d="m234.178 34.439a2.5 2.5 0 0 0 2.5-2.5v-5.567h5.567a2.5 2.5 0 0 0 0-5h-5.567v-5.572a2.5 2.5 0 0 0 -5 0v5.568h-5.568a2.5 2.5 0 0 0 0 5h5.568v5.567a2.5 2.5 0 0 0 2.5 2.504z"/></svg>