<?xml version="1.0"?>
<svg xmlns="http://www.w3.org/2000/svg" xmlns:xlink="http://www.w3.org/1999/xlink" xmlns:svgjs="http://svgjs.com/svgjs" version="1.1" width="512" height="512" x="0" y="0" viewBox="0 0 64 64" style="enable-background:new 0 0 512 512" xml:space="preserve" className=""><g><g xmlns="http://www.w3.org/2000/svg"><path d="m37 13.184v-6.184h-2v6.184c-1.161.414-2 1.514-2 2.816s.839 2.402 2 2.816v6.184h2v-6.184c1.161-.414 2-1.514 2-2.816s-.839-2.402-2-2.816zm-1 3.816c-.552 0-1-.448-1-1s.448-1 1-1 1 .448 1 1-.448 1-1 1z" fill="#ffffff" data-original="#000000" style=""/><path d="m57 9.184v-2.184h-2v2.184c-1.161.414-2 1.514-2 2.816s.839 2.402 2 2.816v10.184h2v-10.184c1.161-.414 2-1.514 2-2.816s-.839-2.402-2-2.816zm-1 3.816c-.552 0-1-.448-1-1s.448-1 1-1 1 .448 1 1-.448 1-1 1z" fill="#ffffff" data-original="#000000" style=""/><path d="m60 1h-28c-1.654 0-3 1.346-3 3v5h-25c-1.654 0-3 1.346-3 3v48c0 1.654 1.346 3 3 3h54v-12.727c1.964-3.369 3-7.202 3-11.104v-6.353c1.161-.414 2-1.514 2-2.816v-26c0-1.654-1.346-3-3-3zm-23.892 44h-11.108v-2h10.524c.16.677.353 1.345.584 2zm-1.108-8h-28v-10h22v3c0 1.654 1.346 3 3 3h3zm-31-26h25v10h-26v-9c0-.552.448-1 1-1zm-1 49v-37h26v2h-24v14h30.017c.014.671.068 1.337.152 2h-12.169v6h13.952c.57 1.176 1.246 2.303 2.048 3.346v10.654h-35c-.552 0-1-.448-1-1zm38 1v-10h15v10zm18-21.831c0 3.448-.9 6.832-2.588 9.831h-15.905c-2.258-2.985-3.507-6.656-3.507-10.403v-9.597c1.103 0 2 .897 2 2v6c0 1.654 1.346 3 3 3s3-1.346 3-3v-15c0-.552.448-1 1-1s1 .448 1 1v16h2v-10c0-.552.448-1 1-1s1 .448 1 1v10h2v-8c0-.552.448-1 1-1s1 .448 1 1v8h2v-6c0-.552.448-1 1-1s1 .448 1 1zm-18-6.169h2v4c0 .552-.448 1-1 1s-1-.448-1-1zm4-23c0-.552.448-1 1-1s1 .448 1 1-.448 1-1 1-1-.448-1-1zm16 20c0 .28-.116.531-.302.713-.483-1.009-1.506-1.713-2.698-1.713-.395 0-.77.081-1.116.22-.345-1.275-1.501-2.22-2.884-2.22-.395 0-.77.081-1.116.22-.345-1.275-1.501-2.22-2.884-2.22-.352 0-.686.072-1 .184v-3.184c0-1.302-.839-2.402-2-2.816v-6.369c1.161-.414 2-1.514 2-2.816 0-1.654-1.346-3-3-3s-3 1.346-3 3c0 1.302.839 2.402 2 2.816v6.369c-1.161.414-2 1.514-2 2.816v9h-2c0-2.206-1.794-4-4-4-1.103 0-2 .897-2 2v2h-3c-.552 0-1-.448-1-1v-26c0-.552.448-1 1-1h28c.552 0 1 .448 1 1z" fill="#ffffff" data-original="#000000" style=""/><path d="m12 43c-3.859 0-7 3.141-7 7s3.141 7 7 7 7-3.141 7-7-3.141-7-7-7zm4.899 6h-3.899v-3.899c1.956.399 3.5 1.943 3.899 3.899zm-5.899-3.899v4.485l-3.167 3.167c-.524-.791-.833-1.736-.833-2.753 0-2.414 1.721-4.434 4-4.899zm1 9.899c-1.017 0-1.962-.309-2.753-.833l3.167-3.167h4.485c-.465 2.279-2.485 4-4.899 4z" fill="#ffffff" data-original="#000000" style=""/><path d="m23 49h4v2h-4z" fill="#ffffff" data-original="#000000" style=""/><path d="m29 49h8v2h-8z" fill="#ffffff" data-original="#000000" style=""/><path d="m23 57h4v2h-4z" fill="#ffffff" data-original="#000000" style=""/><path d="m29 57h8v2h-8z" fill="#ffffff" data-original="#000000" style=""/><path d="m23 53h14v2h-14z" fill="#ffffff" data-original="#000000" style=""/><path d="m11 13h-6v6h6zm-2 4h-2v-2h2z" fill="#ffffff" data-original="#000000" style=""/><path d="m19 13h-6v6h6zm-2 4h-2v-2h2z" fill="#ffffff" data-original="#000000" style=""/><path d="m27 13h-6v6h6zm-2 4h-2v-2h2z" fill="#ffffff" data-original="#000000" style=""/></g></g></svg>
