<svg id="Layer_5" enable-background="new 0 0 64 64" height="512" viewBox="0 0 64 64" width="512" xmlns="http://www.w3.org/2000/svg"><g><path d="m33 27.184v-2.184h-2v2h-2v10h2v2h2v-2.184c1.161-.414 2-1.514 2-2.816 0-.768-.29-1.469-.766-2 .476-.531.766-1.232.766-2 0-1.302-.839-2.402-2-2.816zm-1 7.816h-1v-2h1c.551 0 1 .448 1 1s-.449 1-1 1zm0-4h-1v-2h1c.551 0 1 .448 1 1s-.449 1-1 1z"/><path d="m52 41c-2.673 0-5.125.961-7.034 2.552l-4.518-4.518c1.391-1.667 2.295-3.751 2.502-6.034h4.152c.465 2.279 2.484 4 4.899 4 2.757 0 5-2.243 5-5s-2.243-5-5-5c-2.414 0-4.434 1.721-4.899 4h-4.152c-.207-2.283-1.111-4.367-2.502-6.034l4.518-4.518c1.909 1.591 4.361 2.552 7.034 2.552 6.065 0 11-4.935 11-11s-4.935-11-11-11-11 4.935-11 11c0 2.673.961 5.125 2.552 7.034l-4.519 4.518c-1.667-1.391-3.751-2.294-6.034-2.501v-4.152c2.279-.465 4-2.484 4-4.899 0-2.757-2.243-5-5-5s-5 2.243-5 5c0 2.414 1.721 4.434 4 4.899v4.152c-2.283.207-4.366 1.111-6.034 2.501l-4.519-4.518c1.593-1.909 2.554-4.361 2.554-7.034 0-6.065-4.935-11-11-11s-11 4.935-11 11 4.935 11 11 11c2.673 0 5.125-.961 7.034-2.552l4.518 4.518c-1.391 1.667-2.295 3.751-2.502 6.034h-4.152c-.465-2.279-2.484-4-4.899-4-2.757 0-5 2.243-5 5s2.243 5 5 5c2.414 0 4.434-1.721 4.899-4h4.152c.207 2.283 1.111 4.367 2.502 6.034l-4.518 4.518c-1.909-1.591-4.361-2.552-7.034-2.552-6.065 0-11 4.935-11 11s4.935 11 11 11 11-4.935 11-11c0-2.673-.961-5.125-2.552-7.034l4.519-4.518c1.667 1.391 3.751 2.294 6.034 2.501v4.152c-2.279.465-4 2.484-4 4.899 0 2.757 2.243 5 5 5s5-2.243 5-5c0-2.414-1.721-4.434-4-4.899v-4.152c2.283-.207 4.366-1.111 6.034-2.501l4.519 4.518c-1.593 1.909-2.554 4.361-2.554 7.034 0 6.065 4.935 11 11 11s11-4.935 11-11-4.935-11-11-11zm0-12c1.654 0 3 1.346 3 3s-1.346 3-3 3-3-1.346-3-3 1.346-3 3-3zm-40 6c-1.654 0-3-1.346-3-3s1.346-3 3-3 3 1.346 3 3-1.346 3-3 3zm40-32c4.962 0 9 4.037 9 9s-4.038 9-9 9-9-4.037-9-9 4.038-9 9-9zm-23 9c0-1.654 1.346-3 3-3s3 1.346 3 3-1.346 3-3 3-3-1.346-3-3zm-17 9c-4.962 0-9-4.037-9-9s4.038-9 9-9 9 4.037 9 9-4.038 9-9 9zm0 40c-4.962 0-9-4.037-9-9s4.038-9 9-9 9 4.037 9 9-4.038 9-9 9zm23-9c0 1.654-1.346 3-3 3s-3-1.346-3-3 1.346-3 3-3 3 1.346 3 3zm-3-11c-4.962 0-9-4.037-9-9s4.038-9 9-9 9 4.037 9 9-4.038 9-9 9zm20 20c-4.962 0-9-4.037-9-9s4.038-9 9-9 9 4.037 9 9-4.038 9-9 9z"/><path d="m52 45c-2.206 0-4 1.794-4 4h-2v2h2v2h-2v2h2c0 2.206 1.794 4 4 4s4-1.794 4-4v-1h-2v1c0 1.103-.897 2-2 2s-2-.897-2-2h2v-2h-2v-2h2v-2h-2c0-1.103.897-2 2-2s2 .897 2 2v1h2v-1c0-2.206-1.794-4-4-4z"/><path d="m52 15c-.551 0-1-.448-1-1h-2c0 1.302.839 2.402 2 2.816v2.184h2v-2.184c1.161-.414 2-1.514 2-2.816 0-1.654-1.346-3-3-3-.551 0-1-.448-1-1s.449-1 1-1 1 .448 1 1h2c0-1.302-.839-2.402-2-2.816v-2.184h-2v2.184c-1.161.414-2 1.514-2 2.816 0 1.654 1.346 3 3 3 .551 0 1 .448 1 1s-.449 1-1 1z"/><path d="m15.293 6.293-3.293 3.293-3.293-3.293-1.414 1.414 3.293 3.293h-1.586v2h2v2h-2v2h2v2h2v-2h2v-2h-2v-2h2v-2h-1.586l3.293-3.293z"/><path d="m13 45c-1.654 0-3 1.346-3 3v3h-2v2h2v2c0 .552-.449 1-1 1h-1v2h5c1.654 0 3-1.346 3-3h-2c0 .552-.449 1-1 1h-1.171c.11-.312.171-.649.171-1v-2h2v-2h-2v-3c0-.552.449-1 1-1s1 .448 1 1v1h2v-1c0-1.654-1.346-3-3-3z"/></g></svg>