<?xml version="1.0"?>
<svg xmlns="http://www.w3.org/2000/svg" xmlns:xlink="http://www.w3.org/1999/xlink" xmlns:svgjs="http://svgjs.com/svgjs" version="1.1" width="512" height="512" x="0" y="0" viewBox="0 0 512 512" style="enable-background:new 0 0 512 512" xml:space="preserve"><g><g xmlns="http://www.w3.org/2000/svg" id="_15-bitcoin" data-name="15-bitcoin"><g id="linear_color" data-name="linear color"><path d="m480 198h-6v-134a10 10 0 0 0 -10-10h-384a74.083 74.083 0 0 0 -74 74v256a74.083 74.083 0 0 0 74 74h384a10 10 0 0 0 10-10v-134h6a10 10 0 0 0 10-10v-96a10 10 0 0 0 -10-10zm-96 96a22.025 22.025 0 0 1 -22-22v-32a22.025 22.025 0 0 1 22-22h86v76zm70 144h-374a54.061 54.061 0 0 1 -54-54v-256a54.061 54.061 0 0 1 54-54h374v124h-70a42.047 42.047 0 0 0 -42 42v32a42.047 42.047 0 0 0 42 42h70z" fill="#2453b6" data-original="#000000" style=""/><path d="m416 230a26 26 0 1 0 26 26 26.029 26.029 0 0 0 -26-26zm0 32a6 6 0 1 1 6-6 6.006 6.006 0 0 1 -6 6z" fill="#2453b6" data-original="#000000" style=""/><path d="m220 270h-60a10 10 0 0 0 -10 10v56a10 10 0 0 0 10 10h60a38 38 0 0 0 0-76zm0 56h-50v-36h50a18 18 0 0 1 0 36z" fill="#2453b6" data-original="#000000" style=""/><path d="m220 134h-10v-26a10 10 0 0 0 -20 0v26h-20v-26a10 10 0 0 0 -20 0v26h-30a10 10 0 0 0 -10 10v232a10 10 0 0 0 10 10h30v22a10 10 0 0 0 20 0v-22h20v22a10 10 0 0 0 20 0v-22h10a77.977 77.977 0 0 0 61.458-126 77.977 77.977 0 0 0 -61.458-126zm41.042 133.063a57.968 57.968 0 0 1 -41.042 98.937h-90v-212h90a57.969 57.969 0 0 1 41.042 98.938 10 10 0 0 0 0 14.125z" fill="#2453b6" data-original="#000000" style=""/><path d="m220 174h-60a10 10 0 0 0 -10 10v56a10 10 0 0 0 10 10h60a38 38 0 0 0 0-76zm0 56h-50v-36h50a18 18 0 0 1 0 36z" fill="#2453b6" data-original="#000000" style=""/></g></g></g></svg>
