<?xml version="1.0"?>
<svg xmlns="http://www.w3.org/2000/svg" xmlns:xlink="http://www.w3.org/1999/xlink" version="1.1" id="Capa_1" x="0px" y="0px" viewBox="0 0 512 512" style="enable-background:new 0 0 512 512;" xml:space="preserve" width="512px" height="512px"><g><g>
	<g>
		<g>
			<path d="M238.933,85.333c-94.257,0-170.667,76.41-170.667,170.667s76.41,170.667,170.667,170.667S409.6,350.257,409.6,256     C409.492,161.788,333.145,85.441,238.933,85.333z M213.333,407.288c-73.817-12.527-127.871-76.416-128-151.288     c0.129-74.872,54.183-138.761,128-151.288v57.421h-51.2c-4.713,0-8.533,3.821-8.533,8.533V204.8c0,4.713,3.82,8.533,8.533,8.533     H250l-101.954,87.388c-1.891,1.621-2.98,3.988-2.979,6.479v34.133c0,4.713,3.821,8.533,8.533,8.533h59.733V407.288z      M247.467,341.333v67.834c-2.842,0.157-5.653,0.432-8.533,0.432s-5.692-0.275-8.533-0.432v-67.834     c0-4.713-3.82-8.533-8.533-8.533h-59.733v-21.675l116.487-99.846c2.712-2.324,3.689-6.091,2.45-9.44     c-1.239-3.349-4.433-5.573-8.004-5.572h-102.4V179.2h51.2c4.713,0,8.533-3.821,8.533-8.533v-67.834     c2.842-0.157,5.653-0.432,8.533-0.432s5.692,0.275,8.533,0.432v67.834c0,4.713,3.82,8.533,8.533,8.533h59.733v21.675     l-116.487,99.846c-2.712,2.324-3.689,6.091-2.45,9.44c1.239,3.349,4.433,5.573,8.004,5.572h102.4V332.8H256     C251.287,332.8,247.467,336.621,247.467,341.333z M264.533,407.288L264.533,407.288v-57.421h51.2c4.713,0,8.533-3.82,8.533-8.533     V307.2c0-4.713-3.82-8.533-8.533-8.533h-87.867l101.954-87.388c1.891-1.621,2.98-3.988,2.979-6.479v-34.133     c0-4.713-3.82-8.533-8.533-8.533h-59.733v-57.421c73.885,12.408,128,76.368,128,151.288     C392.534,330.92,338.418,394.88,264.533,407.288z" data-original="#000000" className="active-path" data-old_color="#000000" fill="#FFFFFF"/>
			<path d="M235.688,67.583c1.027,0.438,2.13,0.67,3.246,0.683c2.262-0.018,4.431-0.904,6.059-2.475     c0.341-0.429,0.683-0.854,1.021-1.279c0.324-0.476,0.583-0.993,0.771-1.538c0.245-0.485,0.418-1.003,0.512-1.538     c0.094-0.564,0.151-1.133,0.171-1.704c0.02-3.467-2.059-6.601-5.261-7.931c-3.202-1.329-6.89-0.59-9.331,1.872     c-0.754,0.828-1.362,1.78-1.796,2.813c-0.437,1.027-0.667,2.13-0.679,3.246C230.32,63.206,232.439,66.352,235.688,67.583z" data-original="#000000" className="active-path" data-old_color="#000000" fill="#FFFFFF"/>
			<path d="M244.992,446.208c-3.34-3.313-8.73-3.298-12.052,0.032c-3.322,3.331-3.322,8.721,0,12.052     c3.322,3.331,8.712,3.345,12.052,0.032c1.571-1.627,2.457-3.796,2.475-6.058c-0.013-1.116-0.245-2.219-0.683-3.246     C246.37,447.978,245.762,447.023,244.992,446.208z" data-original="#000000" className="active-path" data-old_color="#000000" fill="#FFFFFF"/>
			<path d="M182.1,72.446c1.605,1.606,3.789,2.497,6.059,2.475c0.542,0.014,1.083-0.014,1.621-0.083     c0.6-0.171,1.108-0.341,1.621-0.513c0.512-0.234,0.997-0.52,1.45-0.854c0.497-0.244,0.936-0.594,1.283-1.025     c0.822-0.758,1.463-1.69,1.875-2.729c0.44-1.055,0.672-2.186,0.683-3.329c-0.012-1.115-0.244-2.217-0.683-3.242     c-0.413-1.04-1.054-1.973-1.875-2.733c-0.368-0.433-0.801-0.807-1.283-1.108c-0.425-0.254-0.938-0.513-1.45-0.767     c-0.513-0.171-1.021-0.341-1.621-0.513c-2.797-0.529-5.675,0.366-7.679,2.388c-0.768,0.805-1.402,1.728-1.879,2.733     c-0.41,1.031-0.612,2.132-0.596,3.242c-0.017,1.138,0.186,2.268,0.596,3.329C180.697,70.721,181.331,71.643,182.1,72.446z" data-original="#000000" className="active-path" data-old_color="#000000" fill="#FFFFFF"/>
			<path d="M286.462,437.675c-1.022,0.443-1.949,1.08-2.729,1.875c-1.63,1.596-2.553,3.778-2.562,6.059     c0.115,4.665,3.869,8.419,8.533,8.533c2.28-0.008,4.463-0.93,6.059-2.558c1.603-1.572,2.497-3.73,2.475-5.975     c0.023-2.27-0.869-4.454-2.475-6.059C293.306,437.141,289.661,436.406,286.462,437.675z" data-original="#000000" className="active-path" data-old_color="#000000" fill="#FFFFFF"/>
			<path d="M134.741,92.075c0.83,0.752,1.781,1.358,2.813,1.792c1.014,0.478,2.126,0.71,3.246,0.679     c0.571-0.014,1.141-0.07,1.704-0.167c0.535-0.095,1.053-0.268,1.538-0.513c0.544-0.187,1.062-0.447,1.537-0.771     c0.446-0.316,0.873-0.657,1.279-1.021c0.787-0.803,1.398-1.763,1.792-2.817c0.479-1.013,0.712-2.125,0.683-3.245     c-0.016-0.544-0.073-1.086-0.171-1.621c-0.082-0.564-0.255-1.112-0.513-1.621c-0.17-0.525-0.431-1.015-0.771-1.45     c-0.338-0.513-0.679-0.938-1.021-1.367c-0.429-0.341-0.854-0.679-1.279-1.021c-0.476-0.324-0.993-0.583-1.538-0.771     c-0.485-0.245-1.003-0.418-1.538-0.513c-1.663-0.347-3.393-0.168-4.95,0.513c-1.043,0.413-1.997,1.022-2.813,1.792     c-0.389,0.418-0.732,0.876-1.025,1.367c-0.34,0.435-0.601,0.925-0.771,1.45c-0.258,0.508-0.43,1.056-0.508,1.621     c-0.1,0.535-0.157,1.077-0.171,1.621c0.012,1.116,0.243,2.219,0.679,3.246C133.34,90.313,133.952,91.273,134.741,92.075z" data-original="#000000" className="active-path" data-old_color="#000000" fill="#FFFFFF"/>
			<path d="M340.308,418.133c-3.177-1.341-6.849-0.634-9.3,1.792c-0.792,0.801-1.404,1.761-1.796,2.817     c-0.437,1.026-0.667,2.127-0.679,3.242c0.022,3.852,2.622,7.211,6.345,8.198c3.723,0.988,7.646-0.641,9.575-3.975     c1.929-3.334,1.385-7.547-1.328-10.282C342.296,419.17,341.343,418.564,340.308,418.133z" data-original="#000000" className="active-path" data-old_color="#000000" fill="#FFFFFF"/>
			<path d="M100.179,125.779c1.115-0.011,2.217-0.244,3.242-0.683c1.04-0.412,1.975-1.053,2.733-1.875     c1.626-1.563,2.549-3.719,2.558-5.975c-0.008-2.28-0.93-4.463-2.558-6.059c-1.579-1.627-3.75-2.545-6.017-2.545     c-2.267,0-4.438,0.918-6.017,2.545c-0.393,0.405-0.763,0.832-1.108,1.279c-0.258,0.513-0.513,0.942-0.767,1.45     c-0.182,0.531-0.325,1.074-0.429,1.625c-0.141,0.556-0.199,1.131-0.171,1.704c-0.022,2.245,0.872,4.403,2.475,5.975     C95.707,124.863,97.896,125.787,100.179,125.779z" data-original="#000000" className="active-path" data-old_color="#000000" fill="#FFFFFF"/>
			<path d="M374.442,386.9c-2.05,0.917-3.691,2.558-4.608,4.608c-1.38,3.188-0.63,6.898,1.879,9.3     c0.78,0.797,1.707,1.435,2.729,1.879c1.031,0.41,2.132,0.612,3.242,0.596c2.273,0.04,4.463-0.855,6.059-2.475     c1.606-1.605,2.497-3.789,2.475-6.059c0.022-2.244-0.872-4.4-2.475-5.971C381.286,386.369,377.641,385.633,374.442,386.9z" data-original="#000000" className="active-path" data-old_color="#000000" fill="#FFFFFF"/>
			<path d="M62.888,163.925c0.831,0.752,1.783,1.358,2.817,1.792c2.066,0.911,4.421,0.911,6.487,0     c1.054-0.394,2.013-1.005,2.816-1.792c0.752-0.831,1.358-1.784,1.792-2.817c0.477-1.013,0.71-2.123,0.679-3.242     c-0.032-2.259-0.914-4.422-2.471-6.059c-0.802-0.79-1.762-1.402-2.816-1.795c-2.079-0.85-4.409-0.85-6.487,0     c-1.034,0.434-1.987,1.041-2.817,1.796c-1.558,1.636-2.441,3.8-2.475,6.059c0.014,1.115,0.246,2.216,0.683,3.242     C61.53,162.142,62.136,163.094,62.888,163.925z" data-original="#000000" className="active-path" data-old_color="#000000" fill="#FFFFFF"/>
			<path d="M402.859,348.075c-3.313,3.34-3.298,8.73,0.032,12.052c3.331,3.322,8.721,3.322,12.052,0     c3.331-3.322,3.345-8.712,0.032-12.052C411.549,344.93,406.286,344.93,402.859,348.075z" data-original="#000000" className="active-path" data-old_color="#000000" fill="#FFFFFF"/>
			<path d="M41.471,208.467c0.254,0.513,0.513,1.025,0.767,1.45c0.301,0.482,0.675,0.915,1.108,1.283     c1.564,1.625,3.719,2.548,5.975,2.558c1.143-0.011,2.274-0.243,3.329-0.683c1.039-0.412,1.972-1.053,2.729-1.875     c0.435-0.367,0.809-0.8,1.108-1.283c0.258-0.425,0.513-0.938,0.771-1.45c0.171-0.513,0.341-1.021,0.513-1.621     c0.069-0.537,0.097-1.079,0.083-1.621c0.023-2.27-0.869-4.454-2.475-6.059c-0.781-0.795-1.708-1.433-2.73-1.879     c-3.2-1.274-6.849-0.536-9.304,1.879c-1.629,1.596-2.55,3.778-2.558,6.059c0.016,0.544,0.073,1.086,0.171,1.621     C41.076,207.402,41.248,207.945,41.471,208.467z" data-original="#000000" className="active-path" data-old_color="#000000" fill="#FFFFFF"/>
			<polygon points="428.542,315.304 428.542,315.304 428.542,315.304    " data-original="#000000" className="active-path" data-old_color="#000000" fill="#FFFFFF"/>
			<path d="M422.483,300.8c-1.603,1.571-2.497,3.727-2.475,5.971c-0.022,2.27,0.87,4.453,2.475,6.058     c1.605,1.605,3.788,2.497,6.058,2.475c2.245,0.022,4.403-0.872,5.975-2.475c1.629-1.596,2.55-3.778,2.558-6.059     c-0.009-2.255-0.932-4.409-2.558-5.971C431.162,297.554,425.838,297.554,422.483,300.8z" data-original="#000000" className="active-path" data-old_color="#000000" fill="#FFFFFF"/>
			<path d="M48.725,262.059c1.557-1.637,2.44-3.8,2.475-6.059c-0.013-1.116-0.245-2.219-0.683-3.246     c-0.434-1.032-1.04-1.983-1.791-2.813c-0.429-0.341-0.854-0.683-1.279-1.025c-0.476-0.324-0.993-0.583-1.538-0.771     c-0.484-0.245-1.003-0.417-1.538-0.508c-1.663-0.348-3.393-0.171-4.95,0.508c-1.033,0.434-1.984,1.041-2.813,1.796     c-0.754,0.828-1.362,1.78-1.796,2.813c-0.436,1.027-0.667,2.13-0.679,3.246c0.032,2.259,0.916,4.423,2.475,6.059     c0.83,0.752,1.781,1.358,2.813,1.792c1.027,0.438,2.13,0.67,3.246,0.683C44.929,264.516,47.098,263.63,48.725,262.059z" data-original="#000000" className="active-path" data-old_color="#000000" fill="#FFFFFF"/>
			<path d="M429.141,249.941c-3.313,3.34-3.298,8.73,0.032,12.052c3.331,3.322,8.721,3.322,12.052,0     c3.331-3.322,3.345-8.712,0.032-12.052C437.831,246.797,432.568,246.797,429.141,249.941z" data-original="#000000" className="active-path" data-old_color="#000000" fill="#FFFFFF"/>
			<path d="M55.379,300.8c-2.003-2.024-4.881-2.921-7.679-2.392c-0.555,0.121-1.097,0.292-1.621,0.512     c-0.509,0.204-0.995,0.461-1.45,0.767c-0.484,0.301-0.917,0.677-1.283,1.112c-1.626,1.562-2.549,3.716-2.558,5.971     c0.008,2.28,0.93,4.463,2.558,6.059c0.346,0.433,0.785,0.783,1.283,1.025c0.453,0.334,0.938,0.62,1.45,0.854     c0.526,0.193,1.068,0.335,1.621,0.425c0.528,0.141,1.075,0.199,1.621,0.171c2.836-0.03,5.476-1.452,7.061-3.803     s1.913-5.332,0.877-7.972C56.813,302.507,56.175,301.581,55.379,300.8z" data-original="#000000" className="active-path" data-old_color="#000000" fill="#FFFFFF"/>
			<polygon points="428.542,213.758 428.542,213.758 428.542,213.758    " data-original="#000000" className="active-path" data-old_color="#000000" fill="#FFFFFF"/>
			<path d="M428.542,213.758c3.463,0.01,6.587-2.08,7.899-5.285c1.312-3.205,0.551-6.885-1.924-9.307     c-3.389-3.158-8.644-3.158-12.033,0c-2.462,2.441-3.201,6.129-1.872,9.331C421.941,211.699,425.075,213.778,428.542,213.758z" data-original="#000000" className="active-path" data-old_color="#000000" fill="#FFFFFF"/>
			<path d="M75.008,348.075c-2.453-2.425-6.125-3.133-9.304-1.796c-1.034,0.434-1.987,1.041-2.817,1.796     c-1.558,1.636-2.441,3.8-2.475,6.059c0.014,1.115,0.246,2.216,0.683,3.242c0.414,1.044,1.022,1.999,1.792,2.817     c0.831,0.752,1.783,1.358,2.817,1.792c1.025,0.437,2.127,0.669,3.241,0.683c3.476,0.083,6.625-2.039,7.854-5.292     c0.906-2.068,0.906-4.42,0-6.487C76.387,349.845,75.779,348.89,75.008,348.075z" data-original="#000000" className="active-path" data-old_color="#000000" fill="#FFFFFF"/>
			<path d="M408.917,166.4c4.024-0.039,7.462-2.911,8.218-6.863s-1.38-7.89-5.105-9.412c-3.726-1.522-8.007-0.205-10.235,3.146     c-2.227,3.352-1.783,7.809,1.063,10.654C404.495,165.482,406.658,166.366,408.917,166.4z" data-original="#000000" className="active-path" data-old_color="#000000" fill="#FFFFFF"/>
			<path d="M98.475,386.388c-0.553,0.133-1.096,0.304-1.625,0.513c-0.508,0.254-1.021,0.513-1.45,0.767     c-0.465,0.324-0.894,0.697-1.279,1.112c-1.603,1.571-2.497,3.727-2.475,5.971c-0.007,2.267,0.882,4.445,2.475,6.059     c0.385,0.415,0.813,0.787,1.279,1.108c0.513,0.258,0.942,0.512,1.45,0.771c0.513,0.171,1.112,0.341,1.625,0.513     c0.565,0.069,1.135,0.097,1.704,0.083c2.245,0.022,4.403-0.872,5.975-2.475c0.823-0.757,1.464-1.69,1.875-2.729     c0.432-1.058,0.664-2.187,0.683-3.329c-0.009-2.255-0.932-4.409-2.558-5.971C104.158,386.744,101.274,385.846,98.475,386.388z" data-original="#000000" className="active-path" data-old_color="#000000" fill="#FFFFFF"/>
			<path d="M374.442,125.096c3.187,1.379,6.896,0.631,9.3-1.875c1.603-1.572,2.497-3.73,2.475-5.975     c0.023-2.27-0.869-4.454-2.475-6.059c-1.578-1.628-3.748-2.546-6.015-2.546c-2.267,0-4.437,0.919-6.015,2.546     c-1.637,1.573-2.563,3.746-2.563,6.017s0.925,4.443,2.563,6.017C372.469,124.044,373.402,124.685,374.442,125.096z" data-original="#000000" className="active-path" data-old_color="#000000" fill="#FFFFFF"/>
			<path d="M144.042,418.133c-3.177-1.341-6.849-0.634-9.3,1.792c-3.313,3.34-3.298,8.73,0.032,12.052     c3.331,3.322,8.721,3.322,12.052,0c3.331-3.322,3.345-8.712,0.032-12.052C146.029,419.171,145.077,418.564,144.042,418.133z" data-original="#000000" className="active-path" data-old_color="#000000" fill="#FFFFFF"/>
			<path d="M337.067,94.546c1.119,0.031,2.229-0.202,3.242-0.679c1.033-0.434,1.986-1.04,2.817-1.792c3.3-3.366,3.3-8.754,0-12.121     c-0.831-0.752-1.783-1.358-2.817-1.792c-3.186-1.252-6.808-0.554-9.3,1.792c-0.754,0.83-1.362,1.783-1.796,2.817     c-0.436,1.026-0.667,2.127-0.679,3.242c0.017,2.263,0.903,4.434,2.475,6.063C332.645,93.631,334.808,94.514,337.067,94.546z" data-original="#000000" className="active-path" data-old_color="#000000" fill="#FFFFFF"/>
			<path d="M184.917,437.675c-1.06,0.421-2.02,1.06-2.817,1.875c-1.619,1.596-2.513,3.786-2.475,6.059     c-0.017,1.109,0.186,2.211,0.596,3.242c0.447,1.022,1.085,1.95,1.879,2.733c1.606,1.614,3.782,2.533,6.059,2.558     c2.256-0.009,4.412-0.932,5.975-2.558c0.821-0.76,1.462-1.694,1.875-2.733c1.379-3.187,0.631-6.896-1.876-9.3     C191.714,437.135,188.087,436.397,184.917,437.675z" data-original="#000000" className="active-path" data-old_color="#000000" fill="#FFFFFF"/>
			<path d="M286.462,74.325c2.088,0.794,4.395,0.794,6.483,0c1.06-0.423,2.019-1.063,2.817-1.879     c1.606-1.605,2.497-3.789,2.475-6.059c0.021-2.245-0.872-4.402-2.475-5.975c-0.774-0.843-1.74-1.486-2.817-1.875     c-2.625-1.052-5.601-0.744-7.954,0.825c-2.353,1.569-3.783,4.197-3.821,7.025c0.001,2.265,0.889,4.44,2.475,6.059     C284.474,73.224,285.426,73.86,286.462,74.325z" data-original="#000000" className="active-path" data-old_color="#000000" fill="#FFFFFF"/>
			<path d="M501.169,184.818c-0.071-0.192-0.11-0.387-0.194-0.572c-7.996-25.303-20.159-49.094-35.99-70.391     c-0.121-0.137-0.186-0.315-0.315-0.443c-45.036-60.611-116.093-96.341-191.604-96.346c-6.411,0-12.002,0.228-17.138,0.671     c-5.621-0.397-11.276-0.671-16.996-0.671C106.974,17.067,0,124.041,0,256s106.974,238.933,238.933,238.933     c5.72,0,11.375-0.274,16.996-0.671c5.136,0.443,10.726,0.671,17.138,0.671c75.511-0.005,146.568-35.735,191.604-96.346     c0.129-0.128,0.194-0.306,0.315-0.443c15.831-21.297,27.995-45.088,35.99-70.391c0.084-0.184,0.123-0.38,0.194-0.572     C515.61,280.826,515.61,231.174,501.169,184.818z M494.717,247.467H477.65c-0.582-17.283-3.045-34.451-7.344-51.2h16.392     C491.371,212.959,494.063,230.144,494.717,247.467z M454.116,128c11.235,15.807,20.346,33.02,27.098,51.2h-16.083     c-6.126-17.987-14.384-35.177-24.598-51.2H454.116z M440.723,110.933h-12.114c-16.157-21.082-35.69-39.346-57.808-54.052     C397.479,70.057,421.252,88.434,440.723,110.933z M238.933,477.867C116.457,477.728,17.205,378.476,17.067,256     c0-122.534,99.333-221.867,221.867-221.867S460.8,133.466,460.8,256S361.467,477.867,238.933,477.867z M370.801,455.118     c22.118-14.706,41.651-32.97,57.808-54.052h12.114C421.252,423.566,397.479,441.943,370.801,455.118z M454.116,384h-13.583     c10.214-16.023,18.472-33.213,24.598-51.2h16.083C474.462,350.98,465.352,368.193,454.116,384z M486.698,315.733h-16.392     c4.299-16.75,6.762-33.917,7.344-51.2h17.067C494.063,281.856,491.372,299.041,486.698,315.733z" data-original="#000000" className="active-path" data-old_color="#000000" fill="#FFFFFF"/>
		</g>
	</g>
</g></g> </svg>
